<?xml version="1.0" encoding="UTF-8"?>
<svg version="1.1" xmlns="http://www.w3.org/2000/svg" width="1686" height="1677">
<path d="M0 0 C4.3314515 0.01709021 8.66234926 0.00688559 12.99378204 -0.01032257 C44.82332016 -0.11714031 76.61398963 1.55921351 108.19775391 5.64111328 C109.4210994 5.79501526 109.4210994 5.79501526 110.66915894 5.95202637 C195.75623164 16.70088761 279.27433189 40.1720082 385.69775391 90.39111328 C386.8448584 90.96603516 387.99196289 91.54095703 389.17382812 92.13330078 C403.68722963 99.449034 417.8287547 107.30911508 431.77880859 115.64697266 C433.69334877 116.79095685 435.61058572 117.93044238 437.53076172 119.06494141 C470.17118484 138.35091168 501.2998314 160.46488532 530.69775391 184.39111328 C531.55240234 185.08333984 532.40705078 185.77556641 533.28759766 186.48876953 C543.11123373 194.48016359 552.8281483 202.59082666 562.18603516 211.12548828 C564.29766228 213.03022193 566.42874441 214.90597452 568.57275391 216.77392578 C580.78845263 227.44935337 592.2827086 238.87271798 603.76025391 250.32861328 C604.3963559 250.96212708 605.03245789 251.59564087 605.68783569 252.24835205 C617.98776985 264.50883602 617.98776985 264.50883602 623.26293945 270.71118164 C625.60951907 273.45864027 628.1014004 276.06886106 630.57275391 278.70361328 C635.03279747 283.49760468 639.26084944 288.41622324 643.36181641 293.52392578 C646.03650948 296.80691025 648.80009516 300.00351032 651.57275391 303.20361328 C656.94493223 309.43621916 662.09089113 315.81269901 667.11083984 322.33154297 C668.24670203 323.80571734 669.38573803 325.27744841 670.52685547 326.74755859 C679.37493836 338.15263605 687.88601851 349.70403443 695.90185547 361.70898438 C697.89161114 364.68063416 699.8999953 367.63926745 701.90869141 370.59814453 C717.26363717 393.28120962 731.51380818 416.48672214 744.29248047 440.73193359 C745.56736265 443.14437569 746.85888343 445.54672663 748.15869141 447.94580078 C767.80044564 484.38963559 784.0344175 522.33184841 797.69775391 561.39111328 C798.14458887 562.65536815 798.59169401 563.91952757 799.0390625 565.18359375 C827.44174373 645.70882918 843.59404243 732.63814762 844.08886719 833.69335938 C844.07177698 838.02481088 844.0819816 842.35570863 844.09918976 846.68714142 C844.2060075 878.51667953 842.52965368 910.30734901 838.44775391 941.89111328 C838.34515259 942.70667694 838.24255127 943.5222406 838.13684082 944.36251831 C827.38797958 1029.44959101 803.91685899 1112.96769127 753.69775391 1219.39111328 C753.12283203 1220.53821777 752.54791016 1221.68532227 751.95556641 1222.8671875 C744.63983318 1237.380589 736.77975211 1251.52211408 728.44189453 1265.47216797 C727.29791034 1267.38670814 726.1584248 1269.30394509 725.02392578 1271.22412109 C705.73795551 1303.86454421 683.62398187 1334.99319078 659.69775391 1364.39111328 C659.00552734 1365.24576172 658.31330078 1366.10041016 657.60009766 1366.98095703 C649.6087036 1376.80459311 641.49804052 1386.52150768 632.96337891 1395.87939453 C631.05864526 1397.99102166 629.18289267 1400.12210378 627.31494141 1402.26611328 C616.63951382 1414.481812 605.21614921 1425.97606797 593.76025391 1437.45361328 C593.12674011 1438.08971527 592.49322632 1438.72581726 591.84051514 1439.38119507 C579.58003117 1451.68112923 579.58003117 1451.68112923 573.37768555 1456.95629883 C570.63022692 1459.30287845 568.02000613 1461.79475977 565.38525391 1464.26611328 C560.5912625 1468.72615684 555.67264395 1472.95420881 550.56494141 1477.05517578 C547.28195693 1479.72986885 544.08535687 1482.49345453 540.88525391 1485.26611328 C534.65264803 1490.6382916 528.27616817 1495.78425051 521.75732422 1500.80419922 C520.28314985 1501.9400614 518.81141878 1503.0790974 517.34130859 1504.22021484 C505.93623114 1513.06829774 494.38483276 1521.57937789 482.37988281 1529.59521484 C479.40823303 1531.58497051 476.44959973 1533.59335467 473.49072266 1535.60205078 C450.80765756 1550.95699655 427.60214504 1565.20716756 403.35693359 1577.98583984 C400.94449149 1579.26072203 398.54214056 1580.55224281 396.14306641 1581.85205078 C359.6992316 1601.49380502 321.75701878 1617.72777687 282.69775391 1631.39111328 C281.43349903 1631.83794825 280.16933962 1632.28505339 278.90527344 1632.73242188 C198.38003801 1661.1351031 111.45071956 1677.2874018 10.39550781 1677.78222656 C6.06405631 1677.76513636 1.73315855 1677.77534097 -2.59827423 1677.79254913 C-34.42781235 1677.89936688 -66.21848182 1676.22301305 -97.80224609 1672.14111328 C-98.61780975 1672.03851196 -99.43337341 1671.93591064 -100.27365112 1671.8302002 C-185.36072383 1661.08133895 -268.87882408 1637.61021836 -375.30224609 1587.39111328 C-376.44935059 1586.81619141 -377.59645508 1586.24126953 -378.77832031 1585.64892578 C-393.29172182 1578.33319256 -407.43324689 1570.47311149 -421.38330078 1562.13525391 C-423.29784095 1560.99126971 -425.21507791 1559.85178418 -427.13525391 1558.71728516 C-459.77567702 1539.43131489 -490.90432359 1517.31734124 -520.30224609 1493.39111328 C-521.15689453 1492.69888672 -522.01154297 1492.00666016 -522.89208984 1491.29345703 C-532.71572592 1483.30206298 -542.43264049 1475.1913999 -551.79052734 1466.65673828 C-553.90215447 1464.75200464 -556.0332366 1462.87625204 -558.17724609 1461.00830078 C-570.39294481 1450.3328732 -581.88720078 1438.90950858 -593.36474609 1427.45361328 C-594.00084808 1426.82009949 -594.63695007 1426.18658569 -595.29232788 1425.53387451 C-607.59226204 1413.27339054 -607.59226204 1413.27339054 -612.86743164 1407.07104492 C-615.21401126 1404.32358629 -617.70589258 1401.7133655 -620.17724609 1399.07861328 C-624.63728965 1394.28462188 -628.86534162 1389.36600332 -632.96630859 1384.25830078 C-635.64100167 1380.97531631 -638.40458734 1377.77871625 -641.17724609 1374.57861328 C-646.54942442 1368.34600741 -651.69538332 1361.96952755 -656.71533203 1355.45068359 C-657.85119422 1353.97650923 -658.99023022 1352.50477816 -660.13134766 1351.03466797 C-668.97943055 1339.62959052 -677.4905107 1328.07819214 -685.50634766 1316.07324219 C-687.49610333 1313.10159241 -689.50448748 1310.14295911 -691.51318359 1307.18408203 C-706.86812936 1284.50101694 -721.11830037 1261.29550442 -733.89697266 1237.05029297 C-735.17185484 1234.63785087 -736.46337562 1232.23549993 -737.76318359 1229.83642578 C-757.40493783 1193.39259098 -773.63890968 1155.45037815 -787.30224609 1116.39111328 C-787.74908106 1115.12685841 -788.1961862 1113.86269899 -788.64355469 1112.59863281 C-817.04623591 1032.07339739 -833.19853462 945.14407894 -833.69335938 844.08886719 C-833.67626917 839.75741568 -833.68647378 835.42651793 -833.70368195 831.09508514 C-833.81049969 799.26554703 -832.13414587 767.47487755 -828.05224609 735.89111328 C-827.89834412 734.66776779 -827.89834412 734.66776779 -827.74133301 733.41970825 C-816.99247176 648.33263555 -793.52135117 564.81453529 -743.30224609 458.39111328 C-742.72732422 457.24400879 -742.15240234 456.0969043 -741.56005859 454.91503906 C-734.24432537 440.40163756 -726.3842443 426.26011248 -718.04638672 412.31005859 C-716.90240253 410.39551842 -715.76291699 408.47828147 -714.62841797 406.55810547 C-695.3424477 373.91768235 -673.22847405 342.78903579 -649.30224609 313.39111328 C-648.61001953 312.53646484 -647.91779297 311.68181641 -647.20458984 310.80126953 C-639.21319579 300.97763345 -631.10253271 291.26071888 -622.56787109 281.90283203 C-620.66313745 279.7912049 -618.78738486 277.66012278 -616.91943359 275.51611328 C-606.24400601 263.30041456 -594.8206414 251.80615859 -583.36474609 240.32861328 C-582.7312323 239.69251129 -582.09771851 239.0564093 -581.44500732 238.40103149 C-569.18452336 226.10109734 -569.18452336 226.10109734 -562.98217773 220.82592773 C-560.2347191 218.47934811 -557.62449831 215.98746679 -554.98974609 213.51611328 C-550.19575469 209.05606972 -545.27713614 204.82801775 -540.16943359 200.72705078 C-536.88644912 198.05235771 -533.68984906 195.28877203 -530.48974609 192.51611328 C-524.25714022 187.14393496 -517.88066036 181.99797605 -511.36181641 176.97802734 C-509.88764204 175.84216516 -508.41591097 174.70312916 -506.94580078 173.56201172 C-495.54072333 164.71392882 -483.98932495 156.20284867 -471.984375 148.18701172 C-469.01272522 146.19725605 -466.05409192 144.18887189 -463.09521484 142.18017578 C-440.41214975 126.82523001 -417.20663723 112.57505901 -392.96142578 99.79638672 C-390.54898368 98.52150454 -388.14663274 97.22998376 -385.74755859 95.93017578 C-349.30372379 76.28842155 -311.36151096 60.05444969 -272.30224609 46.39111328 C-271.03799122 45.94427831 -269.77383181 45.49717317 -268.50976562 45.04980469 C-187.9845302 16.64712346 -101.05521175 0.49482476 0 0 Z " fill="#CFE2E4" transform="translate(837.30224609375,-0.39111328125)"/>
<path d="M0 0 C4.3314515 0.01709021 8.66234926 0.00688559 12.99378204 -0.01032257 C44.82332016 -0.11714031 76.61398963 1.55921351 108.19775391 5.64111328 C109.4210994 5.79501526 109.4210994 5.79501526 110.66915894 5.95202637 C195.75623164 16.70088761 279.27433189 40.1720082 385.69775391 90.39111328 C386.8448584 90.96603516 387.99196289 91.54095703 389.17382812 92.13330078 C403.68722963 99.449034 417.8287547 107.30911508 431.77880859 115.64697266 C433.69334877 116.79095685 435.61058572 117.93044238 437.53076172 119.06494141 C470.17118484 138.35091168 501.2998314 160.46488532 530.69775391 184.39111328 C531.55240234 185.08333984 532.40705078 185.77556641 533.28759766 186.48876953 C543.11123373 194.48016359 552.8281483 202.59082666 562.18603516 211.12548828 C564.29766228 213.03022193 566.42874441 214.90597452 568.57275391 216.77392578 C580.78845263 227.44935337 592.2827086 238.87271798 603.76025391 250.32861328 C604.3963559 250.96212708 605.03245789 251.59564087 605.68783569 252.24835205 C617.98776985 264.50883602 617.98776985 264.50883602 623.26293945 270.71118164 C625.60951907 273.45864027 628.1014004 276.06886106 630.57275391 278.70361328 C635.03279747 283.49760468 639.26084944 288.41622324 643.36181641 293.52392578 C646.03650948 296.80691025 648.80009516 300.00351032 651.57275391 303.20361328 C656.94493223 309.43621916 662.09089113 315.81269901 667.11083984 322.33154297 C668.24670203 323.80571734 669.38573803 325.27744841 670.52685547 326.74755859 C679.37493836 338.15263605 687.88601851 349.70403443 695.90185547 361.70898438 C697.89161114 364.68063416 699.8999953 367.63926745 701.90869141 370.59814453 C717.26363717 393.28120962 731.51380818 416.48672214 744.29248047 440.73193359 C745.56736265 443.14437569 746.85888343 445.54672663 748.15869141 447.94580078 C767.80044564 484.38963559 784.0344175 522.33184841 797.69775391 561.39111328 C798.14458887 562.65536815 798.59169401 563.91952757 799.0390625 565.18359375 C827.44174373 645.70882918 843.59404243 732.63814762 844.08886719 833.69335938 C844.07177698 838.02481088 844.0819816 842.35570863 844.09918976 846.68714142 C844.2060075 878.51667953 842.52965368 910.30734901 838.44775391 941.89111328 C838.34515259 942.70667694 838.24255127 943.5222406 838.13684082 944.36251831 C827.38797958 1029.44959101 803.91685899 1112.96769127 753.69775391 1219.39111328 C753.12283203 1220.53821777 752.54791016 1221.68532227 751.95556641 1222.8671875 C744.63983318 1237.380589 736.77975211 1251.52211408 728.44189453 1265.47216797 C727.29791034 1267.38670814 726.1584248 1269.30394509 725.02392578 1271.22412109 C705.73795551 1303.86454421 683.62398187 1334.99319078 659.69775391 1364.39111328 C659.00552734 1365.24576172 658.31330078 1366.10041016 657.60009766 1366.98095703 C649.6087036 1376.80459311 641.49804052 1386.52150768 632.96337891 1395.87939453 C631.05864526 1397.99102166 629.18289267 1400.12210378 627.31494141 1402.26611328 C616.63951382 1414.481812 605.21614921 1425.97606797 593.76025391 1437.45361328 C593.12674011 1438.08971527 592.49322632 1438.72581726 591.84051514 1439.38119507 C579.58003117 1451.68112923 579.58003117 1451.68112923 573.37768555 1456.95629883 C570.63022692 1459.30287845 568.02000613 1461.79475977 565.38525391 1464.26611328 C560.5912625 1468.72615684 555.67264395 1472.95420881 550.56494141 1477.05517578 C547.28195693 1479.72986885 544.08535687 1482.49345453 540.88525391 1485.26611328 C534.65264803 1490.6382916 528.27616817 1495.78425051 521.75732422 1500.80419922 C520.28314985 1501.9400614 518.81141878 1503.0790974 517.34130859 1504.22021484 C505.93623114 1513.06829774 494.38483276 1521.57937789 482.37988281 1529.59521484 C479.40823303 1531.58497051 476.44959973 1533.59335467 473.49072266 1535.60205078 C450.80765756 1550.95699655 427.60214504 1565.20716756 403.35693359 1577.98583984 C400.94449149 1579.26072203 398.54214056 1580.55224281 396.14306641 1581.85205078 C359.6992316 1601.49380502 321.75701878 1617.72777687 282.69775391 1631.39111328 C281.43349903 1631.83794825 280.16933962 1632.28505339 278.90527344 1632.73242188 C198.38003801 1661.1351031 111.45071956 1677.2874018 10.39550781 1677.78222656 C6.06405631 1677.76513636 1.73315855 1677.77534097 -2.59827423 1677.79254913 C-34.42781235 1677.89936688 -66.21848182 1676.22301305 -97.80224609 1672.14111328 C-98.61780975 1672.03851196 -99.43337341 1671.93591064 -100.27365112 1671.8302002 C-185.36072383 1661.08133895 -268.87882408 1637.61021836 -375.30224609 1587.39111328 C-376.44935059 1586.81619141 -377.59645508 1586.24126953 -378.77832031 1585.64892578 C-393.29172182 1578.33319256 -407.43324689 1570.47311149 -421.38330078 1562.13525391 C-423.29784095 1560.99126971 -425.21507791 1559.85178418 -427.13525391 1558.71728516 C-459.77567702 1539.43131489 -490.90432359 1517.31734124 -520.30224609 1493.39111328 C-521.15689453 1492.69888672 -522.01154297 1492.00666016 -522.89208984 1491.29345703 C-532.71572592 1483.30206298 -542.43264049 1475.1913999 -551.79052734 1466.65673828 C-553.90215447 1464.75200464 -556.0332366 1462.87625204 -558.17724609 1461.00830078 C-570.39294481 1450.3328732 -581.88720078 1438.90950858 -593.36474609 1427.45361328 C-594.00084808 1426.82009949 -594.63695007 1426.18658569 -595.29232788 1425.53387451 C-607.59226204 1413.27339054 -607.59226204 1413.27339054 -612.86743164 1407.07104492 C-615.21401126 1404.32358629 -617.70589258 1401.7133655 -620.17724609 1399.07861328 C-624.63728965 1394.28462188 -628.86534162 1389.36600332 -632.96630859 1384.25830078 C-635.64100167 1380.97531631 -638.40458734 1377.77871625 -641.17724609 1374.57861328 C-646.54942442 1368.34600741 -651.69538332 1361.96952755 -656.71533203 1355.45068359 C-657.85119422 1353.97650923 -658.99023022 1352.50477816 -660.13134766 1351.03466797 C-668.97943055 1339.62959052 -677.4905107 1328.07819214 -685.50634766 1316.07324219 C-687.49610333 1313.10159241 -689.50448748 1310.14295911 -691.51318359 1307.18408203 C-706.86812936 1284.50101694 -721.11830037 1261.29550442 -733.89697266 1237.05029297 C-735.17185484 1234.63785087 -736.46337562 1232.23549993 -737.76318359 1229.83642578 C-757.40493783 1193.39259098 -773.63890968 1155.45037815 -787.30224609 1116.39111328 C-787.74908106 1115.12685841 -788.1961862 1113.86269899 -788.64355469 1112.59863281 C-817.04623591 1032.07339739 -833.19853462 945.14407894 -833.69335938 844.08886719 C-833.67626917 839.75741568 -833.68647378 835.42651793 -833.70368195 831.09508514 C-833.81049969 799.26554703 -832.13414587 767.47487755 -828.05224609 735.89111328 C-827.89834412 734.66776779 -827.89834412 734.66776779 -827.74133301 733.41970825 C-816.99247176 648.33263555 -793.52135117 564.81453529 -743.30224609 458.39111328 C-742.72732422 457.24400879 -742.15240234 456.0969043 -741.56005859 454.91503906 C-734.24432537 440.40163756 -726.3842443 426.26011248 -718.04638672 412.31005859 C-716.90240253 410.39551842 -715.76291699 408.47828147 -714.62841797 406.55810547 C-695.3424477 373.91768235 -673.22847405 342.78903579 -649.30224609 313.39111328 C-648.61001953 312.53646484 -647.91779297 311.68181641 -647.20458984 310.80126953 C-639.21319579 300.97763345 -631.10253271 291.26071888 -622.56787109 281.90283203 C-620.66313745 279.7912049 -618.78738486 277.66012278 -616.91943359 275.51611328 C-606.24400601 263.30041456 -594.8206414 251.80615859 -583.36474609 240.32861328 C-582.7312323 239.69251129 -582.09771851 239.0564093 -581.44500732 238.40103149 C-569.18452336 226.10109734 -569.18452336 226.10109734 -562.98217773 220.82592773 C-560.2347191 218.47934811 -557.62449831 215.98746679 -554.98974609 213.51611328 C-550.19575469 209.05606972 -545.27713614 204.82801775 -540.16943359 200.72705078 C-536.88644912 198.05235771 -533.68984906 195.28877203 -530.48974609 192.51611328 C-524.25714022 187.14393496 -517.88066036 181.99797605 -511.36181641 176.97802734 C-509.88764204 175.84216516 -508.41591097 174.70312916 -506.94580078 173.56201172 C-495.54072333 164.71392882 -483.98932495 156.20284867 -471.984375 148.18701172 C-469.01272522 146.19725605 -466.05409192 144.18887189 -463.09521484 142.18017578 C-440.41214975 126.82523001 -417.20663723 112.57505901 -392.96142578 99.79638672 C-390.54898368 98.52150454 -388.14663274 97.22998376 -385.74755859 95.93017578 C-349.30372379 76.28842155 -311.36151096 60.05444969 -272.30224609 46.39111328 C-271.03799122 45.94427831 -269.77383181 45.49717317 -268.50976562 45.04980469 C-187.9845302 16.64712346 -101.05521175 0.49482476 0 0 Z M-56.30224609 134.39111328 C-58.09154541 134.54386719 -58.09154541 134.54386719 -59.91699219 134.69970703 C-77.43436722 136.206578 -94.6298039 138.76222552 -111.93261719 141.81494141 C-115.25132878 142.38240694 -118.57409403 142.89658008 -121.90380859 143.39501953 C-128.19799003 144.34982455 -134.43672182 145.51026049 -140.67724609 146.76611328 C-141.77085449 146.985979 -142.86446289 147.20584473 -143.99121094 147.43237305 C-151.51051061 148.9693228 -158.88505159 150.74543963 -166.27099609 152.83447266 C-168.6070983 153.47465451 -170.95275168 154.06760607 -173.30224609 154.65673828 C-184.4191277 157.45590347 -195.41512124 160.55980803 -206.36474609 163.95361328 C-208.12842529 164.49924927 -208.12842529 164.49924927 -209.92773438 165.0559082 C-218.13021135 167.62877066 -226.22839049 170.44088709 -234.30224609 173.39111328 C-235.41913818 173.7980542 -236.53603027 174.20499512 -237.68676758 174.62426758 C-255.55648777 181.18282822 -273.04025715 188.34897345 -290.30224609 196.39111328 C-291.23611145 196.82614166 -291.23611145 196.82614166 -292.18884277 197.2699585 C-309.1506994 205.18638254 -325.7076697 213.54979252 -341.88330078 222.9921875 C-344.07389128 224.259051 -346.27775665 225.49277972 -348.49755859 226.70751953 C-365.77062392 236.16089061 -382.21162039 247.0601774 -398.30224609 258.39111328 C-398.88345215 258.79749023 -399.4646582 259.20386719 -400.06347656 259.62255859 C-415.04184846 270.10278166 -429.41656602 281.34395974 -443.53759766 292.94677734 C-445.12630832 294.24711108 -446.72537634 295.53476575 -448.32568359 296.82080078 C-454.27299981 301.60932759 -459.92828647 306.63714561 -465.52099609 311.82861328 C-467.81011831 313.93769218 -470.12699773 315.9909004 -472.48974609 318.01611328 C-476.21338009 321.23863712 -479.64208702 324.71516973 -483.09912109 328.21923828 C-485.02599397 330.11877963 -486.99063523 331.89134272 -489.05224609 333.64111328 C-497.04440176 340.51212487 -504.55714647 348.14409283 -511.37255859 356.18017578 C-513.51319648 358.63280948 -515.73032938 361.00154207 -517.95898438 363.37402344 C-523.21539856 368.97100665 -528.27395916 374.63941669 -533.07568359 380.63720703 C-535.06894964 383.1025624 -537.11165738 385.51621371 -539.17993164 387.91870117 C-545.63803748 395.43611561 -551.68007868 403.23926169 -557.62841797 411.1640625 C-558.72209296 412.61921175 -559.81959294 414.07149615 -560.92138672 415.52050781 C-576.54602878 436.07154094 -591.02470952 457.70270886 -603.94873047 480.05322266 C-605.33001098 482.43907081 -606.72950067 484.81359915 -608.13037109 487.18798828 C-634.83273067 532.79721797 -656.08808458 581.78073926 -671.30224609 632.39111328 C-671.71486404 633.73751112 -672.12759981 635.08387286 -672.54052734 636.43017578 C-687.66717509 686.92567624 -695.7525287 737.98458593 -700.30224609 790.39111328 C-700.41858398 791.70515137 -700.53492188 793.01918945 -700.65478516 794.37304688 C-701.58877407 806.72447266 -701.45282185 819.10806137 -701.43261719 831.48730469 C-701.42729575 835.35502106 -701.43256868 839.22261935 -701.43896484 843.09033203 C-701.44684448 865.24557357 -700.79453279 887.2256492 -698.48974609 909.26611328 C-698.35860916 910.54740616 -698.35860916 910.54740616 -698.224823 911.85458374 C-696.72548251 926.44993512 -694.83413801 940.93572308 -692.30224609 955.39111328 C-692.03009277 956.97811035 -692.03009277 956.97811035 -691.75244141 958.59716797 C-687.14959768 985.25563465 -681.29302202 1011.53591466 -673.30224609 1037.39111328 C-672.84773071 1038.885177 -672.84773071 1038.885177 -672.3840332 1040.40942383 C-655.69439799 1095.13785102 -633.80359749 1148.61596342 -604.00097656 1197.59667969 C-602.22221615 1200.52276357 -600.46625324 1203.46175898 -598.71240234 1206.40283203 C-591.95543237 1217.68273051 -584.92269109 1228.67696024 -577.30224609 1239.39111328 C-576.47506817 1240.56664481 -575.64824127 1241.74242342 -574.82177734 1242.91845703 C-562.22008168 1260.77607343 -548.94695382 1278.15712038 -534.71142578 1294.74365234 C-533.2782207 1296.41920118 -531.85574872 1298.10338302 -530.43505859 1299.78955078 C-520.83662458 1311.14406921 -510.78303189 1322.050893 -500.18115234 1332.47705078 C-498.43204219 1334.25888857 -496.829024 1336.09202749 -495.23974609 1338.01611328 C-492.63086818 1341.13681465 -489.73433097 1343.68150868 -486.63818359 1346.30908203 C-483.74058453 1348.89172468 -481.0274726 1351.62891583 -478.30224609 1354.39111328 C-473.79568494 1358.94145444 -469.18387552 1363.24256131 -464.30224609 1367.39111328 C-463.22554437 1368.32986475 -462.15014761 1369.27011394 -461.07568359 1370.21142578 C-446.60223238 1382.87423225 -431.81875249 1395.02634067 -416.30224609 1406.39111328 C-415.25713867 1407.16189209 -415.25713867 1407.16189209 -414.19091797 1407.94824219 C-382.90128724 1431.00413283 -349.81207534 1451.21779199 -315.21289062 1468.89990234 C-312.35998958 1470.36152955 -309.51662342 1471.84057282 -306.67333984 1473.32080078 C-280.49914007 1486.81725807 -253.12140433 1497.78821448 -225.30224609 1507.39111328 C-224.64949707 1507.61714233 -223.99674805 1507.84317139 -223.32421875 1508.0760498 C-180.37226578 1522.91166899 -136.27131417 1532.99596365 -91.30224609 1539.39111328 C-90.25246582 1539.54177246 -89.20268555 1539.69243164 -88.12109375 1539.84765625 C-80.86356868 1540.86560417 -73.59509046 1541.67237818 -66.30224609 1542.39111328 C-65.31680817 1542.49132782 -65.31680817 1542.49132782 -64.3114624 1542.59356689 C-17.59635332 1547.32595194 29.99747856 1547.28179974 76.69775391 1542.39111328 C77.84377075 1542.27159302 77.84377075 1542.27159302 79.01293945 1542.1496582 C94.28815134 1540.53979821 109.45887915 1538.55275878 124.56872559 1535.78106689 C126.64119716 1535.40147224 128.71471497 1535.02817928 130.78857422 1534.65625 C162.03174796 1529.02186985 193.01022407 1521.96706726 222.96582031 1511.34130859 C225.77423549 1510.36451218 228.59601405 1509.44490152 231.42822266 1508.53955078 C278.52930298 1493.4355062 324.48187016 1472.13870648 366.69775391 1446.39111328 C368.87718939 1445.08079819 371.05688622 1443.7709177 373.23681641 1442.46142578 C385.94638027 1434.78038023 398.31902201 1426.76267508 410.36279297 1418.07470703 C412.7149785 1416.37869371 415.07647803 1414.69636518 417.43994141 1413.01611328 C426.72946287 1406.38906363 435.81240687 1399.55054982 444.69775391 1392.39111328 C445.62716797 1391.64474609 446.55658203 1390.89837891 447.51416016 1390.12939453 C457.69240381 1381.87716496 467.64459832 1373.33959642 477.34228516 1364.52783203 C478.93495486 1363.08307195 480.53682247 1361.64839709 482.14697266 1360.22314453 C487.69302881 1355.30395815 492.95613507 1350.16348046 498.16259766 1344.89111328 C500.19871377 1342.88323298 502.24320651 1341.01854268 504.44775391 1339.20361328 C507.50714993 1336.66129828 509.98015321 1333.82181456 512.54931641 1330.79345703 C515.31404104 1327.70199222 518.24784759 1324.80477587 521.19775391 1321.89111328 C525.91386555 1317.21672542 530.41653414 1312.47052657 534.69775391 1307.39111328 C536.04586582 1305.8318513 537.39400192 1304.2726102 538.74243164 1302.71362305 C550.57762636 1288.98997519 561.98454588 1275.00955983 572.69775391 1260.39111328 C573.20097168 1259.71032715 573.70418945 1259.02954102 574.22265625 1258.328125 C595.72591826 1229.22112521 615.05713924 1198.52996631 631.69775391 1166.39111328 C632.00777344 1165.79298828 632.31779297 1165.19486328 632.63720703 1164.57861328 C656.61752372 1118.24538662 676.7339692 1069.05253922 688.99365234 1018.24511719 C689.81594119 1014.91205319 690.72560133 1011.60870922 691.64697266 1008.30200195 C700.72791569 975.37996842 705.69145595 940.83228684 709.01025391 906.89111328 C709.13222137 905.65800919 709.13222137 905.65800919 709.25665283 904.3999939 C711.37535294 882.64900853 711.90605501 860.92362242 711.88525391 839.07861328 C711.88464966 837.89690552 711.88404541 836.71519775 711.88342285 835.49768066 C711.84200404 805.52965876 709.81460778 776.10200992 705.95556641 746.39306641 C705.54650801 743.21666596 705.15584051 740.03796585 704.76025391 736.85986328 C700.5800264 704.15573044 693.57013263 671.8473662 683.69775391 640.39111328 C683.03004465 638.22476769 682.36326101 636.0581364 681.69775391 633.89111328 C681.37677734 632.86373047 681.05580078 631.83634766 680.72509766 630.77783203 C679.97531555 628.30611686 679.26247661 625.83733995 678.57666016 623.34814453 C655.75256978 541.92309174 610.7278886 463.69954217 551.19042969 390.22021484 C549.87131407 388.60379119 548.56299715 386.97856808 547.25634766 385.35205078 C542.47082088 379.41080645 537.44725117 373.76025699 532.26025391 368.17236328 C530.15117501 365.88324106 528.09796679 363.56636164 526.07275391 361.20361328 C522.85505114 357.48555004 519.38424038 354.06156615 515.88525391 350.60986328 C513.90055049 348.59680696 512.03678474 346.53664926 510.19775391 344.39111328 C504.5283138 337.80513551 498.32096889 331.85386898 491.72900391 326.20361328 C489.46136818 324.18018448 487.3319844 322.05457981 485.19775391 319.89111328 C481.19019163 315.84272694 477.03060769 312.08528845 472.69775391 308.39111328 C471.68031308 307.51019588 470.66343112 306.62863277 469.64697266 305.74658203 C454.4902427 292.62524084 438.83166827 280.28899794 422.69775391 268.39111328 C421.93172852 267.82360352 421.16570312 267.25609375 420.37646484 266.67138672 C392.76211054 246.25139307 363.18903743 228.17866174 332.69775391 212.39111328 C332.09962891 212.08109375 331.50150391 211.77107422 330.88525391 211.45166016 C302.56511206 196.79423137 273.63034454 184.42792091 243.69775391 173.39111328 C242.57111328 172.97168457 241.44447266 172.55225586 240.28369141 172.12011719 C227.96101948 167.53699228 215.68533704 163.32002668 202.96386719 159.99902344 C199.64212621 159.10792938 196.34570716 158.13423567 193.04541016 157.16723633 C172.89308898 151.28762647 152.57139995 147.09946124 131.90933228 143.49124146 C127.47877029 142.71499504 123.05954073 141.89317619 118.64306641 141.03955078 C103.98270398 138.26508952 89.35861549 136.50569874 74.51025391 135.14111328 C73.60704407 135.05802917 72.70383423 134.97494507 71.77325439 134.88934326 C65.75148988 134.34335714 59.72702224 133.84659182 53.69775391 133.39111328 C52.97652344 133.33563324 52.25529297 133.2801532 51.51220703 133.22299194 C36.55305567 132.11296047 21.56498884 132.19215177 6.57275391 132.20361328 C5.5760071 132.20379267 5.5760071 132.20379267 4.55912399 132.20397568 C-15.80819892 132.20861155 -36.01149089 132.51142645 -56.30224609 134.39111328 Z " fill="#2B4C5B" transform="translate(837.30224609375,-0.39111328125)"/>
<path d="M0 0 C3.88276211 -0.00218214 7.76523715 -0.02040131 11.64794922 -0.03930664 C27.04031586 -0.07366923 42.22553921 0.57430719 57.55450439 1.95022583 C61.25114185 2.26851961 64.94824506 2.49748131 68.65185547 2.72045898 C111.72427034 5.60401524 155.45414383 13.98309121 196.77539062 26.44799805 C199.30407633 27.19100552 201.84247067 27.87766919 204.39013672 28.55249023 C243.65296526 39.14930458 281.62362069 55.62100123 318.015625 73.57641602 C320.90984163 75.00082883 323.81167854 76.40745652 326.71826172 77.80639648 C339.98299518 84.23979874 352.64000334 91.61760098 365.28466797 99.18530273 C366.27466797 99.7739209 367.26466797 100.36253906 368.28466797 100.96899414 C381.62545877 108.90983656 394.59231142 117.24559838 407.28466797 126.18530273 C407.91131348 126.62293945 408.53795898 127.06057617 409.18359375 127.51147461 C424.12334535 137.94610362 438.44409956 149.17521607 452.52001953 160.7409668 C454.10873019 162.04130054 455.70779822 163.32895521 457.30810547 164.61499023 C463.25542169 169.40351705 468.91070835 174.43133507 474.50341797 179.62280273 C476.79254019 181.73188163 479.10941961 183.78508986 481.47216797 185.81030273 C485.19023121 189.0280055 488.6142151 192.49881626 492.06591797 195.99780273 C494.07897429 197.98250615 496.13913199 199.8462719 498.28466797 201.68530273 C504.87064574 207.35474284 510.82191227 213.56208775 516.47216797 220.15405273 C518.49559677 222.42168846 520.62120144 224.55107224 522.78466797 226.68530273 C526.83305431 230.69286501 530.5904928 234.85244895 534.28466797 239.18530273 C535.16558537 240.20274356 536.04714848 241.21962552 536.92919922 242.23608398 C550.05087633 257.39320198 562.38260724 273.05403454 574.28466797 289.18530273 C575.11998047 290.3104126 575.11998047 290.3104126 575.97216797 291.45825195 C589.91811377 310.26935493 602.46230283 329.98222115 614.28466797 350.18530273 C614.75404785 350.97984863 615.22342773 351.77439453 615.70703125 352.59301758 C642.46327017 397.95671282 664.51375343 446.90340629 679.47216797 497.45483398 C680.02583725 499.3154822 680.61057581 501.16710011 681.22216797 503.00952148 C681.51091797 503.8925293 681.79966797 504.77553711 682.09716797 505.68530273 C682.35111328 506.43811523 682.60505859 507.19092773 682.86669922 507.96655273 C683.3679364 510.62732582 682.95790915 512.58393546 682.28466797 515.18530273 C680.96466797 515.51530273 679.64466797 515.84530273 678.28466797 516.18530273 C678.28466797 516.84530273 678.28466797 517.50530273 678.28466797 518.18530273 C676.49430339 519.16186523 674.7039388 520.13842773 672.91357422 521.11499023 C671.11848482 522.09940298 671.11848482 522.09940298 670.28466797 524.18530273 C668.68202239 525.10597147 667.07630952 526.02166295 665.45654297 526.91186523 C660.48373922 529.8275739 655.73170476 533.24247579 651.21826172 536.82592773 C648.45920883 538.76562552 645.52785135 539.37450689 642.28466797 540.18530273 C642.28466797 540.84530273 642.28466797 541.50530273 642.28466797 542.18530273 C641.52154297 542.45342773 640.75841797 542.72155273 639.97216797 542.99780273 C637.32500629 543.96861395 637.32500629 543.96861395 635.8996582 545.60180664 C634.00335816 547.46112669 632.11316335 548.48662933 629.75732422 549.70874023 C628.88269531 550.17280273 628.00806641 550.63686523 627.10693359 551.11499023 C625.27336057 552.07524787 623.43742799 553.03101397 621.59912109 553.98217773 C616.73862447 556.57158138 613.57352197 558.67614997 610.28466797 563.18530273 C607.58544922 565.02905273 607.58544922 565.02905273 604.59716797 566.68530273 C603.53755859 567.28084961 602.47794922 567.87639648 601.38623047 568.48999023 C599.50672842 569.51732511 597.62667607 570.54365525 595.74560547 571.56811523 C587.74149937 575.91424219 587.74149937 575.91424219 580.78076172 581.72827148 C578.22984896 584.21258077 574.89126505 586.18530273 571.28466797 586.18530273 C571.28466797 586.84530273 571.28466797 587.50530273 571.28466797 588.18530273 C570.50091797 588.45342773 569.71716797 588.72155273 568.90966797 588.99780273 C566.00351874 590.03344706 566.00351874 590.03344706 564.28466797 593.18530273 C562.15576172 594.50170898 562.15576172 594.50170898 559.72216797 595.74780273 C556.35682854 597.31140535 556.35682854 597.31140535 554.28466797 600.18530273 C553.29466797 600.18530273 552.30466797 600.18530273 551.28466797 600.18530273 C551.28466797 600.84530273 551.28466797 601.50530273 551.28466797 602.18530273 C549.64013672 603.47436523 549.64013672 603.47436523 547.47216797 604.81030273 C546.76447266 605.25631836 546.05677734 605.70233398 545.32763672 606.16186523 C543.28466797 607.18530273 543.28466797 607.18530273 540.28466797 607.18530273 C540.28466797 607.84530273 540.28466797 608.50530273 540.28466797 609.18530273 C538.6310139 610.2066773 536.96090295 611.20142568 535.28466797 612.18530273 C534.31529297 613.03092773 533.34591797 613.87655273 532.34716797 614.74780273 C529.31205036 617.16350859 527.00171408 618.21179066 523.28466797 619.18530273 C523.28466797 619.84530273 523.28466797 620.50530273 523.28466797 621.18530273 C521.63645553 622.21543551 519.96355238 623.2059535 518.28466797 624.18530273 C516.94100422 625.17137855 515.60831301 626.17251372 514.28466797 627.18530273 C511.37806764 629.399336 508.42635994 631.31726967 505.28466797 633.18530273 C504.45966797 633.86592773 503.63466797 634.54655273 502.78466797 635.24780273 C500.28466797 637.18530273 500.28466797 637.18530273 497.94873047 638.07592773 C494.9564941 639.32196165 492.7386406 640.91355337 490.15966797 642.87280273 C485.42119293 646.40897814 480.55896887 649.58633476 475.49951172 652.64233398 C473.04114735 654.15447371 473.04114735 654.15447371 471.28466797 657.18530273 C470.29466797 657.18530273 469.30466797 657.18530273 468.28466797 657.18530273 C467.95466797 658.17530273 467.62466797 659.16530273 467.28466797 660.18530273 C465.28076172 661.39624023 465.28076172 661.39624023 462.72216797 662.56030273 C458.550203 664.52956597 454.71553076 666.71187977 450.87841797 669.26733398 C449.28466797 670.18530273 449.28466797 670.18530273 447.28466797 670.18530273 C446.95466797 671.17530273 446.62466797 672.16530273 446.28466797 673.18530273 C444.09716797 675.01733398 444.09716797 675.01733398 441.28466797 676.99780273 C440.29080078 677.69905273 439.29693359 678.40030273 438.27294922 679.12280273 C437.28681641 679.80342773 436.30068359 680.48405273 435.28466797 681.18530273 C434.45322266 681.76280273 433.62177734 682.34030273 432.76513672 682.93530273 C429.53425515 685.13692561 426.43918463 687.11090582 422.90966797 688.81030273 C420.11344278 690.27499212 419.04591215 691.63149867 417.28466797 694.18530273 C416.62466797 694.18530273 415.96466797 694.18530273 415.28466797 694.18530273 C414.95466797 695.17530273 414.62466797 696.16530273 414.28466797 697.18530273 C413.29466797 697.51530273 412.30466797 697.84530273 411.28466797 698.18530273 C410.60404297 698.92780273 409.92341797 699.67030273 409.22216797 700.43530273 C406.89475486 702.88890089 404.53294861 704.14257919 401.47216797 705.56030273 C396.99791446 707.66466232 393.75913397 710.19976182 390.15966797 713.55249023 C387.42788517 715.93141776 384.45927694 717.44825254 381.28466797 719.18530273 C378.95321111 720.93389538 376.80169527 722.64673263 374.78466797 724.74780273 C372.36584094 727.0658453 369.71193081 729.18530273 366.28466797 729.18530273 C366.28466797 729.84530273 366.28466797 730.50530273 366.28466797 731.18530273 C364.60498047 732.47436523 364.60498047 732.47436523 362.40966797 733.81030273 C361.33072266 734.47932617 361.33072266 734.47932617 360.22998047 735.16186523 C358.28466797 736.18530273 358.28466797 736.18530273 356.28466797 736.18530273 C356.28466797 736.84530273 356.28466797 737.50530273 356.28466797 738.18530273 C354.63466797 738.51530273 352.98466797 738.84530273 351.28466797 739.18530273 C350.95466797 740.17530273 350.62466797 741.16530273 350.28466797 742.18530273 C348.90717781 743.15962504 347.52051777 744.1237135 346.08935547 745.01733398 C344.09052233 746.3109511 342.23127137 747.73007112 340.34716797 749.18530273 C331.09082279 756.18530273 331.09082279 756.18530273 327.28466797 756.18530273 C327.28466797 756.84530273 327.28466797 757.50530273 327.28466797 758.18530273 C325.7430013 758.95613607 324.20133464 759.7269694 322.65966797 760.49780273 C321.28875 761.18422852 321.28875 761.18422852 319.89013672 761.88452148 C317.92129763 762.86746514 315.94781585 763.84111698 313.97216797 764.81030273 C311.24487454 766.15012229 311.24487454 766.15012229 308.65966797 767.87280273 C306.28466797 769.18530273 306.28466797 769.18530273 302.28466797 769.18530273 C302.84202375 765.6957709 303.68364433 763.18442964 305.53466797 760.18530273 C308.2762112 755.44274807 310.14626449 750.53716432 312.04248047 745.40795898 C313.12596365 742.59703564 314.33303518 739.94875772 315.65966797 737.24780273 C321.54962338 724.51729785 325.3995741 710.58803105 327.77685547 696.79077148 C328.28466797 694.18530273 328.28466797 694.18530273 329.28466797 693.18530273 C329.69082334 691.36648231 330.0421878 689.53537909 330.37060547 687.70092773 C330.57782227 686.54786133 330.78503906 685.39479492 330.99853516 684.20678711 C331.21670898 682.96219727 331.43488281 681.71760742 331.65966797 680.43530273 C331.88299805 679.17008789 332.10632812 677.90487305 332.33642578 676.60131836 C333.66625534 668.97644901 334.92901433 661.34600536 336.03466797 653.68530273 C336.14987793 652.89414062 336.26508789 652.10297852 336.38378906 651.2878418 C337.98540684 639.76879354 338.44374202 628.3727344 338.40966797 616.74780273 C338.41353516 615.43231445 338.41740234 614.11682617 338.42138672 612.76147461 C339.50534962 599.21800067 339.50534962 599.21800067 336.28466797 587.18530273 C336.0084879 585.30865058 335.78959542 583.42354269 335.59326172 581.53686523 C333.92505564 566.61294339 331.65004891 552.01589613 328.28466797 537.37280273 C328.11740204 536.63322327 327.95013611 535.8936438 327.77780151 535.13165283 C326.06709505 527.62060679 324.24168383 520.31036515 321.15942383 513.21875 C320.27034178 511.15200024 319.54205453 509.07434031 318.84716797 506.93530273 C317.58374637 503.06308627 316.26333047 499.21450535 314.90966797 495.37280273 C314.53068359 494.29385742 314.15169922 493.21491211 313.76123047 492.10327148 C303.1601343 463.31161376 287.21951858 437.89396168 268.48779297 413.74243164 C267.43779375 412.38348379 266.40645769 411.0101566 265.37841797 409.63452148 C260.86544235 403.64205621 255.79689616 398.18994912 250.68994141 392.70825195 C248.46030047 390.29190377 246.28521833 387.82678537 244.09716797 385.37280273 C240.63959321 381.55962297 237.07791041 378.09975896 233.14013672 374.79077148 C231.29124646 373.19099486 229.6059823 371.50738287 227.90966797 369.74780273 C220.13466845 361.88544367 210.9041506 355.65505014 201.88769531 349.31665039 C200.530481 348.35878699 199.18196684 347.38861436 197.83544922 346.41577148 C183.22917082 335.93901682 167.0525082 324.55620001 150.11669922 318.29077148 C147.16772088 317.13965304 144.31887823 315.84234924 141.4453125 314.51708984 C99.67107352 295.36406461 56.23714337 285.94437415 10.40966797 285.99780273 C9.20775818 285.9977121 9.20775818 285.9977121 7.98156738 285.99761963 C-16.56749412 285.9859279 -16.56749412 285.9859279 -40.74902344 289.73022461 C-43.24293524 290.30741006 -45.74101672 290.66177625 -48.27783203 290.99780273 C-54.95283984 291.98874807 -61.54550257 293.31780725 -68.15283203 294.68530273 C-69.71723022 295.00591675 -69.71723022 295.00591675 -71.31323242 295.33300781 C-76.23642254 296.3647189 -80.96919619 297.4956509 -85.71533203 299.18530273 C-87.96287318 299.81908803 -90.21301159 300.44371727 -92.46533203 301.06030273 C-97.49574789 302.48628882 -102.29490684 304.10409197 -107.10986328 306.13061523 C-110.1716967 307.37003806 -113.27810164 308.42706645 -116.40283203 309.49780273 C-140.73466386 318.15028603 -165.18875295 331.54466724 -185.71533203 347.18530273 C-186.94695606 348.0896231 -188.18014127 348.99181956 -189.41455078 349.89233398 C-198.29393962 356.40417488 -206.72076627 363.29791864 -214.9440918 370.61889648 C-216.15279893 371.68782343 -217.36985386 372.74736644 -218.59399414 373.79858398 C-224.05201864 378.49494467 -229.18542463 383.47195951 -234.27783203 388.56030273 C-235.08929687 389.35952148 -235.90076172 390.15874023 -236.73681641 390.98217773 C-241.85966008 396.09261743 -246.37974789 401.39997995 -250.71533203 407.18530273 C-251.61125815 408.31567827 -252.51191806 409.44232683 -253.41845703 410.56420898 C-260.3008403 419.14525696 -266.62783555 428.02533256 -272.71533203 437.18530273 C-273.12025879 437.7940625 -273.52518555 438.40282227 -273.94238281 439.0300293 C-283.22880105 453.06505348 -292.3720132 467.61261756 -297.72314453 483.64233398 C-298.71533203 486.18530273 -298.71533203 486.18530273 -300.20751953 488.65014648 C-301.82262079 491.36569239 -302.76046519 493.92747218 -303.71533203 496.93530273 C-304.05564453 497.99233398 -304.39595703 499.04936523 -304.74658203 500.13842773 C-305.22611328 501.64663086 -305.22611328 501.64663086 -305.71533203 503.18530273 C-306.21234894 504.6862938 -306.71205096 506.18640041 -307.21533203 507.68530273 C-308.05487904 510.19935607 -308.88978434 512.71476888 -309.71923828 515.23217773 C-310.06857422 516.28920898 -310.41791016 517.34624023 -310.77783203 518.43530273 C-311.09880859 519.40983398 -311.41978516 520.38436523 -311.75048828 521.38842773 C-312.34792692 523.12027415 -312.98705825 524.83906526 -313.69018555 526.53076172 C-319.91710633 542.65491263 -321.59644889 560.99512785 -323.50976562 578.08691406 C-323.72947021 580.04213989 -323.72947021 580.04213989 -323.95361328 582.03686523 C-324.07776611 583.20040527 -324.20191895 584.36394531 -324.32983398 585.56274414 C-324.71533203 588.18530273 -324.71533203 588.18530273 -325.71533203 589.18530273 C-327.17994879 602.0956282 -326.93006732 615.21666215 -326.71533203 628.18530273 C-326.69647949 629.38147217 -326.69647949 629.38147217 -326.67724609 630.60180664 C-325.86573879 668.91654415 -317.9358074 714.27170228 -300.46533203 748.68530273 C-298.31356189 753.50116923 -297.83730331 757.9804933 -298.71533203 763.18530273 C-300.27783203 766.37280273 -300.27783203 766.37280273 -302.71533203 768.18530273 C-307.4724864 768.18530273 -310.9237971 767.05767768 -314.71533203 764.18530273 C-314.71533203 763.52530273 -314.71533203 762.86530273 -314.71533203 762.18530273 C-316.36533203 761.52530273 -318.01533203 760.86530273 -319.71533203 760.18530273 C-319.71533203 759.52530273 -319.71533203 758.86530273 -319.71533203 758.18530273 C-320.51970703 757.91717773 -321.32408203 757.64905273 -322.15283203 757.37280273 C-322.99845703 756.98092773 -323.84408203 756.58905273 -324.71533203 756.18530273 C-325.04533203 755.19530273 -325.37533203 754.20530273 -325.71533203 753.18530273 C-328.03268012 752.10685949 -328.03268012 752.10685949 -330.71533203 751.18530273 C-337.58662504 747.51075366 -343.64965057 743.03977046 -349.71533203 738.18530273 C-352.34857638 736.14943064 -354.98781005 734.12178701 -357.62988281 732.09741211 C-360.46171359 729.92527385 -363.28377538 727.74266272 -366.08642578 725.53295898 C-371.63159257 721.17923504 -377.18034419 717.19348164 -383.30908203 713.68139648 C-387.74832222 710.92128448 -391.67705413 707.49121498 -395.71533203 704.18530273 C-399.35517214 701.29932072 -402.78393378 699.08046298 -407.09033203 697.31030273 C-414.49383035 694.18773882 -420.34232729 688.62148187 -426.30517578 683.34936523 C-427.73015386 682.08434573 -427.73015386 682.08434573 -429.71533203 681.18530273 C-429.71533203 680.52530273 -429.71533203 679.86530273 -429.71533203 679.18530273 C-431.36533203 678.52530273 -433.01533203 677.86530273 -434.71533203 677.18530273 C-434.71533203 676.19530273 -434.71533203 675.20530273 -434.71533203 674.18530273 C-435.74658203 674.10280273 -436.77783203 674.02030273 -437.84033203 673.93530273 C-442.05587585 673.11939103 -444.36461659 671.81800772 -447.71533203 669.18530273 C-448.04533203 668.52530273 -448.37533203 667.86530273 -448.71533203 667.18530273 C-450.37011276 666.16575453 -452.04054379 665.17164047 -453.71533203 664.18530273 C-456.55656954 662.24673868 -459.35268797 660.2451253 -462.15283203 658.24780273 C-467.99906434 654.08492844 -467.99906434 654.08492844 -473.93017578 650.04467773 C-476.63892184 648.23631431 -479.23620833 646.32788643 -481.84033203 644.37280273 C-486.83985588 640.69364832 -492.03332654 637.60494995 -497.47705078 634.63061523 C-498.21568359 634.15366211 -498.95431641 633.67670898 -499.71533203 633.18530273 C-499.71533203 632.52530273 -499.71533203 631.86530273 -499.71533203 631.18530273 C-500.71886719 630.83338867 -500.71886719 630.83338867 -501.74267578 630.47436523 C-505.50045837 628.84484059 -508.82786239 626.7552882 -512.27783203 624.56030273 C-512.98166016 624.11589844 -513.68548828 623.67149414 -514.41064453 623.21362305 C-529.90858526 613.39029129 -529.90858526 613.39029129 -536.84033203 608.06030273 C-540.39637128 605.33839615 -544.13916608 603.08679435 -548.00048828 600.82592773 C-552.08530752 598.35740388 -556.0121002 595.66245563 -559.96533203 592.98999023 C-562.08434439 591.59938837 -564.16279893 590.3571719 -566.40283203 589.18530273 C-569.24998992 587.46626401 -571.05328361 585.96026232 -573.40283203 583.68530273 C-578.76518895 578.7304479 -584.96294073 575.2696915 -591.26879883 571.66186523 C-597.86841397 567.84992444 -603.69954462 563.42425559 -609.62231445 558.6472168 C-616.31196359 553.42019775 -623.77494453 549.63190772 -631.25244141 545.65991211 C-637.82769961 542.07741938 -643.46215066 538.11469043 -649.16333008 533.26660156 C-652.70582581 530.37750024 -656.47229954 528.13783848 -660.46533203 525.93530273 C-663.23338958 524.3811273 -665.98425008 522.8036226 -668.71533203 521.18530273 C-669.39917969 520.79020508 -670.08302734 520.39510742 -670.78759766 519.98803711 C-672.73095703 518.76342773 -672.73095703 518.76342773 -675.71533203 516.18530273 C-676.79653578 511.19781447 -674.71428197 506.55280441 -673.02783203 501.87280273 C-671.19692778 496.70858995 -669.51098034 491.53435138 -668.00517273 486.26431274 C-665.34977414 476.98660875 -662.20571429 467.99157791 -658.71533203 458.99780273 C-658.29681473 457.91204453 -658.29681473 457.91204453 -657.86984253 456.80435181 C-629.96952948 384.52044068 -591.30544712 317.97093651 -542.20800781 258.0144043 C-540.8888922 256.39798065 -539.58057528 254.77275753 -538.27392578 253.14624023 C-533.55415294 247.28662959 -528.61442423 241.70760142 -523.48876953 236.20483398 C-521.39281659 233.9455948 -519.35796293 231.64023715 -517.33642578 229.31420898 C-513.77758166 225.23044019 -510.11344376 221.25618612 -506.40283203 217.31030273 C-505.74984131 216.61557861 -505.09685059 215.92085449 -504.42407227 215.20507812 C-497.45485307 207.8152508 -490.4384143 200.57023224 -482.71142578 193.96264648 C-480.45400577 191.95261497 -478.33797491 189.8369732 -476.21533203 187.68530273 C-472.20776976 183.6369164 -468.04818582 179.87947791 -463.71533203 176.18530273 C-462.6978912 175.30438533 -461.68100925 174.42282222 -460.66455078 173.54077148 C-445.50743279 160.41909437 -429.84660022 148.08736346 -413.71533203 136.18530273 C-412.96525879 135.62842773 -412.21518555 135.07155273 -411.44238281 134.49780273 C-384.36063817 114.42026961 -355.4660934 96.99370801 -325.71533203 81.18530273 C-324.79042969 80.68933594 -323.86552734 80.19336914 -322.91259766 79.68237305 C-293.94747063 64.16320485 -263.57584113 50.21734184 -232.18798828 40.30639648 C-229.3108002 39.37754049 -226.5608286 38.35783428 -223.77783203 37.18530273 C-203.6550964 28.89746416 -181.73720745 23.51686176 -160.49658203 19.01342773 C-157.39900713 18.33503323 -154.3834175 17.56817321 -151.34033203 16.68530273 C-137.9160776 12.91996308 -124.07904679 10.83412167 -110.28564453 8.96655273 C-106.43614922 8.44068785 -102.60302399 7.85145998 -98.77001953 7.21655273 C-86.48883637 5.19441566 -74.23208335 3.62022061 -61.84033203 2.49780273 C-60.53547852 2.37856445 -59.230625 2.25932617 -57.88623047 2.13647461 C-38.59360426 0.47057776 -19.36261469 -0.00121244 0 0 Z " fill="#FDFDFE" transform="translate(838.71533203125,131.814697265625)"/>
<path d="M0 0 C0.8075473 -0.00006042 1.6150946 -0.00012085 2.44711304 -0.00018311 C14.26450263 0.01236546 25.92257818 0.38597835 37.65576172 1.90966797 C39.80087158 2.18600202 41.94742128 2.42739121 44.09765625 2.66015625 C77.82056578 6.40449346 111.75236679 17.8859919 141.94238281 33.26708984 C143.6912073 34.12780372 145.4856377 34.89406153 147.28125 35.65234375 C160.24203394 41.28684385 172.2632841 49.10525112 183.8125 57.1875 C184.41046387 57.60531738 185.00842773 58.02313477 185.62451172 58.45361328 C189.1625104 60.93546445 192.67494452 63.45026977 196.16894531 65.99365234 C197.73998679 67.13482775 199.31903375 68.26495768 200.8984375 69.39453125 C208.10404138 74.6427073 214.59703381 80.40385906 221.05029297 86.52685547 C222.92698663 88.29538834 224.82251961 90.04184739 226.72265625 91.78515625 C238.53329185 102.64444399 238.53329185 102.64444399 243.15625 108.22265625 C245.22263684 110.67405385 247.42853585 112.97706203 249.625 115.3125 C254.79778087 120.98536845 259.15049168 127.06676426 263.52392578 133.36376953 C265.24117779 135.79421147 267.02969882 138.16754879 268.81835938 140.5456543 C284.7835006 161.87710993 297.46867208 185.11828261 306.375 210.25 C306.7978125 211.44238281 307.220625 212.63476562 307.65625 213.86328125 C308.8196591 217.20808241 309.9297224 220.56664159 311.02368164 223.93457031 C311.80243703 226.15875934 312.71322273 228.28069143 313.65234375 230.44140625 C316.50139395 237.54355604 318.12933852 244.93276911 319.8125 252.375 C319.98580841 253.12908142 320.15911682 253.88316284 320.337677 254.66009521 C323.74739302 269.59181895 325.87441029 284.55900237 327.45874023 299.78369141 C327.56047493 302.13434769 327.56047493 302.13434769 328.8125 303.1875 C332.80340192 334.64911017 328.33513097 366.24181909 322.8125 397.1875 C322.6489502 398.14027832 322.48540039 399.09305664 322.31689453 400.07470703 C321.41757775 405.22581806 320.3272206 410.17504671 318.8125 415.1875 C318.4233482 416.65849379 318.04099407 418.13129629 317.6640625 419.60546875 C314.5928146 431.57136965 311.37672127 443.14862676 306.0859375 454.35546875 C304.74334828 457.34128834 303.61924812 460.36144561 302.5 463.4375 C299.84987175 470.46828189 296.35863984 476.91264846 292.74951172 483.48193359 C287.80481106 492.36028684 287.80481106 492.36028684 285.8125 502.1875 C287.03604691 502.02582336 288.25959381 501.86414673 289.5202179 501.6975708 C295.50966787 501.03662189 301.46872276 501.03219333 307.48901367 501.02636719 C309.34921394 501.01891983 309.34921394 501.01891983 311.24699402 501.01132202 C314.62280506 500.99928905 317.99855481 500.99177685 321.37437987 500.98731136 C323.48694286 500.98436597 325.59950061 500.9802588 327.71206093 500.97580719 C334.33284832 500.96217004 340.95362352 500.95248155 347.57442397 500.9486053 C355.19874973 500.94411546 362.82289703 500.92650906 370.44716853 500.8976047 C376.35737732 500.87597997 382.26753586 500.86590081 388.17778379 500.86456418 C391.70130233 500.86351792 395.22465223 500.8576469 398.74812889 500.83974457 C402.67353462 500.82018224 406.59871662 500.82455599 410.52416992 500.83105469 C411.68535339 500.8218399 412.84653687 500.81262512 414.04290771 500.8031311 C420.80914519 500.83827412 425.79716966 501.17216966 430.8125 506.1875 C430.72902065 509.94407087 430.27533115 511.69500019 427.6796875 514.45703125 C426.73351563 515.35808594 425.78734375 516.25914062 424.8125 517.1875 C423.71929797 518.28572979 422.62963313 519.38748851 421.54296875 520.4921875 C420.36201972 521.68233191 419.18102943 522.87243537 418 524.0625 C417.1327832 524.94228516 417.1327832 524.94228516 416.24804688 525.83984375 C413.2123103 528.89235235 410.12548276 531.82252114 406.86328125 534.6328125 C402.63526795 538.28453375 398.72274486 542.20088317 394.8125 546.1875 C390.28030549 550.80821394 385.68545424 555.25049873 380.78173828 559.4765625 C377.53077265 562.30110591 374.39020702 565.24097612 371.25 568.1875 C370.56744141 568.826875 369.88488281 569.46625 369.18164062 570.125 C363.68468305 575.30336666 358.32164856 580.60549547 353.03686523 586 C350.0782245 589.00262449 347.06925307 591.87283654 343.875 594.625 C339.64219114 598.27875408 335.72620627 602.19735416 331.8125 606.1875 C327.2124344 610.87741063 322.54097197 615.37205832 317.5625 619.66015625 C315.54999029 621.41661004 313.66758105 623.26616605 311.8125 625.1875 C309.37184653 627.71531967 306.83232646 630.04587051 304.16796875 632.33203125 C299.88572781 636.06919815 295.86799865 640.02058035 291.875 644.0625 C291.15062744 644.79065918 290.42625488 645.51881836 289.67993164 646.26904297 C287.38831697 648.57275646 285.09999348 650.87969474 282.8125 653.1875 C279.79464919 656.23214779 276.77336584 659.27332967 273.75 662.3125 C273.07267822 662.99812012 272.39535645 663.68374023 271.69750977 664.39013672 C267.79663705 668.31070353 263.79100678 672.03770608 259.58862305 675.6340332 C256.86109012 678.01964035 254.33850315 680.59210116 251.8125 683.1875 C248.64047675 686.44666675 245.41781013 689.56376955 241.96875 692.53125 C237.52902728 696.37169456 233.42389614 700.50121504 229.3125 704.6875 C227.88799444 706.13795284 226.46092536 707.58589265 225.03125 709.03125 C224.41185547 709.66224609 223.79246094 710.29324219 223.15429688 710.94335938 C221.22973909 712.78766037 219.27319195 714.51792038 217.25 716.25 C212.32129477 720.5364377 207.73351013 725.15317319 203.13658142 729.78825378 C201.55676867 731.38103491 199.97367414 732.97049157 198.38977051 734.5592041 C195.02783139 737.93247313 191.66986181 741.30967602 188.3125 744.6875 C184.41652651 748.60721835 180.51886462 752.52522742 176.6169281 756.43901062 C175.07068445 757.99165238 173.5275262 759.54731403 171.98449707 761.10314941 C167.30070503 765.81097403 162.58129683 770.41411225 157.5098877 774.70666504 C155.69214401 776.29250097 154.0008354 777.96523958 152.3125 779.6875 C150.12229172 781.91655898 147.8949838 783.99426865 145.5 786 C138.75915154 791.86025924 132.59133491 798.34248916 126.3125 804.6875 C111.84927676 819.30315872 111.84927676 819.30315872 105.74023438 824.48242188 C101.39108315 828.32923952 97.38700352 832.55453876 93.3125 836.6875 C87.87010301 842.20798016 82.45355005 847.66992257 76.53515625 852.68359375 C74.70819493 854.27855998 73.01190713 855.95767842 71.3125 857.6875 C68.98885778 860.05001659 66.6093545 862.27606931 64.09765625 864.4375 C59.89226199 868.09537221 55.8055254 871.86472732 51.75 875.6875 C51.02047119 876.37384521 50.29094238 877.06019043 49.53930664 877.76733398 C43.87010455 883.12760777 38.34490109 888.61848246 32.85644531 894.1628418 C29.26137809 897.78167565 25.5993081 901.23240076 21.6953125 904.51953125 C19.30669926 906.63558489 17.10554762 908.90579303 14.875 911.1875 C2.43037612 923.78599867 2.43037612 923.78599867 -4.42578125 924.546875 C-8.99928303 924.10994648 -11.13875489 922.45043733 -14.375 919.4375 C-14.95523926 918.92034424 -15.53547852 918.40318848 -16.13330078 917.87036133 C-22.682992 911.9318955 -28.89113117 905.61500916 -35.08276367 899.30761719 C-39.40326909 894.91148024 -43.78365225 890.69871302 -48.46337891 886.68676758 C-51.38024417 884.15030913 -54.02943484 881.36581332 -56.71875 878.59375 C-58.71262884 876.6503491 -60.73262667 874.84138988 -62.84375 873.03125 C-68.79767869 867.86525968 -74.23730705 862.18239284 -79.765625 856.5703125 C-84.15175379 852.14382056 -88.59005676 847.8878931 -93.3203125 843.83203125 C-96.42439568 841.09810025 -99.29526849 838.14193003 -102.1875 835.1875 C-106.41566505 830.91003996 -110.67170636 826.77778693 -115.265625 822.890625 C-118.57838175 819.95492999 -121.62865898 816.75318746 -124.73828125 813.60546875 C-127.4979604 810.88100082 -130.37930657 808.35202624 -133.32421875 805.83203125 C-135.77296851 803.67076574 -138.03647126 801.35165824 -140.32177734 799.02026367 C-142.07992396 797.29317565 -143.89117926 795.69584197 -145.76953125 794.1015625 C-150.87734925 789.6602883 -155.61407711 784.8695765 -160.375 780.0625 C-161.25091797 779.18207031 -162.12683594 778.30164062 -163.02929688 777.39453125 C-169.68053555 770.70799411 -169.68053555 770.70799411 -172.67578125 767.6328125 C-175.01887451 765.35166727 -177.42454902 763.18136482 -179.8671875 761.0078125 C-185.21877756 756.219339 -190.27510999 751.17774766 -195.3125 746.0625 C-200.51112236 740.78426627 -205.71408876 735.60610314 -211.33740234 730.77929688 C-214.26952219 728.25654399 -217.10686787 725.63555396 -219.9375 723 C-220.87154663 722.13072876 -220.87154663 722.13072876 -221.82446289 721.24389648 C-228.41744025 715.0550126 -234.7870251 708.64437177 -241.13378906 702.2043457 C-245.36564736 697.92774867 -249.65539635 693.81596846 -254.2199707 689.89672852 C-257.75921076 686.82212625 -261.15413986 683.59311883 -264.5625 680.375 C-265.30491943 679.67576416 -266.04733887 678.97652832 -266.81225586 678.25610352 C-271.65168292 673.68268924 -276.38215911 669.02489288 -281.05859375 664.28515625 C-283.68833627 661.69401545 -286.45355655 659.29725885 -289.2578125 656.8984375 C-291.94666548 654.51439376 -294.44227545 651.95933972 -296.9375 649.375 C-298.86633086 647.49974778 -300.83613814 645.75220999 -302.875 644 C-308.35950953 639.23660191 -313.38668368 634.03611182 -318.4765625 628.859375 C-322.58261971 624.7109873 -326.76560169 620.76450023 -331.19140625 616.9609375 C-335.61547108 613.03035935 -339.68730444 608.724129 -343.83203125 604.50390625 C-347.88326064 600.40823924 -352.02581696 596.51681186 -356.39257812 592.75976562 C-358.77143113 590.67600429 -360.98194698 588.45266256 -363.1875 586.1875 C-366.06307659 583.27696199 -368.94624094 580.46325978 -372.0625 577.8125 C-376.13967045 574.32957302 -379.88402562 570.55045927 -383.62451172 566.71337891 C-386.31932031 563.97098795 -389.08341097 561.38153394 -392 558.875 C-397.44917733 554.16135802 -402.42837814 548.99370585 -407.4765625 543.859375 C-411.59534208 539.69813377 -415.78884852 535.72863088 -420.22753906 531.91162109 C-423.63944032 528.91026998 -426.84871815 525.71054215 -430.0625 522.5 C-430.72507812 521.84966797 -431.38765625 521.19933594 -432.0703125 520.52929688 C-432.70453125 519.89701172 -433.33875 519.26472656 -433.9921875 518.61328125 C-434.55921387 518.05036377 -435.12624023 517.48744629 -435.71044922 516.9074707 C-438.10470385 514.11945023 -439.09513537 511.82085747 -439.625 508.1875 C-439.1875 505.1875 -439.1875 505.1875 -437.02517414 503.03006363 C-433.77877193 500.92210396 -432.17638786 500.69254499 -428.34721375 500.70648193 C-426.59517387 500.69823395 -426.59517387 500.69823395 -424.80773926 500.68981934 C-423.53531372 500.70420044 -422.26288818 500.71858154 -420.9519043 500.73339844 C-419.59157851 500.73452735 -418.23125028 500.7338922 -416.8709259 500.73162842 C-413.18517472 500.73048202 -409.49994556 500.75397872 -405.81431556 500.78192425 C-401.95996236 500.80695055 -398.10559684 500.80928086 -394.25117493 500.81402588 C-386.95553692 500.82645209 -379.66013902 500.85926875 -372.36460668 500.89942384 C-364.05754851 500.94415271 -355.7504788 500.96613137 -347.44333017 500.98620558 C-330.35791462 501.02800181 -313.27273271 501.09834681 -296.1875 501.1875 C-296.65237068 499.28699638 -296.65237068 499.28699638 -297.12663269 497.34809875 C-297.3009592 496.6354099 -297.4752857 495.92272104 -297.65489483 495.18843555 C-298.28689648 492.81407903 -299.14744015 490.64814483 -300.17578125 488.41796875 C-300.73712769 487.18723633 -300.73712769 487.18723633 -301.30981445 485.93164062 C-301.8989563 484.66610352 -301.8989563 484.66610352 -302.5 483.375 C-302.90371826 482.49134766 -303.30743652 481.60769531 -303.72338867 480.69726562 C-305.37951192 477.07663986 -307.05635625 473.46650833 -308.75 469.86328125 C-311.26885011 464.47136774 -313.3276507 459.08756896 -315.09765625 453.40234375 C-316.02033823 450.68059728 -317.0403803 448.05974895 -318.12890625 445.40234375 C-330.83526922 413.91954971 -336.65452624 377.0040016 -337.1875 343.1875 C-337.20264648 342.27274902 -337.21779297 341.35799805 -337.23339844 340.41552734 C-337.39779982 328.36410396 -337.54822581 316.18204602 -336.1875 304.1875 C-335.8575 303.8575 -335.5275 303.5275 -335.1875 303.1875 C-334.89913261 301.19102248 -334.66860214 299.18616542 -334.4609375 297.1796875 C-332.86954454 282.72090143 -330.91639488 268.50633769 -327.6875 254.3125 C-327.40310059 253.04390137 -327.11870117 251.77530273 -326.82568359 250.46826172 C-325.34387697 244.16024049 -323.58205495 238.23017834 -321.04882812 232.265625 C-320.01251771 229.76532051 -319.31332057 227.25591673 -318.6875 224.625 C-317.5609416 220.27795401 -316.06286382 216.3634639 -314.15625 212.3046875 C-313.22520663 210.26990724 -312.44136058 208.23089315 -311.6875 206.125 C-310.43741386 202.69908825 -308.87873813 199.52994425 -307.20703125 196.29296875 C-306.14799805 194.10592317 -305.29096658 191.89965764 -304.4375 189.625 C-302.69069074 185.17234896 -300.61324943 180.97001046 -298.375 176.75 C-298.06788086 176.16597412 -297.76076172 175.58194824 -297.44433594 174.98022461 C-287.72427477 156.94099255 -275.47482092 139.53078934 -262.44970703 123.72607422 C-261.2294799 122.23867163 -260.03415546 120.73094675 -258.83984375 119.22265625 C-252.73075055 111.70004861 -246.0154151 104.80486458 -239.1875 97.9375 C-238.27379639 97.01453125 -237.36009277 96.0915625 -236.41870117 95.140625 C-230.31317284 89.06293093 -223.92257702 83.55174354 -217.1875 78.1875 C-215.84719155 77.07922177 -214.50963082 75.96760582 -213.17578125 74.8515625 C-201.98596956 65.56947797 -190.35225986 56.99600117 -177.76171875 49.69140625 C-175.829725 48.56269974 -173.91893105 47.39757729 -172.01953125 46.21484375 C-156.93069844 36.83700772 -141.12981242 28.62490881 -124.1875 23.1875 C-122.76694435 22.67736919 -121.34962132 22.15803394 -119.9375 21.625 C-119.01710938 21.28082031 -119.01710938 21.28082031 -118.078125 20.9296875 C-116.72399732 20.39810845 -115.38119607 19.8373169 -114.046875 19.2578125 C-108.11407627 16.72360377 -102.15998988 15.05599732 -95.89648438 13.58227539 C-93.00127984 12.90035593 -90.16993643 12.18154871 -87.3515625 11.2265625 C-75.21303254 7.24032921 -62.39159479 4.94917246 -49.7109375 3.5859375 C-46.49844846 3.22266269 -43.365111 2.71281544 -40.1875 2.125 C-26.96917845 -0.14248419 -13.37654276 -0.01552624 0 0 Z " fill="#2A4B5A" transform="translate(848.1875,416.8125)"/>
<path d="M0 0 C2.55297509 2.23275203 3.51951169 3.92863805 4.359375 7.19921875 C4.58447754 8.06216553 4.80958008 8.9251123 5.04150391 9.81420898 C5.27530762 10.76239502 5.50911133 11.71058105 5.75 12.6875 C6.00313965 13.68918213 6.2562793 14.69086426 6.51708984 15.72290039 C8.68245089 24.43107425 10.67796593 33.17837982 12.625 41.9375 C12.90182617 43.17137451 13.17865234 44.40524902 13.46386719 45.67651367 C17.83496169 65.74345846 20.71596088 86.05247234 23.125 106.4375 C23.31826874 108.07048035 23.31826874 108.07048035 23.51544189 109.7364502 C26.76958498 137.46156748 28.15766031 164.77365358 28.1875 192.6875 C28.18876892 193.83118042 28.19003784 194.97486084 28.19134521 196.15319824 C28.18843749 219.24301794 27.14289654 242.03365264 24.75 265 C24.64084259 266.05818939 24.53168518 267.11637878 24.41921997 268.20663452 C23.04244 281.4510808 21.5388422 294.66173792 19.4375 307.8125 C19.1595459 309.62331055 19.1595459 309.62331055 18.87597656 311.47070312 C18.68874023 312.55931641 18.50150391 313.64792969 18.30859375 314.76953125 C18.07354126 316.15555542 18.07354126 316.15555542 17.83374023 317.56958008 C16.33326853 321.94357591 13.52999812 323.71299305 9.56640625 325.859375 C8.23473036 326.49581318 6.8999199 327.12572261 5.5625 327.75 C-0.87672983 330.85248477 -6.85923752 334.29227094 -12.8984375 338.12109375 C-16.93152919 340.56431428 -21.12387095 342.5807433 -25.36328125 344.63671875 C-28.21003237 346.10859451 -30.64789071 347.80857288 -33.1953125 349.734375 C-36.227487 351.86083504 -39.50793534 353.52010884 -42.76953125 355.265625 C-51.73812323 360.08068527 -60.62198841 364.93837907 -68.99609375 370.73828125 C-71.77932987 372.49068918 -74.72203283 373.6777571 -77.75390625 374.93359375 C-80.1932523 376.09175283 -82.24281827 377.49266614 -84.4375 379.0625 C-87.50370885 381.1929865 -90.07228986 382.45938305 -93.6875 383.375 C-100.76535785 385.22714972 -106.7794032 389.27500357 -113 393 C-118.45771178 396.16309594 -124.03339408 399.02169557 -129.6875 401.8125 C-134.74271816 404.31060619 -139.68691761 406.91082914 -144.5625 409.75 C-158.94472065 418.10522807 -173.87812131 425.57165846 -188.81201172 432.88769531 C-197.24904313 437.02550898 -205.49776138 441.35074637 -213.6328125 446.0546875 C-222.18218127 450.99388198 -230.54680803 455.34809061 -239.8203125 458.76171875 C-245.06780251 460.80527444 -250.00283968 463.4159171 -255 466 C-257.24840124 467.12819186 -259.49847216 468.25306087 -261.75 469.375 C-265.42065983 471.20631388 -269.08803862 473.04223626 -272.7421875 474.90625 C-280.80020436 479.00129097 -288.94630611 482.82199746 -297.20532227 486.49462891 C-303.53776305 489.31833421 -309.80934129 492.25508958 -316.0625 495.25 C-334.3984916 504.02517681 -334.3984916 504.02517681 -342.0625 506.9375 C-345.55321478 508.29439226 -348.54503026 509.90474729 -351.6875 511.9375 C-356.9529845 515.23675928 -362.49314123 517.01320391 -368.38671875 518.82421875 C-374.08835009 520.67956041 -379.38519346 523.15071525 -384.69360352 525.90454102 C-391.01013237 529.17688503 -397.14867547 531.85459458 -403.9609375 533.95703125 C-409.49841323 535.85742459 -414.72075363 538.48783525 -419.98632812 541.02929688 C-423.46140006 542.70447704 -426.94890624 544.35320545 -430.4375 546 C-431.14503418 546.33467285 -431.85256836 546.6693457 -432.58154297 547.01416016 C-438.64025446 549.86491287 -444.76579253 552.54024028 -450.92578125 555.1640625 C-454.20877862 556.59977198 -457.38723088 558.20248607 -460.578125 559.83203125 C-466.79247968 562.96329146 -473.14028769 565.67641517 -479.58129883 568.30493164 C-481.4343766 569.06122525 -483.28457801 569.82455384 -485.13476562 570.58789062 C-492.08559269 573.44434428 -499.06957354 576.19355 -506.09057617 578.87231445 C-509.24726247 580.09583833 -512.36356186 581.39441333 -515.47583008 582.72583008 C-526.47854936 587.41858913 -537.45972642 590.93885666 -549.37890625 592.41015625 C-552.39433966 593.08874112 -554.38832405 594.3713013 -557 596 C-559.5703125 596.94921875 -559.5703125 596.94921875 -562.125 597.6875 C-562.97320313 597.93886719 -563.82140625 598.19023438 -564.6953125 598.44921875 C-567 599 -567 599 -570 599 C-568.38017282 594.58810228 -564.89519892 591.93101821 -561.5 588.875 C-552.43192872 580.5618864 -543.78640467 571.84608292 -535.13867188 563.10107422 C-530.12122421 558.03892163 -525.10868685 553.03029417 -519.65234375 548.43359375 C-517.25912608 546.35720868 -515.07705429 544.08865294 -512.86022949 541.82727051 C-511.12478563 540.12257472 -509.33851625 538.54955494 -507.48242188 536.97851562 C-502.53923501 532.677507 -497.93543902 528.04887545 -493.32408142 523.39924622 C-491.74426867 521.80646509 -490.16117414 520.21700843 -488.57727051 518.6282959 C-485.21533139 515.25502687 -481.85736181 511.87782398 -478.5 508.5 C-474.60402651 504.58028165 -470.70636462 500.66227258 -466.8044281 496.74848938 C-465.25818445 495.19584762 -463.7150262 493.64018597 -462.17199707 492.08435059 C-457.47022119 487.35839803 -452.71588976 482.76215592 -447.65026855 478.42541504 C-445.59888331 476.65353654 -443.67970507 474.77776406 -441.78125 472.84375 C-441.07613281 472.13089844 -440.37101562 471.41804688 -439.64453125 470.68359375 C-438.93683594 469.96300781 -438.22914063 469.24242187 -437.5 468.5 C-432.76647934 463.68025856 -427.97904374 459.04127411 -422.85742188 454.63476562 C-420.10798384 452.21491323 -417.5533859 449.62353386 -415 447 C-411.87550611 443.78966836 -408.7059676 440.71488068 -405.30078125 437.80078125 C-401.03483503 434.0839124 -397.03748509 430.14868539 -393.0625 426.125 C-392.33812744 425.39684082 -391.61375488 424.66868164 -390.86743164 423.91845703 C-388.57581697 421.61474354 -386.28749348 419.30780526 -384 417 C-380.98214919 413.95535221 -377.96086584 410.91417033 -374.9375 407.875 C-374.26017822 407.18937988 -373.58285645 406.50375977 -372.88500977 405.79736328 C-368.95611323 401.84863116 -364.91845899 398.09568229 -360.69067383 394.46801758 C-358.69475732 392.73495679 -356.83564198 390.90120062 -355 389 C-352.52561417 386.43724324 -349.94703239 384.07302985 -347.25 381.75 C-342.96185672 378.02566815 -338.9753994 374.05304392 -335 370 C-331.12745648 366.05182087 -327.25872002 362.16875641 -323.0625 358.5625 C-318.4704649 354.60725102 -314.24694989 350.31942344 -310 346 C-305.12398643 341.040778 -300.21752092 336.21985637 -294.94287109 331.68457031 C-291.65398249 328.83293279 -288.48532459 325.85447564 -285.3125 322.875 C-284.62478516 322.23046875 -283.93707031 321.5859375 -283.22851562 320.921875 C-278.17835622 316.16549218 -273.25701952 311.2958228 -268.38110352 306.36181641 C-265.01519979 302.96998448 -261.55036042 299.77896851 -257.91015625 296.6875 C-254.09233184 293.31469806 -250.56877036 289.63212131 -247 286 C-246.4328125 285.48308594 -245.865625 284.96617187 -245.28125 284.43359375 C-243.31229566 282.23052594 -243.3178415 279.86057347 -243 277 C-247.58530705 274.22468258 -250.05987257 272.87482621 -255.44155884 272.87974548 C-256.59704727 272.87837082 -257.75253571 272.87699615 -258.94303894 272.87557983 C-260.21689957 272.87917511 -261.49076019 272.88277039 -262.80322266 272.88647461 C-264.15325417 272.88675657 -265.50328584 272.88659857 -266.85331726 272.8860321 C-270.5245827 272.88574448 -274.19581566 272.89163557 -277.86707354 272.89860606 C-281.70145027 272.90484541 -285.53582771 272.90544386 -289.37020874 272.90663147 C-296.63396423 272.90974307 -303.89770473 272.91795415 -311.1614536 272.92798096 C-319.42978075 272.93914741 -327.69810859 272.94465389 -335.96644139 272.94967639 C-352.97763628 272.9601369 -369.98881656 272.97773304 -387 273 C-387.14678404 265.49510982 -385.53752432 260.08200934 -381 254 C-378.16049713 252.79334966 -376.17389601 253 -373 253 C-371.29803595 251.7120272 -369.63654821 250.37013339 -368 249 C-358.25568182 244 -358.25568182 244 -355 244 C-355 243.34 -355 242.68 -355 242 C-354.40832031 241.68546875 -353.81664062 241.3709375 -353.20703125 241.046875 C-348.78858513 238.65385035 -344.88416467 236.20443585 -341 233 C-338.64626655 231.42949165 -336.2748935 229.89090876 -333.890625 228.3671875 C-331.87191331 227.12942623 -331.87191331 227.12942623 -331 225 C-328.4375 224.375 -328.4375 224.375 -326 224 C-326 223.34 -326 222.68 -326 222 C-324.3203125 220.7109375 -324.3203125 220.7109375 -322.125 219.375 C-321.40570312 218.92898438 -320.68640625 218.48296875 -319.9453125 218.0234375 C-318 217 -318 217 -316 217 C-316 216.34 -316 215.68 -316 215 C-309.25 211 -309.25 211 -307 211 C-306.67 210.01 -306.34 209.02 -306 208 C-301.7252557 204.11386882 -296.96481956 200.92797051 -292 198 C-290.78632655 197.06942359 -289.57866859 196.13098164 -288.375 195.1875 C-284.28300271 192.04821964 -279.91503022 189.71748743 -275.3203125 187.39453125 C-272.73521506 186.06585583 -272.73521506 186.06585583 -271 183 C-270.01 182.67 -269.02 182.34 -268 182 C-267.21625 180.96875 -266.4325 179.9375 -265.625 178.875 C-261.94171213 174.36089531 -257.2476245 172.29155174 -252.125 169.6953125 C-248.80289982 167.89307315 -246.22614347 165.89856724 -243.48046875 163.3359375 C-242 162 -242 162 -238.875 159.9375 C-235.90870968 158.08014376 -235.90870968 158.08014376 -233.5 155.4375 C-230.7617179 152.76767495 -228.4774044 151.57467369 -225 150 C-223.22455942 149.15545152 -221.45398968 148.3006139 -219.6875 147.4375 C-218.82511719 147.02371094 -217.96273438 146.60992188 -217.07421875 146.18359375 C-214.85431487 145.17130183 -214.85431487 145.17130183 -214 143 C-213.01 142.67 -212.02 142.34 -211 142 C-210.34 141.29875 -209.68 140.5975 -209 139.875 C-205.76186802 136.48081346 -201.822 134.28524798 -197.8515625 131.83984375 C-194.39219876 129.60784331 -191.23423953 127.10905451 -188.0703125 124.48046875 C-185.80677908 122.86182881 -183.5820239 122.01198679 -181 121 C-179.521099 119.77829918 -178.04382091 118.55381218 -176.6015625 117.2890625 C-174.46132099 115.56642909 -172.14534157 114.34837023 -169.734375 113.046875 C-167.89019923 111.93372386 -166.36453239 110.67270676 -164.75 109.25 C-162 107 -162 107 -159 107 C-159 106.34 -159 105.68 -159 105 C-156.953125 103.6328125 -156.953125 103.6328125 -154.25 102.125 C-151.38557604 100.52527785 -149.15711107 99.16112486 -146.859375 96.8046875 C-145 95 -145 95 -142 95 C-142 94.34 -142 93.68 -142 93 C-140.730447 92.35165346 -139.45930294 91.70642185 -138.1875 91.0625 C-137.47980469 90.70285156 -136.77210938 90.34320312 -136.04296875 89.97265625 C-134 89 -134 89 -131 88 C-131 87.34 -131 86.68 -131 86 C-130.01 86 -129.02 86 -128 86 C-127.74992187 85.38125 -127.49984375 84.7625 -127.2421875 84.125 C-125.77341201 81.61237777 -124.76680992 81.11653853 -122.125 80 C-118.71488534 78.4460237 -116.61223237 76.70898171 -114 74 C-113.01 74 -112.02 74 -111 74 C-111 73.34 -111 72.68 -111 72 C-109.71086513 71.32845067 -108.41859796 70.66291141 -107.125 70 C-106.40570312 69.62875 -105.68640625 69.2575 -104.9453125 68.875 C-103 68 -103 68 -101 68 C-100.690625 67.13375 -100.690625 67.13375 -100.375 66.25 C-97.59890007 61.70729103 -92.37492861 59.64469369 -87.8125 57.1875 C-77.57559611 51.87300605 -77.57559611 51.87300605 -68.75390625 44.6171875 C-65.14259836 41.1851644 -61.17730428 39.03885107 -56.8125 36.6875 C-55.99330078 36.23310547 -55.17410156 35.77871094 -54.33007812 35.31054688 C-48.28148496 32 -48.28148496 32 -46 32 C-45.67 31.01 -45.34 30.02 -45 29 C-42.525 28.505 -42.525 28.505 -40 28 C-40 27.34 -40 26.68 -40 26 C-39.33613281 25.68546875 -38.67226562 25.3709375 -37.98828125 25.046875 C-33.20106983 22.7266499 -29.06855175 20.45826899 -25 17 C-23.30457536 15.73254663 -21.59483948 14.48412112 -19.875 13.25 C-19.02679687 12.63640625 -18.17859375 12.0228125 -17.3046875 11.390625 C-15 10 -15 10 -12 10 C-11.67 9.01 -11.34 8.02 -11 7 C-6.66666667 4 -6.66666667 4 -4 4 C-4 3.34 -4 2.68 -4 2 C-2.68 1.34 -1.36 0.68 0 0 Z " fill="#E2F0F0" transform="translate(1521,646)"/>
<path d="M0 0 C5.20701617 3.7687145 8.23226374 8.38429123 10.25 14.4375 C11.04631415 24.84133987 9.3494369 34.27022583 6.9375 44.3125 C6.31096883 46.99614726 5.69251116 49.68163186 5.07421875 52.3671875 C4.91990891 53.0310144 4.76559906 53.69484131 4.60661316 54.37878418 C3.36296099 59.78445024 2.31592513 65.21512963 1.31735229 70.67068481 C0.18171446 76.86945013 -1.10361328 83.02879722 -2.4375 89.1875 C-2.68661133 90.34636719 -2.93572266 91.50523437 -3.19238281 92.69921875 C-4.71440735 99.74898489 -6.27092847 106.790432 -7.84765625 113.828125 C-8.02612595 114.62595398 -8.20459564 115.42378296 -8.38847351 116.24578857 C-9.2656762 120.16589723 -10.14643215 124.08514003 -11.03393555 128.00292969 C-12.41226747 134.12298905 -13.76682114 140.22460115 -14.73828125 146.42578125 C-16.09268688 155.00076147 -18.22104195 163.41679087 -20.21557617 171.8605957 C-22.27122133 180.58728288 -24.13399046 189.29543804 -25.63372803 198.13539124 C-26.83014727 205.10389481 -28.36080896 211.9818849 -29.93725586 218.87280273 C-33.0562278 232.52534513 -35.97288239 246.21167206 -38.75 259.9375 C-41.47747179 273.41060389 -44.3602922 286.83896806 -47.38174438 300.24908447 C-49.70650513 310.57893758 -51.89407772 320.92305176 -53.9375 331.3125 C-56.31705156 343.41048156 -58.88581166 355.44490136 -61.75 367.4375 C-62.01425781 368.57316406 -62.27851562 369.70882813 -62.55078125 370.87890625 C-64.79636126 379.89886171 -67.79269599 388.13263066 -75.75 393.4375 C-81.20017084 396.61676632 -87.55265214 396.24930889 -93.50390625 394.73828125 C-102.31946437 391.51190692 -109.24914658 385.86146983 -116.55224609 380.140625 C-120.35845108 377.19104869 -124.24324919 374.34896599 -128.125 371.5 C-128.92019043 370.91436279 -129.71538086 370.32872559 -130.53466797 369.7253418 C-135.97842935 365.72095716 -141.45173971 361.75907309 -146.9375 357.8125 C-153.22772501 353.28631579 -159.45643571 348.68767255 -165.64575195 344.0246582 C-173.15719544 338.36818894 -180.72318245 332.78694542 -188.30810547 327.22949219 C-189.96792376 326.01142917 -191.62573216 324.79062359 -193.28173828 323.56738281 C-195.74601298 321.74730398 -198.21607142 319.9353479 -200.6875 318.125 C-201.4388623 317.56756104 -202.19022461 317.01012207 -202.96435547 316.43579102 C-203.6657666 315.92459717 -204.36717773 315.41340332 -205.08984375 314.88671875 C-205.70206787 314.43643311 -206.31429199 313.98614746 -206.94506836 313.5222168 C-208.95949141 312.31160113 -210.4015261 311.65191833 -212.75 311.4375 C-214.53224713 312.43660155 -214.53224713 312.43660155 -216.11328125 314.09375 C-216.74556641 314.69703125 -217.37785156 315.3003125 -218.02929688 315.921875 C-219.03573242 316.91960937 -219.03573242 316.91960937 -220.0625 317.9375 C-220.76310547 318.61296875 -221.46371094 319.2884375 -222.18554688 319.984375 C-227.70436687 325.3299585 -233.146399 330.76102386 -238.5246582 336.24804688 C-241.48228754 339.25129409 -244.49076071 342.11833444 -247.6875 344.8671875 C-252.67388661 349.16902681 -257.19971653 353.89765302 -261.75 358.65234375 C-267.5518833 364.57887689 -273.763542 370.35298376 -282.4375 370.5 C-284.0771875 370.4690625 -284.0771875 370.4690625 -285.75 370.4375 C-285.97282929 358.62863749 -285.27585287 346.93371281 -284.5078125 335.15625 C-284.37792102 333.1279807 -284.24819376 331.09970087 -284.11862183 329.07141113 C-283.84769176 324.84882931 -283.57318442 320.62649793 -283.29638672 316.40429688 C-282.94263926 311.00034437 -282.60044364 305.59572736 -282.26117134 300.1908493 C-281.99730797 296.01432065 -281.7261207 291.83829127 -281.45284653 287.66236877 C-281.32352364 285.6690758 -281.19675833 283.67561513 -281.07263565 281.68199158 C-280.89866627 278.90136683 -280.71452422 276.12159246 -280.52783203 273.34179688 C-280.47891815 272.52509521 -280.43000427 271.70839355 -280.37960815 270.86694336 C-279.98171771 265.17062147 -279.51034569 259.46276694 -274.9921875 255.47265625 C-274.45352051 254.98684082 -273.91485352 254.50102539 -273.35986328 254.00048828 C-272.7873584 253.50532715 -272.21485352 253.01016602 -271.625 252.5 C-271.03315918 251.97132324 -270.44131836 251.44264648 -269.83154297 250.89794922 C-268.14809683 249.39873795 -266.45241667 247.91509941 -264.75 246.4375 C-264.05390625 245.83035156 -263.3578125 245.22320313 -262.640625 244.59765625 C-261.43829655 243.5522689 -260.23377857 242.50939568 -259.02734375 241.46875 C-255.77053647 238.56387901 -252.61294466 235.55575991 -249.4375 232.5625 C-244.15827375 227.59139216 -238.7708578 222.91400896 -233.10546875 218.38671875 C-230.35254165 216.10859168 -227.87752177 213.65424379 -225.39453125 211.08984375 C-223.74158397 209.42904399 -222.02748362 207.90127609 -220.25 206.375 C-216.14489448 202.83915716 -212.20004759 199.14414762 -208.25 195.4375 C-203.76861187 191.2358223 -199.27391264 187.07102466 -194.62109375 183.05859375 C-188.55782609 177.80544954 -182.65864935 172.36319461 -176.75 166.9375 C-170.18641497 160.91040212 -163.60387937 154.9052718 -156.875 149.0625 C-152.9584976 145.65135274 -149.1349239 142.14157347 -145.31298828 138.62548828 C-141.34164122 134.97334525 -137.33643245 131.36069824 -133.3203125 127.7578125 C-130.40571473 125.12670144 -127.51466223 122.47091698 -124.625 119.8125 C-120.70348368 116.20717524 -116.74438764 112.65336442 -112.72265625 109.16015625 C-106.46554879 103.69602875 -100.34778755 98.07795348 -94.25 92.4375 C-92.61018861 90.92347508 -90.97003209 89.40982573 -89.32958984 87.89648438 C-88.29485668 86.94075557 -87.26128287 85.98376968 -86.22900391 85.02539062 C-84.84450352 83.74140432 -83.45367604 82.46425031 -82.0625 81.1875 C-81.27488281 80.46046875 -80.48726562 79.7334375 -79.67578125 78.984375 C-77.75 77.4375 -77.75 77.4375 -75.75 77.4375 C-75.09 74.4675 -74.43 71.4975 -73.75 68.4375 C-82.52078787 68.470849 -87.57550804 70.63903642 -94.75 75.4375 C-97.86179236 77.35514115 -100.99518298 79.23695634 -104.125 81.125 C-105.67613968 82.06366773 -107.22570353 83.00494604 -108.7734375 83.94921875 C-109.77769775 84.55963013 -109.77769775 84.55963013 -110.80224609 85.18237305 C-112.82266085 86.44314249 -112.82266085 86.44314249 -114.87353516 88.09301758 C-116.75 89.4375 -116.75 89.4375 -118.75 89.4375 C-119.08 90.4275 -119.41 91.4175 -119.75 92.4375 C-121.4296875 93.32421875 -121.4296875 93.32421875 -123.625 94.125 C-128.7277883 96.22614812 -132.75180091 99.26266436 -137.140625 102.56640625 C-139.83619372 104.49930658 -142.47536748 105.87153289 -145.46875 107.2578125 C-150.55536334 109.88821871 -155.28651891 113.21184658 -160.07617188 116.34423828 C-167.49318335 121.18866322 -175.0241565 125.8479499 -182.5625 130.5 C-192.80244412 136.82173373 -202.95571523 143.27421483 -213.09960938 149.74853516 C-227.76323158 159.09294732 -242.46160966 168.3931088 -257.3125 177.4375 C-262.64365672 180.70455905 -267.83207778 184.14887713 -273.01049805 187.6496582 C-278.07207561 191.04642326 -283.27083186 194.15972759 -288.52880859 197.24047852 C-292.86822043 199.81704031 -296.80619784 202.63597064 -300.625 205.9296875 C-303.4668256 207.94612993 -306.54851987 209.07080624 -309.75 210.4375 C-311.96766154 211.76330486 -314.15488139 213.14107003 -316.3125 214.5625 C-317.20171143 215.14257812 -317.20171143 215.14257812 -318.10888672 215.734375 C-320.64206296 217.38717087 -323.16664594 219.05289996 -325.69189453 220.71777344 C-327.58333998 221.96220818 -329.47903596 223.19996488 -331.375 224.4375 C-331.95451416 224.82309082 -332.53402832 225.20868164 -333.13110352 225.60595703 C-338.41895491 229.05540213 -338.41895491 229.05540213 -341.75 229.4375 C-344.21651717 228.83397678 -346.51685073 228.15860569 -348.91015625 227.33984375 C-349.60848068 227.11022446 -350.30680511 226.88060516 -351.02629089 226.64402771 C-353.29156961 225.89700927 -355.55185985 225.13592663 -357.8125 224.375 C-359.36192194 223.8622859 -360.91172807 223.35073136 -362.46191406 222.84033203 C-365.51074306 221.83557556 -368.55805978 220.82645613 -371.60400391 219.81298828 C-376.72487446 218.11108145 -381.85747327 216.44776936 -387 214.8125 C-387.72324463 214.57781006 -388.44648926 214.34312012 -389.19165039 214.10131836 C-393.02278811 212.88162249 -396.76752869 211.99405655 -400.75 211.4375 C-400.75 210.7775 -400.75 210.1175 -400.75 209.4375 C-401.7723877 209.31076904 -402.79477539 209.18403809 -403.84814453 209.0534668 C-407.44826328 208.4851337 -410.70571541 207.66513006 -414.1796875 206.58203125 C-415.37972412 206.20973389 -416.57976074 205.83743652 -417.81616211 205.45385742 C-419.70153687 204.857948 -419.70153687 204.857948 -421.625 204.25 C-422.26873566 204.04774811 -422.91247131 203.84549622 -423.57571411 203.63711548 C-457.95116489 192.83606102 -457.95116489 192.83606102 -464.75 184.4375 C-465.49250374 180.55998044 -464.97557031 178.86261328 -463.125 175.375 C-458.50658321 169.66274766 -453.74915462 166.64735148 -447.04296875 163.9921875 C-445.95572258 163.54735519 -445.95572258 163.54735519 -444.84651184 163.09353638 C-442.54751189 162.15628471 -440.24263115 161.23455246 -437.9375 160.3125 C-436.40261318 159.68713372 -434.86810425 159.0608391 -433.33398438 158.43359375 C-426.20481021 155.53341851 -419.08961262 152.76740953 -411.75 150.4375 C-410.80125 150.045625 -409.8525 149.65375 -408.875 149.25 C-406.75 148.4375 -406.75 148.4375 -403.75 148.4375 C-403.75 147.7775 -403.75 147.1175 -403.75 146.4375 C-402.63109375 146.05980469 -401.5121875 145.68210937 -400.359375 145.29296875 C-388.60164879 141.27344668 -377.02327456 136.8675719 -365.48535156 132.25854492 C-360.01968495 130.0816804 -354.57118678 128.00975071 -348.97338867 126.20214844 C-344.48430216 124.65830096 -340.12742553 122.76948886 -335.75 120.9375 C-329.7895606 118.44300672 -323.85671485 116.07037273 -317.70605469 114.08544922 C-314.36510935 112.97875065 -311.15215626 111.57936623 -307.9140625 110.20703125 C-305.75 109.4375 -305.75 109.4375 -302.75 109.4375 C-302.75 108.7775 -302.75 108.1175 -302.75 107.4375 C-301.63109375 107.05980469 -300.5121875 106.68210937 -299.359375 106.29296875 C-287.60164879 102.27344668 -276.02327456 97.8675719 -264.48535156 93.25854492 C-259.01968495 91.0816804 -253.57118678 89.00975071 -247.97338867 87.20214844 C-243.48430216 85.65830096 -239.12742553 83.76948886 -234.75 81.9375 C-224.34513339 77.5829771 -224.34513339 77.5829771 -219.34375 75.96875 C-213.52900966 74.09085788 -207.90653157 71.74075836 -202.25 69.4375 C-195.76798844 66.79811805 -189.31597471 64.21667543 -182.65332031 62.06787109 C-179.33033543 60.9673135 -176.13467072 59.57195569 -172.9140625 58.20703125 C-170.75 57.4375 -170.75 57.4375 -167.75 57.4375 C-167.75 56.7775 -167.75 56.1175 -167.75 55.4375 C-158.75 52.4375 -158.75 52.4375 -156.86474609 51.83837891 C-150.19670724 49.68637273 -143.73701537 47.07891943 -137.25 44.4375 C-130.87295008 41.84085692 -124.52807063 39.3112743 -117.97558594 37.19335938 C-113.61887435 35.71372148 -109.37844246 33.93792637 -105.125 32.1875 C-104.16078125 31.79344971 -103.1965625 31.39939941 -102.203125 30.9934082 C-96.63277872 28.69610456 -91.16613646 26.26286579 -85.75 23.625 C-79.92664194 20.8320995 -74.17716938 19.03572368 -67.9453125 17.390625 C-64.16505103 16.26301644 -60.9196254 14.65455547 -57.453125 12.80078125 C-54.06010938 11.08956383 -50.58933822 9.66004367 -47.0625 8.25 C-45.84175781 7.76144531 -44.62101562 7.27289062 -43.36328125 6.76953125 C-39.85812375 5.47735968 -36.34334945 4.45219144 -32.75 3.4375 C-31.11414528 2.81967719 -29.48767541 2.1760205 -27.875 1.5 C-27.02292969 1.15710938 -26.17085937 0.81421875 -25.29296875 0.4609375 C-23.66760802 -0.19320153 -22.04490804 -0.85401701 -20.42578125 -1.5234375 C-12.89843385 -4.38724506 -6.97529492 -4.22675156 0 0 Z " fill="#98E7F9" transform="translate(1044.75,561.5625)"/>
</svg>
