<?xml version="1.0" encoding="UTF-8"?>
<svg version="1.1" xmlns="http://www.w3.org/2000/svg" width="351" height="365">
<path d="M0 0 C3.02692361 1.04192064 4.9201048 2.19579046 7.37109375 4.23828125 C8.14453125 4.87894531 8.91796875 5.51960937 9.71484375 6.1796875 C10.42640625 6.77652344 11.13796875 7.37335937 11.87109375 7.98828125 C12.86109375 8.71015625 13.85109375 9.43203125 14.87109375 10.17578125 C22.70379673 16.83030607 28.44770286 26.38902438 31.87109375 35.98828125 C31.87109375 36.64828125 31.87109375 37.30828125 31.87109375 37.98828125 C32.61230469 38.07464844 33.35351562 38.16101562 34.1171875 38.25 C42.34454438 39.34765226 50.00881859 41.32913338 57.92578125 43.76953125 C58.58634521 43.9703833 59.24690918 44.17123535 59.92749023 44.37817383 C61.8261129 44.97416152 63.70655322 45.62712151 65.5859375 46.28125 C69.36334791 47.09422418 70.35150092 46.79891762 73.55859375 44.80078125 C84.03797321 39.02449679 94.18920432 38.55739189 105.87109375 38.98828125 C109.74148565 47.58586937 113.19785145 55.54970455 112.703125 65.109375 C112.00044764 72.97260308 112.00044764 72.97260308 114.22265625 80.26171875 C115.54992142 81.46882 116.92355256 82.62598746 118.328125 83.7421875 C137.86858869 101.00142962 149.03494134 132.44036291 151.75 157.70703125 C152.05492336 163.45139397 152.11747635 169.24176937 151.87109375 174.98828125 C150.87109375 175.98828125 150.87109375 175.98828125 148.30859375 176.05078125 C147.50421875 176.03015625 146.69984375 176.00953125 145.87109375 175.98828125 C145.45859375 174.74175781 145.04609375 173.49523437 144.62109375 172.2109375 C134.2059831 141.26833484 118.10188811 113.90869854 89.87109375 95.98828125 C88.85789062 95.34117188 87.8446875 94.6940625 86.80078125 94.02734375 C57.46394336 76.26188043 23.3871585 73.1215444 -9.6015625 81.01953125 C-24.27145963 84.83174697 -37.28960905 91.53286961 -49.12890625 100.98828125 C-49.73605469 101.43171875 -50.34320313 101.87515625 -50.96875 102.33203125 C-72.26566435 118.76823809 -82.04932 147.92733396 -86.7421875 173.3046875 C-89.77821488 202.22361496 -84.3622907 228.6504862 -66.44140625 251.92578125 C-49.22648844 272.68112556 -26.35980154 286.72200048 0.78173828 289.80078125 C22.46727116 291.74685384 42.81101862 287.84802675 59.90625 273.6640625 C60.55464844 273.11105469 61.20304688 272.55804688 61.87109375 271.98828125 C62.68835938 271.36824219 63.505625 270.74820312 64.34765625 270.109375 C75.90860815 260.39173277 83.98790474 243.62792199 86.87109375 228.98828125 C87.21140625 227.31765625 87.21140625 227.31765625 87.55859375 225.61328125 C89.02935408 208.55246139 86.34323301 192.93208153 75.6484375 179.1171875 C66.21902241 168.10375023 53.4238766 160.13290188 38.87109375 157.98828125 C23.49908561 157.12969433 11.45316075 159.59510224 -0.75390625 169.55078125 C-9.38774264 177.58085286 -14.32880032 188.32234519 -15.40625 199.9921875 C-15.78683346 211.91206156 -12.27052598 221.01936571 -4.41796875 229.9296875 C2.87659894 237.05497198 12.09297243 240.23953067 22.18359375 240.48828125 C27.75054654 240.29034515 31.80515244 239.19887382 36.87109375 236.98828125 C39.74609375 236.67578125 39.74609375 236.67578125 41.87109375 236.98828125 C42.53109375 237.64828125 43.19109375 238.30828125 43.87109375 238.98828125 C43.70925837 242.03863305 43.34867316 243.51614124 41.15625 245.68359375 C29.83869636 252.96342614 18.99304116 254.45169533 5.62890625 252.51953125 C-9.30637155 249.26092518 -21.31104755 240.22392647 -29.6640625 227.52734375 C-31.99089008 223.49417594 -33.69717461 219.41297954 -35.12890625 214.98828125 C-35.35449219 214.32957031 -35.58007812 213.67085937 -35.8125 212.9921875 C-40.67142751 195.80163706 -36.39562297 176.65504123 -28.16015625 161.30078125 C-17.64036971 144.14543704 -2.4590887 133.37280739 16.6953125 127.89453125 C41.02255159 122.40374374 65.85318661 127.98107515 86.87109375 140.98828125 C90.4130694 143.44885725 93.66147465 146.10981333 96.87109375 148.98828125 C97.76570313 149.78878906 98.6603125 150.58929688 99.58203125 151.4140625 C115.19119191 166.17062195 124.48625483 184.83980766 127.87109375 205.98828125 C128.06638672 207.11169922 128.06638672 207.11169922 128.265625 208.2578125 C128.78867173 211.90519168 128.87052423 215.36235181 128.64453125 219.03515625 C127.94517021 227.05808038 127.94517021 227.05808038 130.40234375 234.44140625 C131.77235683 235.69549515 133.18778863 236.90146744 134.640625 238.05859375 C142.73648308 245.06271616 146.71283929 257.34155278 148.2734375 267.64453125 C147.87109375 269.98828125 147.87109375 269.98828125 145.81640625 271.8671875 C135.04484097 278.29730472 125.54646884 282.11940473 112.87109375 282.98828125 C112.21109375 282.65828125 111.55109375 282.32828125 110.87109375 281.98828125 C110.62488281 282.70628906 110.37867188 283.42429687 110.125 284.1640625 C107.76766249 289.4735797 103.62595617 293.60957022 99.87109375 297.98828125 C99.13117188 298.86484375 98.39125 299.74140625 97.62890625 300.64453125 C92.28470857 306.8065243 86.26500971 313.29132327 78.87109375 316.98828125 C78.52087321 319.22729806 78.26812905 321.48174726 78.05859375 323.73828125 C76.66433213 335.9355208 71.98076141 346.02841274 64.87109375 355.98828125 C64.36449219 356.72691406 63.85789063 357.46554687 63.3359375 358.2265625 C62.61083984 359.19142578 62.61083984 359.19142578 61.87109375 360.17578125 C61.45859375 360.72621094 61.04609375 361.27664063 60.62109375 361.84375 C57.71640184 363.74347038 55.26235945 363.28195787 51.87109375 362.98828125 C49.21228105 362.27759232 46.79604881 361.53228288 44.24609375 360.55078125 C43.20884155 360.15415283 43.20884155 360.15415283 42.15063477 359.74951172 C34.87625925 356.8123772 26.02435584 352.56473638 21.48632812 345.97851562 C18.87723652 342.26699094 17.07376722 340.30315848 12.59057617 339.12939453 C9.26115448 338.7461917 5.98020903 338.47481898 2.63464355 338.33099365 C-0.96093007 338.175115 -4.54770426 337.90026748 -8.13671875 337.63671875 C-8.83583374 337.58834869 -9.53494873 337.53997864 -10.25524902 337.49014282 C-18.61868384 336.87544698 -27.36435321 335.40134997 -35.14453125 332.14453125 C-38.47656152 331.88216666 -40.90906058 333.90009539 -43.62890625 335.61328125 C-60.20863967 345.5274042 -76.91828237 349.27644061 -96.12890625 348.98828125 C-103.40230246 333.17832198 -103.72928553 315.93651562 -99.6875 299.23046875 C-99.11559063 295.91099476 -98.99124964 294.13596794 -100.12890625 290.98828125 C-102.11147932 288.26891429 -102.11147932 288.26891429 -104.62890625 285.55078125 C-108.56114583 281.04511993 -112.02929724 276.4007529 -115.25390625 271.36328125 C-115.64384766 270.75943604 -116.03378906 270.15559082 -116.43554688 269.53344727 C-119.12890625 265.2557229 -119.12890625 265.2557229 -119.12890625 262.98828125 C-119.67675781 262.97410156 -120.22460938 262.95992188 -120.7890625 262.9453125 C-140.04468618 261.78684408 -157.83166956 251.33833636 -172.12890625 238.98828125 C-172.67192383 238.51922363 -173.21494141 238.05016602 -173.77441406 237.56689453 C-175.37905939 236.15150773 -176.94648737 234.70534568 -178.50390625 233.23828125 C-179.41914063 232.3771875 -180.334375 231.51609375 -181.27734375 230.62890625 C-183.12890625 227.98828125 -183.12890625 227.98828125 -183.171875 225.17578125 C-181.84500145 221.12061715 -180.09194383 217.486531 -178.06640625 213.73828125 C-177.66518555 212.98828857 -177.26396484 212.2382959 -176.85058594 211.46557617 C-173.53710186 205.42583247 -169.69030495 200.15230376 -165.12890625 194.98828125 C-164.36835938 194.02535156 -163.6078125 193.06242188 -162.82421875 192.0703125 C-160.0006867 188.67553014 -156.74492105 186.04401713 -153.25390625 183.36328125 C-152.66738281 182.89921875 -152.08085937 182.43515625 -151.4765625 181.95703125 C-148.49977019 179.64102141 -145.7397063 177.78736296 -142.30859375 176.21484375 C-138.82921289 173.78732774 -138.82921289 173.78732774 -137.8828125 170.03125 C-137.62723497 168.35090514 -137.37636703 166.66984061 -137.12890625 164.98828125 C-136.65735591 162.93816483 -136.16519905 160.89271607 -135.65625 158.8515625 C-135.39650391 157.77970703 -135.13675781 156.70785156 -134.86914062 155.60351562 C-134.33107705 153.38973093 -133.7920037 151.17619143 -133.25195312 148.96289062 C-132.99349609 147.89490234 -132.73503906 146.82691406 -132.46875 145.7265625 C-132.11864868 144.288573 -132.11864868 144.288573 -131.76147461 142.8215332 C-130.14261152 136.7555239 -130.14261152 136.7555239 -131.5703125 130.90234375 C-132.27027344 129.81695312 -132.97023437 128.7315625 -133.69140625 127.61328125 C-144.49261836 109.94956467 -152.0428213 84.65792391 -147.12890625 63.98828125 C-139.6851657 56.96989731 -121.03353115 55.27248856 -111.12890625 54.98828125 C-110.47672119 54.96781738 -109.82453613 54.94735352 -109.15258789 54.92626953 C-103.45579229 54.82544129 -98.0540084 55.42709741 -92.44140625 56.36328125 C-91.62607422 56.48960938 -90.81074219 56.6159375 -89.97070312 56.74609375 C-86.43610958 57.31757209 -83.24411549 57.94726291 -79.859375 59.15234375 C-76.65111517 60.13455777 -75.28965091 60.07237812 -72.12890625 58.98828125 C-69.74976354 57.68146849 -67.44251253 56.33890654 -65.12890625 54.92578125 C-59.5048587 51.54334696 -54.06550715 49.21937478 -47.80541992 47.25878906 C-38.94990214 44.77881193 -38.94990214 44.77881193 -32.7421875 38.5390625 C-31.68007989 35.99685655 -30.9448894 33.41390225 -30.23828125 30.75390625 C-28.51106687 24.89110814 -24.96398007 20.65096252 -21.12890625 15.98828125 C-20.35546875 15.00859375 -19.58203125 14.02890625 -18.78515625 13.01953125 C-16.06614209 9.77756989 -13.01636799 7.15241798 -9.69140625 4.55078125 C-9.14419922 4.09251953 -8.59699219 3.63425781 -8.03320312 3.16210938 C-5.24090157 0.97122662 -3.58891477 -0.01344163 0 0 Z " fill="#F4821D" transform="translate(191.12890625,1.01171875)"/>
</svg>
