<?xml version="1.0" encoding="UTF-8"?>
<svg version="1.1" xmlns="http://www.w3.org/2000/svg" width="460" height="460">
<path d="M0 0 C151.8 0 303.6 0 460 0 C460 151.8 460 303.6 460 460 C308.2 460 156.4 460 0 460 C0 308.2 0 156.4 0 0 Z " fill="#18BCF2" transform="translate(0,0)"/>
<path d="M0 0 C6.62778565 3.18877739 11.26779942 7.83657858 16.42016602 13.01611328 C17.33813965 13.92722366 18.25611328 14.83833405 19.2019043 15.77705383 C21.70686268 18.26414605 24.2022541 20.76062881 26.69543195 23.25952387 C28.78481256 25.35200721 30.87878569 27.43986468 32.97272819 29.52778137 C37.91761686 34.45864656 42.85469045 39.39724027 47.78686523 44.34082031 C52.85740215 49.42282384 57.94056086 54.49194095 63.03022438 59.55478299 C67.41479893 63.91712354 71.79148655 68.28726842 76.16203064 72.66366565 C78.76565514 75.27064407 81.37201888 77.87471387 83.98596382 80.47134781 C86.90520011 83.37209105 89.80779153 86.28897268 92.70922852 89.20751953 C93.9928553 90.47664436 93.9928553 90.47664436 95.30241394 91.77140808 C105.87670591 102.47609767 111.48598147 113.51055622 111.40405273 128.65307617 C111.41091599 129.56012802 111.41777924 130.46717987 111.42485046 131.40171814 C111.44298164 134.36563269 111.43930243 137.32901129 111.43359375 140.29296875 C111.43816039 142.36941193 111.44346739 144.44585359 111.44947815 146.52229309 C111.45838103 150.85859346 111.4560163 155.19470935 111.44604492 159.53100586 C111.43452752 165.07923218 111.45482375 170.62682465 111.48396206 176.17496777 C111.50232611 180.45673134 111.5020317 184.73834281 111.49632454 189.02013588 C111.49617152 191.06580816 111.50219988 193.11149087 111.51461601 195.15712547 C111.52953721 198.01685632 111.51884247 200.87541269 111.50170898 203.73510742 C111.51621094 204.99224548 111.51621094 204.99224548 111.53100586 206.27478027 C111.45946294 211.99363511 110.49061822 215.39987657 107 220 C101.54634079 224.16396513 97.20676813 224.56610012 90.48461914 224.45410156 C89.55700775 224.45468567 88.62939636 224.45526978 87.67367554 224.45587158 C84.62711328 224.45309907 81.58154624 224.42204629 78.53515625 224.390625 C76.41524286 224.38315965 74.29532255 224.37746811 72.17539978 224.37347412 C66.61038989 224.35824101 61.04580115 224.31897891 55.48095703 224.2746582 C49.79660742 224.23365554 44.11218941 224.21545242 38.42773438 224.1953125 C27.28497176 224.15248265 16.14252098 224.08425925 5 224 C1.60069683 196.99738535 1.60069683 196.99738535 8.65039062 186.59814453 C12.65336389 181.6879192 17.13257116 177.35463893 21.85791016 173.14428711 C24.78528159 170.53100389 27.57678471 167.81504886 30.37109375 165.06054688 C32.19392099 163.32636957 34.02314134 161.59888183 35.859375 159.87890625 C36.69426453 159.07932999 37.52915405 158.27975372 38.38934326 157.45594788 C43.04691115 153.36159801 46.05711505 151.54288688 52.36035156 151.60522461 C53.33184143 151.69444687 54.3033313 151.78366913 55.30426025 151.87559509 C59.6495948 152.07612667 62.57413168 150.53514256 66 148 C66.90105469 147.34064453 66.90105469 147.34064453 67.8203125 146.66796875 C70.86615517 143.87004351 71.88382462 141.76765118 72.5078125 137.64453125 C72.67467672 132.36605986 72.54952426 128.2258618 70.375 123.375 C65.37435038 118.37435038 60.30282477 115.44784065 53.3125 114.5 C46.57263219 114.67904772 41.09134075 118.95966756 36.4375 123.5 C34.78826917 126.81474486 34.78826917 126.81474486 35.13305664 129.88134766 C35.45925067 137.18955995 34.48445541 141.24448285 29.63328552 146.63409424 C26.51344826 149.81785669 23.27928813 152.85694329 20 155.875 C18.66114864 157.15712037 17.32517993 158.44225807 15.9921875 159.73046875 C6.32854898 169 6.32854898 169 5 169 C4.81413265 159.1162085 4.67223841 149.23283682 4.58550262 139.34764957 C4.54385962 134.75677047 4.48743598 130.16709229 4.39648438 125.5769043 C4.3091616 121.14178724 4.26164407 116.70782047 4.24098206 112.27190971 C4.22627028 110.58497455 4.19753989 108.89809804 4.15415955 107.21165657 C3.78739082 92.35395208 3.78739082 92.35395208 8.98632812 86.51733398 C10.30793402 85.32656295 11.642301 84.14944823 13 83 C15.24641321 78.50717359 14.57426808 72.86176475 14 68 C12.00505245 62.87644467 8.95591136 59.18960916 4.1875 56.4375 C-0.96959454 54.31572396 -5.91469745 53.79584415 -11.171875 55.84765625 C-16.31557142 58.69989393 -19.99633183 62.420979 -22 68 C-23.14444302 74.9698456 -22.60830141 80.47720542 -18.484375 86.28125 C-17.03595178 88.10088068 -17.03595178 88.10088068 -14.93560791 89.44219971 C-11.85196231 93.5170692 -12.47603416 97.67108235 -12.54589844 102.64355469 C-12.54531433 103.72678513 -12.54473022 104.81001556 -12.54412842 105.92607117 C-12.54691626 109.50833117 -12.57804274 113.08976026 -12.609375 116.671875 C-12.61683486 119.15480088 -12.622529 121.63773264 -12.62652588 124.1206665 C-12.64024051 129.98910336 -12.67176911 135.85723319 -12.71192384 141.72554421 C-12.76104074 149.06307507 -12.78250791 156.4006235 -12.8046875 163.73828125 C-12.84759343 176.82567244 -12.91510092 189.91281733 -13 203 C-17.75537109 198.24902344 -17.75537109 198.24902344 -19.95703125 196.0078125 C-23.20063102 192.71641231 -26.47252622 189.54941788 -30 186.5625 C-31.33827799 185.38057528 -32.67146497 184.19286575 -34 183 C-34.74121094 182.35804688 -35.48242188 181.71609375 -36.24609375 181.0546875 C-42.0729041 175.4252201 -42.59434982 171.25966824 -42.765625 163.3125 C-43.10917711 158.45696349 -44.4675686 155.34693843 -48 152 C-52.72685683 148.69444892 -58.02791446 146.02185959 -63.921875 146.453125 C-69.59025326 147.94480349 -75.24805877 151.25118766 -78.625 156.125 C-81.22122007 161.72736962 -81.20727873 168.61739417 -79.15234375 174.375 C-76.38449473 179.32898062 -72.44293758 183.19475904 -67 185 C-65.14119675 184.86605682 -63.28611367 184.6735461 -61.4375 184.4375 C-55.89521617 184.17858017 -53.33750142 185.8371087 -49.36621094 189.38818359 C-46.1416007 192.50095292 -43.03919781 195.70640883 -40 199 C-39.47986328 199.55961426 -38.95972656 200.11922852 -38.42382812 200.69580078 C-36.1163967 203.18938952 -33.83751216 205.7043399 -31.57421875 208.23828125 C-28.28639091 211.76558668 -24.75232537 214.92657825 -21.09375 218.0625 C-19.09198377 219.91488069 -17.60050762 221.80358298 -16 224 C-27.87434796 224.09276136 -39.74860942 224.16379637 -51.62324619 224.20724869 C-57.13738891 224.22810575 -62.65128336 224.25638939 -68.1652832 224.30175781 C-73.48858512 224.34528211 -78.81164852 224.36915126 -84.13511467 224.37950897 C-86.16406953 224.38688848 -88.19301163 224.40129899 -90.2218647 224.42292023 C-93.06819796 224.45204147 -95.91355103 224.45595233 -98.76000977 224.45410156 C-99.59511078 224.46848267 -100.43021179 224.48286377 -101.2906189 224.49768066 C-107.01374996 224.45752686 -110.39781269 223.49478744 -115 220 C-119.08650277 214.61458804 -119.57818197 210.36435921 -119.50170898 203.73510742 C-119.50711197 202.83331253 -119.51251495 201.93151764 -119.51808167 201.00239563 C-119.53053596 198.03641411 -119.51409576 195.07140984 -119.49609375 192.10546875 C-119.49624886 190.03192596 -119.49773974 187.95838288 -119.50050354 185.88484192 C-119.5018862 181.54313304 -119.48935465 177.20175502 -119.46655273 172.86010742 C-119.43822207 167.31552219 -119.4408929 161.77148861 -119.45364285 156.22686291 C-119.46062515 151.94496515 -119.45278076 147.66319311 -119.44038582 143.38131142 C-119.43589234 141.33813269 -119.43551599 139.29494036 -119.43945122 137.25176048 C-119.44238715 134.38525511 -119.42574157 131.51948786 -119.40405273 128.65307617 C-119.40855438 127.82105682 -119.41305603 126.98903748 -119.41769409 126.13180542 C-119.22279347 110.49665388 -111.36580844 99.74402142 -100.6015625 89.09985352 C-99.21019073 87.70037727 -99.21019073 87.70037727 -97.79071045 86.27262878 C-95.27096052 83.73904259 -92.73898275 81.21802918 -90.2040329 78.69966245 C-87.54196073 76.05154387 -84.89016146 73.39317033 -82.23681641 70.73631287 C-77.785297 66.28210108 -73.32580543 61.83599701 -68.86132812 57.39477539 C-63.7077176 52.2678257 -58.56671321 47.12849549 -53.4322834 41.9823423 C-48.47686427 37.01613169 -43.51298608 32.05846136 -38.54510498 27.10471916 C-36.43727732 25.00263363 -34.33237605 22.89768149 -32.22979736 20.79034615 C-29.29468522 17.84956022 -26.34727698 14.92140554 -23.3984375 11.99438477 C-22.53176453 11.12321014 -21.66509155 10.25203552 -20.77215576 9.35446167 C-14.83364186 3.4888032 -8.98791038 -2.00608896 0 0 Z " fill="#F0F3F8" transform="translate(234,121)"/>
</svg>
