<?xml version="1.0" encoding="UTF-8"?>
<svg version="1.1" xmlns="http://www.w3.org/2000/svg" width="1009" height="1024">
<path d="M0 0 C2.04822526 0.57441004 4.1112913 1.09932504 6.1875 1.5625 C11.89582573 2.87980594 17.26996893 4.85626178 22.76171875 6.87890625 C25.36533113 7.78027748 27.80567424 8.47513135 30.5 9 C35.70632918 10.01610514 40.5583962 11.95451059 45.52734375 13.77734375 C49.3521485 15.12398479 53.19197961 16.17634653 57.11328125 17.1953125 C61.13138633 18.31537968 65.06142903 19.67199001 69.0090332 21.0168457 C74.71823247 22.94448647 80.48270146 24.65073777 86.27783203 26.30029297 C89.94918932 27.35439292 93.45740229 28.58296092 97 30 C98.78438471 30.46631202 100.57695034 30.90202088 102.375 31.3125 C107.72360656 32.61210037 112.8901285 34.24903742 118.09716797 36.02709961 C122.70156859 37.58982278 127.33029128 39.02052954 132 40.375 C139.03311749 42.41841691 146.05238707 44.50387118 153.0625 46.625 C154.02607422 46.9142334 154.98964844 47.2034668 155.98242188 47.50146484 C160.14448478 48.76386058 164.2598401 50.0598169 168.3203125 51.62109375 C171.49335095 52.81014107 174.51469439 53.6949172 177.8125 54.4375 C182.66350924 55.60488751 187.21553254 57.12691351 191.875 58.89453125 C196.46221232 60.51725761 201.12937039 61.84084808 205.8112793 63.16162109 C209.32245382 64.16363373 212.74736049 65.25070538 216.15625 66.5625 C219.33793957 67.78520736 222.48197019 68.68754853 225.8125 69.4375 C229.7634327 70.38572385 233.51615591 71.49127368 237.3125 72.9375 C242.89149488 75.05478089 248.57788676 76.50485115 254.3515625 77.9921875 C258.51825734 79.14315888 262.49859988 80.6015233 266.53515625 82.13671875 C268.80033905 82.93007121 270.96123775 83.47587603 273.3125 83.9375 C277.19413731 84.72069762 280.78298783 85.94775893 284.5 87.3125 C289.48025161 89.13454327 294.46425625 90.7857704 299.5625 92.25 C308.71099302 94.88059488 317.79366757 97.71270545 326.88110352 100.54614258 C335.8584917 103.34270386 344.84803447 106.09580199 353.85595703 108.79248047 C357.99118882 110.03954114 361.99525475 111.37585332 366 113 C367.2375 113.2475 368.475 113.495 369.75 113.75 C374.3118724 114.70920165 378.62642633 116.2261044 383 117.8125 C388.66591807 119.86104278 394.33568751 121.76783978 400.125 123.4375 C400.80651123 123.63448486 401.48802246 123.83146973 402.19018555 124.03442383 C403.64962637 124.45547076 405.10918529 124.87610847 406.56884766 125.29638672 C434.19622564 133.29217938 458.44544594 141.70225817 474 168 C479.21794932 178.04562169 482.01327873 188.36512386 484.1015625 199.43359375 C484.8890775 203.59108186 485.92263905 207.61228285 487.0625 211.6875 C488.62120229 217.33628545 489.77504591 222.96680606 490.78540039 228.73681641 C491.9058056 234.91954483 493.51423905 240.93628194 495.16162109 246.99633789 C496.79801259 253.07198166 498.07845313 259.14146817 499.25390625 265.32421875 C500.0513029 269.25275406 501.00070246 273.11919202 502 277 C503.30217487 282.06191549 504.4535917 287.11366513 505.4375 292.25 C506.55104859 297.99136072 507.86919324 303.64553902 509.3125 309.3125 C513.67293253 326.45333867 517.53396673 343.70874389 521.24169922 361.0012207 C522.4355251 366.52932196 523.71793222 372.02243787 525.125 377.5 C526.40727299 382.50086467 527.52485583 387.49279888 528.5 392.5625 C529.7165521 398.87128657 531.28003265 404.99722331 533.03515625 411.171875 C533.79815798 414.19916932 534.40378118 417.14870059 534.9375 420.21875 C535.98005143 426.14461839 537.42827116 431.92828425 538.9375 437.75 C540.95002979 445.64037537 542.77114289 453.49967076 544.2890625 461.5 C545.21361401 466.05163822 546.36433525 470.53133844 547.5222168 475.02807617 C548.64379993 479.43379992 549.58800041 483.84422813 550.4375 488.3125 C551.55701171 494.11805525 552.9563017 499.79344298 554.5 505.5 C556.36958923 512.4112712 557.91635431 519.28884667 559.25390625 526.32421875 C560.0513029 530.25275406 561.00070246 534.11919202 562 538 C563.30217487 543.06191549 564.4535917 548.11366513 565.4375 553.25 C566.75975098 560.09969363 568.43262115 566.8285574 570.16162109 573.58569336 C571.72830008 579.76313815 573.02518807 585.94036106 574.19726562 592.20556641 C574.97117519 595.86374842 575.98164579 599.36256813 577.05859375 602.94140625 C579.13555079 610.36052302 579.61746577 617.41268948 579.52148438 625.08935547 C579.49992211 627.13238021 579.521491 629.17192012 579.546875 631.21484375 C579.57318178 643.00329361 576.80384086 653.18044397 571.4375 663.625 C570.85871094 664.77226563 570.27992188 665.91953125 569.68359375 667.1015625 C568.25877139 669.55450494 567.06389572 671.12480332 565 673 C564.566875 673.7425 564.13375 674.485 563.6875 675.25 C560.00268461 681.25488434 555.89665863 685.15435307 550 689 C548.65576661 690.65788785 547.32381517 692.32576317 546 694 C544.07367197 695.77157018 542.09855911 697.46960425 540.09765625 699.15625 C537.61958161 701.33437147 535.32770964 703.66192963 533 706 C530.95833913 707.96034247 528.88941387 709.88962177 526.8125 711.8125 C526.27947266 712.31458984 525.74644531 712.81667969 525.19726562 713.33398438 C521.23198342 717 521.23198342 717 519 717 C518.67 717.99 518.34 718.98 518 720 C516.42480469 721.56933594 516.42480469 721.56933594 514.421875 723.234375 C510.23942287 726.78368655 506.23545376 730.48224949 502.25 734.25 C484.66806344 750.79661748 484.66806344 750.79661748 476.4296875 757.75390625 C475.13204222 758.88491402 473.90468155 760.09531845 472.6875 761.3125 C470.19455655 763.80544345 467.62818702 766.15132474 465 768.5 C461.56198849 771.57638363 458.21720288 774.69087703 455 778 C450.72207788 782.34351207 446.25139483 786.42571251 441.71875 790.5 C439.87241827 792.1977763 438.07468091 793.94963405 436.32421875 795.74609375 C434 798 434 798 431.3125 799.0625 C428.8796951 799.74153869 428.8796951 799.74153869 428.203125 801.73046875 C426.53858395 804.87039845 424.06007965 806.92305517 421.4375 809.25 C420.25950848 810.31540294 419.08247476 811.38186559 417.90625 812.44921875 C417.27589844 813.01946777 416.64554688 813.5897168 415.99609375 814.17724609 C412.43553951 817.42860348 408.94069505 820.74961069 405.4375 824.0625 C396.6359848 832.36401841 387.7947245 840.60411414 378.65234375 848.53125 C377.26534698 849.76413602 375.93720577 851.06279423 374.625 852.375 C372.15341886 854.84658114 369.60556821 857.1711293 367 859.5 C363.56198849 862.57638363 360.21720288 865.69087703 357 869 C352.96102642 873.15437283 348.68523743 876.99701788 344.36328125 880.8515625 C342.56961673 882.48216661 340.85916499 884.12373192 339.1875 885.875 C337 888 337 888 334.5625 889.375 C331.59236133 891.25850257 329.87143727 893.41563152 327.66015625 896.11328125 C325.34818517 898.74076838 322.73296785 900.92084291 320.0703125 903.18359375 C317.32279927 905.59414781 314.78776205 908.18410359 312.25 910.8125 C310.31071769 912.69791336 308.33157841 914.47126937 306.2890625 916.2421875 C301.10470622 920.74458121 296.15209015 925.48132877 291.1796875 930.21484375 C287.22479936 933.96195697 283.21044201 937.54366701 279 941 C278.2575 941.7425 277.515 942.485 276.75 943.25 C273.4106886 946.5893114 269.89537349 949.70174726 266.37109375 952.84375 C264.53216554 954.51605374 262.7786922 956.20556196 261.0625 958 C259 960 259 960 256 961 C255.59201172 961.87011719 255.59201172 961.87011719 255.17578125 962.7578125 C253.52408543 965.90755802 250.93901109 967.72569387 248.1875 969.875 C243.87524073 973.25444669 240.51977001 976.75951518 237 981 C235.18523885 982.56764474 233.33072653 984.09057562 231.4375 985.5625 C227.72645624 988.45001116 224.91698547 991.32675903 222 995 C220.67139075 995.35169068 219.33841672 995.68770276 218 996 C217.59201172 996.89525391 217.59201172 996.89525391 217.17578125 997.80859375 C215.67200015 1000.61132198 213.94032097 1001.72933962 211.3125 1003.5 C210.48363281 1004.0671875 209.65476562 1004.634375 208.80078125 1005.21875 C202.758067 1009.06181513 197.08016296 1011.89992297 190.3125 1014.1875 C189.19391602 1014.57711914 189.19391602 1014.57711914 188.05273438 1014.97460938 C169.96786262 1021.21800399 146.45142646 1020.39872691 128.95214844 1012.79931641 C125.59299702 1011.42389598 122.11571965 1010.48043061 118.625 1009.5 C117.22888933 1009.09600928 115.83305893 1008.69104882 114.4375 1008.28515625 C113.72464844 1008.07906738 113.01179687 1007.87297852 112.27734375 1007.66064453 C91.27946572 1001.56927897 91.27946572 1001.56927897 81.69921875 997.9296875 C78.34386698 996.77400918 74.93470812 995.88196536 71.5 995 C65.98601409 993.57811937 60.71478765 991.88077233 55.39453125 989.86328125 C52.74572947 988.90832988 50.06572401 988.25112584 47.32421875 987.6171875 C44.18533728 986.7836694 41.13783221 985.73097415 38.0625 984.6875 C32.86475074 982.92423084 27.64914348 981.27231255 22.375 979.75 C13.17642104 977.09098464 4.04159909 974.23269997 -5.09887695 971.38134766 C-13.26723394 968.83695691 -21.44682006 966.33778098 -29.65942383 963.93969727 C-33.25782451 962.87735786 -36.78079126 961.73366843 -40.28515625 960.390625 C-43.01032514 959.37047766 -45.31282926 958.66669861 -48.125 958.125 C-52.06609034 957.31122537 -55.72291545 956.07473586 -59.5 954.6875 C-64.48024681 952.86545848 -69.46423422 951.21414941 -74.5625 949.75 C-82.51427131 947.46467424 -90.4142711 945.02621439 -98.3125 942.5625 C-106.52978292 940.00085438 -114.74975005 937.45362208 -123 935 C-133.56033572 931.85650439 -144.07671716 928.5732447 -154.59765625 925.30078125 C-170.89598973 920.23165648 -187.20737604 915.2072814 -203.5625 910.32421875 C-204.28703369 910.10765625 -205.01156738 909.89109375 -205.75805664 909.66796875 C-207.31376976 909.20445671 -208.8703092 908.74371263 -210.42749023 908.28515625 C-216.35374887 906.53008306 -222.21051193 904.61217538 -228.0625 902.625 C-234.46950127 900.47013336 -240.88267953 898.38303348 -247.375 896.5 C-248.37744751 896.2069397 -248.37744751 896.2069397 -249.40014648 895.90795898 C-252.505803 895.00321871 -255.61359 894.10821969 -258.72851562 893.23583984 C-278.73775169 887.61621033 -278.73775169 887.61621033 -287.875 882.75 C-288.4932666 882.42088623 -289.1115332 882.09177246 -289.74853516 881.75268555 C-293.86200156 879.41399531 -293.86200156 879.41399531 -295 876 C-295.763125 875.71125 -296.52625 875.4225 -297.3125 875.125 C-300.67727839 873.71648811 -301.80860814 871.87620181 -304 869 C-304.825 868.360625 -305.65 867.72125 -306.5 867.0625 C-309.42563854 864.6488482 -311.0133251 862.22834671 -313 859 C-313.39058594 858.401875 -313.78117187 857.80375 -314.18359375 857.1875 C-319.79112685 848.52290057 -324.28442845 839.80669738 -325.8671875 829.546875 C-326.89248849 823.30677011 -328.34471751 817.24112539 -329.9375 811.125 C-331.87784603 803.5316314 -333.70732262 795.95343435 -335.2890625 788.27734375 C-336.10506696 784.51565287 -337.04484797 780.79057361 -338 777.0625 C-339.29975984 771.98012911 -340.44900702 766.90468374 -341.4375 761.75 C-342.59111192 755.77391201 -343.99256181 749.89625272 -345.5 744 C-347.31331812 736.90731658 -348.87643583 729.83148751 -350.25390625 722.640625 C-351.19603904 718.04341161 -352.35206504 713.51627874 -353.52197266 708.97290039 C-354.64363011 704.56684637 -355.587937 700.15610537 -356.4375 695.6875 C-357.55701171 689.88194475 -358.9563017 684.20655702 -360.5 678.5 C-362.36958923 671.5887288 -363.91635431 664.71115333 -365.25390625 657.67578125 C-366.0513029 653.74724594 -367.00070246 649.88080798 -368 646 C-369.30217487 640.93808451 -370.4535917 635.88633487 -371.4375 630.75 C-372.76537101 623.87844893 -374.43328569 617.12248396 -376.16162109 610.34179688 C-377.67147636 604.39353689 -379.0069449 598.42733617 -380.25390625 592.41796875 C-381.08539972 588.60877094 -382.03237593 584.83885887 -383 581.0625 C-384.29977311 575.9801318 -385.44900712 570.90468323 -386.4375 565.75 C-387.59111192 559.77391201 -388.99256181 553.89625272 -390.5 548 C-392.31331812 540.90731658 -393.87643583 533.83148751 -395.25390625 526.640625 C-396.05619652 522.72578452 -397.00478171 518.86915549 -398 515 C-399.30202934 509.9380412 -400.45358919 504.88634797 -401.4375 499.75 C-402.76537101 492.87844893 -404.43328569 486.12248396 -406.16162109 479.34179688 C-407.67147636 473.39353689 -409.0069449 467.42733617 -410.25390625 461.41796875 C-411.08539972 457.60877094 -412.03237593 453.83885887 -413 450.0625 C-414.29977311 444.9801318 -415.44900712 439.90468323 -416.4375 434.75 C-417.75975098 427.90030637 -419.43262115 421.1714426 -421.16162109 414.41430664 C-422.75000334 408.15128546 -424.05986005 401.88846753 -425.2421875 395.53515625 C-426.00729201 391.96598316 -427.07698056 388.60022693 -428.1875 385.125 C-432.61479486 368.80578523 -431.3269897 351.55000675 -425 336 C-424.56880859 334.66388672 -424.56880859 334.66388672 -424.12890625 333.30078125 C-420.45250387 322.37711676 -412.61993779 312.82609042 -403.9140625 305.48828125 C-399.35717871 301.5972156 -395.05627673 297.4363018 -390.70849609 293.31469727 C-387.80910541 290.58060699 -384.91253892 287.88441883 -381.828125 285.359375 C-379.04665308 283.03892053 -376.54377603 280.57597573 -374 278 C-371.25815935 275.47876722 -368.48891443 272.99003545 -365.71875 270.5 C-362.19319567 267.25811097 -358.84384902 263.86494525 -355.5 260.4375 C-353.10888779 258.10616559 -350.61179497 256.07604215 -348 254 C-346.64567325 252.68799596 -345.31266518 251.35368596 -344 250 C-339.72225066 245.65632644 -335.25137512 241.57426977 -330.71875 237.5 C-328.07144099 235.06569287 -325.53876883 232.54666547 -323 230 C-321.11677946 228.21575924 -319.22084464 226.44484329 -317.3125 224.6875 C-316.35988281 223.80449219 -315.40726562 222.92148438 -314.42578125 222.01171875 C-312 220 -312 220 -310 220 C-309.74444336 219.40727295 -309.48888672 218.8145459 -309.22558594 218.20385742 C-307.87641862 215.77777508 -306.52279094 214.49990211 -304.390625 212.73828125 C-301.46823623 210.26533845 -298.62946415 207.74838682 -295.859375 205.10546875 C-294.84230469 204.13770508 -294.84230469 204.13770508 -293.8046875 203.15039062 C-292.41696899 201.82467094 -291.03160703 200.49648074 -289.6484375 199.16601562 C-288.97554687 198.52728516 -288.30265625 197.88855469 -287.609375 197.23046875 C-286.7117041 196.37038208 -286.7117041 196.37038208 -285.79589844 195.49291992 C-284 194 -284 194 -281.83691406 192.9855957 C-279.64545013 192.08042385 -279.64545013 192.08042385 -279 189 C-277.328125 187.31640625 -277.328125 187.31640625 -275.25 185.5625 C-274.52683594 184.94761719 -273.80367187 184.33273438 -273.05859375 183.69921875 C-271.49172709 182.40588479 -269.9061931 181.13512943 -268.3125 179.875 C-265.95036345 178.02613264 -265.95036345 178.02613264 -263.8125 175.8125 C-260.45063391 172.45063391 -256.91495577 169.31585819 -253.3671875 166.15234375 C-251.5508996 164.50090047 -249.81893328 162.83534321 -248.125 161.0625 C-246 159 -246 159 -243.8125 157.9375 C-241.84176713 157.14367944 -241.84176713 157.14367944 -241.0625 155.125 C-239.61947224 152.23894448 -237.54804976 150.95548005 -235 149 C-233.31237149 147.3545622 -231.6459651 145.68711423 -230 144 C-226.81445267 140.73481399 -223.55827852 137.84662282 -220 135 C-219.13375 134.113125 -218.2675 133.22625 -217.375 132.3125 C-215 130 -215 130 -212 129 C-211.58814453 128.14535156 -211.58814453 128.14535156 -211.16796875 127.2734375 C-209.51913403 124.06400002 -206.97125811 121.98829689 -204.3125 119.625 C-203.1322867 118.55657011 -201.95262111 117.48753497 -200.7734375 116.41796875 C-200.1556543 115.86028809 -199.53787109 115.30260742 -198.90136719 114.72802734 C-195.71484434 111.83200671 -192.57867911 108.8825071 -189.4375 105.9375 C-180.42103872 97.50836644 -171.32598814 89.1731192 -162.125 80.9453125 C-160.37467727 79.342995 -158.70483481 77.71076542 -157.0625 76 C-155 74 -155 74 -152 73 C-151.31879597 71.67403496 -150.65399443 70.33959453 -150 69 C-148.23046875 67.25390625 -148.23046875 67.25390625 -146.1875 65.5625 C-142.94538438 62.85969181 -139.98027673 59.98918637 -137 57 C-134.51434062 54.67187945 -131.98463939 52.39217325 -129.4609375 50.10546875 C-126.21723124 47.15286434 -123.09986944 44.10479769 -120 41 C-116.37045581 37.62544621 -112.68468394 34.31415706 -109 31 C-108.20078125 30.27296875 -107.4015625 29.5459375 -106.578125 28.796875 C-105.87171875 28.16265625 -105.1653125 27.5284375 -104.4375 26.875 C-103.81746094 26.31554688 -103.19742187 25.75609375 -102.55859375 25.1796875 C-101 24 -101 24 -99 24 C-98.77957031 23.44828125 -98.55914062 22.8965625 -98.33203125 22.328125 C-93.03358149 13.0674914 -81.27747633 5.52124226 -72 1 C-71.31486328 0.66419922 -70.62972656 0.32839844 -69.92382812 -0.01757812 C-48.65155727 -9.87728502 -21.174108 -9.63136448 0 0 Z M-58 101 C-58.598125 101.556875 -59.19625 102.11375 -59.8125 102.6875 C-61.22363777 103.95218271 -61.22363777 103.95218271 -61 106 C-62.0828125 106.309375 -62.0828125 106.309375 -63.1875 106.625 C-66.14662484 108.07168325 -67.37689129 109.58732954 -69.34765625 112.15625 C-72.30463686 115.45576501 -75.89102261 118.04003285 -79.37890625 120.75390625 C-81.98085315 122.98359249 -83.89746503 125.30720419 -86 128 C-87.28055951 129.20163834 -88.59260953 130.37082464 -89.9375 131.5 C-92.26136202 133.48085655 -94.42527299 135.4356455 -96.5625 137.625 C-98.52161652 139.53388277 -100.26277507 140.92196053 -102.5 142.4375 C-105.39560809 144.43640365 -107.45277765 146.61261823 -109.62890625 149.40234375 C-111.82135893 151.95708206 -114.40337678 154.03564876 -116.9609375 156.21484375 C-118.89483032 157.90792616 -120.70168496 159.66473328 -122.5 161.5 C-124.75797943 163.79326036 -127.05996504 165.96428028 -129.5 168.0625 C-134.23820508 172.14620594 -138.77879251 176.43521781 -143.33618164 180.71801758 C-147.92242649 185.02047014 -152.58349517 189.21369013 -157.33984375 193.328125 C-159.23487184 194.84384368 -159.23487184 194.84384368 -159 197 C-159.84304688 197.36544922 -159.84304688 197.36544922 -160.703125 197.73828125 C-163.44019785 199.24180936 -165.45795941 201.06699748 -167.75 203.1875 C-170.90536637 206.08262997 -174.07110889 208.95145549 -177.3125 211.75 C-180.33689285 214.38727057 -183.1972142 217.1253479 -186 220 C-187.76619882 221.77029673 -189.53652182 223.53636406 -191.30859375 225.30078125 C-192.74554561 226.7443703 -194.15691632 228.21335126 -195.5625 229.6875 C-198 232 -198 232 -201 233.9375 C-203.77687577 235.84660209 -205.52531974 237.72710199 -207.5859375 240.359375 C-209.79112773 242.91788301 -212.35687099 245.02180485 -214.9375 247.19140625 C-217.40529638 249.35540194 -219.68267144 251.67575404 -222 254 C-223.95017887 255.82252092 -225.90654271 257.6350388 -227.875 259.4375 C-232.87977581 264.03556061 -237.85339619 268.66524263 -242.8125 273.3125 C-247.21683303 277.43791601 -251.66007425 281.48918526 -256.23828125 285.421875 C-258.97839108 287.87643015 -261.52671377 290.51488993 -264.1015625 293.140625 C-265.83293679 294.8363743 -267.60741743 296.36448809 -269.5 297.875 C-270.325 298.57625 -271.15 299.2775 -272 300 C-272 300.66 -272 301.32 -272 302 C-272.721875 302.20625 -273.44375 302.4125 -274.1875 302.625 C-277.14662484 304.07168325 -278.37689129 305.58732954 -280.34765625 308.15625 C-283.30463686 311.45576501 -286.89102261 314.04003285 -290.37890625 316.75390625 C-292.98085315 318.98359249 -294.89746503 321.30720419 -297 324 C-298.28055951 325.20163834 -299.59260953 326.37082464 -300.9375 327.5 C-303.26136202 329.48085655 -305.42527299 331.4356455 -307.5625 333.625 C-309.52161652 335.53388277 -311.26277507 336.92196053 -313.5 338.4375 C-317.04591208 340.88348707 -319.33883685 343.61960356 -322 347 C-323.051875 348.0209375 -323.051875 348.0209375 -324.125 349.0625 C-328.32485578 353.40235097 -329.74285286 357.37849857 -330.09375 363.34375 C-329.69599643 374.61343461 -321.22881797 381.60915925 -313.81298828 389.14257812 C-311.10661036 391.91528527 -308.48755032 394.76417373 -305.875 397.625 C-305.02679688 398.54539062 -304.17859375 399.46578125 -303.3046875 400.4140625 C-301.10889303 402.87781832 -299.0551532 405.41900803 -297 408 C-296.278125 408.721875 -295.55625 409.44375 -294.8125 410.1875 C-291.42952938 413.57047062 -288.26712628 417.12326094 -285.0859375 420.6953125 C-283.85484478 422.05550858 -282.59821458 423.39444687 -281.2890625 424.6796875 C-280 426 -280 426 -279 428 C-278.34 428 -277.68 428 -277 428 C-277 428.66 -277 429.32 -277 430 C-275.37154273 431.72715165 -273.71501839 433.36235086 -272 435 C-270.83067276 436.16400001 -269.66411658 437.33078881 -268.5 438.5 C-267.9534375 439.0465625 -267.406875 439.593125 -266.84375 440.15625 C-266.2353125 440.7646875 -265.626875 441.373125 -265 442 C-264.20335937 442.78761719 -263.40671875 443.57523437 -262.5859375 444.38671875 C-260.02810234 446.97160051 -257.56637803 449.61762425 -255.125 452.3125 C-254.25359375 453.27414062 -253.3821875 454.23578125 -252.484375 455.2265625 C-250.42329603 457.52745254 -248.39127707 459.84750873 -246.375 462.1875 C-244.01626328 464.90613786 -241.56216466 467.47219387 -239 470 C-236.52036671 472.44663437 -234.14559624 474.92107774 -231.875 477.5625 C-227.85436143 482.23488592 -223.63051877 486.71042088 -219.41577148 491.20678711 C-214.70216067 496.2379438 -210.03952316 501.31245063 -205.40234375 506.4140625 C-203.79283356 508.14657591 -202.15000043 509.84868378 -200.4765625 511.51953125 C-198.03727353 513.96266768 -195.73057642 516.48229053 -193.4375 519.0625 C-186.36979412 527.30598098 -186.36979412 527.30598098 -176.2265625 530.2578125 C-167.95651174 530.57028293 -162.59747885 529.2465053 -156.4375 523.6875 C-155.633125 522.800625 -154.82875 521.91375 -154 521 C-152.83873448 519.82795708 -151.67169533 518.66161623 -150.5 517.5 C-149.9534375 516.9534375 -149.406875 516.406875 -148.84375 515.84375 C-148.2353125 515.2353125 -147.626875 514.626875 -147 514 C-146.21238281 513.20335937 -145.42476562 512.40671875 -144.61328125 511.5859375 C-142.02839949 509.02810234 -139.38237575 506.56637803 -136.6875 504.125 C-135.72328125 503.25101562 -134.7590625 502.37703125 -133.765625 501.4765625 C-131.51053486 499.45717387 -129.23497279 497.47059658 -126.9375 495.5 C-122.98438401 492.07234933 -119.33622667 488.3723409 -115.6875 484.625 C-112.92525861 481.92699678 -110.05322472 479.4108158 -107.13671875 476.8828125 C-103.50384005 473.68162871 -100.00862967 470.33607411 -96.5 467 C-91.69528348 462.43158101 -86.8480253 457.94317644 -81.83935547 453.59863281 C-79.29903854 451.39077573 -76.80424677 449.13757882 -74.3125 446.875 C-73.42175781 446.06804687 -72.53101563 445.26109375 -71.61328125 444.4296875 C-69.87197086 442.81071133 -68.16042229 441.15912062 -66.48046875 439.4765625 C-64.05780244 437.05771141 -61.56010036 434.77208907 -59 432.5 C-55.56198849 429.42361637 -52.21720288 426.30912297 -49 423 C-45.00527177 418.89113668 -40.78398649 415.08328801 -36.5 411.28125 C-33.91968252 408.9267103 -31.46785032 406.47167644 -29 404 C-27.2398133 402.36347365 -25.46869081 400.7386403 -23.6875 399.125 C-22.72585938 398.25359375 -21.76421875 397.3821875 -20.7734375 396.484375 C-18.47254746 394.42329603 -16.15249127 392.39127707 -13.8125 390.375 C-10.3761271 387.39354408 -7.19374226 384.21006295 -4 380.97265625 C-0.09950308 377.12548643 4.09327739 373.6063485 8.28125 370.078125 C9.37953125 369.14226562 9.37953125 369.14226562 10.5 368.1875 C11.1703125 367.62417969 11.840625 367.06085938 12.53125 366.48046875 C14.23476384 365.11093455 14.23476384 365.11093455 14 363 C14.59296875 362.73574219 15.1859375 362.47148437 15.796875 362.19921875 C18.08029054 360.95629575 19.47426723 359.69598354 21.25 357.8125 C24.28811895 354.68426735 27.45493943 351.80584666 30.75390625 348.95703125 C33.42744209 346.62756785 36.05968274 344.25590825 38.6875 341.875 C39.57824219 341.06804687 40.46898437 340.26109375 41.38671875 339.4296875 C43.12802914 337.81071133 44.83957771 336.15912062 46.51953125 334.4765625 C48.94219756 332.05771141 51.43989964 329.77208907 54 327.5 C57.43801151 324.42361637 60.78279712 321.30912297 64 318 C68.27792212 313.65648793 72.74860517 309.57428749 77.28125 305.5 C79.92841951 303.06582114 82.45941581 300.54454766 85 298 C86.84454399 296.28128121 88.69927544 294.5734496 90.5625 292.875 C91.07627197 292.40489502 91.59004395 291.93479004 92.11938477 291.45043945 C94.82786884 288.97318249 97.54549093 286.50658695 100.2734375 284.05078125 C100.80380615 283.5707666 101.3341748 283.09075195 101.88061523 282.59619141 C103.35399483 281.26305666 104.83118236 279.93413396 106.30859375 278.60546875 C112.48014934 272.63097299 116.08865549 267.26554607 117.5625 258.75 C116.56249065 252.08327102 113.48482753 244.5469388 108.0625 240.25 C106.5465625 239.13625 106.5465625 239.13625 105 238 C103.20535404 236.06975857 101.50446796 234.07965493 99.80859375 232.0625 C97.64474501 229.59487119 95.32405606 227.31705589 93 225 C91.34414063 223.21759528 89.69889724 221.42528911 88.0625 219.625 C83.66314238 214.79703412 79.21662635 210.01574938 74.75 205.25 C69.5131789 199.65422309 64.38132488 193.99534656 59.4296875 188.14453125 C58.66011719 187.23767578 58.66011719 187.23767578 57.875 186.3125 C57.43929688 185.79300781 57.00359375 185.27351563 56.5546875 184.73828125 C55.29487246 183.32969408 53.9740967 181.9757924 52.63671875 180.640625 C49.97890293 177.97887167 47.45337129 175.23334461 44.9375 172.4375 C41.34533795 168.44682382 37.66272675 164.61522028 33.8125 160.875 C30.43202379 157.50498966 27.30543934 153.90082031 24.125 150.34375 C22.62552086 148.68991272 21.07854608 147.07854608 19.5 145.5 C12.89557773 138.89557773 6.91379428 131.7793757 1.140625 124.4453125 C-1.05340612 121.93899228 -3.38383447 120.05050812 -6 118 C-7.22327376 116.72077609 -8.4134721 115.4088088 -9.5625 114.0625 C-10.15546875 113.37285156 -10.7484375 112.68320313 -11.359375 111.97265625 C-12.71338355 110.34462216 -14.01974558 108.67708681 -15.3125 107 C-16.1478125 106.01 -16.1478125 106.01 -17 105 C-17.66 105 -18.32 105 -19 105 C-19.26296875 104.40316406 -19.5259375 103.80632812 -19.796875 103.19140625 C-22.64376057 98.00600753 -28.50602763 93.86587741 -34 92 C-44.83126144 90.77467573 -50.58087568 92.96261532 -58 101 Z M22 97 C20.62391857 99.952802 20.62391857 99.952802 22.1953125 102.40625 C26.43084093 108.49367614 31.69925797 113.83517443 37 119 C41.28126867 123.17760599 45.34962811 127.45005061 49.2265625 132.0078125 C50.56892026 133.51574743 51.97088853 134.97088853 53.3984375 136.3984375 C56.90418988 139.90418988 60.1864018 143.594872 63.5 147.28125 C65.93398614 149.92820993 68.45564337 152.45969489 71 155 C72.42883468 156.55138072 73.84555702 158.1140037 75.25 159.6875 C76.41208984 160.986875 76.41208984 160.986875 77.59765625 162.3125 C78.78681641 163.6428125 78.78681641 163.6428125 80 165 C81.56217565 166.7294597 83.12466791 168.45863347 84.6875 170.1875 C87.33594819 173.1183876 89.91664264 176.08406284 92.4375 179.125 C93.283125 180.07375 94.12875 181.0225 95 182 C95.66 182 96.32 182 97 182 C97.34611328 182.82177734 97.34611328 182.82177734 97.69921875 183.66015625 C99.36810072 186.66213914 101.48107116 188.9173198 103.8125 191.4375 C104.66457031 192.36433594 105.51664063 193.29117188 106.39453125 194.24609375 C108.08417336 196.03199733 109.79794668 197.79549145 111.5390625 199.53125 C113.97151991 201.9714295 116.27399685 204.48743646 118.5625 207.0625 C122.01431988 210.94504957 125.59014258 214.62824683 129.3125 218.25 C131.45842379 220.44582899 133.44739997 222.66798851 135.4375 225 C143.83501586 234.54100738 154.18858832 240.1408512 167.00805664 241.03515625 C172.46785371 240.97100196 177.5961852 239.67867491 182.875 238.375 C184.05900391 238.09720703 185.24300781 237.81941406 186.46289062 237.53320312 C189.97931861 236.70480473 193.48989801 235.85474925 197 235 C198.82521455 234.56382052 200.65070867 234.12880817 202.4765625 233.6953125 C204.98334457 233.09965345 207.48967027 232.5024922 209.99438477 231.89819336 C218.41024579 229.87383978 226.86375568 228.02576873 235.31738281 226.16674805 C241.48629658 224.8032005 247.63145814 223.38667672 253.75 221.8125 C259.87178114 220.24330926 266.01517169 218.98026093 272.21875 217.78125 C276.17963119 216.96288612 280.08411236 216.00736162 284 215 C289.0619552 213.69795399 294.1136528 212.54641067 299.25 211.5625 C306.18789702 210.22489697 313.00490949 208.52810278 319.84716797 206.77026367 C324.34043443 205.62670516 328.79403375 204.61769071 333.375 203.875 C337.34687612 203.20677556 340.58362863 202.24761274 344 200 C344.33 199.01 344.66 198.02 345 197 C338.54972527 192.50506218 332.27189244 190.23507336 324.75 188.0625 C323.59540283 187.71823975 322.44080566 187.37397949 321.2512207 187.01928711 C317.83702574 186.0028005 314.4188246 185.00078227 311 184 C307.72746178 183.02648963 304.45752797 182.04440259 301.1875 181.0625 C300.40987305 180.83054932 299.63224609 180.59859863 298.83105469 180.35961914 C291.36991427 178.12917634 283.93525079 175.81505041 276.5 173.5 C268.21899031 170.92189441 259.93550175 168.35655526 251.625 165.875 C250.83456299 165.6387793 250.04412598 165.40255859 249.22973633 165.15917969 C247.63610104 164.68315664 246.04243239 164.20724523 244.44873047 163.73144531 C230.00361467 159.41663305 215.62254533 154.93260412 201.28335571 150.27896118 C192.74110622 147.50826104 184.18631278 144.80203867 175.57348633 142.25756836 C166.93679617 139.70235043 158.34333077 137.00989994 149.74487305 134.3293457 C141.62811068 131.80328437 133.49990164 129.32229865 125.33984375 126.93945312 C121.77711398 125.88768982 118.28858587 124.75885153 114.8203125 123.42578125 C111.64685469 122.20813631 108.50866714 121.31034323 105.1875 120.5625 C101.17231401 119.60026597 97.35984732 118.46484826 93.5 117 C89.77899236 115.59133282 86.121762 114.47867897 82.25 113.5625 C76.37756605 112.16430144 70.73687435 110.28234563 65.02734375 108.33203125 C59.97243618 106.63031703 54.85105649 105.15952367 49.72192383 103.69970703 C46.05055111 102.64547663 42.54084325 101.42214196 39 100 C37.0098835 99.42307793 35.00897482 98.88236864 33 98.375 C31.989375 98.11460938 30.97875 97.85421875 29.9375 97.5859375 C27.19547026 97.03899008 24.78497886 96.88737218 22 97 Z M362.7421875 225.703125 C357.43150529 227.19242037 352.09420595 228.22376536 346.67578125 229.25390625 C342.74725465 230.05130113 338.88077426 231.00059078 335 232 C329.9175729 233.30886884 324.84654432 234.45667203 319.6875 235.4375 C313.88194475 236.55701171 308.20655702 237.9563017 302.5 239.5 C295.5887288 241.36958923 288.71115333 242.91635431 281.67578125 244.25390625 C277.74725465 245.05130113 273.88077426 246.00059078 270 247 C264.9175729 248.30886884 259.84654432 249.45667203 254.6875 250.4375 C248.02121139 251.72137781 241.49994673 253.3814307 234.9597168 255.19897461 C229.97517927 256.5628062 225.00363266 257.56478285 219.9140625 258.45288086 C214.68788594 259.43410251 209.53752488 260.73135033 204.375 262 C202.2371543 262.52155173 200.09913626 263.0423976 197.9609375 263.5625 C196.94966797 263.8097583 195.93839844 264.0570166 194.89648438 264.31176758 C191.56084368 265.10434775 188.21256135 265.81701113 184.85107422 266.4909668 C178.67744693 268.18867359 174.11861684 273.35172895 170.25 278.1875 C166.18360386 287.33689132 168.92346798 295.83344142 171.46679688 304.99804688 C172.25983221 307.9755605 172.87993188 310.98233517 173.5 314 C174.82704868 320.3596814 176.39647109 326.63305176 178.03515625 332.91796875 C178.80574145 336.01195567 179.39132478 339.11276689 179.9375 342.25390625 C180.98335854 348.16654065 182.43126807 353.94031554 183.9375 359.75 C185.9560722 367.65860322 187.76906783 375.53466948 189.28515625 383.5546875 C190.06434415 387.31011769 191.03743989 390.99382941 192.0625 394.6875 C193.23687412 398.95835121 194.24700978 403.11675512 194.875 407.5 C195.94152638 414.62633533 197.89697367 421.52282747 199.79248047 428.46484375 C201.29370028 434.02421198 202.51333814 439.54604853 203.49462891 445.21948242 C204.38940394 450.14247414 205.54785516 455.00391904 206.6875 459.875 C206.94442627 460.98198242 207.20135254 462.08896484 207.46606445 463.22949219 C209.7654424 473.0936101 212.14147744 482.9392224 214.55151367 492.77685547 C216.2514221 499.75040558 217.82022762 506.74036642 219.30541992 513.76269531 C220.23803795 518.10944928 221.26465392 522.42985492 222.3125 526.75 C226.48218216 544.12474482 230.49596936 561.53028941 234.24169922 579.00146484 C235.43560785 584.52946517 236.71795212 590.02251532 238.125 595.5 C239.40727299 600.50086467 240.52485583 605.49279888 241.5 610.5625 C242.71438681 616.8588316 244.31841282 622.97965533 246.03125 629.15625 C247.05846235 633.23196351 247.7968098 637.29740142 248.5 641.4375 C249.50871086 647.16055677 250.66856161 652.16659109 254 657 C254.64775391 657.95132813 254.64775391 657.95132813 255.30859375 658.921875 C258.84878051 663.565372 262.32120318 665.74565729 268 667 C274.85243736 667.62043358 281.2253977 666.34937237 287.875 664.8125 C288.87660156 664.58836426 289.87820313 664.36422852 290.91015625 664.13330078 C298.10286068 662.50035632 305.23237453 660.66756284 312.3503418 658.73779297 C318.30524983 657.13705894 324.2650415 655.89805333 330.32421875 654.74609375 C334.25275406 653.9486971 338.11919202 652.99929754 342 652 C347.06191549 650.69782513 352.11366513 649.5464083 357.25 648.5625 C364.12155107 647.23462899 370.87751604 645.56671431 377.65820312 643.83837891 C383.60646311 642.32852364 389.57266383 640.9930551 395.58203125 639.74609375 C399.39122906 638.91460028 403.16114113 637.96762407 406.9375 637 C412.0198682 635.70022689 417.09531677 634.55099288 422.25 633.5625 C429.09599962 632.2409621 435.82157108 630.57016276 442.57470703 628.84057617 C447.73816475 627.5301269 452.89318156 626.37908637 458.125 625.375 C469.99318426 623.06837135 478.55853217 620.95262772 485.80078125 610.70703125 C489.35356128 602.68723789 487.52856141 595.51837469 485.25 587.375 C484.68090419 585.23248343 484.11448707 583.08925351 483.55078125 580.9453125 C483.14206787 579.40472168 483.14206787 579.40472168 482.72509766 577.83300781 C481.82601907 574.32024419 481.10713946 570.81357844 480.4375 567.25 C479.16475371 560.53984055 477.52400331 553.95497612 475.83789062 547.33984375 C474.32818466 541.39224079 472.99291806 535.42667572 471.74609375 529.41796875 C470.91460028 525.60877094 469.96762407 521.83885887 469 518.0625 C467.70022689 512.9801318 466.55099288 507.90468323 465.5625 502.75 C464.24024902 495.90030637 462.56737885 489.1714426 460.83837891 482.41430664 C459.25413174 476.16759018 457.9584514 469.91657496 456.75 463.5859375 C455.95396619 459.77990086 454.97144436 456.0605483 453.9375 452.3125 C452.76312588 448.04164879 451.75299022 443.88324488 451.125 439.5 C450.05847362 432.37366467 448.10302633 425.47717253 446.20751953 418.53515625 C444.70453474 412.96925189 443.49170481 407.44244402 442.50976562 401.76245117 C441.6200895 396.94124171 440.42199521 392.19647595 439.25 387.4375 C438.71520119 385.23720855 438.18137848 383.03667967 437.6484375 380.8359375 C437.37612305 379.71155273 437.10380859 378.58716797 436.82324219 377.42871094 C433.55853458 363.83157166 430.46939144 350.19194487 427.46386719 336.53540039 C426.24082643 331.00974241 424.94368279 325.50355077 423.625 320 C419.48397478 302.71117952 415.4909649 285.39388612 411.76049805 268.01171875 C410.26008025 261.07037963 408.61425652 254.18169675 406.8125 247.3125 C406.13857191 244.56494704 405.7006193 241.91945897 405.3125 239.125 C404.05213582 233.22059123 399.41832834 228.84866966 395 225 C384.49367467 218.78732405 373.68986096 222.61623647 362.7421875 225.703125 Z M120 304 C118.26526288 305.94125344 116.5954349 307.94272868 115 310 C113.06653904 311.79024163 111.07921798 313.4958994 109.0625 315.19140625 C106.59472501 317.35538318 104.31729383 319.67577853 102 322 C100.07054606 323.80154938 98.13482078 325.59307228 96.1875 327.375 C91.03039722 332.11215548 85.91316899 336.88966818 80.8125 341.6875 C74.46244998 347.65453827 68.04891959 353.54125705 61.51708984 359.30957031 C59.96552857 360.68089728 58.42008704 362.05888699 56.875 363.4375 C55.94429687 364.26121094 55.01359375 365.08492188 54.0546875 365.93359375 C51.76496893 367.75069403 51.76496893 367.75069403 52 370 C51.45859375 370.226875 50.9171875 370.45375 50.359375 370.6875 C47.25767128 372.41295108 44.87299899 374.61293213 42.25 377 C41.74339844 377.45117188 41.23679687 377.90234375 40.71484375 378.3671875 C39.43454183 379.53360812 38.21208271 380.76283971 37 382 C37 382.66 37 383.32 37 384 C36.278125 384.20625 35.55625 384.4125 34.8125 384.625 C31.82924601 386.08347973 30.45449481 387.69548779 28.44921875 390.2890625 C26.24571431 392.8905044 23.66666912 395.00201406 21.0625 397.19140625 C18.59472501 399.35538318 16.31729383 401.67577853 14 404 C12.07165981 405.80333055 10.13765505 407.59575105 8.1875 409.375 C7.66124023 409.85686768 7.13498047 410.33873535 6.59277344 410.83520508 C3.67988322 413.49466494 0.73869344 416.1130809 -2.25 418.6875 C-5.66687335 421.64549573 -8.82657794 424.80820734 -11.99609375 428.02734375 C-14.58246151 430.57337829 -17.3153528 432.92021557 -20.06640625 435.28515625 C-21.95494597 436.96004299 -23.73155648 438.69947587 -25.5 440.5 C-29.92566621 444.99575595 -34.71979295 449.04655159 -39.5078125 453.1484375 C-40.74144531 454.21964844 -40.74144531 454.21964844 -42 455.3125 C-42.763125 455.96863281 -43.52625 456.62476563 -44.3125 457.30078125 C-46.23488528 458.8373854 -46.23488528 458.8373854 -46 461 C-46.82177734 461.34611328 -46.82177734 461.34611328 -47.66015625 461.69921875 C-50.66213914 463.36810072 -52.9173198 465.48107116 -55.4375 467.8125 C-56.36433594 468.66457031 -57.29117188 469.51664063 -58.24609375 470.39453125 C-60.03333484 472.08543878 -61.79809362 473.80055307 -63.53515625 475.54296875 C-65.95351276 477.9536601 -68.44646077 480.23373393 -71 482.5 C-74.43801151 485.57638363 -77.78279712 488.69087703 -81 492 C-83.52267899 494.58574596 -85.95893495 496.96806052 -88.8125 499.1875 C-89.534375 499.785625 -90.25625 500.38375 -91 501 C-91 501.66 -91 502.32 -91 503 C-91.556875 503.226875 -92.11375 503.45375 -92.6875 503.6875 C-95.6448095 505.36597296 -97.608864 507.5811808 -100 510 C-102.74184065 512.52123278 -105.51108557 515.00996455 -108.28125 517.5 C-110.06951962 519.14438586 -111.8251339 520.8251339 -113.54296875 522.54296875 C-115.89543948 524.89543948 -118.32003381 527.1099491 -120.8125 529.3125 C-130.69863111 537.18737023 -130.69863111 537.18737023 -136.5 547.75 C-135.90022805 551.64851769 -134.99632149 553.52078801 -132.28515625 556.35546875 C-127.69511773 559.65872724 -122.14516703 560.75740429 -116.75927734 562.22216797 C-111.0510401 563.83130298 -105.40800946 565.66144977 -99.75 567.4375 C-90.74171354 570.24366722 -81.72022275 573.00074079 -72.67675781 575.69116211 C-64.00467454 578.27988326 -55.36853925 580.98376087 -46.7277832 583.67480469 C-39.55868872 585.90449738 -32.3823287 588.10482127 -25.1875 590.25 C-14.25969988 593.51033143 -3.36734959 596.84909819 7.4375 600.5 C13.22299753 602.44253191 19.04213629 604.21990891 24.90356445 605.91845703 C31.49862865 607.8357714 38.06263712 609.84885483 44.625 611.875 C52.97476885 614.45216384 61.32691203 617.02063362 69.6875 619.5625 C70.61546387 619.84504639 71.54342773 620.12759277 72.49951172 620.41870117 C77.38384925 621.904888 82.27051877 623.38290271 87.16015625 624.8515625 C88.17956299 625.15892334 89.19896973 625.46628418 90.24926758 625.78295898 C92.17410804 626.36318304 94.09966679 626.94103262 96.02612305 627.51586914 C100.67196594 628.91873151 105.24456314 630.4296021 109.796875 632.11328125 C113.50322459 633.48297633 117.13562009 634.64624165 121 635.5 C124.84229152 636.41506559 128.49351455 637.47787994 132.1875 638.875 C136.53305913 640.51147995 140.91483781 641.90354657 145.375 643.1875 C153.3882344 645.49676002 161.35150803 647.95444829 169.3125 650.4375 C179.64067085 653.65686968 189.98244058 656.82147275 200.3515625 659.90625 C202.57714895 660.57344936 204.79578789 661.26526263 207 662 C211.55968946 662.52972786 211.55968946 662.52972786 215.75390625 660.953125 C217.93564727 659.16567453 219.72891024 657.54217952 221 655 C221.49227356 649.33885406 220.23392722 644.5391153 218.78125 639.078125 C218.0974398 636.38391282 217.57317542 633.74076509 217.125 631 C216.20930064 625.6750928 214.89958213 620.48095482 213.5625 615.25 C212.05562321 609.35324136 210.64219314 603.47856526 209.5 597.5 C208.1993122 590.70834042 206.54532371 584.03859294 204.83813477 577.34082031 C203.32835415 571.39288884 201.99298658 565.42700595 200.74609375 559.41796875 C199.91460028 555.60877094 198.96762407 551.83885887 198 548.0625 C196.70022689 542.9801318 195.55099288 537.90468323 194.5625 532.75 C193.23391536 525.87475598 191.5639645 519.11548785 189.83618164 512.33081055 C188.35631506 506.49656049 187.03714852 500.64752725 185.8125 494.75390625 C184.78025376 489.98473013 183.64169502 485.24397586 182.5 480.5 C181.07437649 474.57559038 179.68506341 468.65262557 178.4375 462.6875 C177.41010714 457.77691038 176.24363329 452.92127869 175 448.0625 C173.70037139 442.98008896 172.55099533 437.904696 171.5625 432.75 C170.23462899 425.87844893 168.56671431 419.12248396 166.83837891 412.34179688 C165.32852364 406.39353689 163.9930551 400.42733617 162.74609375 394.41796875 C161.91460028 390.60877094 160.96762407 386.83885887 160 383.0625 C158.70022689 377.9801318 157.55099288 372.90468323 156.5625 367.75 C155.40888803 361.77391177 154.00742618 355.89625499 152.5 350 C151.01412721 344.1876635 149.62778099 338.3952188 148.5 332.5 C148.14046356 330.6884131 147.78073594 328.87685819 147.41552734 327.06640625 C147.11147501 325.55436223 146.81311897 324.04116967 146.51806641 322.52734375 C144.28247049 309.03374389 144.28247049 309.03374389 135.96484375 298.828125 C129.81579765 296.23647933 124.83226756 300.54386101 120 304 Z M-327 421 C-327.66 421.66 -328.32 422.32 -329 423 C-328.55859026 430.27027812 -326.73139223 437.39847542 -325.1875 444.5 C-324.91832764 445.74869873 -324.64915527 446.99739746 -324.37182617 448.28393555 C-322.68004048 456.06655411 -320.85021241 463.79349089 -318.859375 471.50390625 C-317.98248963 475.07123537 -317.25547179 478.64269686 -316.5625 482.25 C-315.23462899 489.12155107 -313.56671431 495.87751604 -311.83837891 502.65820312 C-310.3282058 508.60771527 -308.99192149 514.57499464 -307.74609375 520.5859375 C-306.91851695 524.37285963 -305.96729069 528.12211118 -305 531.875 C-303.47468893 537.81001533 -302.2783178 543.74832377 -301.21484375 549.78637695 C-300.08842289 555.95398055 -298.47798456 561.96025086 -296.83618164 568.00756836 C-295.23357564 573.96260375 -293.96423008 579.93251673 -292.8125 585.9921875 C-291.85771864 590.8630643 -290.66998755 595.67718997 -289.5 600.5 C-288.01860691 606.60698975 -286.62140713 612.70315628 -285.4375 618.875 C-284.24489784 625.06839986 -282.68793906 631.10990114 -280.96484375 637.171875 C-280.20486935 640.18715803 -279.59702812 643.12620283 -279.0625 646.18359375 C-277.98727235 652.29414857 -276.54682711 658.29025353 -275.0625 664.3125 C-273.16473932 672.10381753 -271.34495971 679.89062304 -269.71484375 687.7421875 C-268.59743376 692.83464616 -267.28011952 697.87343719 -265.96484375 702.91796875 C-265.215532 705.93550805 -264.63301806 708.95698864 -264.09765625 712.01953125 C-262.94006129 718.55670378 -261.47371479 725.01829391 -259.96826172 731.48242188 C-259.49458651 733.52332486 -259.03044044 735.56626117 -258.56640625 737.609375 C-258.26359785 738.91680044 -257.96023324 740.22409722 -257.65625 741.53125 C-257.38619141 742.70236328 -257.11613281 743.87347656 -256.83789062 745.08007812 C-256.11509117 748.15635212 -256.11509117 748.15635212 -254 751 C-252.03111505 750.48771242 -252.03111505 750.48771242 -250 749 C-248.82589079 746.61875037 -247.9167397 744.43067769 -247.0625 741.9375 C-246.80509033 741.21780029 -246.54768066 740.49810059 -246.2824707 739.7565918 C-244.12258167 733.61054982 -242.27781686 727.37880564 -240.48828125 721.1171875 C-238.73367407 715.01694032 -236.85784504 708.95379265 -234.97964478 702.89071655 C-234.38763341 700.97831037 -233.79864191 699.06497018 -233.2097168 697.15161133 C-230.11328278 687.16539298 -230.11328278 687.16539298 -228.31640625 682.4921875 C-227.14628703 679.38807302 -226.28982302 676.41753703 -225.5625 673.1875 C-224.62351342 669.28559722 -223.54520909 665.56550234 -222.125 661.8125 C-220.20601766 656.71926117 -218.64935197 651.55419488 -217.14160156 646.32910156 C-214.81029239 638.27644416 -212.33050743 630.27061386 -209.85449219 622.26147461 C-209.52868164 621.20710205 -209.20287109 620.15272949 -208.8671875 619.06640625 C-208.54886963 618.03668701 -208.23055176 617.00696777 -207.90258789 615.94604492 C-207.08206983 613.26787575 -206.28204286 610.58462844 -205.48828125 607.8984375 C-204.45645022 604.43756218 -203.34234186 601.01544746 -202.17578125 597.59765625 C-201.86962891 596.68693359 -201.56347656 595.77621094 -201.24804688 594.83789062 C-200.62432316 592.98755369 -199.98887964 591.14112613 -199.34179688 589.29882812 C-195.18832812 576.76757379 -196.80491372 565.70510617 -202.1875 553.8125 C-204.5187015 549.36202441 -207.47284749 546.16339207 -211.13671875 542.76171875 C-213 541 -213 541 -215.375 538 C-215.91125 537.34 -216.4475 536.68 -217 536 C-217.66 536 -218.32 536 -219 536 C-219.34611328 535.17822266 -219.34611328 535.17822266 -219.69921875 534.33984375 C-221.36810072 531.33786086 -223.48107116 529.0826802 -225.8125 526.5625 C-226.66457031 525.63566406 -227.51664062 524.70882812 -228.39453125 523.75390625 C-230.10568551 521.94526494 -231.84225456 520.16027094 -233.60546875 518.40234375 C-235.67030062 516.33077507 -237.60078405 514.22172432 -239.5 512 C-242.21699334 508.86546006 -245.0262473 505.89549605 -248 503 C-251.56156786 499.48656143 -255.00373273 495.88276693 -258.375 492.1875 C-258.85469238 491.66341553 -259.33438477 491.13933105 -259.82861328 490.59936523 C-263.06509245 487.05338075 -266.24797391 483.46637608 -269.3671875 479.81640625 C-270.65086634 478.38839031 -271.98988954 477.01011046 -273.34765625 475.65234375 C-276.16354645 472.83645355 -278.87181542 469.9343557 -281.5625 467 C-282.62496378 465.84501877 -283.68746484 464.69007182 -284.75 463.53515625 C-285.28882813 462.94879395 -285.82765625 462.36243164 -286.3828125 461.75830078 C-288.44056848 459.5209882 -290.50346213 457.2884544 -292.56665039 455.05615234 C-296.46613805 450.83653374 -300.36124029 446.61290203 -304.24511719 442.37890625 C-305.60593936 440.8957738 -306.96897015 439.4146688 -308.33203125 437.93359375 C-310.14416504 435.94104254 -311.93211357 433.94133374 -313.69921875 431.91015625 C-314.56160156 430.92917969 -315.42398438 429.94820313 -316.3125 428.9375 C-317.45138672 427.62072266 -317.45138672 427.62072266 -318.61328125 426.27734375 C-321.21751173 423.79245607 -323.72048518 422.44336511 -327 421 Z M-161 587 C-161.86625 587.4125 -162.7325 587.825 -163.625 588.25 C-171.9670372 594.39676425 -173.89970767 604.42229559 -176.19140625 613.9453125 C-177.18431645 617.6963066 -178.51955036 621.2505293 -179.89453125 624.875 C-181.51725761 629.46221232 -182.84084808 634.12937039 -184.16162109 638.8112793 C-185.17378634 642.35802981 -186.27593056 645.81693126 -187.59765625 649.26171875 C-188.62401438 651.99772079 -189.33186355 654.30201859 -189.875 657.125 C-190.68877463 661.06609034 -191.92526414 664.72291545 -193.3125 668.5 C-195.69693457 675.01374692 -197.69476265 681.5800038 -199.6171875 688.2421875 C-202.29902774 697.52791123 -205.16469102 706.76024831 -208 716 C-208.23219238 716.75732422 -208.46438477 717.51464844 -208.70361328 718.29492188 C-211.03416505 725.87849138 -213.46502438 733.42006914 -216 740.9375 C-218.90523001 749.55932302 -221.47935937 758.25936128 -224 767 C-224.51755279 768.75097301 -225.03784278 770.50114261 -225.5625 772.25 C-225.89894531 773.38695312 -225.89894531 773.38695312 -226.2421875 774.546875 C-226.8211732 776.42111737 -227.43753237 778.28385409 -228.0703125 780.140625 C-231.09075325 789.22306921 -232.94694443 796.41267584 -228.8125 805.375 C-225.18710706 812.44163894 -219.5718652 814.86355748 -212.4375 817.375 C-211.60033447 817.67607666 -210.76316895 817.97715332 -209.90063477 818.28735352 C-201.64384784 821.21097487 -193.27132241 823.69854081 -184.86621094 826.15380859 C-179.25240931 827.81117115 -173.65809428 829.53237119 -168.0625 831.25 C-166.94222412 831.591521 -165.82194824 831.93304199 -164.66772461 832.28491211 C-163.61335205 832.60854736 -162.55897949 832.93218262 -161.47265625 833.265625 C-160.53687744 833.55211914 -159.60109863 833.83861328 -158.63696289 834.13378906 C-156.89899856 834.70468967 -155.17941101 835.33542382 -153.48608398 836.02758789 C-150.92111693 837.03085449 -148.43305774 837.67658415 -145.75 838.29296875 C-138.48573477 840.06352239 -131.39981872 842.31043382 -124.28121948 844.58407593 C-120.38916631 845.82686087 -116.49325044 847.05743125 -112.59765625 848.2890625 C-111.8388063 848.5292662 -111.07995636 848.76946991 -110.29811096 849.01695251 C-104.6921139 850.78889741 -99.07399868 852.51486826 -93.4375 854.1875 C-85.63473125 856.50581855 -77.84528763 858.86537483 -70.0625 861.25 C-68.94093506 861.59184326 -67.81937012 861.93368652 -66.66381836 862.28588867 C-65.08419312 862.77085815 -65.08419312 862.77085815 -63.47265625 863.265625 C-62.06898804 863.69536621 -62.06898804 863.69536621 -60.63696289 864.13378906 C-58.90119798 864.70396719 -57.18374241 865.33381518 -55.49267578 866.02539062 C-52.89350758 867.04163739 -50.362357 867.69908042 -47.64453125 868.328125 C-40.22072226 870.13786979 -32.96535944 872.4370159 -25.6875 874.75 C-22.85859534 875.64358704 -20.02893003 876.53475233 -17.19921875 877.42578125 C-16.5012619 877.64589371 -15.80330505 877.86600616 -15.084198 878.0927887 C-7.82774101 880.37747696 -0.5474628 882.58260942 6.7434082 884.75488281 C10.63471582 885.92490061 14.4679349 887.14351546 18.26171875 888.6015625 C21.45630158 889.7966102 24.49353256 890.69015209 27.8125 891.4375 C31.82768599 892.39973403 35.64015268 893.53515174 39.5 895 C43.24174862 896.41854561 46.91662427 897.52416225 50.8125 898.4375 C56.64337447 899.81570669 62.14810241 901.81219761 67.765625 903.87890625 C71.02483397 905.00860791 74.18509178 905.75320869 77.55859375 906.41796875 C81.42799166 907.34043321 85.15347491 908.67987674 88.9140625 909.96826172 C94.56567391 911.89098936 100.26970105 913.58771678 106.01367188 915.2121582 C109.4446239 916.19510433 112.78897429 917.26916639 116.12109375 918.55078125 C119.41320948 919.81434847 122.68630147 920.76013701 126.125 921.5625 C129.26962609 922.30541791 132.12067496 923.04826998 135.125 924.25 C142.27746461 926.11586033 148.56807677 924.18434848 154.89453125 920.7421875 C161.75075331 915.06894995 163.73504626 907.61677435 166.1875 899.375 C166.86708916 897.15321699 167.54802946 894.93184672 168.23046875 892.7109375 C168.66975708 891.24599854 168.66975708 891.24599854 169.11791992 889.75146484 C169.96493079 887.10939109 170.96198491 884.57156365 172 882 C172.48700835 880.13224271 172.94393843 878.25645698 173.375 876.375 C174.57224592 871.44162486 176.11395358 866.7928013 177.91479492 862.05249023 C179.0350739 858.90134331 179.96290714 855.7412419 180.859375 852.51953125 C182.89057381 845.32779887 185.07866221 838.19348481 187.3125 831.0625 C188.10598861 828.51838943 188.89909401 825.97416419 189.69140625 823.4296875 C190.08086426 822.17897461 190.47032227 820.92826172 190.87158203 819.63964844 C192.51823514 814.32846181 194.13646878 809.00882524 195.75 803.6875 C196.83266544 800.1247967 197.91617341 796.56235021 199 793 C199.3395874 791.88214111 199.3395874 791.88214111 199.68603516 790.74169922 C202.21574736 782.43743609 204.95949341 774.25032835 207.90600586 766.0859375 C209.70377336 761.03136177 211.08026199 755.96547321 212.296875 750.73828125 C212.99747396 748.00983751 213.87980498 745.44660746 214.875 742.8125 C222.15806038 724.87082492 222.15806038 724.87082492 221.0078125 706.25 C218.59134701 701.08686877 216.01882884 696.45852807 210.7043457 693.89086914 C209.86991943 693.60848389 209.03549316 693.32609863 208.17578125 693.03515625 C207.23887451 692.71289062 206.30196777 692.390625 205.33666992 692.05859375 C204.33869385 691.72988281 203.34071777 691.40117188 202.3125 691.0625 C201.27520752 690.711875 200.23791504 690.36125 199.16918945 690 C192.05332425 687.61723751 184.89851732 685.41515621 177.68359375 683.35546875 C171.51489909 681.58804154 165.38414173 679.69564481 159.25 677.8125 C158.11780029 677.46703125 156.98560059 677.1215625 155.8190918 676.765625 C154.74957275 676.43691406 153.68005371 676.10820313 152.578125 675.76953125 C151.62325195 675.47667236 150.66837891 675.18381348 149.68457031 674.88208008 C147.07246898 674.02381142 144.54992631 673.02560128 142 672 C140.13224271 671.51299165 138.25645698 671.05606157 136.375 670.625 C132.36436628 669.65287319 128.54290243 668.53204801 124.6875 667.0625 C119.10850512 664.94521911 113.42211324 663.49514885 107.6484375 662.0078125 C103.5754938 660.88273812 99.67934355 659.49571145 95.7578125 657.9296875 C93.39588972 657.13345857 91.15500591 656.57559632 88.72265625 656.0625 C84.1199777 655.07811761 79.75273436 653.67167018 75.3125 652.125 C68.74612789 649.88581694 62.16007499 647.85505543 55.4765625 645.98828125 C45.06940747 643.0298428 34.78640936 639.65309271 24.55371094 636.14306641 C19.73053656 634.50811101 14.87050075 633.13038511 9.9519043 631.8125 C4.62051885 630.34505721 -0.6553097 628.69664844 -5.9375 627.0625 C-7.57235352 626.56073242 -7.57235352 626.56073242 -9.24023438 626.04882812 C-15.60786927 624.08519027 -21.93843582 622.03899205 -28.2421875 619.87866211 C-31.15846805 618.94951075 -34.08476205 618.20526039 -37.0625 617.5 C-41.8545475 616.35015721 -46.35968414 614.82751375 -50.96240234 613.08032227 C-54.04003898 611.98576013 -57.12165114 611.08196315 -60.26953125 610.2109375 C-68.67404553 607.83754227 -76.99004845 605.20704279 -85.3125 602.5625 C-94.81235352 599.54489947 -104.32085336 596.58621071 -113.8916626 593.8008728 C-118.30297607 592.51270135 -122.68974955 591.16443332 -127.06640625 589.76171875 C-128.14857422 589.41689453 -129.23074219 589.07207031 -130.34570312 588.71679688 C-132.5278075 588.01857647 -134.7074377 587.31258507 -136.88476562 586.59960938 C-145.89943551 583.75030071 -152.23059165 582.53256556 -161 587 Z M434.5625 661.1875 C432.57178497 661.66997439 430.58089961 662.15174656 428.58984375 662.6328125 C427.62675293 662.87032227 426.66366211 663.10783203 425.67138672 663.35253906 C422.33462671 664.16126576 418.98785143 664.87049127 415.625 665.5625 C410.73919771 666.59323541 405.89952275 667.7632678 401.0625 669 C395.98004616 670.29948413 390.90470875 671.44900222 385.75 672.4375 C378.90030637 673.75975098 372.1714426 675.43262115 365.41430664 677.16162109 C359.16240708 678.74718276 352.9058784 680.04289635 346.5703125 681.25390625 C342.85263233 682.03079565 339.22266522 682.98753259 335.5625 684 C329.85298432 685.56952454 324.16631281 686.75940418 318.33666992 687.78515625 C311.91226839 688.9483078 305.61385024 690.53140245 299.2956543 692.16821289 C294.42501192 693.42359124 289.57688495 694.47566664 284.625 695.375 C272.42538598 697.91598469 262.35437377 703.79877187 255 714 C251.5980873 720.20307695 249.47168508 726.40815974 247.5 733.1875 C246.88542869 735.25130566 246.27084546 737.31510778 245.65625 739.37890625 C245.10409889 741.2525842 244.55200745 743.12627972 244 745 C241.38946054 753.71733714 238.57747962 762.35429185 235.63671875 770.96533203 C233.57773289 777.05649852 231.78126008 783.19971007 230.03564453 789.38745117 C228.34990531 795.26766883 226.51592088 801.10038728 224.6875 806.9375 C223.89274813 809.4868308 223.09837135 812.0362744 222.3046875 814.5859375 C221.91506836 815.83729492 221.52544922 817.08865234 221.12402344 818.37792969 C219.50317693 823.60097026 217.90351869 828.83030598 216.3125 834.0625 C215.89073486 835.44828247 215.89073486 835.44828247 215.46044922 836.86206055 C214.08332249 841.39708132 212.71966916 845.93571433 211.375 850.48046875 C206.67030564 866.359175 206.67030564 866.359175 203.76171875 873.80859375 C202.36433562 877.82875753 201.87416826 881.56927318 201.9375 885.8125 C201.94652344 886.60269531 201.95554687 887.39289063 201.96484375 888.20703125 C201.98224609 889.09455078 201.98224609 889.09455078 202 890 C202.66 890.33 203.32 890.66 204 891 C208.70187965 889.16013405 211.0110262 886.98529841 214 883 C215.33333333 882 216.66666667 881 218 880 C218 879.34 218 878.68 218 878 C218.8353125 877.6596875 218.8353125 877.6596875 219.6875 877.3125 C222.64488669 875.63398323 224.61100825 873.4202431 227 871 C228.7601867 869.36347365 230.53130919 867.7386403 232.3125 866.125 C233.27542969 865.25230469 234.23835937 864.37960937 235.23046875 863.48046875 C237.50844816 861.44024742 239.80628702 859.43094262 242.125 857.4375 C245.85816572 854.19955015 249.30152814 850.71288647 252.7734375 847.19921875 C256.6277656 843.3922245 260.74553722 839.90762236 264.87890625 836.41015625 C267.44356877 834.23323968 269.93209333 832.06790667 272.3125 829.6875 C274.80544345 827.19455655 277.37181298 824.84867526 280 822.5 C282.56034247 820.21075261 285.07111538 817.92888462 287.5 815.5 C289.92888462 813.07111538 292.43965753 810.78924739 295 808.5 C298.43801151 805.42361637 301.78279712 802.30912297 305 799 C308.18554733 795.73481399 311.44172148 792.84662282 315 790 C316.68762851 788.3545622 318.3540349 786.68711423 320 785 C324.27820711 780.65675258 328.74857175 776.57431753 333.28125 772.5 C335.92840397 770.06583543 338.45943643 767.5445332 341 765 C342.82382773 763.30223095 344.65775114 761.61526235 346.5 759.9375 C347.56270156 758.96766874 348.62519426 757.99760856 349.6875 757.02734375 C350.23277344 756.52960449 350.77804687 756.03186523 351.33984375 755.51904297 C354.06865778 753.02217813 356.78398227 750.51076579 359.5 748 C361.12352649 746.50111625 362.74729569 745.00249579 364.37109375 743.50390625 C365.46784641 742.49131686 366.56419296 741.47828745 367.66015625 740.46484375 C369.27197041 738.97496352 370.88577309 737.48726524 372.5 736 C373.4384375 735.13375 374.376875 734.2675 375.34375 733.375 C377.82969251 731.15227493 380.39127709 729.07542351 383 727 C383.721875 726.278125 384.44375 725.55625 385.1875 724.8125 C387.72319617 722.27680383 390.32656389 719.88826959 393 717.5 C395.56034247 715.21075261 398.07111538 712.92888462 400.5 710.5 C402.92888462 708.07111538 405.43965753 705.78924739 408 703.5 C411.43811151 700.42245853 414.77986092 697.30716986 418 694 C419.76488851 692.23099753 421.53391239 690.46623442 423.3046875 688.703125 C424.76372891 687.2373599 426.19698846 685.74601209 427.625 684.25 C430 682 430 682 432.4375 680.625 C435.42233021 678.73218084 437.17150836 676.55319567 439.3828125 673.83203125 C441.04463016 671.94944072 442.79417238 670.44534292 444.75 668.875 C447.59443377 666.5391736 449.03435841 664.64797934 450 661 C444.82394146 657.81557498 440.04762153 659.78537566 434.5625 661.1875 Z " fill="#21ADF6" transform="translate(430,6)"/>
</svg>
