<?xml version="1.0" encoding="UTF-8"?>
<svg version="1.1" xmlns="http://www.w3.org/2000/svg" width="2150" height="2150">
<path d="M0 0 C2.1148226 -0.00322832 4.22964499 -0.00659345 6.34446716 -0.01008606 C10.75919103 -0.01603171 15.17389547 -0.01793096 19.58862305 -0.01733398 C24.04178975 -0.01725315 28.49485264 -0.024134 32.94799805 -0.0378418 C57.50548874 -0.11234879 81.91921867 0.04608623 106.41392517 1.92358398 C110.93130575 2.25489345 115.45205194 2.50446299 119.97442627 2.75654602 C186.83421686 6.56460958 254.62297122 20.21697608 318.74609375 39.16796875 C319.56787109 39.41051392 320.38964844 39.65305908 321.23632812 39.9029541 C354.94546202 49.87633258 388.12483351 61.0580327 420.74609375 74.16796875 C421.80828125 74.59480957 422.87046875 75.02165039 423.96484375 75.46142578 C466.76514508 92.81492806 509.56295491 112.84228975 549.0078125 136.91015625 C553.21074753 139.46728906 557.47953058 141.90655306 561.74609375 144.35546875 C585.75050697 158.19154985 609.03128938 173.0714023 631.81347656 188.83154297 C633.3690448 189.90723531 634.92811046 190.97786909 636.48828125 192.046875 C643.75920742 197.06607836 650.83238648 202.36233581 657.93359375 207.6171875 C660.86004685 209.7813505 663.79429186 211.9330498 666.74609375 214.0625 C673.98744042 219.29441322 681.00362184 224.72839011 687.90478516 230.40258789 C691.97771282 233.74866838 696.10215749 236.99125985 700.30859375 240.16796875 C707.07752648 245.33241372 713.45635788 250.89897929 719.85107422 256.515625 C722.35612503 258.69987956 724.89069061 260.84828213 727.42553711 262.99780273 C732.20021946 267.05023194 736.85041932 271.11425382 741.20703125 275.62109375 C742.82342052 277.24568804 744.50826516 278.73667567 746.24609375 280.23046875 C750.96374722 284.29772728 755.48711014 288.56619513 760.02734375 292.82885742 C764.68115025 297.19296214 769.39719746 301.47262746 774.18359375 305.69140625 C776.16575124 307.60708895 777.906372 309.4904634 779.68359375 311.58203125 C785.3300942 318.12836633 791.60407291 324.09246799 797.74609375 330.16796875 C812.18258124 344.44810439 812.18258124 344.44810439 817.4296875 350.62890625 C819.10154183 352.58353713 820.89643044 354.38208694 822.74609375 356.16796875 C826.62631078 360.00384045 830.19560886 364.02794439 833.74609375 368.16796875 C834.71415017 369.28445592 835.68296704 370.40028396 836.65234375 371.515625 C839.46346169 374.75039449 842.26896611 377.98996488 845.07177734 381.23193359 C846.14688027 382.47508993 847.22266794 383.71765461 848.29931641 384.95947266 C860.14628818 398.62964973 871.48909915 412.61971376 882.25341797 427.15917969 C883.76423018 429.19237611 885.28631345 431.21660474 886.8125 433.23828125 C892.78403795 441.14959392 898.65846521 449.11731855 904.36962891 457.21875 C905.86844879 459.34123633 907.3758732 461.45749047 908.8828125 463.57421875 C927.24689333 489.47303267 944.2085517 516.30648653 959.89086914 543.90869141 C961.47837148 546.69763156 963.08076545 549.47667236 964.6953125 552.25 C971.94085181 564.74042522 978.66175375 577.46022197 985.26025391 590.30224609 C986.5597105 592.80849346 987.88227694 595.29885764 989.2265625 597.78125 C1002.72739855 622.74442255 1014.33679839 648.775294 1024.91394043 675.09729004 C1025.47520204 676.49389862 1026.03781409 677.88996515 1026.60168457 679.28552246 C1061.80765868 766.45025047 1086.0723872 858.57210836 1097.48828125 962.70220947 C1097.65350118 964.28239884 1097.82004656 965.86245053 1097.98828125 967.44232178 C1102.38301453 1008.71859719 1102.927165 1050.25693962 1102.93359375 1091.73046875 C1102.93411617 1092.50149681 1102.9346386 1093.27252487 1102.93517685 1094.06691742 C1102.93793677 1098.51823488 1102.93418631 1102.96945818 1102.92004395 1107.42075539 C1102.91420864 1109.43395534 1102.91225466 1111.44716537 1102.91040039 1113.46037292 C1102.90411621 1114.66913589 1102.89783203 1115.87789886 1102.89135742 1117.12329102 C1102.88563972 1118.70099022 1102.88563972 1118.70099022 1102.87980652 1120.31056213 C1102.75210888 1123.03942698 1102.32917282 1125.50500388 1101.74609375 1128.16796875 C1101.56915665 1130.33605423 1101.42971371 1132.5073471 1101.31640625 1134.6796875 C1101.24502441 1135.97737061 1101.17364258 1137.27505371 1101.10009766 1138.61206055 C1101.06313782 1139.3019809 1101.02617798 1139.99190125 1100.98809814 1140.70272827 C1096.71274885 1219.36402585 1083.44220368 1298.37971056 1060.47198486 1373.78057861 C1059.69008409 1376.35217945 1058.91480041 1378.92572195 1058.14013672 1381.49951172 C1050.75190806 1406.00078168 1043.02030154 1430.31030232 1033.74609375 1454.16796875 C1033.41264954 1455.02608154 1033.07920532 1455.88419434 1032.73565674 1456.76831055 C1010.64891367 1513.45958951 984.46123472 1567.65397037 953.74609375 1620.16796875 C953.1442627 1621.20324707 952.54243164 1622.23852539 951.92236328 1623.30517578 C938.84276036 1645.75831647 924.20793315 1667.09322518 909.12011719 1688.23339844 C907.69607535 1690.23839267 906.28593597 1692.25256697 904.87890625 1694.26953125 C889.21277261 1716.6940652 872.54057569 1738.39152313 854.74609375 1759.16796875 C854.22321777 1759.77866211 853.7003418 1760.38935547 853.16162109 1761.01855469 C845.84342023 1769.55021588 838.38298239 1777.92057302 830.74609375 1786.16796875 C828.86861576 1788.20736611 826.99463976 1790.24995954 825.12109375 1792.29296875 C824.65985107 1792.79481689 824.1986084 1793.29666504 823.72338867 1793.8137207 C820.92652339 1796.8614527 818.17319059 1799.94383147 815.43359375 1803.04296875 C811.10114703 1807.88281914 806.52211191 1812.45343181 801.8815918 1816.99560547 C798.91981078 1819.91287711 796.0882385 1822.88030429 793.375 1826.03125 C789.39260022 1830.64116601 785.12550405 1834.93541622 780.80859375 1839.23046875 C780.04869141 1839.99423828 779.28878906 1840.75800781 778.50585938 1841.54492188 C773.74938834 1846.29326914 768.84933877 1850.79652062 763.74609375 1855.16796875 C757.64161428 1860.55893763 751.6787435 1866.08945552 745.74609375 1871.66796875 C737.54011225 1879.37739783 729.34731818 1886.97887951 720.49609375 1893.94921875 C717.26551212 1896.55571075 714.13268546 1899.26234838 710.99609375 1901.98046875 C704.08813926 1907.94434548 696.97639683 1913.60163599 689.74609375 1919.16796875 C689.05547852 1919.70099609 688.36486328 1920.23402344 687.65332031 1920.78320312 C679.10761346 1927.37330935 670.50848348 1933.86783365 661.74609375 1940.16796875 C660.44610485 1941.11648929 659.14667109 1942.06577092 657.84765625 1943.015625 C645.99107486 1951.66431784 633.91487266 1959.96580838 621.74609375 1968.16796875 C620.93043945 1968.71904297 620.11478516 1969.27011719 619.27441406 1969.83789062 C609.48710536 1976.44361653 599.60353893 1982.86085774 589.54980469 1989.05371094 C587.89436302 1990.07637414 586.24566168 1991.10992734 584.59765625 1992.14453125 C576.23824297 1997.36647836 567.69242479 2002.23796478 559.12109375 2007.1015625 C555.77147306 2009.0048103 552.43703697 2010.92931343 549.12109375 2012.890625 C536.20328437 2020.52049153 522.94788925 2027.43864722 509.57659912 2034.2364502 C507.7304342 2035.17593767 505.88583049 2036.11843287 504.04150391 2037.06152344 C486.51830507 2046.01266998 468.8240269 2054.38134033 450.74609375 2062.16796875 C449.6797168 2062.63154785 448.61333984 2063.09512695 447.51464844 2063.57275391 C431.60820905 2070.48197758 415.52185859 2076.80703369 399.26757812 2082.84912109 C395.96506995 2084.08595895 392.67470861 2085.35015946 389.38671875 2086.625 C368.83973327 2094.52363532 347.82655814 2100.86952872 326.74609375 2107.16796875 C325.85911804 2107.43411987 324.97214233 2107.700271 324.05828857 2107.9744873 C255.40722735 2128.5664981 184.27524719 2141.92857862 112.75531006 2147.02404785 C110.75539469 2147.16730252 108.75584982 2147.31496483 106.75634766 2147.46386719 C102.89930732 2147.74865053 99.04175561 2148.02382983 95.18359375 2148.29296875 C94.10480957 2148.36870117 93.02602539 2148.44443359 91.91455078 2148.52246094 C88.19300808 2148.76604481 84.47064895 2148.97729152 80.74609375 2149.16796875 C79.8943457 2149.21173645 79.04259766 2149.25550415 78.16503906 2149.30059814 C59.80795151 2150.20537429 41.47126721 2150.32530854 23.09716797 2150.29833984 C19.10079033 2150.29253357 15.10447827 2150.29600972 11.1081028 2150.30191231 C7.99404397 2150.30551745 4.88000091 2150.30438142 1.76594162 2150.30178452 C0.28997159 2150.30112072 -1.1859999 2150.30192441 -2.66196823 2150.30426407 C-4.7035189 2150.30680156 -6.74507469 2150.30224875 -8.78662109 2150.29736328 C-9.9428598 2150.29656769 -11.09909851 2150.29577209 -12.29037476 2150.29495239 C-14.82219165 2150.18646718 -16.83807949 2149.85348801 -19.25390625 2149.16796875 C-21.49722851 2148.98642822 -23.74426126 2148.84909346 -25.9921875 2148.73828125 C-27.36728491 2148.66648483 -28.7423656 2148.59436756 -30.11743164 2148.52197266 C-30.84141144 2148.48501282 -31.56539124 2148.44805298 -32.31130981 2148.40997314 C-49.68542109 2147.50852727 -66.95503724 2146.03675488 -84.25390625 2144.16796875 C-86.14302734 2143.97146729 -86.14302734 2143.97146729 -88.0703125 2143.77099609 C-112.47348485 2141.20469097 -136.56301361 2137.04943334 -160.69281006 2132.63604736 C-163.02865044 2132.20913762 -165.36504293 2131.78542574 -167.70166016 2131.36279297 C-196.15904785 2126.19656169 -224.39137734 2119.8035798 -252.25390625 2112.04296875 C-252.95043304 2111.84908569 -253.64695984 2111.65520264 -254.36459351 2111.45544434 C-259.33881417 2110.06374949 -264.29898629 2108.62677963 -269.25390625 2107.16796875 C-270.53957993 2106.79055542 -270.53957993 2106.79055542 -271.85122681 2106.40551758 C-286.71320619 2102.0221331 -301.35129064 2097.13054612 -315.94140625 2091.91796875 C-316.98329102 2091.54735321 -318.02517578 2091.17673767 -319.09863281 2090.79489136 C-335.62322312 2084.91343679 -352.01459822 2078.80088796 -368.25390625 2072.16796875 C-370.21733846 2071.37993556 -372.18087943 2070.59217329 -374.14453125 2069.8046875 C-390.53752433 2063.16504071 -406.49206162 2055.62450547 -422.45440674 2048.0234375 C-425.06058159 2046.78448126 -427.67103705 2045.55464007 -430.28125 2044.32421875 C-435.95631563 2041.64118772 -441.60971416 2038.91530439 -447.25390625 2036.16796875 C-447.84774109 2035.87942017 -448.44157593 2035.59087158 -449.05340576 2035.2935791 C-465.53091568 2027.28126374 -481.70536397 2019.01830627 -497.44140625 2009.609375 C-503.61301996 2005.92261463 -509.89843367 2002.45453119 -516.19140625 1998.98046875 C-525.56473402 1993.78092467 -534.62673685 1988.26263422 -543.53759766 1982.30957031 C-545.94354014 1980.70925921 -548.37731534 1979.15466977 -550.81640625 1977.60546875 C-551.67363281 1977.06019531 -552.53085937 1976.51492188 -553.4140625 1975.953125 C-555.54061696 1974.61635005 -557.67283149 1973.29202052 -559.8125 1971.9765625 C-573.82227806 1963.34211601 -587.48248625 1954.19080994 -600.5703125 1944.20703125 C-603.2485118 1942.17206759 -605.96209467 1940.19619961 -608.69140625 1938.23046875 C-614.33633518 1934.13749321 -619.86520315 1929.90100394 -625.37304688 1925.62646484 C-627.41950323 1924.03955801 -629.46952051 1922.45731204 -631.51953125 1920.875 C-640.95868558 1913.57608333 -650.2861823 1906.15579233 -659.51416016 1898.59179688 C-661.07338952 1897.31570571 -662.63791725 1896.04609494 -664.203125 1894.77734375 C-675.71735112 1885.43149014 -686.85805015 1875.7304067 -697.69677734 1865.61181641 C-699.20166657 1864.21640799 -700.71862466 1862.83590904 -702.2421875 1861.4609375 C-708.45861952 1855.83733079 -714.42698423 1850.03814579 -720.32177734 1844.08081055 C-723.23764597 1841.14508126 -726.15878426 1838.28446172 -729.31640625 1835.60546875 C-737.38932733 1828.75044525 -744.86414272 1820.99138493 -751.71484375 1812.92578125 C-753.32331175 1811.08869851 -755.01229493 1809.37889088 -756.75390625 1807.66796875 C-759.70273408 1804.76460743 -762.41522735 1801.7254199 -765.11328125 1798.58984375 C-767.33854086 1796.07221427 -769.62371879 1793.62134827 -771.92358398 1791.17211914 C-777.14743915 1785.60723635 -782.16906685 1779.97107112 -786.9453125 1774.01171875 C-789.65357099 1770.67565753 -792.44694062 1767.42095833 -795.25390625 1764.16796875 C-799.52723211 1759.20492249 -803.7391193 1754.20172568 -807.86328125 1749.11328125 C-809.6339351 1746.93178941 -811.41507881 1744.76150176 -813.20703125 1742.59765625 C-820.89147776 1733.28253296 -828.12504292 1723.69615643 -835.21801758 1713.92529297 C-836.74078562 1711.86291831 -838.2805139 1709.82179154 -839.8425293 1707.78955078 C-848.43629662 1696.56735643 -856.2143212 1684.87309896 -863.94140625 1673.04296875 C-865.20722001 1671.11427985 -866.47349424 1669.18589309 -867.74023438 1667.2578125 C-877.14170913 1652.93521317 -886.45924504 1638.57100379 -895.44140625 1623.98046875 C-896.44977539 1622.35334961 -896.44977539 1622.35334961 -897.47851562 1620.69335938 C-901.62687518 1613.95984878 -905.51849756 1607.13744632 -909.25390625 1600.16796875 C-910.12253639 1598.59108832 -910.99358373 1597.0155367 -911.8671875 1595.44140625 C-925.77413428 1570.25925401 -938.78499112 1544.67278944 -950.72851562 1518.50390625 C-952.12563831 1515.44848302 -953.53800741 1512.40076582 -954.95703125 1509.35546875 C-972.67203387 1471.17132079 -986.83869165 1431.35833464 -999.25390625 1391.16796875 C-999.65446228 1389.87155457 -999.65446228 1389.87155457 -1000.06311035 1388.5489502 C-1013.10971414 1346.21044297 -1022.94578828 1303.67492082 -1031.25390625 1260.16796875 C-1031.41459595 1259.33056152 -1031.57528564 1258.4931543 -1031.74084473 1257.63037109 C-1044.06097021 1193.34513847 -1047.64933108 1128.69515515 -1047.44952393 1063.34625244 C-1047.43851422 1058.78136263 -1047.4390611 1054.21650165 -1047.43966198 1049.65160084 C-1047.43939071 1045.22070983 -1047.43392223 1040.78983809 -1047.42666054 1036.35895348 C-1047.4234967 1034.26222566 -1047.42151185 1032.16549571 -1047.42076683 1030.06876564 C-1047.41859946 1027.17186312 -1047.40985728 1024.27505583 -1047.39916992 1021.37817383 C-1047.39962311 1020.52908447 -1047.40007629 1019.67999512 -1047.40054321 1018.80517578 C-1047.3771671 1014.4729781 -1047.07134469 1010.43848487 -1046.25390625 1006.16796875 C-1046.10779217 1004.77196358 -1045.98171403 1003.37363571 -1045.88085938 1001.97363281 C-1045.82410034 1001.20553284 -1045.76734131 1000.43743286 -1045.7088623 999.64605713 C-1045.62287781 998.42713776 -1045.62287781 998.42713776 -1045.53515625 997.18359375 C-1045.47235474 996.32795837 -1045.40955322 995.472323 -1045.34484863 994.59075928 C-1045.14525186 991.86667885 -1044.9493322 989.14235131 -1044.75390625 986.41796875 C-1044.55798082 983.70790882 -1044.36122297 980.99791514 -1044.16296387 978.2880249 C-1044.04015545 976.60734558 -1043.91871681 974.92656533 -1043.7989502 973.2456665 C-1043.18871213 964.85196967 -1042.34170069 956.49203564 -1041.2734375 948.14453125 C-1041.18041351 947.41370834 -1041.08738953 946.68288544 -1040.99154663 945.92991638 C-1038.25503282 924.58373294 -1035.10320151 903.3425836 -1031.25390625 882.16796875 C-1031.12580566 881.45684937 -1030.99770508 880.74572998 -1030.86572266 880.01306152 C-1022.17450521 831.9332246 -1009.879821 783.65236051 -994.03137207 737.44000244 C-993.24067481 735.12930173 -992.4587311 732.81578984 -991.67871094 730.50146484 C-979.78888581 695.295794 -966.1815808 660.89927871 -950.27075195 627.31561279 C-949.2445377 625.14818176 -948.2225666 622.97878784 -947.20117188 620.80908203 C-939.31874283 604.09273907 -931.05954942 587.75503794 -921.75341797 571.77490234 C-919.26348726 567.44610389 -916.88931553 563.05493315 -914.50390625 558.66796875 C-910.7076056 551.72282473 -906.77059496 544.89274879 -902.6484375 538.13671875 C-900.91379475 535.28596557 -899.23507618 532.40829747 -897.578125 529.51171875 C-887.99690718 512.84998095 -877.30153093 496.97050569 -866.53485107 481.06207275 C-865.33511734 479.28805375 -864.13787725 477.51238914 -862.94189453 475.73583984 C-850.4397105 457.17390908 -850.4397105 457.17390908 -843.625 448.28515625 C-841.07430984 444.93186013 -838.58809413 441.53588418 -836.1027832 438.1340332 C-831.02680679 431.19201713 -825.90501154 424.35923486 -820.38671875 417.76171875 C-817.97466647 414.82838044 -815.67428933 411.81746301 -813.37890625 408.79296875 C-808.67357727 402.61728158 -803.70770773 396.69354489 -798.65380859 390.80175781 C-796.30221242 388.05727201 -793.96518364 385.30049518 -791.62890625 382.54296875 C-791.17080566 382.00373779 -790.71270508 381.46450684 -790.24072266 380.90893555 C-787.33324894 377.47703548 -784.50205603 373.99254606 -781.69140625 370.48046875 C-777.92954429 365.85048479 -773.858881 361.6730675 -769.59765625 357.50390625 C-766.29565271 354.21290939 -763.28039085 350.71033141 -760.25390625 347.16796875 C-756.14185124 342.3995665 -752.18858153 338.09040295 -747.25390625 334.16796875 C-746.1997621 332.99474643 -745.16622004 331.80289619 -744.14624023 330.59985352 C-740.13750006 325.9719622 -735.87269165 321.64254878 -731.5390625 317.3203125 C-730.72449081 316.50478409 -729.90991913 315.68925568 -729.07066345 314.84901428 C-727.35831432 313.13598867 -725.64471783 311.4242091 -723.92993164 309.71362305 C-721.3238861 307.11293323 -718.72322103 304.50694919 -716.12304688 301.90039062 C-714.44953926 300.22754389 -712.77572143 298.55500741 -711.1015625 296.8828125 C-710.33360855 296.11283432 -709.5656546 295.34285614 -708.77442932 294.54954529 C-704.65518621 290.44790614 -700.4584731 286.50693348 -696.03465271 282.7346344 C-694.19395883 281.11522819 -692.47010779 279.41806858 -690.75390625 277.66796875 C-687.09110576 273.95600315 -683.21325733 270.55896137 -679.25390625 267.16796875 C-678.1755793 266.23721309 -677.09747159 265.30620338 -676.01953125 264.375 C-669.75697585 258.97510814 -663.44601856 253.65093759 -657.0234375 248.44140625 C-654.49699061 246.3675105 -652.00595476 244.25967603 -649.5222168 242.13525391 C-644.21876574 237.60159511 -638.83165789 233.23111969 -633.27441406 229.01245117 C-628.99879863 225.76218929 -624.80837176 222.41566709 -620.62890625 219.04296875 C-615.59364557 214.99393078 -610.50863733 211.06101613 -605.24609375 207.30859375 C-603.04601249 205.73464528 -600.86822678 204.14292818 -598.69921875 202.52734375 C-578.71927854 187.74067492 -557.68576434 174.11830055 -536.32910156 161.40722656 C-534.11723315 160.08635079 -531.91556125 158.74952164 -529.71484375 157.41015625 C-508.48049392 144.52097541 -486.85155017 132.29957637 -464.93945312 120.60253906 C-462.45225172 119.27392129 -459.96994179 117.93658412 -457.48828125 116.59765625 C-440.21486174 107.33362727 -422.5420755 98.69231756 -404.5078125 91.0078125 C-401.19929364 89.59331827 -397.92638494 88.11042946 -394.65625 86.609375 C-381.02063332 80.38405155 -367.25058692 74.71285665 -353.25390625 69.35546875 C-352.44863495 69.04722168 -351.64336365 68.73897461 -350.81369019 68.42138672 C-346.08802067 66.61656115 -341.35626757 64.82849349 -336.61911011 63.05404663 C-335.03227299 62.4595688 -333.44595423 61.86370563 -331.86013794 61.26651001 C-320.56443617 57.01704683 -309.20984342 53.08195343 -297.69140625 49.48046875 C-296.89353699 49.23017914 -296.09566772 48.97988953 -295.27362061 48.72201538 C-262.25041812 38.38279385 -229.14293901 29.20573244 -195.25390625 22.16796875 C-193.99770477 21.90563446 -193.99770477 21.90563446 -192.71612549 21.63800049 C-142.31504984 11.12858352 -91.59919814 4.6821282 -40.25390625 1.16796875 C-39.58134418 1.12165849 -38.90878212 1.07534822 -38.21583939 1.02763462 C-25.47325176 0.17420978 -12.76804165 0.00467737 0 0 Z " fill="#1F2D39" transform="translate(1047.25390625,-0.16796875)"/>
<path d="M0 0 C2.1148226 -0.00322832 4.22964499 -0.00659345 6.34446716 -0.01008606 C10.75919103 -0.01603171 15.17389547 -0.01793096 19.58862305 -0.01733398 C24.04178975 -0.01725315 28.49485264 -0.024134 32.94799805 -0.0378418 C57.50548874 -0.11234879 81.91921867 0.04608623 106.41392517 1.92358398 C110.93130575 2.25489345 115.45205194 2.50446299 119.97442627 2.75654602 C186.83421686 6.56460958 254.62297122 20.21697608 318.74609375 39.16796875 C319.56787109 39.41051392 320.38964844 39.65305908 321.23632812 39.9029541 C354.94546202 49.87633258 388.12483351 61.0580327 420.74609375 74.16796875 C421.80828125 74.59480957 422.87046875 75.02165039 423.96484375 75.46142578 C466.76514508 92.81492806 509.56295491 112.84228975 549.0078125 136.91015625 C553.21074753 139.46728906 557.47953058 141.90655306 561.74609375 144.35546875 C585.75050697 158.19154985 609.03128938 173.0714023 631.81347656 188.83154297 C633.3690448 189.90723531 634.92811046 190.97786909 636.48828125 192.046875 C643.75920742 197.06607836 650.83238648 202.36233581 657.93359375 207.6171875 C660.86004685 209.7813505 663.79429186 211.9330498 666.74609375 214.0625 C673.98744042 219.29441322 681.00362184 224.72839011 687.90478516 230.40258789 C691.97771282 233.74866838 696.10215749 236.99125985 700.30859375 240.16796875 C707.07752648 245.33241372 713.45635788 250.89897929 719.85107422 256.515625 C722.35612503 258.69987956 724.89069061 260.84828213 727.42553711 262.99780273 C732.20021946 267.05023194 736.85041932 271.11425382 741.20703125 275.62109375 C742.82342052 277.24568804 744.50826516 278.73667567 746.24609375 280.23046875 C750.96374722 284.29772728 755.48711014 288.56619513 760.02734375 292.82885742 C764.68115025 297.19296214 769.39719746 301.47262746 774.18359375 305.69140625 C776.16575124 307.60708895 777.906372 309.4904634 779.68359375 311.58203125 C785.3300942 318.12836633 791.60407291 324.09246799 797.74609375 330.16796875 C812.18258124 344.44810439 812.18258124 344.44810439 817.4296875 350.62890625 C819.10154183 352.58353713 820.89643044 354.38208694 822.74609375 356.16796875 C826.62631078 360.00384045 830.19560886 364.02794439 833.74609375 368.16796875 C834.71415017 369.28445592 835.68296704 370.40028396 836.65234375 371.515625 C839.46346169 374.75039449 842.26896611 377.98996488 845.07177734 381.23193359 C846.14688027 382.47508993 847.22266794 383.71765461 848.29931641 384.95947266 C860.14628818 398.62964973 871.48909915 412.61971376 882.25341797 427.15917969 C883.76423018 429.19237611 885.28631345 431.21660474 886.8125 433.23828125 C892.78403795 441.14959392 898.65846521 449.11731855 904.36962891 457.21875 C905.86844879 459.34123633 907.3758732 461.45749047 908.8828125 463.57421875 C927.24689333 489.47303267 944.2085517 516.30648653 959.89086914 543.90869141 C961.47837148 546.69763156 963.08076545 549.47667236 964.6953125 552.25 C971.94085181 564.74042522 978.66175375 577.46022197 985.26025391 590.30224609 C986.5597105 592.80849346 987.88227694 595.29885764 989.2265625 597.78125 C1002.72739855 622.74442255 1014.33679839 648.775294 1024.91394043 675.09729004 C1025.47520204 676.49389862 1026.03781409 677.88996515 1026.60168457 679.28552246 C1061.80765868 766.45025047 1086.0723872 858.57210836 1097.48828125 962.70220947 C1097.65350118 964.28239884 1097.82004656 965.86245053 1097.98828125 967.44232178 C1102.38301453 1008.71859719 1102.927165 1050.25693962 1102.93359375 1091.73046875 C1102.93411617 1092.50149681 1102.9346386 1093.27252487 1102.93517685 1094.06691742 C1102.93793677 1098.51823488 1102.93418631 1102.96945818 1102.92004395 1107.42075539 C1102.91420864 1109.43395534 1102.91225466 1111.44716537 1102.91040039 1113.46037292 C1102.90411621 1114.66913589 1102.89783203 1115.87789886 1102.89135742 1117.12329102 C1102.88563972 1118.70099022 1102.88563972 1118.70099022 1102.87980652 1120.31056213 C1102.75210888 1123.03942698 1102.32917282 1125.50500388 1101.74609375 1128.16796875 C1101.56915665 1130.33605423 1101.42971371 1132.5073471 1101.31640625 1134.6796875 C1101.24502441 1135.97737061 1101.17364258 1137.27505371 1101.10009766 1138.61206055 C1101.06313782 1139.3019809 1101.02617798 1139.99190125 1100.98809814 1140.70272827 C1096.71274885 1219.36402585 1083.44220368 1298.37971056 1060.47198486 1373.78057861 C1059.69008409 1376.35217945 1058.91480041 1378.92572195 1058.14013672 1381.49951172 C1050.75190806 1406.00078168 1043.02030154 1430.31030232 1033.74609375 1454.16796875 C1033.41264954 1455.02608154 1033.07920532 1455.88419434 1032.73565674 1456.76831055 C1010.64891367 1513.45958951 984.46123472 1567.65397037 953.74609375 1620.16796875 C953.1442627 1621.20324707 952.54243164 1622.23852539 951.92236328 1623.30517578 C938.84276036 1645.75831647 924.20793315 1667.09322518 909.12011719 1688.23339844 C907.69607535 1690.23839267 906.28593597 1692.25256697 904.87890625 1694.26953125 C889.21277261 1716.6940652 872.54057569 1738.39152313 854.74609375 1759.16796875 C854.22321777 1759.77866211 853.7003418 1760.38935547 853.16162109 1761.01855469 C845.84342023 1769.55021588 838.38298239 1777.92057302 830.74609375 1786.16796875 C828.86861576 1788.20736611 826.99463976 1790.24995954 825.12109375 1792.29296875 C824.65985107 1792.79481689 824.1986084 1793.29666504 823.72338867 1793.8137207 C820.92652339 1796.8614527 818.17319059 1799.94383147 815.43359375 1803.04296875 C811.10114703 1807.88281914 806.52211191 1812.45343181 801.8815918 1816.99560547 C798.91981078 1819.91287711 796.0882385 1822.88030429 793.375 1826.03125 C789.39260022 1830.64116601 785.12550405 1834.93541622 780.80859375 1839.23046875 C780.04869141 1839.99423828 779.28878906 1840.75800781 778.50585938 1841.54492188 C773.74938834 1846.29326914 768.84933877 1850.79652062 763.74609375 1855.16796875 C757.64161428 1860.55893763 751.6787435 1866.08945552 745.74609375 1871.66796875 C737.54011225 1879.37739783 729.34731818 1886.97887951 720.49609375 1893.94921875 C717.26551212 1896.55571075 714.13268546 1899.26234838 710.99609375 1901.98046875 C704.08813926 1907.94434548 696.97639683 1913.60163599 689.74609375 1919.16796875 C689.05547852 1919.70099609 688.36486328 1920.23402344 687.65332031 1920.78320312 C679.10761346 1927.37330935 670.50848348 1933.86783365 661.74609375 1940.16796875 C660.44610485 1941.11648929 659.14667109 1942.06577092 657.84765625 1943.015625 C645.99107486 1951.66431784 633.91487266 1959.96580838 621.74609375 1968.16796875 C620.93043945 1968.71904297 620.11478516 1969.27011719 619.27441406 1969.83789062 C609.48710536 1976.44361653 599.60353893 1982.86085774 589.54980469 1989.05371094 C587.89436302 1990.07637414 586.24566168 1991.10992734 584.59765625 1992.14453125 C576.23824297 1997.36647836 567.69242479 2002.23796478 559.12109375 2007.1015625 C555.77147306 2009.0048103 552.43703697 2010.92931343 549.12109375 2012.890625 C536.20328437 2020.52049153 522.94788925 2027.43864722 509.57659912 2034.2364502 C507.7304342 2035.17593767 505.88583049 2036.11843287 504.04150391 2037.06152344 C486.51830507 2046.01266998 468.8240269 2054.38134033 450.74609375 2062.16796875 C449.6797168 2062.63154785 448.61333984 2063.09512695 447.51464844 2063.57275391 C431.60820905 2070.48197758 415.52185859 2076.80703369 399.26757812 2082.84912109 C395.96506995 2084.08595895 392.67470861 2085.35015946 389.38671875 2086.625 C368.83973327 2094.52363532 347.82655814 2100.86952872 326.74609375 2107.16796875 C325.85911804 2107.43411987 324.97214233 2107.700271 324.05828857 2107.9744873 C255.40722735 2128.5664981 184.27524719 2141.92857862 112.75531006 2147.02404785 C110.75539469 2147.16730252 108.75584982 2147.31496483 106.75634766 2147.46386719 C102.89930732 2147.74865053 99.04175561 2148.02382983 95.18359375 2148.29296875 C94.10480957 2148.36870117 93.02602539 2148.44443359 91.91455078 2148.52246094 C88.19300808 2148.76604481 84.47064895 2148.97729152 80.74609375 2149.16796875 C79.8943457 2149.21173645 79.04259766 2149.25550415 78.16503906 2149.30059814 C59.80795151 2150.20537429 41.47126721 2150.32530854 23.09716797 2150.29833984 C19.10079033 2150.29253357 15.10447827 2150.29600972 11.1081028 2150.30191231 C7.99404397 2150.30551745 4.88000091 2150.30438142 1.76594162 2150.30178452 C0.28997159 2150.30112072 -1.1859999 2150.30192441 -2.66196823 2150.30426407 C-4.7035189 2150.30680156 -6.74507469 2150.30224875 -8.78662109 2150.29736328 C-9.9428598 2150.29656769 -11.09909851 2150.29577209 -12.29037476 2150.29495239 C-14.82219165 2150.18646718 -16.83807949 2149.85348801 -19.25390625 2149.16796875 C-21.49722851 2148.98642822 -23.74426126 2148.84909346 -25.9921875 2148.73828125 C-27.36728491 2148.66648483 -28.7423656 2148.59436756 -30.11743164 2148.52197266 C-30.84141144 2148.48501282 -31.56539124 2148.44805298 -32.31130981 2148.40997314 C-49.68542109 2147.50852727 -66.95503724 2146.03675488 -84.25390625 2144.16796875 C-86.14302734 2143.97146729 -86.14302734 2143.97146729 -88.0703125 2143.77099609 C-112.47348485 2141.20469097 -136.56301361 2137.04943334 -160.69281006 2132.63604736 C-163.02865044 2132.20913762 -165.36504293 2131.78542574 -167.70166016 2131.36279297 C-196.15904785 2126.19656169 -224.39137734 2119.8035798 -252.25390625 2112.04296875 C-252.95043304 2111.84908569 -253.64695984 2111.65520264 -254.36459351 2111.45544434 C-259.33881417 2110.06374949 -264.29898629 2108.62677963 -269.25390625 2107.16796875 C-270.53957993 2106.79055542 -270.53957993 2106.79055542 -271.85122681 2106.40551758 C-286.71320619 2102.0221331 -301.35129064 2097.13054612 -315.94140625 2091.91796875 C-316.98329102 2091.54735321 -318.02517578 2091.17673767 -319.09863281 2090.79489136 C-335.62322312 2084.91343679 -352.01459822 2078.80088796 -368.25390625 2072.16796875 C-370.21733846 2071.37993556 -372.18087943 2070.59217329 -374.14453125 2069.8046875 C-390.53752433 2063.16504071 -406.49206162 2055.62450547 -422.45440674 2048.0234375 C-425.06058159 2046.78448126 -427.67103705 2045.55464007 -430.28125 2044.32421875 C-435.95631563 2041.64118772 -441.60971416 2038.91530439 -447.25390625 2036.16796875 C-447.84774109 2035.87942017 -448.44157593 2035.59087158 -449.05340576 2035.2935791 C-465.53091568 2027.28126374 -481.70536397 2019.01830627 -497.44140625 2009.609375 C-503.61301996 2005.92261463 -509.89843367 2002.45453119 -516.19140625 1998.98046875 C-525.56473402 1993.78092467 -534.62673685 1988.26263422 -543.53759766 1982.30957031 C-545.94354014 1980.70925921 -548.37731534 1979.15466977 -550.81640625 1977.60546875 C-551.67363281 1977.06019531 -552.53085937 1976.51492188 -553.4140625 1975.953125 C-555.54061696 1974.61635005 -557.67283149 1973.29202052 -559.8125 1971.9765625 C-573.82227806 1963.34211601 -587.48248625 1954.19080994 -600.5703125 1944.20703125 C-603.2485118 1942.17206759 -605.96209467 1940.19619961 -608.69140625 1938.23046875 C-614.33633518 1934.13749321 -619.86520315 1929.90100394 -625.37304688 1925.62646484 C-627.41950323 1924.03955801 -629.46952051 1922.45731204 -631.51953125 1920.875 C-640.95868558 1913.57608333 -650.2861823 1906.15579233 -659.51416016 1898.59179688 C-661.07338952 1897.31570571 -662.63791725 1896.04609494 -664.203125 1894.77734375 C-675.71735112 1885.43149014 -686.85805015 1875.7304067 -697.69677734 1865.61181641 C-699.20166657 1864.21640799 -700.71862466 1862.83590904 -702.2421875 1861.4609375 C-708.45861952 1855.83733079 -714.42698423 1850.03814579 -720.32177734 1844.08081055 C-723.23764597 1841.14508126 -726.15878426 1838.28446172 -729.31640625 1835.60546875 C-737.38932733 1828.75044525 -744.86414272 1820.99138493 -751.71484375 1812.92578125 C-753.32331175 1811.08869851 -755.01229493 1809.37889088 -756.75390625 1807.66796875 C-759.70273408 1804.76460743 -762.41522735 1801.7254199 -765.11328125 1798.58984375 C-767.33854086 1796.07221427 -769.62371879 1793.62134827 -771.92358398 1791.17211914 C-777.14743915 1785.60723635 -782.16906685 1779.97107112 -786.9453125 1774.01171875 C-789.65357099 1770.67565753 -792.44694062 1767.42095833 -795.25390625 1764.16796875 C-799.52723211 1759.20492249 -803.7391193 1754.20172568 -807.86328125 1749.11328125 C-809.6339351 1746.93178941 -811.41507881 1744.76150176 -813.20703125 1742.59765625 C-820.89147776 1733.28253296 -828.12504292 1723.69615643 -835.21801758 1713.92529297 C-836.74078562 1711.86291831 -838.2805139 1709.82179154 -839.8425293 1707.78955078 C-848.43629662 1696.56735643 -856.2143212 1684.87309896 -863.94140625 1673.04296875 C-865.20722001 1671.11427985 -866.47349424 1669.18589309 -867.74023438 1667.2578125 C-877.14170913 1652.93521317 -886.45924504 1638.57100379 -895.44140625 1623.98046875 C-896.44977539 1622.35334961 -896.44977539 1622.35334961 -897.47851562 1620.69335938 C-901.62687518 1613.95984878 -905.51849756 1607.13744632 -909.25390625 1600.16796875 C-910.12253639 1598.59108832 -910.99358373 1597.0155367 -911.8671875 1595.44140625 C-925.77413428 1570.25925401 -938.78499112 1544.67278944 -950.72851562 1518.50390625 C-952.12563831 1515.44848302 -953.53800741 1512.40076582 -954.95703125 1509.35546875 C-972.67203387 1471.17132079 -986.83869165 1431.35833464 -999.25390625 1391.16796875 C-999.65446228 1389.87155457 -999.65446228 1389.87155457 -1000.06311035 1388.5489502 C-1013.10971414 1346.21044297 -1022.94578828 1303.67492082 -1031.25390625 1260.16796875 C-1031.41459595 1259.33056152 -1031.57528564 1258.4931543 -1031.74084473 1257.63037109 C-1044.06097021 1193.34513847 -1047.64933108 1128.69515515 -1047.44952393 1063.34625244 C-1047.43851422 1058.78136263 -1047.4390611 1054.21650165 -1047.43966198 1049.65160084 C-1047.43939071 1045.22070983 -1047.43392223 1040.78983809 -1047.42666054 1036.35895348 C-1047.4234967 1034.26222566 -1047.42151185 1032.16549571 -1047.42076683 1030.06876564 C-1047.41859946 1027.17186312 -1047.40985728 1024.27505583 -1047.39916992 1021.37817383 C-1047.39962311 1020.52908447 -1047.40007629 1019.67999512 -1047.40054321 1018.80517578 C-1047.3771671 1014.4729781 -1047.07134469 1010.43848487 -1046.25390625 1006.16796875 C-1046.10779217 1004.77196358 -1045.98171403 1003.37363571 -1045.88085938 1001.97363281 C-1045.82410034 1001.20553284 -1045.76734131 1000.43743286 -1045.7088623 999.64605713 C-1045.62287781 998.42713776 -1045.62287781 998.42713776 -1045.53515625 997.18359375 C-1045.47235474 996.32795837 -1045.40955322 995.472323 -1045.34484863 994.59075928 C-1045.14525186 991.86667885 -1044.9493322 989.14235131 -1044.75390625 986.41796875 C-1044.55798082 983.70790882 -1044.36122297 980.99791514 -1044.16296387 978.2880249 C-1044.04015545 976.60734558 -1043.91871681 974.92656533 -1043.7989502 973.2456665 C-1043.18871213 964.85196967 -1042.34170069 956.49203564 -1041.2734375 948.14453125 C-1041.18041351 947.41370834 -1041.08738953 946.68288544 -1040.99154663 945.92991638 C-1038.25503282 924.58373294 -1035.10320151 903.3425836 -1031.25390625 882.16796875 C-1031.12580566 881.45684937 -1030.99770508 880.74572998 -1030.86572266 880.01306152 C-1022.17450521 831.9332246 -1009.879821 783.65236051 -994.03137207 737.44000244 C-993.24067481 735.12930173 -992.4587311 732.81578984 -991.67871094 730.50146484 C-979.78888581 695.295794 -966.1815808 660.89927871 -950.27075195 627.31561279 C-949.2445377 625.14818176 -948.2225666 622.97878784 -947.20117188 620.80908203 C-939.31874283 604.09273907 -931.05954942 587.75503794 -921.75341797 571.77490234 C-919.26348726 567.44610389 -916.88931553 563.05493315 -914.50390625 558.66796875 C-910.7076056 551.72282473 -906.77059496 544.89274879 -902.6484375 538.13671875 C-900.91379475 535.28596557 -899.23507618 532.40829747 -897.578125 529.51171875 C-887.99690718 512.84998095 -877.30153093 496.97050569 -866.53485107 481.06207275 C-865.33511734 479.28805375 -864.13787725 477.51238914 -862.94189453 475.73583984 C-850.4397105 457.17390908 -850.4397105 457.17390908 -843.625 448.28515625 C-841.07430984 444.93186013 -838.58809413 441.53588418 -836.1027832 438.1340332 C-831.02680679 431.19201713 -825.90501154 424.35923486 -820.38671875 417.76171875 C-817.97466647 414.82838044 -815.67428933 411.81746301 -813.37890625 408.79296875 C-808.67357727 402.61728158 -803.70770773 396.69354489 -798.65380859 390.80175781 C-796.30221242 388.05727201 -793.96518364 385.30049518 -791.62890625 382.54296875 C-791.17080566 382.00373779 -790.71270508 381.46450684 -790.24072266 380.90893555 C-787.33324894 377.47703548 -784.50205603 373.99254606 -781.69140625 370.48046875 C-777.92954429 365.85048479 -773.858881 361.6730675 -769.59765625 357.50390625 C-766.29565271 354.21290939 -763.28039085 350.71033141 -760.25390625 347.16796875 C-756.14185124 342.3995665 -752.18858153 338.09040295 -747.25390625 334.16796875 C-746.1997621 332.99474643 -745.16622004 331.80289619 -744.14624023 330.59985352 C-740.13750006 325.9719622 -735.87269165 321.64254878 -731.5390625 317.3203125 C-730.72449081 316.50478409 -729.90991913 315.68925568 -729.07066345 314.84901428 C-727.35831432 313.13598867 -725.64471783 311.4242091 -723.92993164 309.71362305 C-721.3238861 307.11293323 -718.72322103 304.50694919 -716.12304688 301.90039062 C-714.44953926 300.22754389 -712.77572143 298.55500741 -711.1015625 296.8828125 C-710.33360855 296.11283432 -709.5656546 295.34285614 -708.77442932 294.54954529 C-704.65518621 290.44790614 -700.4584731 286.50693348 -696.03465271 282.7346344 C-694.19395883 281.11522819 -692.47010779 279.41806858 -690.75390625 277.66796875 C-687.09110576 273.95600315 -683.21325733 270.55896137 -679.25390625 267.16796875 C-678.1755793 266.23721309 -677.09747159 265.30620338 -676.01953125 264.375 C-669.75697585 258.97510814 -663.44601856 253.65093759 -657.0234375 248.44140625 C-654.49699061 246.3675105 -652.00595476 244.25967603 -649.5222168 242.13525391 C-644.21876574 237.60159511 -638.83165789 233.23111969 -633.27441406 229.01245117 C-628.99879863 225.76218929 -624.80837176 222.41566709 -620.62890625 219.04296875 C-615.59364557 214.99393078 -610.50863733 211.06101613 -605.24609375 207.30859375 C-603.04601249 205.73464528 -600.86822678 204.14292818 -598.69921875 202.52734375 C-578.71927854 187.74067492 -557.68576434 174.11830055 -536.32910156 161.40722656 C-534.11723315 160.08635079 -531.91556125 158.74952164 -529.71484375 157.41015625 C-508.48049392 144.52097541 -486.85155017 132.29957637 -464.93945312 120.60253906 C-462.45225172 119.27392129 -459.96994179 117.93658412 -457.48828125 116.59765625 C-440.21486174 107.33362727 -422.5420755 98.69231756 -404.5078125 91.0078125 C-401.19929364 89.59331827 -397.92638494 88.11042946 -394.65625 86.609375 C-381.02063332 80.38405155 -367.25058692 74.71285665 -353.25390625 69.35546875 C-352.44863495 69.04722168 -351.64336365 68.73897461 -350.81369019 68.42138672 C-346.08802067 66.61656115 -341.35626757 64.82849349 -336.61911011 63.05404663 C-335.03227299 62.4595688 -333.44595423 61.86370563 -331.86013794 61.26651001 C-320.56443617 57.01704683 -309.20984342 53.08195343 -297.69140625 49.48046875 C-296.89353699 49.23017914 -296.09566772 48.97988953 -295.27362061 48.72201538 C-262.25041812 38.38279385 -229.14293901 29.20573244 -195.25390625 22.16796875 C-193.99770477 21.90563446 -193.99770477 21.90563446 -192.71612549 21.63800049 C-142.31504984 11.12858352 -91.59919814 4.6821282 -40.25390625 1.16796875 C-39.58134418 1.12165849 -38.90878212 1.07534822 -38.21583939 1.02763462 C-25.47325176 0.17420978 -12.76804165 0.00467737 0 0 Z M-49.47460938 244.92449951 C-51.92672479 245.13930732 -54.37921657 245.34854381 -56.83203125 245.55517578 C-104.9101786 249.70046785 -154.18761624 259.91621028 -200.25390625 274.16796875 C-201.70796875 274.61269531 -201.70796875 274.61269531 -203.19140625 275.06640625 C-205.36555726 275.73250644 -207.5386956 276.4019188 -209.7109375 277.07421875 C-212.16439254 277.83162494 -214.62030521 278.58109857 -217.078125 279.32421875 C-224.52408558 281.59018083 -231.83238345 284.06884996 -239.09716797 286.86230469 C-244.24734858 288.8296762 -249.45013506 290.58481073 -254.69140625 292.29296875 C-259.88672783 293.9915122 -264.88906261 295.77804783 -269.83203125 298.125 C-273.1758627 299.56500483 -276.62113451 300.68698389 -280.06640625 301.85546875 C-291.57501364 305.79928461 -302.68243144 310.82977208 -313.53515625 316.31640625 C-316.37468149 317.74942446 -319.21841602 319.029593 -322.19140625 320.16796875 C-330.14559564 323.22412385 -337.8256595 326.85622637 -345.44140625 330.66796875 C-346.2936377 331.0944873 -347.14586914 331.52100586 -348.02392578 331.96044922 C-358.23582877 337.113721 -368.25901266 342.60799015 -378.25390625 348.16796875 C-378.88925293 348.52036621 -379.52459961 348.87276367 -380.17919922 349.23583984 C-398.74197789 359.56749869 -416.9020018 370.67720728 -434.60546875 382.41552734 C-437.5442121 384.36006088 -440.49281567 386.28918434 -443.44140625 388.21875 C-445.56682018 389.61786097 -447.69182628 391.01759172 -449.81640625 392.41796875 C-450.7916626 393.05532959 -451.76691895 393.69269043 -452.77172852 394.34936523 C-458.73318701 398.30145765 -464.30947233 402.53287319 -469.77978516 407.14208984 C-472.13785683 409.07294427 -474.54933326 410.82674526 -477.06640625 412.54296875 C-483.07695543 416.6639456 -488.73777405 421.20053265 -494.43945312 425.73291016 C-496.2082693 427.13187429 -497.98665351 428.51745427 -499.76953125 429.8984375 C-507.63389203 435.99975518 -515.25546853 442.33455049 -522.76171875 448.87109375 C-524.04536891 449.98672688 -525.33643563 451.09381624 -526.62890625 452.19921875 C-530.6118139 455.62203001 -534.35572975 459.20200024 -538.00390625 462.98046875 C-539.9529105 464.87533399 -541.94548693 466.6449943 -544.00390625 468.41796875 C-548.29204953 472.1423006 -552.27850685 476.11492483 -556.25390625 480.16796875 C-560.81308887 484.81619791 -565.44172009 489.26902523 -570.37451172 493.52001953 C-573.13389972 495.93959202 -575.73441428 498.49912247 -578.31640625 501.10546875 C-579.09479858 501.88676147 -579.09479858 501.88676147 -579.88891602 502.68383789 C-583.16815374 506.00001899 -586.26120899 509.42226362 -589.28125 512.9765625 C-591.99292717 515.9889405 -594.87263511 518.8186533 -597.75390625 521.66796875 C-602.47156574 526.338445 -606.95205678 531.10931243 -611.25390625 536.16796875 C-612.82889761 537.98772228 -614.41260815 539.79995745 -616.00390625 541.60546875 C-616.74125 542.44980469 -617.47859375 543.29414062 -618.23828125 544.1640625 C-620.25390625 546.16796875 -620.25390625 546.16796875 -623.25390625 547.16796875 C-623.23034058 546.29229248 -623.23034058 546.29229248 -623.20629883 545.39892578 C-623.14308597 542.6970428 -623.10464702 539.99531616 -623.06640625 537.29296875 C-623.04126953 536.37515625 -623.01613281 535.45734375 -622.99023438 534.51171875 C-622.85728253 521.92561072 -627.02755679 512.51026282 -635.62890625 503.41796875 C-646.62064553 493.06999728 -659.76728281 489.41421282 -674.56958008 489.64916992 C-695.48570571 490.49202747 -714.52166997 502.77378859 -728.69140625 517.60546875 C-730.60282387 519.7479137 -732.43886398 521.94348255 -734.25390625 524.16796875 C-734.80191895 524.83940918 -735.34993164 525.51084961 -735.91455078 526.20263672 C-748.57800612 541.98335904 -757.79634724 559.25946818 -764.0546875 578.49609375 C-765.06446738 581.58792792 -766.18365542 584.58299538 -767.37890625 587.60546875 C-774.54191017 607.18434614 -776.44577726 628.72988662 -776.38427734 649.40332031 C-776.37893058 651.53327608 -776.38425084 653.66301943 -776.390625 655.79296875 C-776.40054911 674.87813708 -774.23346289 692.70275844 -768.87109375 711.01367188 C-768.31122798 712.96788689 -767.79560588 714.93464276 -767.28515625 716.90234375 C-764.61258572 727.08575906 -760.42453156 736.2499307 -755.46875 745.5 C-749.80668325 756.14147297 -749.80668325 756.14147297 -751.25390625 762.16796875 C-753.57905914 769.40807897 -756.73353247 776.26208454 -759.9296875 783.1484375 C-765.46367851 795.76724295 -769.66488989 808.91242428 -773.45336914 822.14233398 C-774.28197186 825.00981747 -775.10725158 827.80661164 -776.23046875 830.57421875 C-777.81765541 834.59670707 -778.90294214 838.75623028 -780.06640625 842.91796875 C-780.5512523 844.64216099 -781.03696171 846.36611063 -781.5234375 848.08984375 C-781.78850098 849.03263184 -782.05356445 849.97541992 -782.32666016 850.94677734 C-783.00868946 853.3161019 -783.70817741 855.67567412 -784.42724609 858.03369141 C-787.53753896 868.28181676 -790.04637554 878.56581137 -792.25390625 889.04296875 C-792.59902709 890.6594439 -792.94424336 892.27589868 -793.28955078 893.89233398 C-796.20135551 907.60325667 -798.8583864 921.35696668 -801.25390625 935.16796875 C-801.40891602 936.0482373 -801.56392578 936.92850586 -801.72363281 937.83544922 C-804.77520869 955.58409124 -806.91073196 973.34758302 -808.37890625 991.29296875 C-808.50730896 992.84315201 -808.50730896 992.84315201 -808.63830566 994.4246521 C-809.94907273 1010.33723565 -811.09040363 1026.19651006 -811.25390625 1042.16796875 C-811.26379578 1043.01107605 -811.2736853 1043.85418335 -811.28387451 1044.72283936 C-811.74016549 1084.54009396 -810.34977305 1123.79934486 -806.15625 1163.3984375 C-806.04225105 1164.49394676 -806.04225105 1164.49394676 -805.9259491 1165.61158752 C-805.57072388 1168.874999 -805.11413984 1172.00049811 -804.25390625 1175.16796875 C-804.00768574 1177.52041291 -803.78222379 1179.8750408 -803.56640625 1182.23046875 C-800.92570079 1207.56347492 -795.64337184 1232.54622949 -789.25390625 1257.16796875 C-788.80990479 1258.91811279 -788.80990479 1258.91811279 -788.35693359 1260.70361328 C-783.28867312 1280.67820006 -777.33216414 1300.34064173 -771.17445374 1320.00149536 C-769.92598178 1323.990941 -768.70496213 1327.98616044 -767.5234375 1331.99609375 C-766.59011915 1335.1338757 -765.54503991 1338.15532355 -764.25390625 1341.16796875 C-762.89750842 1344.44891596 -761.77232679 1347.68683766 -760.81640625 1351.10546875 C-759.81501085 1354.58184319 -758.58644552 1357.76679227 -757.0390625 1361.03515625 C-755.00492838 1365.4429999 -753.1108277 1369.89163325 -751.30859375 1374.3984375 C-751.05416 1375.03438843 -750.79972626 1375.67033936 -750.5375824 1376.32556152 C-750.00799315 1377.65095747 -749.47874858 1378.97649117 -748.9498291 1380.30215454 C-743.51720114 1393.89038901 -737.75553875 1407.27537266 -731.50634766 1420.51171875 C-730.30046185 1423.06923095 -729.10931251 1425.63309899 -727.921875 1428.19921875 C-711.49754077 1463.53404133 -691.26452028 1497.11426307 -669.44140625 1529.35546875 C-669.01309509 1529.98915375 -668.58478394 1530.62283875 -668.14349365 1531.27572632 C-661.73387453 1540.73847723 -655.06595051 1549.99150991 -648.25390625 1559.16796875 C-647.65473389 1559.97790283 -647.05556152 1560.78783691 -646.43823242 1561.62231445 C-637.18569367 1574.09837673 -627.76454127 1586.39474579 -617.5871582 1598.13378906 C-614.62864991 1601.5474893 -611.75687484 1605.00910667 -608.94140625 1608.54296875 C-604.47238845 1614.05775305 -599.63508492 1619.19619584 -594.74487305 1624.33544922 C-593.83282104 1625.29475342 -593.83282104 1625.29475342 -592.90234375 1626.2734375 C-592.36786621 1626.83184326 -591.83338867 1627.39024902 -591.28271484 1627.96557617 C-589.50209366 1629.89854654 -587.7858012 1631.86775599 -586.07055664 1633.85839844 C-582.07845106 1638.43405437 -577.83716364 1642.72882333 -573.5390625 1647.015625 C-572.72449081 1647.83115341 -571.90991913 1648.64668182 -571.07066345 1649.48692322 C-569.35831432 1651.19994883 -567.64471783 1652.9117284 -565.92993164 1654.62231445 C-563.3238861 1657.22300427 -560.72322103 1659.82898831 -558.12304688 1662.43554688 C-556.44953926 1664.10839361 -554.77572143 1665.78093009 -553.1015625 1667.453125 C-552.33360855 1668.22310318 -551.5656546 1668.99308136 -550.77442932 1669.78639221 C-546.65098649 1673.89221313 -542.44840417 1677.84145873 -538.03045654 1681.62953186 C-535.08574495 1684.17955983 -532.27458821 1686.87057242 -529.44140625 1689.54296875 C-523.58311538 1695.02358399 -517.52573294 1700.16345807 -511.25390625 1705.16796875 C-509.39799823 1706.68667658 -507.54384215 1708.20752775 -505.69140625 1709.73046875 C-501.38530211 1713.25364486 -497.05632961 1716.746142 -492.703125 1720.2109375 C-491.09444061 1721.4963456 -489.49261038 1722.79038809 -487.8984375 1724.09375 C-482.7567031 1728.27927279 -477.47189784 1732.21256206 -472.05737305 1736.03466797 C-467.74648484 1739.08297934 -463.49416735 1742.2022673 -459.2578125 1745.35327148 C-451.06830646 1751.44053132 -442.7973828 1757.31401551 -434.23974609 1762.87109375 C-432.11623666 1764.25787542 -430.00714047 1765.66503522 -427.8984375 1767.07421875 C-406.44198059 1781.32623608 -383.99741251 1794.09518986 -361.25390625 1806.16796875 C-360.24875977 1806.70405762 -359.24361328 1807.24014648 -358.20800781 1807.79248047 C-341.82651957 1816.5088879 -325.33912798 1825.19411762 -307.7421875 1831.21484375 C-304.85675058 1832.32009745 -302.18357408 1833.68227287 -299.44140625 1835.10546875 C-293.96388135 1837.92593228 -288.39441501 1840.01373332 -282.57421875 1842.015625 C-277.40725633 1843.8088649 -272.3365139 1845.84618747 -267.31005859 1848.00146484 C-258.13396686 1851.84426066 -248.59447907 1854.69846109 -239.12890625 1857.73046875 C-236.42475487 1858.59857242 -233.72095512 1859.46773112 -231.01785278 1860.33909607 C-229.34668972 1860.87762931 -227.6749146 1861.41426854 -226.00241089 1861.94862366 C-222.24830881 1863.15672526 -218.5316071 1864.4167479 -214.84326172 1865.81396484 C-212.01267984 1866.88173842 -209.45870831 1867.67509537 -206.50390625 1868.23046875 C-204.24401361 1868.65724704 -202.44656158 1869.06806306 -200.40039062 1870.12915039 C-198.20148309 1871.1933396 -196.20941609 1871.77139912 -193.83203125 1872.31640625 C-192.96964844 1872.5175 -192.10726562 1872.71859375 -191.21875 1872.92578125 C-189.87490234 1873.23128906 -189.87490234 1873.23128906 -188.50390625 1873.54296875 C-186.75885025 1873.94547029 -185.01406649 1874.34915358 -183.26953125 1874.75390625 C-182.32456787 1874.97288574 -181.37960449 1875.19186523 -180.40600586 1875.41748047 C-177.49895675 1876.1096243 -174.60129774 1876.83333825 -171.70487976 1877.56854248 C-162.86059123 1879.81150955 -153.98005331 1881.84653084 -145.06274414 1883.77783203 C-142.68822483 1884.29365986 -140.31583129 1884.81859664 -137.94335938 1885.34375 C-129.38118306 1887.21543467 -120.88717119 1888.75242283 -112.17993164 1889.76904297 C-109.25390625 1890.16796875 -109.25390625 1890.16796875 -106.25390625 1891.16796875 C-103.714954 1891.4381613 -101.1758341 1891.61092915 -98.62890625 1891.7890625 C-95.74541252 1892.11278807 -92.9696361 1892.57236729 -90.12109375 1893.109375 C-84.23047239 1894.20802263 -78.32952928 1894.97649498 -72.37890625 1895.66796875 C-71.28231689 1895.7961499 -70.18572754 1895.92433105 -69.0559082 1896.05639648 C-65.78928688 1896.4335602 -62.52185149 1896.8024715 -59.25390625 1897.16796875 C-58.39039551 1897.26609863 -57.52688477 1897.36422852 -56.63720703 1897.46533203 C-50.51784313 1898.14829122 -44.39241438 1898.68872927 -38.25390625 1899.16796875 C-36.52962402 1899.30549561 -36.52962402 1899.30549561 -34.77050781 1899.44580078 C6.89110761 1902.61792326 49.09924559 1902.46178442 90.74609375 1899.16796875 C93.1913912 1898.98677601 95.63670337 1898.80578171 98.08203125 1898.625 C102.20042737 1898.30829036 106.31834211 1897.98823076 110.43359375 1897.6328125 C111.20058594 1897.56698975 111.96757813 1897.50116699 112.7578125 1897.43334961 C114.95134441 1897.20396185 114.95134441 1897.20396185 117.74609375 1896.16796875 C121.06627295 1895.85991089 124.38712785 1895.65907471 127.71484375 1895.44921875 C130.78954465 1895.27972379 130.78954465 1895.27972379 133.74609375 1894.16796875 C135.306003 1894.01397405 136.86933396 1893.89357964 138.43359375 1893.79296875 C143.76393569 1893.34586274 148.93184018 1892.44716735 154.17727661 1891.41177368 C159.26867301 1890.4167861 164.37104257 1889.59037709 169.5 1888.81640625 C178.92276514 1887.35873964 188.26587884 1885.58030208 197.61010742 1883.68847656 C200.20586203 1883.16346482 202.80300916 1882.64580293 205.40039062 1882.12890625 C214.24417034 1880.35794383 223.0206359 1878.4629304 231.74609375 1876.16796875 C233.1703091 1875.81014624 234.59476984 1875.45329829 236.01953125 1875.09765625 C256.44633981 1869.88726788 276.5815179 1863.56883605 296.64987183 1857.13043213 C298.10749672 1856.66289471 299.56559224 1856.19682148 301.02420044 1855.73236084 C308.76713604 1853.26193623 316.3573864 1850.6169563 323.83203125 1847.40527344 C326.87322293 1846.11398997 329.93851805 1844.91327293 333.0234375 1843.73046875 C367.29889909 1830.56478751 400.74991024 1815.19960173 432.74609375 1797.16796875 C433.74769531 1796.60601807 433.74769531 1796.60601807 434.76953125 1796.03271484 C438.78153343 1793.77807965 442.765255 1791.47703995 446.74609375 1789.16796875 C447.97232706 1788.47467786 449.19890368 1787.7819939 450.42578125 1787.08984375 C460.94671409 1781.09224607 471.00550553 1774.44209283 481.04174805 1767.67626953 C486.19928107 1764.19981415 491.36531187 1760.7506035 496.625 1757.4296875 C500.78635693 1754.8005283 504.8314158 1752.06653938 508.80859375 1749.16796875 C510.00617989 1748.30292764 511.20409807 1747.43834604 512.40234375 1746.57421875 C512.97339844 1746.16171875 513.54445313 1745.74921875 514.1328125 1745.32421875 C516.33841815 1743.74344569 518.57337978 1742.20649265 520.80859375 1740.66796875 C526.37155246 1736.78662337 531.71460731 1732.62774712 537.06835938 1728.46630859 C538.72033381 1727.18790346 540.37998727 1725.92029389 542.04296875 1724.65625 C548.44332175 1719.78506655 554.69091749 1714.78417175 560.84375 1709.6015625 C563.63986672 1707.25703933 566.4691372 1704.95967198 569.30859375 1702.66796875 C573.91567897 1698.91355784 578.31185751 1694.97660523 582.65234375 1690.91796875 C585.27624496 1688.51740792 588.04688145 1686.32858134 590.828125 1684.11328125 C597.3080927 1678.84155412 603.09915858 1673.00385822 608.93359375 1667.04296875 C610.98606682 1664.95354024 613.04189043 1662.86748876 615.1015625 1660.78515625 C615.59115952 1660.29006058 616.08075653 1659.7949649 616.58518982 1659.28486633 C619.95196728 1655.90455007 623.42079825 1652.69692622 627.06347656 1649.61743164 C632.1266326 1645.25585918 636.52303675 1640.31436986 640.87109375 1635.2578125 C642.87215676 1633.02746102 644.97469934 1630.94596747 647.12109375 1628.85546875 C651.25108704 1624.78147537 654.88105727 1620.43558352 658.50390625 1615.91015625 C660.63233996 1613.30708923 662.84323067 1610.82788242 665.12109375 1608.35546875 C669.10221231 1603.98174854 672.76275695 1599.42468097 676.3828125 1594.75366211 C679.35924615 1590.91678904 682.39737132 1587.14184986 685.48925781 1583.39746094 C692.40643356 1575.00660801 698.8178927 1566.32339379 705.11230469 1557.45898438 C707.29660273 1554.39600576 709.51012901 1551.35469421 711.72290039 1548.31225586 C726.7678479 1527.59787472 740.60665568 1506.35553822 753.14257812 1484.0234375 C754.84304118 1480.99532911 756.55217776 1477.97221036 758.26171875 1474.94921875 C761.7858948 1468.70498653 765.27752776 1462.44325044 768.74609375 1456.16796875 C769.18630859 1455.37310059 769.62652344 1454.57823242 770.08007812 1453.75927734 C786.64653687 1423.64753772 801.15092288 1391.5541807 812.56860352 1359.13500977 C813.83747435 1355.53531146 815.22041606 1352.05021939 816.80078125 1348.57421875 C818.43711087 1344.95821382 819.71336525 1341.36441538 820.80859375 1337.54296875 C821.78849386 1334.13644904 822.83560259 1330.96198218 824.25 1327.70703125 C825.72878229 1324.20891961 826.70856435 1320.85038827 827.62109375 1317.16796875 C828.95256464 1311.9354187 830.48367472 1306.83932146 832.24609375 1301.73046875 C834.18098747 1296.05517259 835.76462462 1290.38062897 837.16064453 1284.55078125 C838.48751806 1279.06027009 840.03329907 1273.65060855 841.62109375 1268.23046875 C847.53382207 1247.81676485 852.12852105 1227.10604104 855.74609375 1206.16796875 C855.86511047 1205.48277161 855.9841272 1204.79757446 856.10675049 1204.09161377 C859.77896524 1182.84236197 862.36765273 1161.60454709 864.05859375 1140.10546875 C864.13981476 1139.07631348 864.22103577 1138.0471582 864.30471802 1136.98681641 C865.96810257 1115.54372716 866.95808125 1094.11439557 866.93359375 1072.60546875 C866.93332184 1071.68397034 866.93304993 1070.76247192 866.93276978 1069.81304932 C866.84684126 1005.13843533 860.99050244 941.24545484 843.703125 878.74609375 C842.66948196 874.88153445 841.85475175 871.02368917 841.203125 867.078125 C840.68220303 864.90093829 839.7483348 863.16468155 838.74609375 861.16796875 C838.38859139 859.78297813 838.07729474 858.38539107 837.80859375 856.98046875 C836.98665085 853.04413285 835.84706038 849.3410603 834.52734375 845.546875 C833.41251508 842.1522217 832.5500066 838.70067512 831.6875 835.234375 C830.89606254 832.6564563 829.9870273 830.27145155 828.95703125 827.78515625 C827.21884302 823.5146453 825.73259859 819.19122954 824.34375 814.796875 C824.03362724 813.81664116 824.03362724 813.81664116 823.71723938 812.81660461 C822.8646532 810.1104791 822.017333 807.40276866 821.17602539 804.69311523 C818.81507769 797.10976949 816.28358972 789.78603212 812.86450195 782.59692383 C811.23629932 779.06079896 810.02344654 775.42418814 808.80859375 771.73046875 C806.70713241 765.55267877 804.21820005 759.83610612 801.17578125 754.05078125 C799.67208536 751.01873872 798.47902403 747.96766527 797.30859375 744.79296875 C795.11173432 738.87562159 792.41450491 733.33142379 789.4921875 727.75 C788.14601818 724.98839538 786.9825425 722.29639259 785.87109375 719.44140625 C783.65174188 713.79712209 781.03228589 708.39644307 778.30859375 702.98046875 C777.78346191 701.93584473 777.25833008 700.8912207 776.71728516 699.81494141 C768.35384694 683.33849702 758.98029215 667.45362799 749.49609375 651.60546875 C748.94088043 650.67670929 748.94088043 650.67670929 748.37445068 649.72918701 C741.27035723 637.86401174 734.00164799 626.09538134 725.93359375 614.85546875 C724.90081722 613.40640994 723.86827163 611.95718652 722.8359375 610.5078125 C722.06419189 609.42669189 722.06419189 609.42669189 721.27685547 608.32373047 C719.79712455 606.2398351 718.33322622 604.14585974 716.875 602.046875 C709.39934238 591.30786164 701.53860228 580.88981977 693.55712891 570.52246094 C691.97295263 568.46290364 690.394733 566.39904822 688.8203125 564.33203125 C681.28236542 554.44755285 673.51069813 544.87905129 665.08984375 535.73046875 C663.05995708 533.51112599 661.08113877 531.26124841 659.12109375 528.98046875 C656.80937314 526.31226785 654.40183553 523.81646568 651.87109375 521.35546875 C649.01324699 518.54756563 646.50875011 515.64815889 644.0546875 512.484375 C637.88476232 504.8863903 630.92315964 498.08196737 623.98022461 491.19628906 C621.67956185 488.91396899 619.38708871 486.62366156 617.09570312 484.33203125 C615.61375302 482.85499526 614.13134672 481.37841681 612.6484375 479.90234375 C611.97425278 479.22927185 611.30006805 478.55619995 610.60545349 477.86273193 C606.7053282 474.00082512 602.70481651 470.30728437 598.54481506 466.72637939 C595.17630063 463.8079013 591.93861894 460.74653339 588.6796875 457.70703125 C581.78220918 451.30101945 574.64990036 445.19787607 567.37109375 439.23046875 C566.62142334 438.61494141 565.87175293 437.99941406 565.09936523 437.36523438 C559.68194954 432.92294178 554.25158875 428.50092532 548.74609375 424.16796875 C548.10591309 423.66297852 547.46573242 423.15798828 546.80615234 422.63769531 C533.7480888 412.35201327 520.41530091 402.63255578 506.68896484 393.26391602 C503.58424286 391.14063156 500.49615237 389.00450326 497.46484375 386.77734375 C481.14415214 374.81411835 463.66298539 364.49289126 446.08251953 354.50390625 C443.70964685 353.14712889 441.3500218 351.76944381 438.9921875 350.38671875 C408.82316879 332.77991098 377.42906048 317.67798738 345.08691406 304.53295898 C341.83454771 303.20410921 338.59201129 301.8537091 335.3515625 300.49609375 C324.41507499 295.92979569 313.30195827 291.93338104 302.03662109 288.26000977 C298.71264866 287.17369208 295.43975694 286.04965705 292.17578125 284.7890625 C285.6897147 282.32781772 279.00959174 280.42049904 272.37109375 278.41796875 C271.28394577 278.0889859 271.28394577 278.0889859 270.17483521 277.75335693 C256.44054372 273.60349223 242.63722047 269.76028344 228.74609375 266.16796875 C227.98635254 265.97009766 227.22661133 265.77222656 226.44384766 265.56835938 C221.88938671 264.38626925 217.32346597 263.25741319 212.74609375 262.16796875 C211.93817383 261.97493164 211.13025391 261.78189453 210.29785156 261.58300781 C191.35997394 257.08867995 172.39729504 253.45760236 153.06860352 251.11865234 C152.15393311 251.00730957 151.2392627 250.8959668 150.296875 250.78125 C149.48903564 250.68626221 148.68119629 250.59127441 147.84887695 250.4934082 C145.74609375 250.16796875 145.74609375 250.16796875 142.74609375 249.16796875 C79.28762035 238.74904945 14.35237039 239.3228558 -49.47460938 244.92449951 Z " fill="#FEFEFE" transform="translate(1047.25390625,-0.16796875)"/>
<path d="M0 0 C4.3 0.3 4.3 0.3 6 2 C6.19581746 3.87303654 6.38543173 5.74693228 6.54345703 7.62353516 C8.63794389 31.72251276 18.06441288 55.21537021 36.69140625 71.328125 C47.94719659 80.08773327 60.4072711 86.28019541 73.22607422 92.36987305 C103.67292348 106.83557272 130.06338079 122.6877516 143.27734375 155.13671875 C146.59734511 164.92132653 149 176.60454933 149 187 C154.45063964 185.27874538 159.70788591 183.14797572 165 181 C189.21339328 171.17221096 210.0157953 172.38545961 233.97314453 182.24316406 C240.64151182 185.08130763 246.96364558 188.58217713 253.3125 192.0625 C255.86962172 193.4519392 258.42889322 194.83739696 260.98828125 196.22265625 C261.59735321 196.55284256 262.20642517 196.88302887 262.83395386 197.22322083 C285.10624455 209.26827675 307.88793966 215.17841666 333 208 C339.59361002 205.87948774 346.13486759 203.48877867 352.28515625 200.29296875 C355.41323315 198.80319399 356.75994583 198.95174718 360 200 C362.59651407 208.81491721 356.65238066 219.10135007 352.57763672 226.82299805 C345.12188599 240.38924151 335.64984237 251.83180247 325 263 C323.87464844 264.20462891 323.87464844 264.20462891 322.7265625 265.43359375 C306.07747148 282.77389252 284.31580975 294.57029218 261.4375 301.3125 C260.21703979 301.67649902 260.21703979 301.67649902 258.97192383 302.04785156 C245.27342372 305.86792437 231.43210249 306.41285839 217.3125 306.375 C216.47550568 306.3737915 215.63851135 306.37258301 214.77615356 306.37133789 C202.1599868 306.32195306 190.10518592 305.89227472 178 302 C177.19530273 301.7421875 176.39060547 301.484375 175.56152344 301.21875 C163.34653942 297.15805504 151.80398156 291.70244809 140.34887695 285.86132812 C138.84780396 285.11012695 138.84780396 285.11012695 137.31640625 284.34375 C136.43412354 283.89193359 135.55184082 283.44011719 134.64282227 282.97460938 C131.56331675 281.83896171 129.25825835 281.68990644 126 282 C122.65154133 285.1192866 120.4255162 289.13747986 118 293 C117.33742188 294.02609375 116.67484375 295.0521875 115.9921875 296.109375 C97.76627627 325.98557459 93.4290155 362.27816184 101.50390625 396.11132812 C105.34393075 411.1158683 112.20812997 424.98863943 122 437 C123.03060547 438.27617188 123.03060547 438.27617188 124.08203125 439.578125 C139.2555504 457.40359254 161.64881289 467.89898942 184.83935547 469.85058594 C201.47925357 471.0012772 219.40133977 470.51654556 235 464 C236.98520562 463.50119455 238.97069724 463.00329832 240.96044922 462.52294922 C259.99253566 457.64304389 278.70953333 447.61576008 295.20654297 437.13574219 C297.10859485 435.93123016 299.02340869 434.74925226 300.94140625 433.5703125 C302.29462595 432.73494998 303.64749897 431.89902559 305 431.0625 C305.57999756 430.70406006 306.15999512 430.34562012 306.75756836 429.97631836 C313.21369968 425.93916225 319.52028398 421.67315455 325.84796143 417.4390564 C329.61323558 414.92123821 333.38311522 412.41033018 337.15234375 409.8984375 C338.7573397 408.82839236 340.36231994 407.75832365 341.96728516 406.68823242 C345.35849207 404.42738576 348.75015145 402.16721977 352.14208984 399.9074707 C363.14995488 392.57302194 363.14995488 392.57302194 374.13671875 385.20703125 C436.04225666 343.61218425 503.71939457 308.55625439 576 289 C577.63775391 288.54560547 577.63775391 288.54560547 579.30859375 288.08203125 C617.64139371 277.61209146 656.97974211 269.05659168 696.72880554 266.93307495 C697.50220768 266.890803 698.27560983 266.84853104 699.0724484 266.80497812 C715.56846096 265.91431403 732.05433448 265.568577 748.57155405 265.40686139 C750.96902694 265.3826191 753.36645004 265.35539183 755.76388133 265.32734704 C793.49752275 264.88794446 831.23204587 264.85142756 868.96779658 264.86469864 C875.78630474 264.86703664 882.60481041 264.86724923 889.42331886 264.86618423 C890.41605316 264.866031 891.40878745 264.86587777 892.4316046 264.86571989 C894.45200262 264.86539998 896.47240064 264.86507576 898.49279866 264.8647473 C917.17286284 264.8619364 935.85292201 264.86510924 954.53298537 264.87054767 C970.35996474 264.87501373 986.18693677 264.87423268 1002.01391602 264.86962891 C1020.65905353 264.86420746 1039.30418672 264.86220851 1057.94932491 264.86524117 C1059.95892608 264.86555952 1061.96852726 264.8658739 1063.97812843 264.86618423 C1065.45902689 264.86641565 1065.45902689 264.86641565 1066.96984249 264.86665174 C1073.73568619 264.86749438 1080.50152697 264.86608162 1087.26737022 264.86370468 C1124.50429115 264.85192109 1161.73922741 264.90847722 1198.97386755 265.35607997 C1201.2737828 265.38272496 1203.57370971 265.40640438 1205.87366617 265.42918563 C1242.84276894 265.80517281 1276.77990211 268.95207422 1311 284 C1311.99990967 284.4343335 1311.99990967 284.4343335 1313.02001953 284.87744141 C1329.52226519 292.10266635 1344.24079211 301.38166228 1358 313 C1358.78068848 313.65887207 1358.78068848 313.65887207 1359.57714844 314.33105469 C1395.12532729 344.7397378 1413.68332323 388.28168941 1417.5625 434.23046875 C1419.7356912 464.38239689 1419.89164097 500.71022825 1399.72900391 525.56689453 C1389.81070351 536.94408873 1377.98733612 542.32511856 1364 547 C1363.27498291 547.2489502 1362.54996582 547.49790039 1361.80297852 547.75439453 C1354.32530351 550.17712104 1346.6908646 551.32395662 1338.9375 552.5 C1336.84311849 552.82529625 1334.74912855 553.15302708 1332.65518188 553.48110962 C1331.28760125 553.69536938 1329.9199063 553.90890088 1328.55209351 554.12167358 C1323.68612282 554.88136092 1318.841324 555.72364731 1314 556.625 C1306.51565482 557.97676438 1298.99959826 558.97128779 1291.453125 559.91064453 C1280.12737112 561.3243528 1268.87980179 563.14631948 1257.6484375 565.171875 C1256.51008453 565.37677551 1255.37173157 565.58167603 1254.19888306 565.79278564 C1251.80038144 566.22546584 1249.40205777 566.65913354 1247.00390625 567.09375 C1243.43318788 567.73947733 1239.86117152 568.37764258 1236.2890625 569.015625 C1221.13365155 571.74572772 1206.10253212 574.86498856 1191.09088135 578.29589844 C1187.30313295 579.15874604 1183.51122562 580.00199103 1179.71847534 580.8425293 C1176.3770884 581.58334561 1173.03715437 582.33058795 1169.69726562 583.078125 C1168.04453014 583.44745137 1166.39152798 583.81558613 1164.73828125 584.18261719 C1154.08450993 586.54874547 1143.51782704 589.07926806 1133 592 C1131.84870605 592.31791504 1130.69741211 592.63583008 1129.51123047 592.96337891 C1056.37684444 613.36655331 983.53132961 641.9144748 920 684 C918.76306668 684.81728944 917.52608493 685.6345056 916.2890625 686.45166016 C894.76950594 700.47644669 894.76950594 700.47644669 874 715.5625 C873.47293457 715.97105225 872.94586914 716.37960449 872.40283203 716.80053711 C871.24073743 717.70193305 870.079473 718.60440007 868.91894531 719.5078125 C866.80060817 721.15504871 864.67777716 722.79639435 862.5546875 724.4375 C855.19497378 730.13409755 847.87683488 735.86255521 840.703125 741.79296875 C837.50247401 744.40621703 834.25470013 746.95465197 831 749.5 C829.23421041 750.88621606 827.46916716 752.27337399 825.70458984 753.66113281 C824.58912951 754.53726923 823.47231811 755.41168893 822.35400391 756.28417969 C820.83387344 757.47311378 819.32296537 758.67381089 817.8125 759.875 C816.95269531 760.55304687 816.09289063 761.23109375 815.20703125 761.9296875 C810.02675705 766.78905976 809.43460804 771.42546671 808.9375 778.19140625 C808.86007568 779.09132797 808.78265137 779.99124969 808.70288086 780.91844177 C808.45658603 783.79893876 808.22710572 786.68043178 808 789.5625 C806.90261007 803.10359124 805.52876827 816.4989297 803.34051514 829.91122437 C803.04663698 831.71392112 802.76462715 833.51854529 802.48486328 835.32348633 C793.01388481 895.14695783 768.6978325 954.52410002 731 1002 C730.26136719 1002.93328125 729.52273438 1003.8665625 728.76171875 1004.828125 C723.56644917 1011.2876076 718.051623 1017.41136976 712.40722656 1023.47509766 C711.00415954 1024.99549263 709.62072323 1026.53157162 708.2421875 1028.07421875 C702.1964437 1034.81800341 695.82207773 1041.03425002 689 1047 C688.39736328 1047.53117432 687.79472656 1048.06234863 687.17382812 1048.60961914 C671.55095372 1062.35217447 655.38131361 1074.89993969 637.72705078 1085.91748047 C636.08977559 1086.94372845 634.46441979 1087.98892125 632.83984375 1089.03515625 C609.99958606 1103.3270134 585.28897974 1113.92375663 560 1123 C558.90929199 1123.39300293 557.81858398 1123.78600586 556.69482422 1124.19091797 C523.55602559 1136.00077474 489.41243027 1143.04086131 454.1875 1143.25 C453.10823242 1143.2593457 452.02896484 1143.26869141 450.91699219 1143.27832031 C439.3696026 1143.23139438 429.0044547 1141.19460903 420.07421875 1133.296875 C414.52425156 1127.18227095 412.07346554 1120.19875445 412 1112 C413.05268417 1102.52584247 421.31864772 1095.17280218 428.3125 1089.375 C433.09134007 1085.63157528 437.95980169 1082.00492426 442.828125 1078.37890625 C451.74490325 1071.69132256 460.38139181 1064.84378227 468.55859375 1057.26171875 C470.65389313 1055.32063341 472.77704888 1053.43015898 474.9375 1051.5625 C488.35281592 1039.85804421 501.51557404 1027.63172409 513 1014 C513.99307259 1012.85657761 514.98806842 1011.71482435 515.984375 1010.57421875 C529.72413636 994.83773808 542.71152666 978.72544995 554.38525391 961.39648438 C555.5279523 959.70057759 556.67377046 958.00677096 557.82177734 956.31445312 C567.10745983 942.61848047 576.01111594 928.74820577 584.48486328 914.53515625 C585.80999792 912.31791518 587.14931299 910.11037302 588.49609375 907.90625 C594.98217256 897.19933095 600.78617026 886.12447955 606.62036133 875.05419922 C610.21735221 868.23009051 613.84320482 861.43129636 617.60327148 854.69506836 C623.34878052 844.38006691 628.62449566 833.85296276 633.8125 823.25 C634.16948975 822.52581879 634.52647949 821.80163757 634.89428711 821.05551147 C647.86353922 797.44553075 647.86353922 797.44553075 649.3515625 771.78125 C646.45262026 765.33915612 641.64287915 760.92885155 635.1875 758.125 C627.87787233 755.7684212 620.92787311 756.21432772 614.0859375 759.6953125 C598.13931919 769.66941459 589.70589397 794.1816815 581.140625 810.22265625 C580.81220108 810.83728226 580.48377716 811.45190826 580.145401 812.0851593 C578.53988469 815.09013675 576.93718093 818.09650204 575.33959961 821.10571289 C573.57666298 824.41334518 571.79551873 827.70994832 570 831 C569.39623535 832.10956055 568.7924707 833.21912109 568.17041016 834.36230469 C567.57405762 835.42610352 566.97770508 836.48990234 566.36328125 837.5859375 C565.57304565 839.00592041 565.57304565 839.00592041 564.7668457 840.45458984 C560.72750531 846.27387449 555.63615435 848.38173174 549 850 C544.97347321 850.70843489 540.93877431 851.18567305 536.875 851.625 C535.84890625 851.74617188 534.8228125 851.86734375 533.765625 851.9921875 C517.1396195 853.88994495 500.65296928 854.20493445 483.9375 854.1875 C482.20199387 854.18609512 482.20199387 854.18609512 480.431427 854.18466187 C430.61041725 854.09729509 379.9313724 848.46545347 332.34765625 832.9921875 C329.3537558 832.10484711 326.36840116 831.36462203 323.33203125 830.640625 C317.24698246 829.13495888 311.46955712 827.12638234 305.625 824.875 C304.59407227 824.48248047 303.56314453 824.08996094 302.50097656 823.68554688 C291.92688634 819.63424558 281.4291714 815.41047189 271 811 C270.16549316 810.65001953 269.33098633 810.30003906 268.47119141 809.93945312 C250.77042163 802.4623138 233.55695671 793.37340831 217.83496094 782.28515625 C215.45706907 780.61974609 213.05986428 778.98328664 210.6640625 777.34375 C196.69285569 767.75029498 183.10626565 758.05728951 170.6953125 746.484375 C168.54058805 744.49828116 166.36227734 742.56013484 164.15234375 740.63671875 C149.13888201 727.5421915 134.79065026 713.58237078 122.375 697.96875 C120.48616456 695.6077057 118.57002575 693.28303008 116.625 690.96875 C109.88127315 682.92728606 103.6460743 674.86248549 98 666 C97.24335472 664.8750583 96.48273901 663.75277978 95.71875 662.6328125 C50.68318063 596.54329517 23.73501658 518.64373672 18.8125 438.875 C18.76961853 438.19215942 18.72673706 437.50931885 18.68255615 436.80578613 C18.09143468 427.19419163 17.88221612 417.62832163 18 408 C18.01071533 407.04496582 18.02143066 406.08993164 18.0324707 405.10595703 C18.63144657 370.19879677 23.72442052 334.08111983 35 301 C35.2155957 300.35095703 35.43119141 299.70191406 35.65332031 299.03320312 C40.80870489 283.68583706 47.53563322 268.02130606 55.87109375 254.15234375 C58.04508179 250.27904526 58.90715062 247.4922968 58 243 C55.76825572 240.38999346 55.76825572 240.38999346 52.5625 238.3125 C51.98556396 237.89661621 51.40862793 237.48073242 50.81420898 237.05224609 C48.89277444 235.6760526 46.94941532 234.33621674 45 233 C42.18354284 231.04731872 39.3715707 229.0882913 36.5625 227.125 C35.84304199 226.62266846 35.12358398 226.12033691 34.38232422 225.6027832 C27.17749605 220.51792753 20.49553622 214.95817822 14 209 C13.48630859 208.53158691 12.97261719 208.06317383 12.44335938 207.58056641 C-17.99457677 179.47724731 -32.59739746 142.17925627 -35.23046875 101.43359375 C-36.08164172 68.39997629 -26.75373749 29.01779097 -4 4 C-2.99646484 2.89205078 -2.99646484 2.89205078 -1.97265625 1.76171875 C-1.32167969 1.18035156 -0.67070312 0.59898437 0 0 Z " fill="#FEFEFE" transform="translate(364,554)"/>
<path d="M0 0 C12.4714755 0.69622315 24.53214065 3.44901122 36.71875 6.0546875 C38.27338405 6.37916245 39.82806569 6.70340954 41.3828125 7.02734375 C45.84380357 7.97223486 50.28374347 8.99484513 54.71875 10.0546875 C56.22260254 10.41385254 56.22260254 10.41385254 57.75683594 10.78027344 C123.51186289 26.68843364 123.51186289 26.68843364 140.71875 51.0546875 C145.05911087 58.52794043 148.08859553 65.30352553 146.71875 74.0546875 C137.93240475 97.3371988 117.85561925 106.64524238 96.71875 117.0546875 C95.22384033 117.80371338 95.22384033 117.80371338 93.69873047 118.56787109 C84.98308329 122.7869536 76.12569306 125.65761934 66.84375 128.3046875 C66.0469281 128.53502686 65.2501062 128.76536621 64.42913818 129.00268555 C34.47869508 137.6118835 3.06395598 144.747501 -27.90625 148.4921875 C-29.88812064 148.74008883 -31.86988627 148.98883063 -33.8515625 149.23828125 C-35.40858887 149.43333252 -35.40858887 149.43333252 -36.99707031 149.63232422 C-40.44656952 150.07594848 -43.89120501 150.54815401 -47.3359375 151.02734375 C-65.28034389 153.51420442 -83.2312624 155.50889222 -101.28125 157.0546875 C-102.45365234 157.15523437 -103.62605469 157.25578125 -104.83398438 157.359375 C-117.9302555 158.45257755 -131.02447762 159.19989026 -144.16015625 159.6015625 C-144.85492002 159.62281063 -145.5496838 159.64405876 -146.26550102 159.66595078 C-163.23956728 160.17151606 -180.212279 160.20777536 -197.19262695 160.18505859 C-201.48652145 160.17935743 -205.780354 160.1827614 -210.07424641 160.18849659 C-226.68588709 160.2073159 -243.28616936 160.12727329 -259.890625 159.60546875 C-261.77099205 159.54656967 -261.77099205 159.54656967 -263.68934631 159.48648071 C-276.24822187 159.04859333 -288.76317859 158.13672044 -301.28125 157.0546875 C-302.21469238 156.97605469 -303.14813477 156.89742187 -304.10986328 156.81640625 C-316.77856613 155.73763523 -329.3786686 154.25890388 -341.97167969 152.50976562 C-344.24998657 152.19649002 -346.52936526 151.89094362 -348.80957031 151.59179688 C-367.73570387 149.10399403 -386.43768027 145.79618108 -405.15625 142.0546875 C-406.73474228 141.74082596 -406.73474228 141.74082596 -408.34512329 141.42062378 C-425.4909732 137.99681214 -442.60703362 134.28432924 -459.34375 129.1796875 C-460.56360596 128.8091626 -460.56360596 128.8091626 -461.80810547 128.43115234 C-525.11858066 108.8580199 -525.11858066 108.8580199 -539.90625 84.7421875 C-540.71283042 83.18733368 -541.50689646 81.62583961 -542.28125 80.0546875 C-542.9 79.1265625 -543.51875 78.1984375 -544.15625 77.2421875 C-546.85936644 69.58335758 -546.18035175 62.04979317 -542.78125 54.7421875 C-537.61871987 45.57507793 -530.12917168 39.52123784 -521.28125 34.0546875 C-520.7126123 33.69681152 -520.14397461 33.33893555 -519.55810547 32.97021484 C-493.85923902 17.15192326 -462.6305363 10.41145874 -433.28125 5.0546875 C-432.1041748 4.83312988 -430.92709961 4.61157227 -429.71435547 4.38330078 C-426.46880546 3.77606884 -423.22059902 3.18964519 -419.96875 2.6171875 C-419.05125977 2.45283203 -418.13376953 2.28847656 -417.18847656 2.11914062 C-410.52365917 1.0218691 -404.02745136 0.88993169 -397.28125 1.0546875 C-397.57868829 8.47013175 -397.9741331 15.47460727 -399.84375 22.6796875 C-401.67080661 29.8809643 -402.66967952 37.88939894 -400.28125 45.0546875 C-397.27842071 46.22528197 -394.37179297 47.16800366 -391.28125 48.0546875 C-390.29447266 48.35246094 -389.30769531 48.65023437 -388.29101562 48.95703125 C-379.8051405 51.46502283 -371.30313535 53.44081962 -362.63256836 55.18237305 C-360.47970078 55.61498697 -358.3286438 56.05581069 -356.17773438 56.49804688 C-348.83763371 57.99766818 -341.48423502 59.41207068 -334.109375 60.73046875 C-333.41897629 60.85506973 -332.72857758 60.97967072 -332.01725769 61.10804749 C-327.11840717 61.96892754 -322.24683934 62.52559628 -317.28515625 62.84375 C-315.28125 63.0546875 -315.28125 63.0546875 -313.28125 64.0546875 C-310.28259008 64.40181929 -307.29563591 64.6977894 -304.2890625 64.95703125 C-303.37003143 65.03911331 -302.45100037 65.12119537 -301.50411987 65.20576477 C-298.47198723 65.47394567 -295.43927931 65.73435164 -292.40625 65.9921875 C-291.35953125 66.0811731 -290.3128125 66.17015869 -289.234375 66.26184082 C-281.91823121 66.87941927 -274.6002206 67.47169547 -267.28125 68.0546875 C-266.46926147 68.12061096 -265.65727295 68.18653442 -264.82067871 68.25445557 C-205.61058831 73.04661017 -145.10917043 71.08495625 -86.28125 63.0546875 C-85.57889221 62.9588739 -84.87653442 62.8630603 -84.15289307 62.76434326 C-61.2486367 59.61652482 -38.446649 55.9248965 -16.09375 49.9296875 C-15.19052002 49.68806885 -14.28729004 49.4464502 -13.35668945 49.19750977 C-8.69201991 47.89600057 -4.58701719 46.31806123 -0.28125 44.0546875 C0.37875 44.0546875 1.03875 44.0546875 1.71875 44.0546875 C2.51247232 33.87740357 0.86619764 24.91041121 -1.50268555 15.05249023 C-3.71552073 5.7696269 -3.71552073 5.7696269 -3.28125 1.0546875 C-2.28125 0.0546875 -2.28125 0.0546875 0 0 Z " fill="#FDFDFE" transform="translate(1287.28125,597.9453125)"/>
<path d="M0 0 C0.8559375 -0.01224609 1.711875 -0.02449219 2.59375 -0.03710938 C11.06723099 -0.05636729 18.25422747 1.40726265 25.9375 5.0625 C26.55415527 5.35568115 27.17081055 5.6488623 27.80615234 5.95092773 C34.75496708 9.32068936 41.48528844 13.10467091 48.24560547 16.83325195 C72.45861277 30.14092307 97.91667647 37.00700654 125.6875 30.75 C128.26558783 29.96156891 130.7366012 29.13946131 133.25 28.1875 C134.0013623 27.90793457 134.75272461 27.62836914 135.52685547 27.34033203 C147.92015203 22.61186619 159.55069991 16.54994706 171.10498047 10.06103516 C186.37516644 1.56485942 202.96910904 -3.03361051 220.44140625 1.0234375 C233.3047853 4.95501387 242.51804871 11.53665222 249.25 23.1875 C249.87261719 24.21230469 250.49523438 25.23710937 251.13671875 26.29296875 C265.7987786 51.92977656 276.30300596 94.14516393 277.375 123.625 C275.95923301 126.8498026 274.19898497 127.87406857 271.015625 129.25390625 C265.59464533 131.08386972 260.04324397 132.34963577 254.47436523 133.63916016 C251.99988929 134.24915609 249.55938468 134.95067568 247.109375 135.65234375 C240.58270252 137.4457315 233.98740327 138.59403481 227.3125 139.6875 C226.34348251 139.84758041 226.34348251 139.84758041 225.35488892 140.01089478 C203.14999721 143.65818482 180.69875985 145.73152059 158.25 147.1875 C157.61399872 147.2312677 156.97799744 147.2750354 156.32272339 147.32012939 C140.50846716 148.38015514 124.68330457 148.34200604 108.84204102 148.31787109 C105.07284939 148.31217945 101.30372843 148.31556267 97.53453922 148.32130432 C76.35129942 148.34882221 55.29034741 147.95144138 34.1875 145.9375 C33.53166931 145.87536316 32.87583862 145.81322632 32.20013428 145.74920654 C-45.51600999 138.30449501 -45.51600999 138.30449501 -69.75 126.1875 C-70.21482071 118.20762358 -68.85589733 111.22599113 -66.86328125 103.5234375 C-66.56439499 102.33255524 -66.26550873 101.14167297 -65.95756531 99.91470337 C-65.32498997 97.40380965 -64.68676673 94.8943328 -64.04321289 92.38623047 C-63.07155254 88.59779522 -62.1172512 84.80532802 -61.16601562 81.01171875 C-46.04353774 21.0705233 -46.04353774 21.0705233 -26.75 7.1875 C-17.56684714 1.81798769 -10.48608792 0.00775598 0 0 Z " fill="#FDFEFE" transform="translate(983.75,443.8125)"/>
<path d="M0 0 C0.33 0.33 0.66 0.66 1 1 C0.55532113 8.25567696 -1.17092374 14.86837435 -3.25 21.8125 C-3.72143433 23.40698975 -3.72143433 23.40698975 -4.20239258 25.03369141 C-6.07823418 31.26418236 -8.07077484 37.31232565 -10.76171875 43.2421875 C-11.85223484 45.67090788 -12.83971159 48.10858609 -13.8125 50.5859375 C-23.84692737 75.80829893 -36.08075962 101.95882001 -50.67089844 124.88085938 C-52.32667554 127.52085667 -53.93167251 130.18964405 -55.5390625 132.859375 C-64.47708327 147.64948686 -73.92282788 161.95921368 -84 176 C-84.52464844 176.7331543 -85.04929687 177.46630859 -85.58984375 178.22167969 C-91.75507781 186.81130619 -98.17951677 195.18192491 -104.76708984 203.45117188 C-105.8761517 204.8444171 -106.97945793 206.24223932 -108.08203125 207.640625 C-113.56297313 214.56156994 -119.26070476 221.29351034 -125 228 C-125.54414551 228.63728027 -126.08829102 229.27456055 -126.64892578 229.93115234 C-128.34563189 231.91560108 -130.04704943 233.89590861 -131.75 235.875 C-132.26844482 236.48110107 -132.78688965 237.08720215 -133.32104492 237.71166992 C-136.5491417 241.44798318 -139.91388137 244.97997865 -143.45043945 248.42626953 C-145.2198867 250.17337143 -145.2198867 250.17337143 -147.4375 253 C-149.52858272 255.44809684 -151.50439478 257.36843893 -153.9375 259.4375 C-156.53982775 261.65069463 -158.83265328 263.86020713 -161 266.5 C-163.7154669 269.79682702 -166.74713412 272.48807606 -169.99609375 275.25 C-171.91966714 276.92984577 -173.71313496 278.67650219 -175.5 280.5 C-178.48872337 283.53594925 -181.61706479 286.34508659 -184.84375 289.125 C-187.19962958 291.17359094 -189.5050746 293.27203002 -191.8125 295.375 C-197.06193372 300.10508336 -202.48301487 304.5864119 -208 309 C-208.53109375 309.42539063 -209.0621875 309.85078125 -209.609375 310.2890625 C-223.6852964 321.53664455 -238.22719828 331.99440086 -253.25 341.9375 C-253.97155273 342.41622559 -254.69310547 342.89495117 -255.43652344 343.38818359 C-260.28356438 346.60349442 -265.13872566 349.80625581 -270 353 C-270.97646484 353.64211426 -271.95292969 354.28422852 -272.95898438 354.94580078 C-302.33654613 374.16163439 -333.63628443 389.53975231 -366 403 C-366.87366211 403.36496582 -367.74732422 403.72993164 -368.64746094 404.10595703 C-372.81357297 405.84483363 -376.98842968 407.55983957 -381.17333984 409.25292969 C-382.97238502 409.98870598 -384.76171319 410.74809823 -386.55078125 411.5078125 C-396.91529341 415.83485473 -407.54041626 419.00997145 -418.30126953 422.19042969 C-421.36261954 423.1087793 -424.40380244 424.08088369 -427.44458008 425.06469727 C-435.45910126 427.65038634 -443.5324355 429.63076905 -451.73999023 431.47167969 C-454.32288321 432.0754801 -456.88810047 432.73777404 -459.45703125 433.3984375 C-467.23125263 435.35453191 -475.08113346 436.91542107 -482.9375 438.5 C-485.86371542 439.09163037 -488.789471 439.68546725 -491.71484375 440.28125 C-492.42636597 440.42551422 -493.13788818 440.56977844 -493.87097168 440.71841431 C-498.18534271 441.60126176 -502.46589333 442.5786852 -506.74609375 443.6171875 C-513.16239966 445.12267269 -519.57743213 445.93080003 -526.125 446.625 C-528.31540879 446.86441677 -530.50553069 447.10647743 -532.6953125 447.3515625 C-533.64422363 447.45291504 -534.59313477 447.55426758 -535.57080078 447.65869141 C-538.13405711 447.94404347 -538.13405711 447.94404347 -541 449 C-543.22818441 449.06937062 -545.45834524 449.08457084 -547.6875 449.0625 C-548.86699219 449.05347656 -550.04648438 449.04445313 -551.26171875 449.03515625 C-552.16535156 449.02355469 -553.06898437 449.01195312 -554 449 C-553.44422424 445.20219898 -551.931036 443.71892393 -549.125 441.1875 C-545.01593793 437.22916907 -541.63951845 433.0461547 -538.3125 428.4375 C-537.602146 427.46079346 -537.602146 427.46079346 -536.87744141 426.46435547 C-534.96424354 423.81277754 -533.1030525 421.16302367 -531.35546875 418.3984375 C-525.63138813 409.5896218 -515.39104845 408.78497889 -505.76806641 406.6418457 C-498.78484184 405.04816695 -492.0768347 402.81240037 -485.31640625 400.46484375 C-482.35898578 399.43946938 -479.39001935 398.52028874 -476.3828125 397.65234375 C-469.57828549 395.63307446 -462.95105588 393.12584496 -456.3125 390.625 C-455.27147125 390.23300919 -455.27147125 390.23300919 -454.20941162 389.83309937 C-420.04461971 376.93208629 -386.81771938 362.15702871 -355.39892578 343.42822266 C-352.8667311 341.92065713 -350.3226995 340.43444112 -347.77734375 338.94921875 C-339.0383299 333.81742771 -330.57344351 328.49598402 -322.4140625 322.484375 C-319.38094424 320.25242442 -316.27468375 318.14631232 -313.14794922 316.04833984 C-304.61041822 310.3051347 -296.6495103 304.01443647 -288.7421875 297.43798828 C-286.39930867 295.50419396 -284.01339396 293.62712838 -281.625 291.75 C-276.5576534 287.70798607 -271.78434013 283.36994847 -267 279 C-265.43810878 277.6034855 -263.87559889 276.20766265 -262.3125 274.8125 C-244.87207599 259.14325743 -244.87207599 259.14325743 -228.84765625 242.06640625 C-226.81089408 239.78850522 -224.67525925 237.64581412 -222.5 235.5 C-219.09996842 232.1401715 -215.89559145 228.69016018 -212.78515625 225.0625 C-210.87608607 222.85683468 -208.90929145 220.71222474 -206.9375 218.5625 C-196.85225173 207.37766759 -187.49223279 195.52522387 -178.26611328 183.62792969 C-177.04782021 182.06148576 -175.81903572 180.50321869 -174.58984375 178.9453125 C-166.99736916 169.24175961 -159.93846757 159.17897023 -153 149 C-152.3301709 148.01837891 -151.6603418 147.03675781 -150.97021484 146.02539062 C-139.95210878 129.77839664 -130.14663685 113.11904622 -120.95178223 95.79284668 C-120.01046396 94.01971069 -119.06531136 92.24861199 -118.12011719 90.47753906 C-108.72739508 72.829553 -99.72822548 54.9731241 -92.34375 36.37890625 C-91.90772461 35.29053467 -91.47169922 34.20216309 -91.02246094 33.08081055 C-90.19956728 31.00763008 -89.39425803 28.92734547 -88.61035156 26.83911133 C-86.22032302 20.79615321 -83.83421864 16.21613611 -78 13 C-74.70047516 11.78550497 -71.39716035 11.15575447 -67.9375 10.5625 C-66.93396484 10.37204102 -65.93042969 10.18158203 -64.89648438 9.98535156 C-61.95832326 9.43260241 -59.01692914 8.90168175 -56.07391357 8.37554932 C-52.12987972 7.66135407 -48.19258193 6.9110336 -44.25390625 6.16796875 C-37.58834564 4.91659308 -30.92153063 3.67230683 -24.25 2.453125 C-23.53618668 2.32105148 -22.82237335 2.18897797 -22.08692932 2.05290222 C-14.72413795 0.71583515 -7.4983458 -0.26309985 0 0 Z " fill="#FDFDFD" transform="translate(1674,1174)"/>
<path d="M0 0 C-0.47244045 6.66974755 -2.98306402 11.99878326 -5.8125 18 C-6.30387451 19.05380859 -6.79524902 20.10761719 -7.30151367 21.19335938 C-19.0825848 46.21391506 -32.19413777 70.8035906 -48.61376953 93.10791016 C-50.41447946 95.56573015 -52.17283133 98.05232602 -53.93188477 100.54003906 C-62.36340428 112.4422035 -71.2528898 123.89608435 -80.50439453 135.16796875 C-81.7945596 136.74834725 -83.06875294 138.34173991 -84.33984375 139.9375 C-90.2870646 147.37983223 -96.76135611 154.26732548 -103.29931641 161.18603516 C-104.81380134 162.80139879 -106.30896876 164.43089196 -107.79296875 166.07421875 C-113.88941869 172.81833361 -120.20660029 179.33714485 -126.61181641 185.78805542 C-128.01763463 187.20478637 -129.41904869 188.62588335 -130.8203125 190.04711914 C-136.17954256 195.41357838 -141.69902351 200.36793151 -147.64868164 205.07348633 C-149.71226155 206.76424628 -151.55159969 208.49563444 -153.375 210.4375 C-157.8400446 215.03944455 -163.02396748 218.74655141 -168.13720703 222.5859375 C-170.03439247 224.02610762 -171.9075759 225.49319592 -173.77734375 226.96875 C-184.80109842 235.62145469 -196.34146639 243.39038511 -208.0612793 251.06542969 C-211.15020008 253.09887725 -214.21961439 255.15995655 -217.2890625 257.22265625 C-231.67386135 266.8167919 -247.29619055 274.47997496 -262.68554688 282.31152344 C-264.7447653 283.36054779 -266.80128789 284.41490369 -268.85351562 285.47753906 C-285.64001249 294.14173608 -303.22442192 300.508921 -321.00053406 306.80639648 C-324.31765629 307.98955278 -327.55386306 309.22987053 -330.76171875 310.68554688 C-334 312 -334 312 -338 312 C-338.46021691 306.62801347 -336.85128507 302.85047397 -334.5625 298.125 C-331.21415411 290.89166588 -328.18244112 283.58523281 -325.375 276.125 C-324.99432373 275.11598633 -324.61364746 274.10697266 -324.22143555 273.06738281 C-322.40989659 268.1649717 -320.74229968 263.2712309 -319.34375 258.234375 C-318.96597412 256.87675049 -318.96597412 256.87675049 -318.58056641 255.49169922 C-318.12629691 253.8069724 -317.69440759 252.11596873 -317.29052734 250.41845703 C-315.41948319 243.36951129 -311.81918483 240.28894176 -305.67724609 236.60791016 C-303.05840282 235.14766642 -300.41144302 233.75597711 -297.75 232.375 C-287.1575404 226.72779932 -277.03680031 220.57557323 -267 214 C-266.0320752 213.37013184 -265.06415039 212.74026367 -264.06689453 212.09130859 C-251.96999586 204.20551273 -240.10540037 196.2403713 -229 187 C-227.95595597 186.14815944 -226.91168319 185.29659918 -225.8671875 184.4453125 C-209.51212652 170.98236643 -193.28357373 156.09163197 -179.609375 139.87890625 C-178.46626463 138.54435264 -177.28458451 137.24241571 -176.078125 135.96484375 C-168.87550954 128.30220723 -162.84441142 119.82947431 -156.68847656 111.32177734 C-155.19005837 109.26134399 -153.67571196 107.2148609 -152.1484375 105.17578125 C-138.52224083 86.95027656 -125.74256036 67.91437119 -115.75 47.4375 C-107.17846348 30.09819598 -95.35699447 27.30818882 -77.79321289 21.34326172 C-75.33215522 20.50668134 -72.87398338 19.66201595 -70.41601562 18.81640625 C-60.64357895 15.47171152 -50.82444236 12.39108419 -40.89553833 9.54608154 C-38.07201653 8.73265925 -35.25698213 7.89123207 -32.44140625 7.05078125 C-30.48180102 6.4712521 -28.52216641 5.89182226 -26.5625 5.3125 C-25.08620117 4.87067383 -25.08620117 4.87067383 -23.58007812 4.41992188 C-7.96645265 -0.17839933 -7.96645265 -0.17839933 0 0 Z " fill="#FDFDFD" transform="translate(1524,1205)"/>
<path d="M0 0 C6.16804161 0.56225685 11.34113221 2.51077646 17.0625 4.8125 C25.30542458 8.03768234 33.43900663 10.73752023 42 13 C43.36154843 13.38757695 44.7221825 13.77837608 46.08203125 14.171875 C55.42784508 16.86021029 64.82025153 19.15687171 74.31396484 21.26318359 C78.78764976 22.25830031 83.22189455 23.28373311 87.625 24.5625 C102.13944883 28.66690671 117.21575707 30.79295108 132.1418457 32.75537109 C134.90681157 33.12094251 137.66911555 33.50319158 140.43164062 33.88671875 C165.92305441 37.34141848 191.46291219 38.29479805 217.15197754 38.54260254 C221.96625684 38.58966266 226.78044384 38.6437167 231.59455872 38.70530701 C234.13526208 38.73708238 236.67603164 38.76402767 239.21684265 38.78553772 C240.3443544 38.79902756 241.47186615 38.8125174 242.63354492 38.82641602 C244.12116585 38.84068382 244.12116585 38.84068382 245.63883972 38.85523987 C248 39 248 39 250 40 C249.56348634 45.93505412 247.81857551 49.63903563 244.5625 54.5625 C244.11511475 55.25649902 243.66772949 55.95049805 243.20678711 56.66552734 C235.44498169 68.59568458 226.93782801 79.92986649 218 91 C217.56123535 91.55042969 217.1224707 92.10085938 216.67041016 92.66796875 C211.71264893 98.78692396 211.71264893 98.78692396 208.02392578 99.24584961 C202.85456464 99.1731143 197.93236147 98.67491352 192.875 97.5625 C192.07916504 97.38912109 191.28333008 97.21574219 190.46337891 97.03710938 C122.4846801 81.57876594 56.68623461 50.41305264 3.4765625 5.20703125 C2.80963379 4.64089111 2.14270508 4.07475098 1.45556641 3.49145508 C0 2 0 2 0 0 Z " fill="#FCFCFC" transform="translate(632,1426)"/>
<path d="M0 0 C11.13460277 7.3357383 18.56001913 17.61058672 22.5625 30.25 C25.37352025 44.59996353 23.42659392 57.95638808 15.6171875 70.3671875 C7.5819217 81.6410015 -3.62537934 89.10237618 -17 92.75 C-30.71703408 94.89247009 -43.80240218 93.51338607 -55.3125 85.4375 C-57.04002715 84.06549293 -58.75033225 82.67134389 -60.4375 81.25 C-61.09492187 80.73953125 -61.75234375 80.2290625 -62.4296875 79.703125 C-70.14650564 73.04951292 -74.70668287 61.17118349 -76.4375 51.25 C-77.47071952 35.82767921 -75.30976242 22.46859636 -65.375 10.0625 C-56.92148698 1.16308739 -47.31895994 -3.94256643 -35.4375 -6.75 C-34.74269531 -6.93820312 -34.04789063 -7.12640625 -33.33203125 -7.3203125 C-22.18472025 -9.8485686 -9.72833042 -5.4332953 0 0 Z " fill="#202E3A" transform="translate(1538.4375,991.75)"/>
<path d="M0 0 C-0.52568581 3.8661197 -1.3797528 5.87030988 -4.0625 8.6875 C-6.6903922 11.5374676 -9.13869127 14.42564837 -11.5 17.5 C-21.64662226 30.29700702 -33.44922033 42.50111742 -45.84375 53.125 C-48.3999239 55.34775991 -50.88378441 57.64222272 -53.375 59.9375 C-58.41569147 64.52751066 -63.60362027 68.83637873 -69 73 C-70.38638672 74.07894531 -70.38638672 74.07894531 -71.80078125 75.1796875 C-77.22075395 79.32901759 -82.7494197 83.29118582 -88.4375 87.0625 C-89.01661133 87.45687256 -89.59572266 87.85124512 -90.19238281 88.25756836 C-93.59302429 90.46580923 -95.93186957 91.47905087 -100 91 C-100.57454173 76.65773619 -100.57454173 76.65773619 -97 72 C-90.38085593 64.94294818 -82.05221559 59.54177813 -74.265625 53.8671875 C-68.78493536 49.86270164 -63.38894093 45.75173592 -58 41.625 C-52.01690121 37.04930997 -46.02474986 32.500969 -39.91015625 28.1015625 C-35.85910033 25.17610199 -31.83595003 22.21326757 -27.8125 19.25 C-27.00224365 18.65413086 -26.1919873 18.05826172 -25.35717773 17.44433594 C-21.31416885 14.46557256 -17.2869073 11.46885686 -13.2890625 8.4296875 C-12.18727661 7.5938916 -12.18727661 7.5938916 -11.06323242 6.74121094 C-9.67216419 5.68357091 -8.28416998 4.62187248 -6.8996582 3.55566406 C-2.22079964 0 -2.22079964 0 0 0 Z " fill="#F9F9F9" transform="translate(1325,1280)"/>
<path d="M0 0 C-0.3125 2.375 -0.3125 2.375 -1 5 C-1.99 5.66 -2.98 6.32 -4 7 C-4 6.01 -4 5.02 -4 4 C-4.66 3.67 -5.32 3.34 -6 3 C-2.25 0 -2.25 0 0 0 Z " fill="#B2B6BE" transform="translate(1325,1280)"/>
</svg>
