<?xml version="1.0" encoding="UTF-8"?>
<svg version="1.1" xmlns="http://www.w3.org/2000/svg" width="1024" height="1024">
<path d="M0 0 C5.50398425 4.26188429 8.0413651 9.43353512 10.42578125 15.77734375 C10.75768463 16.63308487 11.08958801 17.48882599 11.43154907 18.37049866 C12.59802373 21.39521289 13.74355142 24.42733984 14.88671875 27.4609375 C15.32753784 28.62389343 15.76835693 29.78684937 16.22253418 30.98504639 C19.64124307 40.0055331 23.0206251 49.04058716 26.3948555 58.07778549 C28.79453836 64.50190009 31.20043025 70.9236951 33.60494423 77.34600258 C34.53435173 79.82859773 35.46350221 82.31128896 36.3926239 84.79399109 C42.2883125 100.54550122 48.2137447 116.28574167 54.14775085 132.02285004 C54.95256277 134.15730624 55.75724789 136.29181021 56.56188965 138.42633057 C60.06502234 147.71928101 63.56909306 157.01187754 67.07344818 166.30436707 C69.25929125 172.10062322 71.44496063 177.89694485 73.63047981 183.69332314 C74.45322625 185.87526852 75.27610012 188.05716581 76.09898376 190.23905945 C78.81000885 197.42818744 81.51811457 204.61839523 84.22045898 211.81079102 C85.2860719 214.64608022 86.35194244 217.48127246 87.41796875 220.31640625 C87.68103884 221.01617899 87.94410892 221.71595173 88.21515083 222.4369297 C91.81294614 232.00316611 95.44829511 241.5543351 99.11282349 251.09519958 C101.10761315 256.28994021 103.09025503 261.48929026 105.06974602 266.68987751 C106.66745345 270.88443079 108.28047191 275.07263784 109.90568161 279.2566061 C111.13533712 282.43636935 112.34111208 285.62508192 113.55078125 288.8125 C113.9931311 289.93638626 114.43548096 291.06027252 114.89123535 292.21821594 C117.97214566 300.43575843 119.82395334 308.47310595 116.26171875 316.8359375 C112.16152757 324.79100927 103.87053983 327.37272878 96.02734375 330.3046875 C94.85129578 330.75509399 93.6752478 331.20550049 92.46356201 331.66955566 C89.32328737 332.86980623 86.17952161 334.05981689 83.0335083 335.24487305 C79.96713696 336.4024709 76.90568418 337.57291319 73.84375 338.7421875 C68.8780017 340.63644604 63.90978908 342.52406904 58.93945312 344.40625 C49.95078837 347.81098537 40.97331237 351.24490967 31.99609375 354.6796875 C30.47682778 355.26086633 28.95756104 355.84204314 27.43829346 356.42321777 C23.92098581 357.76882112 20.40381006 359.11476879 16.88671875 360.4609375 C35.24577275 360.50771692 53.60481123 360.54295543 71.96391201 360.56456184 C80.4889011 360.57486199 89.01385309 360.58889814 97.53881836 360.61181641 C104.97162672 360.63178897 112.40440821 360.64466311 119.83724266 360.64911449 C123.77063803 360.65171533 127.70395653 360.65780203 131.63732719 360.67239761 C135.34482811 360.6860427 139.052221 360.69014623 142.75974464 360.68715286 C144.75832121 360.68795942 146.75688619 360.69868464 148.75543213 360.70977783 C160.44283456 360.90767994 160.44283456 360.90767994 170.76171875 356.2109375 C176.23741911 349.12473704 176.13704673 343.92762046 175.57421875 335.2734375 C175.45457439 332.91809227 175.33740073 330.56262027 175.22265625 328.20703125 C175.16303711 327.05315918 175.10341797 325.89928711 175.04199219 324.71044922 C173.02884376 282.57993725 179.63959911 235.92294571 205.9375 201.5703125 C210.71223243 196.40326739 216.38550196 193.38073146 223.44921875 193.0859375 C234.65075894 193.29637106 242.43951107 201.02063974 250.35107422 208.09277344 C251.72537719 209.31719218 253.11928867 210.51951909 254.515625 211.71875 C274.69801372 229.27710423 290.32811698 251.27252154 300.38671875 276.0234375 C300.72550049 276.85665527 301.06428223 277.68987305 301.41333008 278.54833984 C303.23359334 283.21715709 304.40435157 287.46977712 304.88671875 292.4609375 C306.24023438 292.22117187 306.24023438 292.22117187 307.62109375 291.9765625 C346.32993197 286.5021932 392.91238855 299.78154566 424.13671875 323.1484375 C429.07344462 327.27194302 433.38283362 331.32780381 434.1953125 337.9921875 C434.82193166 352.42341671 425.87846701 361.29635251 416.88671875 371.4609375 C415.82158552 372.75043361 414.75847697 374.04161102 413.69921875 375.3359375 C411.08541227 378.37300242 408.17717243 380.94622104 405.12109375 383.53125 C403.55562874 384.88324251 402.02673474 386.27820707 400.52734375 387.703125 C374.14624403 412.72519837 339.19875883 428.98428004 304.26171875 437.8984375 C303.30322021 438.1454541 302.34472168 438.3924707 301.35717773 438.64697266 C294.55766492 440.29758542 287.86721472 441.05730338 280.88671875 441.4609375 C280.68304687 442.23566406 280.479375 443.01039063 280.26953125 443.80859375 C278.3491213 448.88086296 275.59810053 453.28868667 272.76171875 457.8984375 C272.14498291 458.90471191 271.52824707 459.91098633 270.89282227 460.94775391 C254.85748455 486.81898323 236.44750872 511.85523902 215.85546875 534.3125 C214.04016138 536.29349018 212.26979091 538.30420317 210.51171875 540.3359375 C202.37148227 549.63120753 193.92385769 558.5237757 185.19921875 567.2734375 C184.30831543 568.16893311 183.41741211 569.06442871 182.49951172 569.98706055 C178.00448919 574.47162953 173.45414272 578.8207831 168.63598633 582.95678711 C166.22921338 585.02630953 163.90561393 587.18220696 161.57421875 589.3359375 C156.17180418 594.2566553 150.58503016 598.88886303 144.88671875 603.4609375 C143.76651359 604.37319039 142.6467417 605.28597553 141.52734375 606.19921875 C110.03026893 631.79086086 75.79770492 653.60575553 39.88671875 672.4609375 C38.97728516 672.94095215 38.06785156 673.4209668 37.13085938 673.91552734 C-34.77974114 711.61952835 -115.3243439 732.01309631 -214.7421875 737.6640625 C-215.40810347 737.66688988 -216.07401943 737.66971725 -216.76011467 737.67263031 C-220.29605347 737.6874709 -223.83195319 737.69679096 -227.36791992 737.70117188 C-230.21310528 737.7055169 -233.05798061 737.71927508 -235.90307617 737.7421875 C-260.91013596 737.93919497 -285.54443996 736.51327229 -310.23828125 732.2109375 C-311.45942627 732.00114258 -312.68057129 731.79134766 -313.9387207 731.57519531 C-366.49924274 722.20375599 -417.3503008 702.12865473 -459.11328125 668.4609375 C-460.08652344 667.69265625 -461.05976563 666.924375 -462.0625 666.1328125 C-477.11011412 653.87892956 -491.49831217 639.89013981 -502.890625 624.14111328 C-504.20040908 622.34120632 -505.5444685 620.57064657 -506.89453125 618.80078125 C-547.43443508 565.2622361 -564.12343416 498.26405144 -570.11328125 432.4609375 C-570.21495605 431.3570166 -570.31663086 430.2530957 -570.42138672 429.11572266 C-571.23010742 419.24582033 -571.40092354 409.3709882 -571.46337891 399.47265625 C-571.48007418 397.53731374 -571.50753793 395.60203613 -571.54541016 393.66699219 C-571.60032117 390.82976391 -571.6220515 387.99393847 -571.63671875 385.15625 C-571.65938812 384.30088654 -571.6820575 383.44552307 -571.70541382 382.5642395 C-571.68366322 376.34364516 -570.02329109 372.30152914 -566.11328125 367.4609375 C-560.91499046 362.64300945 -557.26030971 361.20998318 -550.17840576 361.22042847 C-549.48078416 361.21871962 -548.78316256 361.21701077 -548.06440091 361.21525013 C-545.72739967 361.21195655 -543.39068571 361.22295662 -541.05371094 361.23388672 C-539.37826545 361.23445086 -537.70281947 361.23413421 -536.02737427 361.23300171 C-531.47812621 361.23242732 -526.92898337 361.24419567 -522.37975979 361.25814962 C-517.62583892 361.27064252 -512.87191571 361.27182635 -508.11798096 361.27420044 C-499.11535199 361.28041944 -490.11277153 361.29683596 -481.11016393 361.31689942 C-470.86117986 361.33924533 -460.61219349 361.35024856 -450.36319113 361.36029029 C-429.27986075 361.38120181 -408.19657405 361.41638597 -387.11328125 361.4609375 C-387.76716072 359.78644531 -387.76716072 359.78644531 -388.43424988 358.078125 C-396.45119255 337.54670632 -404.46604012 317.01461495 -412.42578125 296.4609375 C-413.21577433 294.42201994 -414.00581496 292.38312081 -414.79589844 290.34423828 C-416.01655381 287.19421607 -417.23717746 284.04418162 -418.45761108 280.89407349 C-421.71398873 272.48933864 -424.97404348 264.0860343 -428.23657227 255.6836853 C-430.23731358 250.53004921 -432.23533711 245.37539409 -434.22705078 240.21826172 C-437.62500515 231.42403136 -441.03135729 222.63481514 -444.53103638 213.88046265 C-445.9629381 210.2943481 -447.38135093 206.70297785 -448.79821777 203.11090088 C-449.45571729 201.45498357 -450.11980689 199.8016645 -450.7911377 198.15130615 C-454.85833132 188.14848205 -458.06232531 179.4545662 -455.05078125 168.6484375 C-449.81844589 160.04040191 -441.8154488 157.38594422 -432.76171875 154.1015625 C-431.41406627 153.60007207 -430.06692114 153.09721648 -428.72024536 152.59310913 C-425.83084699 151.51466035 -422.93824846 150.44549762 -420.04272461 149.38360596 C-415.41818952 147.68752054 -410.80136502 145.9711075 -406.18554688 144.25146484 C-400.54570702 142.15172987 -394.90417917 140.05666 -389.26037216 137.96761131 C-379.18039855 134.23587724 -369.1151207 130.46630934 -359.05859375 126.671875 C-357.96777308 126.26031599 -357.96777308 126.26031599 -356.85491562 125.84044266 C-353.21801433 124.46801409 -349.58138241 123.09487351 -345.94488525 121.72137451 C-339.45874074 119.27190566 -332.97033544 116.82843622 -326.48220444 114.38423538 C-304.81157189 106.21989032 -283.14591098 98.04236383 -261.48046875 89.86425781 C-251.6345537 86.14776623 -241.78820093 82.43243456 -231.94189453 78.71697998 C-226.41567345 76.63167663 -220.88947864 74.54630366 -215.36328125 72.4609375 C-213.15494804 71.62760383 -210.94661471 70.7942705 -208.73828125 69.9609375 C-207.64515625 69.5484375 -206.55203125 69.1359375 -205.42578125 68.7109375 C-142.48828123 44.96093749 -142.48828123 44.96093749 -139.17617798 43.71109009 C-136.96651968 42.87725485 -134.75686392 42.04341288 -132.54721069 41.20956421 C-127.04667004 39.13385505 -121.54608618 37.05826054 -116.04541016 34.98291016 C-103.50096627 30.24984985 -90.95756342 25.51404978 -78.41578674 20.77392578 C-72.69677175 18.61288776 -66.97684644 16.45432886 -61.25463867 14.30175781 C-59.10464564 13.49286328 -56.95466169 12.68394461 -54.8046875 11.875 C-53.77883041 11.48908691 -52.75297333 11.10317383 -51.69602966 10.70556641 C-46.51580474 8.75385647 -41.3429949 6.78550849 -36.18389893 4.77859497 C-34.23595732 4.02143065 -32.28574768 3.27049803 -30.33447266 2.52197266 C-28.18176761 1.69400918 -26.0335888 0.85408924 -23.89208984 -0.00244141 C-15.60377554 -3.16317709 -8.09994073 -4.11146666 0 0 Z " fill="#41A4F4" transform="translate(583.11328125,112.5390625)"/>
<path d="M0 0 C5.50398425 4.26188429 8.0413651 9.43353512 10.42578125 15.77734375 C10.75768463 16.63308487 11.08958801 17.48882599 11.43154907 18.37049866 C12.59802373 21.39521289 13.74355142 24.42733984 14.88671875 27.4609375 C15.54794739 29.2053714 15.54794739 29.2053714 16.22253418 30.98504639 C19.64124307 40.0055331 23.0206251 49.04058716 26.3948555 58.07778549 C28.79453836 64.50190009 31.20043025 70.9236951 33.60494423 77.34600258 C34.53435173 79.82859773 35.46350221 82.31128896 36.3926239 84.79399109 C42.2883125 100.54550122 48.2137447 116.28574167 54.14775085 132.02285004 C54.95256277 134.15730624 55.75724789 136.29181021 56.56188965 138.42633057 C60.06502234 147.71928101 63.56909306 157.01187754 67.07344818 166.30436707 C69.25929125 172.10062322 71.44496063 177.89694485 73.63047981 183.69332314 C74.45322625 185.87526852 75.27610012 188.05716581 76.09898376 190.23905945 C78.81000885 197.42818744 81.51811457 204.61839523 84.22045898 211.81079102 C85.2860719 214.64608022 86.35194244 217.48127246 87.41796875 220.31640625 C87.68103884 221.01617899 87.94410892 221.71595173 88.21515083 222.4369297 C91.81294614 232.00316611 95.44829511 241.5543351 99.11282349 251.09519958 C101.10761315 256.28994021 103.09025503 261.48929026 105.06974602 266.68987751 C106.66745345 270.88443079 108.28047191 275.07263784 109.90568161 279.2566061 C111.13533712 282.43636935 112.34111208 285.62508192 113.55078125 288.8125 C113.9931311 289.93638626 114.43548096 291.06027252 114.89123535 292.21821594 C117.97214566 300.43575843 119.82395334 308.47310595 116.26171875 316.8359375 C112.17218665 324.77032885 103.92305642 327.34984204 96.09765625 330.26953125 C94.92635162 330.71756607 93.755047 331.16560089 92.54824829 331.62721252 C89.41858726 332.8221117 86.28548198 334.00688764 83.15008545 335.18658447 C78.95258403 336.76890643 74.76239044 338.37049559 70.5719521 339.97140706 C68.07503636 340.9229406 65.57407728 341.8595845 63.06843448 342.78829658 C56.23807091 345.33675463 49.54337537 348.02422907 42.91237259 351.05388069 C20.55555071 361.08148279 1.04606658 363.47209346 -23.27792549 363.0858562 C-28.18527674 363.02407031 -33.09245955 363.04594782 -38.00009155 363.05648804 C-46.45681116 363.06374764 -54.91199177 363.02069516 -63.36832428 362.94115829 C-75.59372421 362.82624741 -87.81839766 362.79080455 -100.04427895 362.77332641 C-119.89061574 362.7428601 -139.73613633 362.65017244 -159.58203125 362.51708984 C-178.83394352 362.38812649 -198.08563227 362.28925437 -217.33789062 362.22998047 C-218.5292048 362.22630234 -219.72051898 362.22262421 -220.94793358 362.21883462 C-226.92578601 362.20056104 -232.90363998 362.18286986 -238.881495 362.16546798 C-288.2926537 362.02087889 -337.7029272 361.77477902 -387.11328125 361.4609375 C-389.29957421 355.85999527 -391.48573159 350.25900016 -393.67177105 344.65795898 C-394.41324992 342.75820536 -395.15476387 340.85846543 -395.89631557 338.95874023 C-401.42331885 324.79943148 -406.93665621 310.63497955 -412.42578125 296.4609375 C-413.21577433 294.42201994 -414.00581496 292.38312081 -414.79589844 290.34423828 C-416.01655381 287.19421607 -417.23717746 284.04418162 -418.45761108 280.89407349 C-421.71398873 272.48933864 -424.97404348 264.0860343 -428.23657227 255.6836853 C-430.23731358 250.53004921 -432.23533711 245.37539409 -434.22705078 240.21826172 C-437.62500515 231.42403136 -441.03135729 222.63481514 -444.53103638 213.88046265 C-445.9629381 210.2943481 -447.38135093 206.70297785 -448.79821777 203.11090088 C-449.45571729 201.45498357 -450.11980689 199.8016645 -450.7911377 198.15130615 C-454.85833132 188.14848205 -458.06232531 179.4545662 -455.05078125 168.6484375 C-449.81844589 160.04040191 -441.8154488 157.38594422 -432.76171875 154.1015625 C-431.41406627 153.60007207 -430.06692114 153.09721648 -428.72024536 152.59310913 C-425.83084699 151.51466035 -422.93824846 150.44549762 -420.04272461 149.38360596 C-415.41818952 147.68752054 -410.80136502 145.9711075 -406.18554688 144.25146484 C-400.54570702 142.15172987 -394.90417917 140.05666 -389.26037216 137.96761131 C-379.18039855 134.23587724 -369.1151207 130.46630934 -359.05859375 126.671875 C-357.96777308 126.26031599 -357.96777308 126.26031599 -356.85491562 125.84044266 C-353.21801433 124.46801409 -349.58138241 123.09487351 -345.94488525 121.72137451 C-339.45874074 119.27190566 -332.97033544 116.82843622 -326.48220444 114.38423538 C-304.81157189 106.21989032 -283.14591098 98.04236383 -261.48046875 89.86425781 C-251.6345537 86.14776623 -241.78820093 82.43243456 -231.94189453 78.71697998 C-226.41567345 76.63167663 -220.88947864 74.54630366 -215.36328125 72.4609375 C-213.15494804 71.62760383 -210.94661471 70.7942705 -208.73828125 69.9609375 C-207.64515625 69.5484375 -206.55203125 69.1359375 -205.42578125 68.7109375 C-142.48828127 44.96093751 -142.48828127 44.96093751 -139.17617798 43.71109009 C-136.96651968 42.87725485 -134.75686392 42.04341288 -132.54721069 41.20956421 C-127.04667004 39.13385505 -121.54608618 37.05826054 -116.04541016 34.98291016 C-103.50096627 30.24984985 -90.95756342 25.51404978 -78.41578674 20.77392578 C-72.69677175 18.61288776 -66.97684644 16.45432886 -61.25463867 14.30175781 C-59.10464564 13.49286328 -56.95466169 12.68394461 -54.8046875 11.875 C-53.77883041 11.48908691 -52.75297333 11.10317383 -51.69602966 10.70556641 C-46.51580474 8.75385647 -41.3429949 6.78550849 -36.18389893 4.77859497 C-34.23595732 4.02143065 -32.28574768 3.27049803 -30.33447266 2.52197266 C-28.18176761 1.69400918 -26.0335888 0.85408924 -23.89208984 -0.00244141 C-15.60377554 -3.16317709 -8.09994073 -4.11146666 0 0 Z " fill="#F19A3D" transform="translate(583.11328125,112.5390625)"/>
<path d="M0 0 C6.19145467 3.4310573 11.39901313 8.12382853 16.65185547 12.81933594 C18.02615844 14.04375468 19.42006992 15.24608159 20.81640625 16.4453125 C40.99879497 34.00366673 56.62889823 55.99908404 66.6875 80.75 C67.19567261 81.99982666 67.19567261 81.99982666 67.71411133 83.27490234 C69.53437459 87.94371959 70.70513282 92.19633962 71.1875 97.1875 C72.08984375 97.02765625 72.9921875 96.8678125 73.921875 96.703125 C112.63071322 91.2287557 159.2131698 104.50810816 190.4375 127.875 C195.37422587 131.99850552 199.68361487 136.05436631 200.49609375 142.71875 C201.12271291 157.14997921 192.17924826 166.02291501 183.1875 176.1875 C182.12236677 177.47699611 181.05925822 178.76817352 180 180.0625 C177.38619352 183.09956492 174.47795368 185.67278354 171.421875 188.2578125 C169.85640999 189.60980501 168.32751599 191.00476957 166.828125 192.4296875 C140.44702528 217.45176087 105.49954008 233.71084254 70.5625 242.625 C69.60400146 242.8720166 68.64550293 243.1190332 67.65795898 243.37353516 C60.85844617 245.02414792 54.16799597 245.78386588 47.1875 246.1875 C46.98382812 246.96222656 46.78015625 247.73695313 46.5703125 248.53515625 C44.64990255 253.60742546 41.89888178 258.01524917 39.0625 262.625 C38.44576416 263.63127441 37.82902832 264.63754883 37.19360352 265.67431641 C21.1582658 291.54554573 2.74828997 316.58180152 -17.84375 339.0390625 C-19.65905737 341.02005268 -21.42942784 343.03076567 -23.1875 345.0625 C-31.32773648 354.35777003 -39.77536106 363.2503382 -48.5 372 C-49.39090332 372.89549561 -50.28180664 373.79099121 -51.19970703 374.71362305 C-55.69472956 379.19819203 -60.24507603 383.5473456 -65.06323242 387.68334961 C-67.47000537 389.75287203 -69.79360482 391.90876946 -72.125 394.0625 C-77.52741457 398.9832178 -83.11418859 403.61542553 -88.8125 408.1875 C-89.93270516 409.09975289 -91.05247705 410.01253803 -92.171875 410.92578125 C-123.66894982 436.51742336 -157.90151383 458.33231803 -193.8125 477.1875 C-194.72193359 477.66751465 -195.63136719 478.1475293 -196.56835938 478.64208984 C-268.47895989 516.34609085 -349.02356265 536.73965881 -448.44140625 542.390625 C-449.10732222 542.39345238 -449.77323818 542.39627975 -450.45933342 542.39919281 C-453.99527222 542.4140334 -457.53117194 542.42335346 -461.06713867 542.42773438 C-463.91232403 542.4320794 -466.75719936 542.44583758 -469.60229492 542.46875 C-494.60935471 542.66575747 -519.24365871 541.23983479 -543.9375 536.9375 C-545.15864502 536.72770508 -546.37979004 536.51791016 -547.63793945 536.30175781 C-600.19846149 526.93031849 -651.04951955 506.85521723 -692.8125 473.1875 C-693.78574219 472.41921875 -694.75898437 471.6509375 -695.76171875 470.859375 C-710.80933287 458.60549206 -725.19753092 444.61670231 -736.58984375 428.86767578 C-737.89962783 427.06776882 -739.24368725 425.29720907 -740.59375 423.52734375 C-781.13365383 369.9887986 -797.82265291 302.99061394 -803.8125 237.1875 C-803.9141748 236.0835791 -804.01584961 234.9796582 -804.12060547 233.84228516 C-804.92932617 223.97238283 -805.10014229 214.0975507 -805.16259766 204.19921875 C-805.17929293 202.26387624 -805.20675668 200.32859863 -805.24462891 198.39355469 C-805.29953992 195.55632641 -805.32127025 192.72050097 -805.3359375 189.8828125 C-805.35860687 189.02744904 -805.38127625 188.17208557 -805.40463257 187.290802 C-805.38288197 181.07020766 -803.72250984 177.02809164 -799.8125 172.1875 C-795.39242885 168.09084869 -791.79435699 165.93831441 -785.73504907 165.93499231 C-784.70203921 165.92957676 -783.66902934 165.92416121 -782.60471615 165.91858155 C-781.4690855 165.92280292 -780.33345484 165.9270243 -779.16341114 165.9313736 C-777.95261657 165.92797673 -776.74182201 165.92457986 -775.49433669 165.92108005 C-772.11707426 165.91363269 -768.74002784 165.91518651 -765.36277517 165.92043113 C-761.69475013 165.9239311 -758.02674817 165.91585534 -754.35873002 165.90920877 C-747.92448157 165.89914684 -741.49026286 165.89649417 -735.05600739 165.89863014 C-725.48797145 165.90175996 -715.91996969 165.89345222 -706.35194053 165.88267504 C-690.25608976 165.86483058 -674.160246 165.85599967 -658.06438637 165.85197449 C-636.08252615 165.84635672 -614.10069073 165.82769942 -592.11884167 165.80553395 C-581.88298845 165.79523014 -571.64713463 165.78556639 -561.41128063 165.77606964 C-560.38650137 165.77511813 -559.36172212 165.77416662 -558.30588894 165.77318628 C-533.90290359 165.750677 -509.49991468 165.73443836 -485.09692383 165.71923828 C-484.02892484 165.71857073 -482.96092584 165.71790318 -481.86056325 165.7172154 C-465.61537564 165.70706934 -449.37018785 165.6972493 -433.125 165.6875 C-415.8099771 165.67710771 -398.49495428 165.66659217 -381.17993164 165.65576172 C-379.5799261 165.6547644 -379.5799261 165.6547644 -377.94759722 165.65374694 C-353.59762361 165.63853527 -329.24765303 165.62153644 -304.89768505 165.59893036 C-303.87441061 165.5979811 -302.85113617 165.59703184 -301.79685341 165.59605382 C-291.58134157 165.58653643 -281.36583008 165.57670653 -271.15031899 165.56640986 C-249.19377298 165.54434826 -227.2372422 165.52777974 -205.2806854 165.52228431 C-189.27324441 165.51819493 -173.26582061 165.50730813 -157.25838909 165.48930657 C-147.74434611 165.47884814 -138.23033827 165.47404213 -128.71628988 165.47720675 C-122.36314277 165.4787822 -116.01002844 165.47316837 -109.65689156 165.46169574 C-106.03570025 165.45536898 -102.41458228 165.45221229 -98.79338817 165.45786363 C-94.89247973 165.46388399 -90.99169443 165.45450504 -87.09079456 165.4436264 C-85.96686974 165.44784778 -84.84294492 165.45206916 -83.68496177 165.45641845 C-72.63149267 165.50547996 -72.63149267 165.50547996 -62.9375 160.9375 C-57.46179964 153.85129954 -57.56217202 148.65418296 -58.125 140 C-58.24464436 137.64465477 -58.36181802 135.28918277 -58.4765625 132.93359375 C-58.53618164 131.77972168 -58.59580078 130.62584961 -58.65722656 129.43701172 C-60.67037499 87.30649975 -54.05961964 40.64950821 -27.76171875 6.296875 C-20.43437462 -1.63251544 -10.0424279 -4.54534727 0 0 Z M-4.8125 52.1875 C-6.98698038 56.98870312 -8.59534938 61.61585522 -9.875 66.75 C-10.19597656 68.00941406 -10.51695312 69.26882813 -10.84765625 70.56640625 C-13.21136579 81.23139055 -14.09800871 91.73506376 -13.96282959 102.64612961 C-13.93671411 104.77500112 -13.92412853 106.90361647 -13.91455078 109.03262329 C-13.89200267 113.54269984 -13.85346005 118.05255809 -13.8125 122.5625 C-13.76501053 127.81818795 -13.7243908 133.07375578 -13.70062256 138.32960892 C-13.68779882 140.4124038 -13.6628075 142.49481319 -13.63720703 144.57748413 C-13.55205482 161.01874143 -19.04996881 177.20057908 -30.5 189.375 C-43.91506751 202.02494959 -59.71651831 207.50952633 -77.80523777 207.44921303 C-78.99241883 207.45320909 -80.17959988 207.45720515 -81.40275612 207.46132231 C-84.69038956 207.47038446 -87.97788365 207.47056782 -91.26552311 207.46697159 C-94.84498434 207.46526124 -98.42441693 207.47513368 -102.00386614 207.48352563 C-108.27458583 207.49663757 -114.54527858 207.5023828 -120.81601143 207.50328636 C-130.14032993 207.50466338 -139.46460846 207.51745289 -148.78891356 207.5325741 C-164.47448108 207.55768846 -180.16004523 207.5735574 -195.84562874 207.58415604 C-211.37617787 207.59468013 -226.90671417 207.60931416 -242.43725395 207.62943649 C-243.88575153 207.63130979 -243.88575153 207.63130979 -245.36351168 207.63322094 C-250.26764243 207.6395847 -255.17177308 207.64602188 -260.07590371 207.65248732 C-294.81125659 207.69814921 -329.54661364 207.7345972 -364.28198242 207.765625 C-398.02678029 207.79578904 -431.7715697 207.83012763 -465.51635742 207.87011719 C-466.55653066 207.87134819 -467.59670389 207.87257919 -468.66839753 207.8738475 C-479.11425079 207.88621436 -489.56010395 207.89866609 -500.00595703 207.91117998 C-521.28533777 207.93667027 -542.56471915 207.96159416 -563.84410095 207.98617554 C-564.82249112 207.98730645 -565.80088129 207.98843736 -566.80891965 207.98960253 C-632.14343658 208.06505696 -697.47796744 208.12730796 -762.8125 208.1875 C-762.82029596 210.59468202 -762.82599421 213.00183853 -762.83049011 215.4090271 C-762.83290191 216.08712401 -762.83531371 216.76522093 -762.8377986 217.46386623 C-762.84433964 222.13475221 -762.63658321 226.65108536 -762.11328125 231.2890625 C-762.00061165 232.30480347 -762.00061165 232.30480347 -761.88566589 233.34106445 C-761.64221709 235.49952163 -761.38493425 237.65597061 -761.125 239.8125 C-761.03702148 240.56263367 -760.94904297 241.31276733 -760.85839844 242.08563232 C-757.65386588 269.30477678 -752.90582868 295.99993505 -744.125 322 C-743.86205139 322.78398163 -743.59910278 323.56796326 -743.32818604 324.3757019 C-739.19024193 336.67124921 -734.65917905 348.58923074 -728.8125 360.1875 C-728.23749756 361.35756592 -728.23749756 361.35756592 -727.65087891 362.55126953 C-716.31921108 385.53439458 -701.50530828 405.73135651 -683.8125 424.1875 C-682.47058594 425.60869141 -682.47058594 425.60869141 -681.1015625 427.05859375 C-674.20113242 434.19173628 -666.75145498 440.27325945 -658.8125 446.1875 C-657.9477002 446.83549561 -657.9477002 446.83549561 -657.06542969 447.49658203 C-648.32861203 454.00602918 -639.27314152 459.79134169 -629.8125 465.1875 C-629.19665039 465.54666504 -628.58080078 465.90583008 -627.94628906 466.27587891 C-609.68128603 476.86311518 -589.41204871 484.63199562 -568.92675781 489.65478516 C-566.70712151 490.21405149 -564.50701928 490.82542875 -562.3046875 491.44921875 C-549.94421252 494.91763979 -537.51453638 497.34748538 -524.8125 499.1875 C-523.79607422 499.33993164 -522.77964844 499.49236328 -521.73242188 499.64941406 C-503.68379792 502.23656976 -485.70187696 502.47691879 -467.5 502.5 C-466.36625946 502.50358521 -465.23251892 502.50717041 -464.06442261 502.51086426 C-447.88630656 502.53836438 -431.91529738 501.72150116 -415.8125 500.1875 C-414.25920283 500.04541642 -412.70589937 499.90340165 -411.15258789 499.76147461 C-407.09702868 499.38114145 -403.04783339 498.95492517 -399 498.5 C-398.28612122 498.42023926 -397.57224243 498.34047852 -396.83673096 498.25830078 C-385.01817627 496.91170731 -373.35688682 494.98466226 -361.6875 492.6875 C-360.95880707 492.54406158 -360.23011414 492.40062317 -359.4793396 492.25283813 C-344.85477454 489.34627146 -330.29292441 486.17161935 -316.0625 481.6875 C-315.15113281 481.40519531 -314.23976563 481.12289063 -313.30078125 480.83203125 C-311.43524624 480.25379389 -309.57066685 479.67246488 -307.70703125 479.08813477 C-305.72817305 478.4724121 -303.74621911 477.86657471 -301.76171875 477.26928711 C-277.0281281 469.80558472 -253.13163069 460.27968597 -229.8125 449.1875 C-228.64380371 448.63336426 -227.47510742 448.07922852 -226.27099609 447.50830078 C-185.51101245 428.03052622 -147.49777687 403.09807685 -112.8125 374.1875 C-112.23274414 373.70684082 -111.65298828 373.22618164 -111.05566406 372.73095703 C-103.62288015 366.56110747 -96.41797167 360.1822842 -89.34375 353.60546875 C-87.76745177 352.14578442 -86.1818396 350.69684125 -84.59375 349.25 C-75.23128961 340.70378988 -65.93436082 332.03472419 -57.7109375 322.3671875 C-55.69268755 320.04993756 -53.60928706 317.80554482 -51.51147461 315.56054688 C-45.67159459 309.30670297 -40.13109695 302.8955574 -34.8125 296.1875 C-33.97662316 295.14448264 -33.14068316 294.10151588 -32.3046875 293.05859375 C-15.40185638 271.86526014 -0.35636354 249.76405748 13.03320312 226.19482422 C15.03285633 222.71742392 17.13857493 219.30535455 19.26171875 215.90234375 C20.34585193 214.21897881 20.34585193 214.21897881 20.1875 212.1875 C26.24006931 209.04016396 31.62121226 206.88691079 38.39453125 205.8984375 C39.78748486 205.68317543 41.18021794 205.46648259 42.57275391 205.24853516 C43.29505188 205.13761536 44.01734985 205.02669556 44.76153564 204.91241455 C83.18093982 198.906731 117.46918701 182.72255141 145.1875 155.1875 C145.8475 154.1975 146.5075 153.2075 147.1875 152.1875 C137.29063761 147.95077211 127.46737178 144.50608199 117.125 141.5625 C116.36880371 141.34400391 115.61260742 141.12550781 114.83349609 140.90039062 C99.94436567 136.73985886 80.23440153 134.97991382 66.1875 142.1875 C59.71958002 145.18819075 52.26700849 145.55910964 45.48046875 143.27734375 C39.49128275 140.18839376 36.33319112 136.62457335 34.1875 130.1875 C34.05747231 127.95969222 33.9579458 125.73005711 33.875 123.5 C32.43428508 96.97981298 18.69548415 73.18864944 -0.71875 55.4453125 C-2.05745073 54.32762368 -3.4302065 53.25080269 -4.8125 52.1875 Z " fill="#303C42" transform="translate(816.8125,307.8125)"/>
<path d="M0 0 C0.66 0.66 1.32 1.32 2 2 C-15.43170349 35.05269896 -15.43170349 35.05269896 -22 47 C-27.1013879 56.28033801 -32.0569932 65.63473114 -37 75 C-42.3899673 85.21210265 -47.82024686 95.3961553 -53.3828125 105.515625 C-58.01129455 113.96323704 -62.50390946 122.48148113 -67 131 C-72.3899673 141.21210265 -77.82024686 151.3961553 -83.3828125 161.515625 C-88.01129518 169.9632382 -92.50386376 178.48150422 -97 187 C-102.41455614 197.25820535 -107.86778253 207.48967157 -113.453125 217.65625 C-117.49826607 225.03724713 -121.44881774 232.46665511 -125.3890686 239.90396118 C-127.56218849 244.00407362 -129.74052163 248.10141918 -131.91871643 252.19883728 C-133.57659046 255.31805895 -135.23247128 258.43828101 -136.88183594 261.56201172 C-138.53723038 264.6920707 -140.20427403 267.81560529 -141.875 270.9375 C-142.35646484 271.85466797 -142.83792969 272.77183594 -143.33398438 273.71679688 C-143.77806641 274.54115234 -144.22214844 275.36550781 -144.6796875 276.21484375 C-145.05851074 276.92761475 -145.43733398 277.64038574 -145.82763672 278.37475586 C-147 280 -147 280 -150 281 C-152.46504211 280.37493896 -152.46504211 280.37493896 -155.45043945 279.30371094 C-156.57935608 278.90374908 -157.70827271 278.50378723 -158.87139893 278.09170532 C-160.10622009 277.64378632 -161.34104126 277.19586731 -162.61328125 276.734375 C-163.91765368 276.26865411 -165.22232795 275.80377784 -166.52728271 275.33969116 C-169.32576917 274.34255745 -172.12215091 273.33980097 -174.91702271 272.33258057 C-179.34376167 270.73734472 -183.77483041 269.15440288 -188.20678711 267.57373047 C-192.73860513 265.95685501 -197.27016404 264.33927812 -201.80018616 262.71737671 C-214.43742416 258.193144 -227.09432792 253.72665857 -239.76034546 249.28356934 C-245.26957927 247.35064061 -250.77744045 245.41381174 -256.28515625 243.4765625 C-257.35123611 243.10160645 -258.41731598 242.72665039 -259.51570129 242.34033203 C-271.66409881 238.06555321 -283.80219084 233.76174618 -295.94012451 229.45736694 C-312.01344652 223.75798243 -328.09830934 218.09191825 -344.1875 212.4375 C-365.61875308 204.90510969 -387.0303115 197.31889604 -408.42845154 189.69299316 C-414.16337184 187.65044221 -419.9026373 185.62051192 -425.64453125 183.59765625 C-427.12444572 183.07556443 -428.6043453 182.55343041 -430.08422852 182.03125 C-432.78289882 181.07904847 -435.48275673 180.13032652 -438.18334961 179.18359375 C-439.34487549 178.77367187 -440.50640137 178.36375 -441.703125 177.94140625 C-443.21374512 177.41075562 -443.21374512 177.41075562 -444.75488281 176.86938477 C-447 176 -447 176 -448 175 C-448.55453976 172.30652115 -448.37463317 170.61793738 -446.94140625 168.25390625 C-441.52813855 161.43230874 -433.84925264 158.78471303 -425.8515625 155.8828125 C-425.06821533 155.59394165 -424.28486816 155.3050708 -423.4777832 155.00744629 C-421.7677133 154.3770666 -420.05693047 153.74861831 -418.34552002 153.12188721 C-413.51787434 151.35288048 -408.69663489 149.56656156 -403.875 147.78125 C-402.8391275 147.39796539 -401.803255 147.01468079 -400.73599243 146.61978149 C-388.33887286 142.02557221 -375.98269211 137.32398258 -363.625 132.625 C-358.65518443 130.7363562 -353.68512616 128.8483523 -348.71484375 126.9609375 C-347.76498754 126.60021463 -347.76498754 126.60021463 -346.79594231 126.23220444 C-330.93693951 120.21035036 -315.06283388 114.22863983 -299.1875 108.25 C-297.73805704 107.70410266 -296.2886145 107.15820422 -294.83917236 106.61230469 C-288.25413318 104.13227363 -281.66894852 101.65262911 -275.08364868 99.17329025 C-260.28464811 93.6015032 -245.48707054 88.02593988 -230.68960953 82.45006561 C-228.50258315 81.62597336 -226.31554745 80.80190583 -224.12850952 79.97784424 C-198.87165757 70.4611554 -173.61840252 60.93495652 -148.3671875 51.40332031 C-141.84910518 48.94297021 -135.33082712 46.48313897 -128.8125 44.0234375 C-127.16491951 43.40171913 -127.16491951 43.40171913 -125.48405457 42.7674408 C-121.06014811 41.09808228 -116.63623393 39.42874424 -112.21231079 37.75942993 C-100.91500902 33.49652544 -89.61779305 29.23339453 -78.32113647 24.96878052 C-73.58181635 23.17965787 -68.84242428 21.39072581 -64.10302734 19.60180664 C-61.87756854 18.76173174 -59.65214367 17.92156694 -57.42675781 17.08129883 C-56.38100586 16.68644287 -55.33525391 16.29158691 -54.2578125 15.88476562 C-53.22919098 15.49610321 -52.20056946 15.1074408 -51.14077759 14.70700073 C-49.11245927 13.94224086 -47.08315443 13.18009186 -45.05282593 12.42068481 C-39.86097081 10.47617157 -34.69383314 8.48624283 -29.54931641 6.41943359 C-28.4863887 6.00042282 -27.423461 5.58141205 -26.32832336 5.14970398 C-24.32271151 4.3582424 -22.32301409 3.55153144 -20.33122253 2.72590637 C-13.59557741 0.09557387 -7.23480909 -0.99310223 0 0 Z " fill="#FED05B" transform="translate(576,111)"/>
<path d="M0 0 C6.781092 -0.50024449 12.46013627 -0.28966674 18 4 C22.16385879 8.4675486 24.40250721 12.63203867 26.5390625 18.31640625 C26.87096588 19.17214737 27.20286926 20.02788849 27.54483032 20.90956116 C28.71130498 23.93427539 29.85683267 26.96640234 31 30 C31.66122864 31.7444339 31.66122864 31.7444339 32.33581543 33.52410889 C35.75452432 42.5445956 39.13390635 51.57964966 42.50813675 60.61684799 C44.90781961 67.04096259 47.3137115 73.4627576 49.71822548 79.88506508 C50.64763298 82.36766023 51.57678346 84.85035146 52.50590515 87.33305359 C58.40159375 103.08456372 64.32702595 118.82480417 70.2610321 134.56191254 C71.06584402 136.69636874 71.87052914 138.83087271 72.6751709 140.96539307 C76.17830359 150.25834351 79.68237431 159.55094004 83.18672943 168.84342957 C85.3725725 174.63968572 87.55824188 180.43600735 89.74376106 186.23238564 C90.5665075 188.41433102 91.38938137 190.59622831 92.21226501 192.77812195 C94.9232901 199.96724994 97.63139582 207.15745773 100.33374023 214.34985352 C101.39935315 217.18514272 102.46522369 220.02033496 103.53125 222.85546875 C103.79432009 223.55524149 104.05739017 224.25501423 104.32843208 224.9759922 C107.92622739 234.54222861 111.56157636 244.0933976 115.22610474 253.63426208 C117.2208944 258.82900271 119.20353628 264.02835276 121.18302727 269.22894001 C122.7807347 273.42349329 124.39375316 277.61170034 126.01896286 281.7956686 C127.24861837 284.97543185 128.45439333 288.16414442 129.6640625 291.3515625 C130.10641235 292.47544876 130.54876221 293.59933502 131.0045166 294.75727844 C134.03036615 302.82796039 135.84683236 310.45987045 132.5 318.6875 C131.7575 319.8321875 131.7575 319.8321875 131 321 C130.67 320.01 130.34 319.02 130 318 C128.35747715 317.06218243 128.35747715 317.06218243 126.28979492 316.45263672 C125.50268631 316.18718048 124.7155777 315.92172424 123.90461731 315.64822388 C123.04277328 315.36985687 122.18092926 315.09148987 121.29296875 314.8046875 C119.45185518 314.18592553 117.6112126 313.56576071 115.77099609 312.94433594 C114.81561951 312.62476929 113.86024292 312.30520264 112.87591553 311.97595215 C108.32521562 310.43165597 103.81349468 308.78421354 99.30078125 307.1328125 C97.48925794 306.47273728 95.6777345 305.81266241 93.86621094 305.15258789 C92.01496823 304.47674096 90.16373135 303.80087804 88.3125 303.125 C84.42862909 301.70896633 80.54443094 300.2938319 76.66015625 298.87890625 C75.72348114 298.53760178 74.78680603 298.1962973 73.82174683 297.84465027 C66.63888804 295.22880974 59.44707102 292.63899594 52.25 290.0625 C43.42251988 286.90087162 34.64462781 283.6187122 25.87402344 280.30297852 C18.17738522 277.40758253 10.42759649 274.69221204 2.65063477 272.02148438 C-4.34055285 269.60846447 -11.27065579 267.05547528 -18.1875 264.4375 C-25.13842733 261.80674792 -32.09761695 259.23173818 -39.125 256.8125 C-49.98650717 253.06972207 -60.74908713 249.05856508 -71.52047729 245.06567383 C-81.81759482 241.24865947 -92.11236714 237.44207748 -102.55664062 234.04101562 C-106.13293528 232.84009522 -108.4649786 231.78033059 -111 229 C-105.20779508 217.79739145 -99.38324496 206.61716115 -93.3125 195.5625 C-88.33681269 186.49993763 -83.46594926 177.38495108 -78.625 168.25 C-72.84262098 157.34051947 -67.02852879 146.44936884 -61.16625977 135.58251953 C-56.95195127 127.77030761 -52.75263714 119.95020308 -48.5625 112.125 C-47.93972168 110.96194336 -47.31694336 109.79888672 -46.67529297 108.60058594 C-45.41379667 106.24452132 -44.15243054 103.88838704 -42.89111328 101.53222656 C-39.76209039 95.68742893 -36.63087309 89.84380667 -33.5 84 C-32.24999097 81.66667151 -30.99999097 79.33333817 -29.75 77 C-27.25 72.33333333 -24.75 67.66666667 -22.25 63 C-21.32078735 61.26544556 -21.32078735 61.26544556 -20.37280273 59.49584961 C-19.13018122 57.17632184 -17.88750595 54.85682286 -16.64477539 52.53735352 C-13.74793314 47.13044709 -10.851586 41.72327858 -7.95724487 36.31503296 C-6.60843432 33.79478428 -5.25930636 31.27470558 -3.91015625 28.75463867 C-2.97234906 27.0026058 -2.03499392 25.25033099 -1.09765625 23.49804688 C2.56989661 16.64787315 6.26794089 9.81524982 10 3 C8.41727399 1.41727399 6.61965997 1.65264253 4.4375 1.4375 C3.19806641 1.31181641 3.19806641 1.31181641 1.93359375 1.18359375 C1.29550781 1.12300781 0.65742187 1.06242187 0 1 C0 0.67 0 0.34 0 0 Z " fill="#F3AC46" transform="translate(567,110)"/>
<path d="M0 0 C1.00184326 0.37415039 1.00184326 0.37415039 2.02392578 0.75585938 C18.57081556 6.91772975 35.19039885 12.84661508 51.875 18.625 C67.77051888 24.13066354 83.64730326 29.68465939 99.5 35.3125 C116.71916266 41.42452074 133.94895319 47.50536155 151.1875 53.5625 C169.22696431 59.90151296 187.25255654 66.27807494 205.2645874 72.6946106 C218.82226762 77.52390409 232.39165271 82.31490648 246 87 C245.01 87.495 245.01 87.495 244 88 C243.31734267 89.99459856 242.65427264 91.99591124 242 94 C240.80213414 96.44906255 239.57787994 98.85047267 238.2890625 101.25 C237.92517426 101.93602295 237.56128601 102.6220459 237.18637085 103.32885742 C236.00383914 105.55505024 234.81458421 107.77756895 233.625 110 C232.79789364 111.55323451 231.97107289 113.10662115 231.14453125 114.66015625 C226.36630666 123.62944774 221.53616013 132.56917586 216.6394043 141.47436523 C210.98869922 151.78157069 205.52829973 162.19083173 200.05273438 172.59179688 C199.67464127 173.30879257 199.29654816 174.02578827 198.90699768 174.76451111 C198.19607605 176.11278827 197.48631264 177.46167704 196.77793884 178.81129456 C195.86257342 180.54650391 194.93181202 182.27356676 194 184 C193.70583191 184.88217194 193.41166382 185.76434387 193.10858154 186.67324829 C190.52803586 189.5207972 189.74362683 189.39503507 186.00764465 189.60127258 C183.82518451 189.61582722 181.64243764 189.60234243 179.46020508 189.56762695 C177.67464455 189.56872215 177.67464455 189.56872215 175.85301208 189.56983948 C172.58840369 189.56695075 169.32486398 189.54186058 166.06046891 189.50696969 C162.64922106 189.47573361 159.23795266 189.47277767 155.82658386 189.46684265 C149.36660841 189.45129594 142.90705556 189.4102569 136.44726628 189.3600952 C129.09310377 189.30422696 121.73892118 189.27672169 114.38459933 189.25161803 C99.256164 189.1993413 84.12812424 189.11138357 69 189 C52.03975086 145.56721773 52.03975086 145.56721773 43.6875 124 C42.89750692 121.96108244 42.10746629 119.92218331 41.31738281 117.88330078 C40.09672744 114.73327857 38.87610379 111.58324412 37.65567017 108.43313599 C34.39929252 100.02840114 31.13923777 91.6250968 27.87670898 83.2227478 C25.87596767 78.06911171 23.87794414 72.91445659 21.88623047 67.75732422 C18.4882761 58.96309386 15.08192396 50.17387764 11.58224487 41.41952515 C10.15034315 37.8334106 8.73193032 34.24204035 7.31506348 30.64996338 C6.65756396 28.99404607 5.99347436 27.340727 5.32214355 25.69036865 C1.83665997 17.11819766 -1.16266376 9.45223893 0 0 Z " fill="#F3AC47" transform="translate(127,285)"/>
<path d="M0 0 C6.20477864 1.93624298 12.10825719 4.25609141 18 7 C6.16163009 21.64219437 -9.45746741 32.29750186 -26 41 C-26.86222168 41.45882568 -27.72444336 41.91765137 -28.61279297 42.39038086 C-36.16256 46.30023786 -43.81896009 49.35931053 -51.875 52.0625 C-52.50964172 52.27755188 -53.14428345 52.49260376 -53.79815674 52.71417236 C-65.10082147 56.50488631 -76.33941763 58.80237701 -88.15185547 60.37915039 C-94.95737343 61.31235319 -100.0448731 62.55523104 -106 66 C-107.485 66.495 -107.485 66.495 -109 67 C-109.72961942 68.64008467 -110.37902585 70.31577515 -111 72 C-122.76648469 95.4689515 -138.04153942 117.22648666 -154 138 C-154.41572266 138.54188965 -154.83144531 139.0837793 -155.25976562 139.64208984 C-165.11448255 152.44957195 -175.60287104 164.64650172 -186.59814453 176.48486328 C-188.0507454 178.05484604 -189.49309092 179.63375773 -190.93359375 181.21484375 C-199.48153922 190.57827326 -208.15131767 199.87689885 -217.8203125 208.1015625 C-220.13747533 210.11973658 -222.38178457 212.2030595 -224.62670898 214.30078125 C-230.8816245 220.14172191 -237.30769949 225.66049384 -244 231 C-245.12969208 231.92091185 -246.25855532 232.84284111 -247.38671875 233.765625 C-279.89490194 260.24498589 -315.57078018 282.23640651 -353 301 C-353.9266748 301.46535156 -354.85334961 301.93070313 -355.80810547 302.41015625 C-385.23671404 317.07793958 -416.41598385 329.17276902 -448.28955078 337.28051758 C-451.45559918 338.12093774 -454.59185083 339.04824246 -457.734375 339.97265625 C-464.8847847 342.02862893 -472.08272 343.60168149 -479.375 345.0625 C-481.15390625 345.42698242 -481.15390625 345.42698242 -482.96875 345.79882812 C-486.64312866 346.5467983 -490.32109114 347.27466954 -494 348 C-495.22887939 348.25040039 -496.45775879 348.50080078 -497.72387695 348.75878906 C-507.97816213 350.7848085 -518.26108525 352.13090219 -528.64477539 353.30761719 C-531.43147151 353.62431488 -534.21669613 353.95216117 -537.00195312 354.28125 C-556.76858354 356.58341449 -576.28809652 357.23833171 -596.1875 357.25 C-597.38287384 357.25100708 -598.57824768 357.25201416 -599.80984497 357.25305176 C-618.06891648 357.24266331 -635.9133307 356.68091114 -654 354 C-655.45599609 353.79914795 -655.45599609 353.79914795 -656.94140625 353.59423828 C-722.95120508 344.33265936 -788.70686041 313.75899306 -830 260 C-830.4316748 259.43941895 -830.86334961 258.87883789 -831.30810547 258.30126953 C-838.23440031 249.25061589 -844.44795211 239.95182552 -850 230 C-850.69029297 228.77095947 -850.69029297 228.77095947 -851.39453125 227.51708984 C-878.393158 178.97833179 -893.51872241 118.68648833 -892 63 C-891.34 63 -890.68 63 -890 63 C-889.87471924 64.05050537 -889.74943848 65.10101074 -889.62036133 66.18334961 C-887.16775197 86.61046335 -884.69925239 106.94289461 -880 127 C-879.66597168 128.43520996 -879.66597168 128.43520996 -879.32519531 129.89941406 C-871.03798731 164.85997702 -857.30584826 199.82894846 -836 229 C-835.58508301 229.56895996 -835.17016602 230.13791992 -834.74267578 230.72412109 C-829.85285936 237.36607473 -824.66707391 243.67740423 -819.0703125 249.7421875 C-817.21571134 251.76475254 -815.44964839 253.83483984 -813.6875 255.9375 C-800.6036945 270.83932858 -783.91898571 282.80958507 -766.93115234 292.85449219 C-765.08431474 293.94998675 -763.2552384 295.07112142 -761.42578125 296.1953125 C-741.84583452 307.96332466 -720.02687658 316.18353413 -698 322 C-696.68491455 322.34901367 -696.68491455 322.34901367 -695.34326172 322.70507812 C-681.71592182 326.25937596 -667.93731905 328.99074458 -654 331 C-652.95408691 331.15243164 -651.90817383 331.30486328 -650.83056641 331.46191406 C-582.55136959 340.87482701 -507.87489686 332.87185542 -442 313 C-441.28070313 312.78408203 -440.56140625 312.56816406 -439.8203125 312.34570312 C-434.18779805 310.64112638 -428.59047713 308.83725081 -423 307 C-421.5778418 306.5366626 -421.5778418 306.5366626 -420.12695312 306.06396484 C-371.36088683 290.06901074 -325.29146464 267.05694781 -283 238 C-282.29278809 237.51563477 -281.58557617 237.03126953 -280.85693359 236.53222656 C-265.48005473 225.96084302 -250.73618968 214.58323453 -236.61376953 202.38720703 C-234.87476693 200.89234882 -233.12396528 199.41215919 -231.37109375 197.93359375 C-225.6212162 193.07012401 -220.02011342 188.19005372 -214.7734375 182.77734375 C-213.00132277 181.00132569 -211.16023853 179.37565197 -209.25 177.75 C-201.57437178 171.13412321 -194.39720071 163.82855339 -187.83203125 156.11328125 C-185.95109093 153.94358251 -184.01085261 151.8353431 -182.05712891 149.73120117 C-176.44589753 143.68281795 -171.15658321 137.44359819 -166 131 C-165.07759625 129.86916043 -164.15437804 128.73898485 -163.23046875 127.609375 C-144.85286511 105.04006694 -128.98542673 80.81469572 -114.97265625 55.3203125 C-114.38355469 54.26585937 -113.79445313 53.21140625 -113.1875 52.125 C-112.46626953 50.79855469 -112.46626953 50.79855469 -111.73046875 49.4453125 C-107.68875889 43.7340024 -104.60198522 41.86602335 -97.7734375 40.62890625 C-95.30949542 40.25847038 -92.84315063 39.90377084 -90.375 39.5625 C-78.16027392 37.66513322 -66.66899395 35.04800036 -55 31 C-54.29633301 30.76168457 -53.59266602 30.52336914 -52.86767578 30.27783203 C-42.46404121 26.72376507 -32.68548757 22.18594959 -23 17 C-22.05133057 16.49267334 -22.05133057 16.49267334 -21.08349609 15.97509766 C-9.87186666 9.94974554 -9.87186666 9.94974554 0 2 C0 1.34 0 0.68 0 0 Z " fill="#3B94DB" transform="translate(946,453)"/>
<path d="M0 0 C8.51173191 6.69643364 13.50617941 15.60202158 16.47265625 25.9453125 C17.82519477 39.47069767 14.89408205 51.24097006 6.47265625 61.9453125 C-1.5455782 70.74540799 -11.84276809 75.10742645 -23.5234375 76.234375 C-34.88665861 76.75274523 -44.85223526 73.27191862 -53.53125 65.8828125 C-62.92135378 56.76834778 -67.53432731 45.90928016 -67.83984375 32.8203125 C-67.70701595 21.03848686 -62.7711627 11.81966489 -54.94140625 3.19921875 C-39.51095381 -11.29035244 -17.07673919 -11.74486523 0 0 Z " fill="#303D44" transform="translate(249.52734375,608.0546875)"/>
<path d="M0 0 C3.16645527 2.78264251 4.83204397 4.89624235 5.34765625 9.18359375 C5.51701194 14.13908844 5.47209478 17.93261628 2.0625 21.8125 C-1.81738372 25.22209478 -5.61091156 25.26701194 -10.56640625 25.09765625 C-14.85375765 24.58204397 -16.96735749 22.91645527 -19.75 19.75 C-21.86434978 14.51976634 -21.86434978 9.10523366 -19.75 3.875 C-14.48090281 -2.12086922 -7.29881709 -2.95058563 0 0 Z " fill="#FCFCFC" transform="translate(249.9375,618.1875)"/>
<path d="M0 0 C0.66 0 1.32 0 2 0 C3.15316726 6.34241995 3.09507063 12.56688704 3 19 C1 18 1 18 0 15 C-0.07029121 12.42734182 -0.09370832 9.88358569 -0.0625 7.3125 C-0.05798828 6.61060547 -0.05347656 5.90871094 -0.04882812 5.18554688 C-0.03706927 3.45699462 -0.01913454 1.72848635 0 0 Z " fill="#3A8ACA" transform="translate(54,516)"/>
</svg>
