<?xml version="1.0" encoding="UTF-8"?>
<svg version="1.1" xmlns="http://www.w3.org/2000/svg" width="192" height="192">
<path d="M0 0 C10.15369854 11.0413353 10.1469654 25.5994592 10.1328125 39.63671875 C10.13670809 41.25420744 10.14104451 42.87169512 10.14579773 44.48918152 C10.15322863 47.86887944 10.15299191 51.24847285 10.14770508 54.62817383 C10.14192044 58.92818862 10.15883228 63.22777126 10.18204975 67.52771473 C10.19688745 70.86604757 10.19764516 74.20427879 10.19454002 77.54263878 C10.1950484 79.12643984 10.20019371 80.71024732 10.21035194 82.29401588 C10.28386466 95.35832628 9.574669 108.47816563 0.83203125 118.9921875 C-3.69673563 122.61124575 -7.87688272 123.99659075 -13.41796875 125.1796875 C-14.11792969 125.34404297 -14.81789062 125.50839844 -15.5390625 125.67773438 C-26.46674397 128.13596509 -37.57759778 128.27883097 -48.73046875 128.5546875 C-49.54301117 128.57553406 -50.35555359 128.59638062 -51.19271851 128.61785889 C-67.7870398 129.03034522 -84.38165816 129.10094219 -100.98046875 129.1171875 C-102.19872345 129.1197757 -103.41697815 129.12236389 -104.67214966 129.12503052 C-127.20187173 129.16281582 -127.20187173 129.16281582 -138.328125 128.56640625 C-139.01018509 128.53028229 -139.69224518 128.49415833 -140.39497375 128.4569397 C-152.39085992 127.70467871 -165.18987824 126.39565049 -173.91796875 117.4296875 C-180.39434883 109.53382685 -182.26956138 99.61125872 -182.3449707 89.65429688 C-182.3548275 88.57261734 -182.3548275 88.57261734 -182.36488342 87.46908569 C-182.38452954 85.09136835 -182.39626343 82.7137141 -182.40625 80.3359375 C-182.41032553 79.51827408 -182.41440105 78.70061066 -182.41860008 77.85816956 C-182.43943013 73.52491513 -182.45374156 69.19169202 -182.46313477 64.85839844 C-182.47415525 60.41481839 -182.50851299 55.97174514 -182.54830647 51.5283432 C-182.57464412 48.08446417 -182.58284197 44.64070241 -182.58641624 41.19673157 C-182.59124297 39.5607005 -182.60274302 37.92467325 -182.62145424 36.28874207 C-182.75019301 24.28076878 -182.30111571 12.74728461 -174.48046875 2.9296875 C-161.90488736 -9.7387026 -140.14598501 -8.09279267 -123.60546875 -8.5703125 C-122.90264771 -8.59082672 -122.19982666 -8.61134094 -121.47570801 -8.63247681 C-15.11402417 -11.61728053 -15.11402417 -11.61728053 0 0 Z " fill="#FF4D43" transform="translate(182.16796875,36.0078125)"/>
<path d="M0 0 C19.14 0 38.28 0 58 0 C56.59155796 3.5211051 55.32390446 6.33763125 53.41796875 9.52734375 C52.64706909 10.82454346 52.64706909 10.82454346 51.8605957 12.14794922 C51.30847412 13.06850098 50.75635254 13.98905273 50.1875 14.9375 C49.01784578 16.89690661 47.84858722 18.85654945 46.6796875 20.81640625 C46.07608398 21.82719238 45.47248047 22.83797852 44.85058594 23.87939453 C42.98716913 27.02163643 41.15014224 30.17794095 39.3203125 33.33984375 C38.7322583 34.35119385 38.1442041 35.36254395 37.53833008 36.40454102 C36.39984382 38.36407735 35.26674129 40.32675286 34.1394043 42.29272461 C33.36850464 43.61348999 33.36850464 43.61348999 32.58203125 44.9609375 C32.13061768 45.74259277 31.6792041 46.52424805 31.21411133 47.32958984 C30.81345459 47.8808252 30.41279785 48.43206055 30 49 C29.34 49 28.68 49 28 49 C26.6940918 47.14599609 26.6940918 47.14599609 25.19921875 44.5234375 C24.64000732 43.55237061 24.0807959 42.58130371 23.50463867 41.58081055 C22.90498291 40.52289307 22.30532715 39.46497559 21.6875 38.375 C20.42785301 36.1805476 19.16741728 33.98654778 17.90625 31.79296875 C16.93945312 30.1056665 16.93945312 30.1056665 15.953125 28.38427734 C12.36895921 22.17381408 8.68445576 16.02240744 5.00073242 9.87060547 C4.48873291 9.00967285 3.9767334 8.14874023 3.44921875 7.26171875 C2.99893311 6.50850342 2.54864746 5.75528809 2.0847168 4.97924805 C1 3 1 3 0 0 Z " fill="#FFFBFB" transform="translate(67,65)"/>
<path d="M0 0 C19.14 0 38.28 0 58 0 C58 3.96 58 7.92 58 12 C38.86 12 19.72 12 0 12 C0 8.04 0 4.08 0 0 Z " fill="#FFFBFB" transform="translate(67,115)"/>
</svg>
