<?xml version="1.0" encoding="UTF-8"?>
<svg version="1.1" xmlns="http://www.w3.org/2000/svg" width="192" height="192">
<path d="M0 0 C1.5124657 -0.01142151 3.02489433 -0.03171393 4.53710938 -0.06152344 C30.33439799 -0.56863025 52.88420418 9.44041923 71.65087891 26.99438477 C90.06373765 45.66077684 99.59262931 69.34403735 99.42041016 95.35766602 C99.41831543 96.0837204 99.4162207 96.80977478 99.4140625 97.55783081 C99.27651319 120.71483094 92.56763549 140.2032375 77.92041016 158.29516602 C77.33001953 159.04926758 76.73962891 159.80336914 76.13134766 160.58032227 C62.3819913 177.16731174 41.14828472 188.77501286 19.92041016 192.29516602 C15.22898748 192.53581137 10.53753302 192.56576029 5.84082031 192.59033203 C4.32835461 192.60175354 2.81592599 192.62204596 1.30371094 192.65185547 C-24.49357768 193.15896228 -47.04338387 183.1499128 -65.81005859 165.59594727 C-76.98764623 154.26445137 -85.23084513 140.43377285 -90.07958984 125.29516602 C-90.48455688 124.03530884 -90.48455688 124.03530884 -90.89770508 122.75 C-93.19595905 114.73373925 -93.57429496 106.9588142 -93.52563477 98.6875 C-93.51713847 96.49521307 -93.54597487 94.3055562 -93.57763672 92.11352539 C-93.68709759 70.32698937 -85.44529985 51.20948266 -72.07958984 34.29516602 C-71.44408203 33.47532227 -70.80857422 32.65547852 -70.15380859 31.81079102 C-52.94082174 11.02251567 -26.49836638 0.13863121 0 0 Z " fill="#0081FA" transform="translate(93.07958984375,-0.295166015625)"/>
<path d="M0 0 C1.5124657 -0.01142151 3.02489433 -0.03171393 4.53710938 -0.06152344 C30.33439799 -0.56863025 52.88420418 9.44041923 71.65087891 26.99438477 C90.06373765 45.66077684 99.59262931 69.34403735 99.42041016 95.35766602 C99.41831543 96.0837204 99.4162207 96.80977478 99.4140625 97.55783081 C99.27651319 120.71483094 92.56763549 140.2032375 77.92041016 158.29516602 C77.33001953 159.04926758 76.73962891 159.80336914 76.13134766 160.58032227 C62.3819913 177.16731174 41.14828472 188.77501286 19.92041016 192.29516602 C15.22898748 192.53581137 10.53753302 192.56576029 5.84082031 192.59033203 C4.32835461 192.60175354 2.81592599 192.62204596 1.30371094 192.65185547 C-24.49357768 193.15896228 -47.04338387 183.1499128 -65.81005859 165.59594727 C-76.98764623 154.26445137 -85.23084513 140.43377285 -90.07958984 125.29516602 C-90.48455688 124.03530884 -90.48455688 124.03530884 -90.89770508 122.75 C-93.19595905 114.73373925 -93.57429496 106.9588142 -93.52563477 98.6875 C-93.51713847 96.49521307 -93.54597487 94.3055562 -93.57763672 92.11352539 C-93.68709759 70.32698937 -85.44529985 51.20948266 -72.07958984 34.29516602 C-71.44408203 33.47532227 -70.80857422 32.65547852 -70.15380859 31.81079102 C-52.94082174 11.02251567 -26.49836638 0.13863121 0 0 Z M-63.73583984 37.54125977 C-80.77646214 57.56399096 -86.79750357 81.41193253 -85.07958984 107.29516602 C-84.42849715 111.7725432 -83.42020142 115.97889789 -82.07958984 120.29516602 C-81.78955078 121.39538086 -81.78955078 121.39538086 -81.49365234 122.51782227 C-77.52229775 136.31441129 -69.96979249 148.07962775 -60.07958984 158.29516602 C-59.20302734 159.20137695 -58.32646484 160.10758789 -57.42333984 161.04125977 C-40.503558 177.38875487 -18.52163106 184.83262782 4.68408203 184.78930664 C14.6070158 184.54818862 23.57976144 182.55252323 32.92041016 179.29516602 C34.05994141 178.89942383 35.19947266 178.50368164 36.37353516 178.09594727 C57.41646047 169.97553634 72.38870881 153.81214167 82.92041016 134.29516602 C83.69578125 132.88170898 83.69578125 132.88170898 84.48681641 131.43969727 C86.16408335 127.7606785 87.12931037 124.15723749 88.04541016 120.23266602 C88.21427734 119.53850586 88.38314453 118.8443457 88.55712891 118.12915039 C94.25129499 94.5230209 91.14384816 71.2922933 78.92041016 50.29516602 C66.10873341 30.43345959 45.80088274 14.93432869 22.51611328 9.76098633 C-10.58491141 3.30074917 -40.52106927 13.45970393 -63.73583984 37.54125977 Z " fill="#000204" transform="translate(93.07958984375,-0.295166015625)"/>
<path d="M0 0 C7.77887957 4.84636545 14.43351327 11.2379959 16.96875 20.2265625 C18.05733547 29.08465998 17.47058465 36.63433622 12.01171875 43.79296875 C6.04202796 50.77964263 0.46987999 55.60992415 -8.9140625 56.5 C-18.84165109 56.8109847 -25.61910942 54.69097622 -32.90625 47.8515625 C-39.71190102 40.48412424 -41.45651791 33.4927688 -41.37890625 23.625 C-40.6040939 16.05099167 -36.77685975 10.11033079 -31.03125 5.2265625 C-30.2475 4.5253125 -29.46375 3.8240625 -28.65625 3.1015625 C-20.46623706 -2.74844674 -9.41382443 -4.26813226 0 0 Z " fill="#F9F9F9" transform="translate(108.03125,68.7734375)"/>
<path d="M0 0 C0.57363281 0.40863281 1.14726563 0.81726563 1.73828125 1.23828125 C2.60453125 1.81578125 3.47078125 2.39328125 4.36328125 2.98828125 C12.00426323 10.22710628 15.76015291 19.29156775 16.11328125 29.73828125 C15.78062419 39.99279666 12.09949636 48.44094463 5.23828125 55.98828125 C4.41328125 56.73078125 3.58828125 57.47328125 2.73828125 58.23828125 C1.99578125 58.91890625 1.25328125 59.59953125 0.48828125 60.30078125 C-8.65135491 66.74007036 -18.86219744 68.621284 -29.84765625 66.8125 C-38.9931024 64.46122599 -46.67428278 59.14417225 -52.015625 51.3515625 C-57.95033319 41.28674391 -60.12637379 30.75199092 -57.26171875 19.23828125 C-53.78742988 9.07396638 -46.6580742 1.25825197 -37.26171875 -3.76171875 C-24.69156125 -9.30211992 -11.25987342 -7.64949317 0 0 Z M-43.26171875 11.23828125 C-43.96296875 12.02203125 -44.66421875 12.80578125 -45.38671875 13.61328125 C-50.96875394 21.42813052 -51.40700997 29.09560479 -49.8984375 38.50390625 C-47.51651561 46.47605297 -40.56379732 53.30229636 -33.51171875 57.36328125 C-26.51177356 60.43802353 -18.38421857 60.44209433 -11.07421875 58.30078125 C-3.27678236 54.80766219 3.2616397 47.94735598 6.73828125 40.23828125 C8.98793004 33.02389032 8.88023129 24.71344987 5.67578125 17.86328125 C1.4130971 10.46662369 -4.78884556 4.28964149 -13.0859375 1.66015625 C-24.99145982 -0.64827537 -35.28785607 1.85726634 -43.26171875 11.23828125 Z " fill="#03080B" transform="translate(117.26171875,65.76171875)"/>
<path d="M0 0 C0.99 0.99 0.99 0.99 2 2 C1.63318342 4.93453261 1.13562754 5.86437246 -1 8 C-3.09790198 8.20481609 -5.20550472 8.31406354 -7.3125 8.375 C-25.95426618 9.48167599 -40.99056186 18.25734331 -53.796875 31.421875 C-60.52618506 39.29659954 -64.95640793 48.16066269 -68 58 C-69.94871795 63.94871795 -69.94871795 63.94871795 -71 65 C-73.5 65.125 -73.5 65.125 -76 65 C-77 64 -77 64 -77.125 62.27734375 C-76.45377527 49.71285578 -69.72312306 37.64082856 -62 28 C-61.22076172 26.97712891 -61.22076172 26.97712891 -60.42578125 25.93359375 C-46.10167366 8.21054537 -22.53959838 -2.0490544 0 0 Z " fill="#00060C" transform="translate(98,20)"/>
<path d="M0 0 C3 0.125 3 0.125 4 1.125 C5.37857248 11.60215084 -2.13742318 24.67641423 -7.98828125 32.9296875 C-11.40046517 37.26078347 -14.948274 41.37715345 -19 45.125 C-19.57105469 45.66640625 -20.14210937 46.2078125 -20.73046875 46.765625 C-34.71591604 59.60655465 -51.32013174 65.48878154 -70.19921875 65.42578125 C-73 65.125 -73 65.125 -75 63.125 C-74.75 60.5625 -74.75 60.5625 -74 58.125 C-71.38662624 56.81831312 -68.85884298 56.78379006 -65.98266602 56.53027344 C-57.79269919 55.79331687 -50.5128625 54.65839314 -43 51.125 C-42.113125 50.72667969 -41.22625 50.32835937 -40.3125 49.91796875 C-23.60155572 41.68118229 -12.75779988 27.08359806 -6 10.125 C-5.12807245 7.11142553 -4.53375257 4.22076493 -4 1.125 C-3 0.125 -3 0.125 0 0 Z " fill="#00050A" transform="translate(167,106.875)"/>
<path d="M0 0 C0.66 0.66 1.32 1.32 2 2 C1.44444444 6.55555556 1.44444444 6.55555556 0 8 C-2.26786642 8.27561917 -4.53958279 8.51971457 -6.8125 8.75 C-22.0105406 10.57151519 -33.42011062 17.76999657 -43 29.5625 C-49.33615928 38.31554477 -51.5621152 47.40383153 -52.54296875 57.9453125 C-53 61 -53 61 -55 63 C-59.55555556 62.44444444 -59.55555556 62.44444444 -61 61 C-62.5857913 46.45341438 -56.58331263 32.63961679 -47.875 21.3125 C-36.29945185 7.87555717 -18.3002828 -2.3523993 0 0 Z " fill="#00070E" transform="translate(98,37)"/>
<path d="M0 0 C4.55555556 0.55555556 4.55555556 0.55555556 6 2 C7.24549634 16.19865828 2.15902402 28.69552053 -6 40 C-6.48339844 40.68578125 -6.96679688 41.3715625 -7.46484375 42.078125 C-15.86210303 52.8850326 -30.2481206 60.61326114 -43.640625 62.7578125 C-51.29278351 63.54329897 -51.29278351 63.54329897 -55 63 C-55.66 62.34 -56.32 61.68 -57 61 C-56.44444444 56.44444444 -56.44444444 56.44444444 -55 55 C-52.92002174 54.7234711 -50.8356692 54.47969925 -48.75 54.25 C-33.58711002 52.13675898 -22.65533005 45.96015353 -12.78515625 34.3828125 C-6.13170678 25.50184057 -2.88244955 15.02145813 -2.30859375 4.03125 C-2 2 -2 2 0 0 Z " fill="#00060C" transform="translate(149,92)"/>
<path d="M0 0 C3.70390021 2.02666238 5.65363011 3.48044516 8 7 C8.48256365 11.26264558 8.26873267 13.49132744 6.25 17.3125 C3.04340948 21.14259424 1.50448865 21.83587397 -3.4375 22.375 C-7.62750939 21.93394638 -9.093893 20.98913863 -12 18 C-14.52599898 14.51171569 -14.50729677 11.20331607 -14 7 C-10.36777456 0.95079183 -6.93852122 -0.5782101 0 0 Z " fill="#0C0C0C" transform="translate(99,85)"/>
<path d="M0 0 C4.70588235 0.70588235 4.70588235 0.70588235 6 2 C6.1875 4.9375 6.1875 4.9375 6 8 C5.34 8.66 4.68 9.32 4 10 C0.46428571 9.46428571 0.46428571 9.46428571 -1 8 C-1.125 4.5 -1.125 4.5 -1 1 C-0.67 0.67 -0.34 0.34 0 0 Z " fill="#000911" transform="translate(166,92)"/>
<path d="M0 0 C3.53571429 0.53571429 3.53571429 0.53571429 5 2 C5.1875 4.9375 5.1875 4.9375 5 8 C4.34 8.66 3.68 9.32 3 10 C-0.53571429 9.46428571 -0.53571429 9.46428571 -2 8 C-2.1875 5.0625 -2.1875 5.0625 -2 2 C-1.34 1.34 -0.68 0.68 0 0 Z " fill="#00060D" transform="translate(22,90)"/>
<path d="M0 0 C1.65 0.33 3.3 0.66 5 1 C4.67 2.65 4.34 4.3 4 6 C2.35 5.67 0.7 5.34 -1 5 C-0.67 3.35 -0.34 1.7 0 0 Z " fill="#E3E3E3" transform="translate(94,93)"/>
<path d="M0 0 C0.66 0.33 1.32 0.66 2 1 C-2.29 5.29 -6.58 9.58 -11 14 C-11 9.95136013 -9.70680732 8.98442858 -7 6 C-4.72143146 3.93123542 -2.38262895 1.94759838 0 0 Z " fill="#0073DE" transform="translate(66,54)"/>
<path d="M0 0 C1.22589844 0.01353516 1.22589844 0.01353516 2.4765625 0.02734375 C3.41628906 0.04474609 3.41628906 0.04474609 4.375 0.0625 C4.375 0.3925 4.375 0.7225 4.375 1.0625 C3.1375 1.145 1.9 1.2275 0.625 1.3125 C-2.61382964 1.69725459 -3.50407883 1.96274003 -6.125 4.125 C-6.8675 5.0840625 -6.8675 5.0840625 -7.625 6.0625 C-7.25 3.625 -7.25 3.625 -6.625 1.0625 C-4.21954362 -0.14022819 -2.67503047 -0.03821472 0 0 Z " fill="#002A51" transform="translate(99.625,163.9375)"/>
</svg>
