<?xml version="1.0" encoding="UTF-8"?>
<svg version="1.1" xmlns="http://www.w3.org/2000/svg" width="460" height="460">
<path d="M0 0 C151.8 0 303.6 0 460 0 C460 151.8 460 303.6 460 460 C308.2 460 156.4 460 0 460 C0 308.2 0 156.4 0 0 Z " fill="#8F0000" transform="translate(0,0)"/>
<path d="M0 0 C151.8 0 303.6 0 460 0 C460 35.64 460 71.28 460 108 C308.2 108 156.4 108 0 108 C0 72.36 0 36.72 0 0 Z " fill="#DBD9D9" transform="translate(0,352)"/>
<path d="M0 0 C24.42 0 48.84 0 74 0 C74 1.32 74 2.64 74 4 C74.99 4 75.98 4 77 4 C77 4.66 77 5.32 77 6 C78.98 6.495 78.98 6.495 81 7 C81 8.32 81 9.64 81 11 C81.66 11 82.32 11 83 11 C83 19.91 83 28.82 83 38 C82.34 38 81.68 38 81 38 C81 38.66 81 39.32 81 40 C80.34 40 79.68 40 79 40 C79 40.66 79 41.32 79 42 C77.68 42.33 76.36 42.66 75 43 C75 43.66 75 44.32 75 45 C74.01 45 73.02 45 72 45 C72 45.66 72 46.32 72 47 C62.66419466 47.04630809 53.32842876 47.0818614 43.99253368 47.10362434 C39.65766027 47.11406862 35.32286535 47.12823953 30.98803711 47.15087891 C26.80592895 47.17258438 22.62389636 47.18456378 18.44173622 47.18975449 C16.84491091 47.19345438 15.24808982 47.2006792 13.65129662 47.21146011 C11.41742335 47.22594465 9.18386372 47.22797924 6.94995117 47.22705078 C5.67754074 47.231492 4.40513031 47.23593323 3.09416199 47.24050903 C0 47 0 47 -3 45 C-3 44.34 -3 43.68 -3 43 C-4.32 42.67 -5.64 42.34 -7 42 C-7 41.34 -7 40.68 -7 40 C-7.66 40 -8.32 40 -9 40 C-9.33 36.37 -9.66 32.74 -10 29 C-12.64 29 -15.28 29 -18 29 C-18 29.66 -18 30.32 -18 31 C-19.65 31 -21.3 31 -23 31 C-23 31.66 -23 32.32 -23 33 C-23.66 33 -24.32 33 -25 33 C-25 33.66 -25 34.32 -25 35 C-26.32 35.33 -27.64 35.66 -29 36 C-29 37.32 -29 38.64 -29 40 C-29.66 40 -30.32 40 -31 40 C-31.33 41.65 -31.66 43.3 -32 45 C-32.66 45 -33.32 45 -34 45 C-34 46.32 -34 47.64 -34 49 C-34.66 49 -35.32 49 -36 49 C-36 49.66 -36 50.32 -36 51 C-36.66 51 -37.32 51 -38 51 C-38.33 52.65 -38.66 54.3 -39 56 C-38.01 56 -37.02 56 -36 56 C-36 56.66 -36 57.32 -36 58 C-35.39671875 57.98839844 -34.7934375 57.97679687 -34.171875 57.96484375 C-32.97304688 57.95130859 -32.97304688 57.95130859 -31.75 57.9375 C-30.96109375 57.92589844 -30.1721875 57.91429687 -29.359375 57.90234375 C-27.09308998 57.99614694 -25.1711105 58.36758937 -23 59 C-23 59.66 -23 60.32 -23 61 C-22.21625 61.144375 -21.4325 61.28875 -20.625 61.4375 C-18 62 -18 62 -16 63 C-16 63.66 -16 64.32 -16 65 C-14.68 65 -13.36 65 -12 65 C-12 65.66 -12 66.32 -12 67 C-11.01 67 -10.02 67 -9 67 C-9 67.66 -9 68.32 -9 69 C-8.030625 69.268125 -7.06125 69.53625 -6.0625 69.8125 C-5.051875 70.204375 -4.04125 70.59625 -3 71 C-2.67 71.99 -2.34 72.98 -2 74 C-1.34 74 -0.68 74 0 74 C0 74.66 0 75.32 0 76 C0.66 76 1.32 76 2 76 C2 76.66 2 77.32 2 78 C4.33214148 79.20628008 6.49642139 80.1654738 9 81 C9 81.66 9 82.32 9 83 C9.66 83 10.32 83 11 83 C11 83.66 11 84.32 11 85 C11.99 85 12.98 85 14 85 C14 85.66 14 86.32 14 87 C16.97 87.495 16.97 87.495 20 88 C20 88.66 20 89.32 20 90 C21.65 90 23.3 90 25 90 C25 90.66 25 91.32 25 92 C26.98 92 28.96 92 31 92 C31 92.66 31 93.32 31 94 C37.6 94 44.2 94 51 94 C51.33 90.37 51.66 86.74 52 83 C52.66 83 53.32 83 54 83 C54 82.34 54 81.68 54 81 C54.66 81 55.32 81 56 81 C56 80.34 56 79.68 56 79 C56.66 79 57.32 79 58 79 C58 78.34 58 77.68 58 77 C61.46578911 75.84473696 64.19744374 75.85170152 67.85473633 75.82299805 C68.89432243 75.81314125 68.89432243 75.81314125 69.95491028 75.80308533 C72.24728508 75.78338355 74.53959448 75.77169686 76.83203125 75.76171875 C77.61613562 75.75764322 78.40023998 75.7535677 79.20810509 75.74936867 C83.35821646 75.72852139 87.50829489 75.7142138 91.65844727 75.70483398 C95.93911458 75.69377125 100.21926183 75.65936956 104.49974537 75.61966228 C107.79665578 75.59348575 111.09344243 75.58514127 114.39044762 75.58155251 C115.96807048 75.57668933 117.54568792 75.56508291 119.123209 75.54651451 C121.33491584 75.52209913 123.54527902 75.52309155 125.75708008 75.5300293 C127.01378006 75.52416306 128.27048004 75.51829681 129.56526184 75.51225281 C133.663806 76.09426323 135.82862148 77.37750357 139 80 C139.33 80.99 139.66 81.98 140 83 C140.66 83 141.32 83 142 83 C142 84.32 142 85.64 142 87 C142.66 87 143.32 87 144 87 C144 95.25 144 103.5 144 112 C143.34 112 142.68 112 142 112 C142 112.99 142 113.98 142 115 C141.34 115 140.68 115 140 115 C140 115.66 140 116.32 140 117 C139.34 117 138.68 117 138 117 C137.67 118.32 137.34 119.64 137 121 C135.68 121 134.36 121 133 121 C133 121.66 133 122.32 133 123 C109.24 123 85.48 123 61 123 C61 122.34 61 121.68 61 121 C59.68 121 58.36 121 57 121 C56.67 119.68 56.34 118.36 56 117 C55.34 117 54.68 117 54 117 C54 116.34 54 115.68 54 115 C53.34 115 52.68 115 52 115 C51.67 111.7 51.34 108.4 51 105 C44.4 105 37.8 105 31 105 C31 104.34 31 103.68 31 103 C28.36 103 25.72 103 23 103 C23 102.34 23 101.68 23 101 C21.35 101 19.7 101 18 101 C18 100.34 18 99.68 18 99 C17.2575 98.87625 16.515 98.7525 15.75 98.625 C13.19858515 98.04513299 11.2732427 97.26291261 9 96 C9 95.34 9 94.68 9 94 C7.68 94 6.36 94 5 94 C5 93.34 5 92.68 5 92 C4.01 92 3.02 92 2 92 C2 91.34 2 90.68 2 90 C1.34 90 0.68 90 0 90 C0 89.34 0 88.68 0 88 C-1.32 87.67 -2.64 87.34 -4 87 C-4.33 85.68 -4.66 84.36 -5 83 C-6.32 83 -7.64 83 -9 83 C-9 82.34 -9 81.68 -9 81 C-9.66 81 -10.32 81 -11 81 C-12.625 79.625 -12.625 79.625 -14 78 C-14 77.34 -14 76.68 -14 76 C-15.32 76 -16.64 76 -18 76 C-18 75.34 -18 74.68 -18 74 C-18.99 74 -19.98 74 -21 74 C-21 73.34 -21 72.68 -21 72 C-22.423125 71.7834375 -22.423125 71.7834375 -23.875 71.5625 C-27 71 -27 71 -29 70 C-30.70363822 69.77377919 -32.41328701 69.59111527 -34.125 69.4375 C-35.49011719 69.31181641 -35.49011719 69.31181641 -36.8828125 69.18359375 C-37.58148438 69.12300781 -38.28015625 69.06242187 -39 69 C-39 68.34 -39 67.68 -39 67 C-40.11375 67.020625 -41.2275 67.04125 -42.375 67.0625 C-46 67 -46 67 -48 66 C-50.204364 65.77049681 -52.41392173 65.58924067 -54.625 65.4375 C-56.72875 65.293125 -58.8325 65.14875 -61 65 C-61 69.29 -61 73.58 -61 78 C-62.32 78.33 -63.64 78.66 -65 79 C-65.495 80.98 -65.495 80.98 -66 83 C-66.66 83 -67.32 83 -68 83 C-68 83.66 -68 84.32 -68 85 C-68.66 85 -69.32 85 -70 85 C-70 85.66 -70 86.32 -70 87 C-94.75 87 -119.5 87 -145 87 C-145 86.34 -145 85.68 -145 85 C-145.66 85 -146.32 85 -147 85 C-147 84.34 -147 83.68 -147 83 C-147.66 83 -148.32 83 -149 83 C-149 82.34 -149 81.68 -149 81 C-149.66 81 -150.32 81 -151 81 C-151 80.34 -151 79.68 -151 79 C-151.66 79 -152.32 79 -153 79 C-154.04316223 75.87051332 -154.12913269 73.66156237 -154.1328125 70.37890625 C-154.13410156 69.27869141 -154.13539063 68.17847656 -154.13671875 67.04492188 C-154.13285156 65.89572266 -154.12898437 64.74652344 -154.125 63.5625 C-154.13080078 61.84450195 -154.13080078 61.84450195 -154.13671875 60.09179688 C-154.13542969 58.99029297 -154.13414062 57.88878906 -154.1328125 56.75390625 C-154.13168457 55.74658447 -154.13055664 54.7392627 -154.12939453 53.70141602 C-154.01454555 51.30367261 -153.68646802 49.29015822 -153 47 C-152.34 47 -151.68 47 -151 47 C-151 46.34 -151 45.68 -151 45 C-150.34 45 -149.68 45 -149 45 C-149 44.34 -149 43.68 -149 43 C-144.98740061 39.86314491 -141.82508086 39.63314318 -136.82299805 39.65942383 C-136.12001083 39.65898575 -135.41702362 39.65854767 -134.69273376 39.65809631 C-132.38210736 39.66017699 -130.07221752 39.68347285 -127.76171875 39.70703125 C-126.15461117 39.71262979 -124.54749845 39.71689867 -122.94038391 39.71989441 C-118.72018176 39.7313229 -114.50029166 39.76077266 -110.2802124 39.79400635 C-105.97005433 39.82475043 -101.6598456 39.838409 -97.34960938 39.85351562 C-88.89959673 39.88564449 -80.44983724 39.93681642 -72 40 C-72 40.66 -72 41.32 -72 42 C-70.68 42 -69.36 42 -68 42 C-68 42.66 -68 43.32 -68 44 C-66.515 44.495 -66.515 44.495 -65 45 C-65 45.66 -65 46.32 -65 47 C-64.34 47 -63.68 47 -63 47 C-63 47.66 -63 48.32 -63 49 C-62.34 49 -61.68 49 -61 49 C-61 50.65 -61 52.3 -61 54 C-59.9275 53.505 -58.855 53.01 -57.75 52.5 C-54.74583192 51.11346089 -53.54065105 51 -50 51 C-50 50.34 -50 49.68 -50 49 C-49.34 49 -48.68 49 -48 49 C-47.67 47.68 -47.34 46.36 -47 45 C-46.34 45 -45.68 45 -45 45 C-45 44.01 -45 43.02 -45 42 C-44.34 42 -43.68 42 -43 42 C-43 41.34 -43 40.68 -43 40 C-42.34 40 -41.68 40 -41 40 C-40.67 37.69 -40.34 35.38 -40 33 C-39.34 33 -38.68 33 -38 33 C-38 32.34 -38 31.68 -38 31 C-37.34 31 -36.68 31 -36 31 C-36 30.34 -36 29.68 -36 29 C-35.34 29 -34.68 29 -34 29 C-34 28.34 -34 27.68 -34 27 C-33.34 27 -32.68 27 -32 27 C-31.505 25.515 -31.505 25.515 -31 24 C-30.34 24 -29.68 24 -29 24 C-29 23.34 -29 22.68 -29 22 C-27.68 22 -26.36 22 -25 22 C-25 21.34 -25 20.68 -25 20 C-15.58997722 17.70387244 -15.58997722 17.70387244 -11 18 C-11 15.69 -11 13.38 -11 11 C-10.34 11 -9.68 11 -9 11 C-9 10.01 -9 9.02 -9 8 C-8.34 8 -7.68 8 -7 8 C-7 7.34 -7 6.68 -7 6 C-6.34 6 -5.68 6 -5 6 C-4.67 4.68 -4.34 3.36 -4 2 C-2.68 2 -1.36 2 0 2 C0 1.34 0 0.68 0 0 Z " fill="#D9D2D2" transform="translate(291,208)"/>
<path d="M0 0 C4.69560343 -0.07466101 9.39085443 -0.12884101 14.08691406 -0.16479492 C15.68137641 -0.17979745 17.27579808 -0.20020621 18.87011719 -0.22631836 C21.17393077 -0.26308134 23.4771946 -0.27981155 25.78125 -0.29296875 C26.48366821 -0.30845261 27.18608643 -0.32393646 27.90979004 -0.33988953 C33.50761395 -0.34175458 39.42279854 0.52364662 43.60461426 4.54182434 C44.06509155 5.02302231 44.52556885 5.50422028 45 6 C45.66 6.33 46.32 6.66 47 7 C47 7.66 47 8.32 47 9 C47.66 9 48.32 9 49 9 C49 9.66 49 10.32 49 11 C49.66 11 50.32 11 51 11 C54.70096641 17.65782317 54.44752524 24.01378366 54.375 31.5 C54.38660156 32.69753906 54.39820313 33.89507812 54.41015625 35.12890625 C54.38896698 41.50687677 54.12224341 46.38326582 51 52 C50.34 52 49.68 52 49 52 C49 52.66 49 53.32 49 54 C48.34 54 47.68 54 47 54 C47 54.66 47 55.32 47 56 C46.34 56 45.68 56 45 56 C44.67 56.99 44.34 57.98 44 59 C43.34 59 42.68 59 42 59 C42 59.66 42 60.32 42 61 C40.02 61 38.04 61 36 61 C36 61.66 36 62.32 36 63 C24.12 63 12.24 63 0 63 C0 60.36 0 57.72 0 55 C2.97 54.505 2.97 54.505 6 54 C6 39.15 6 24.3 6 9 C4.02 9 2.04 9 0 9 C0 6.03 0 3.06 0 0 Z " fill="#930B0B" transform="translate(386,372)"/>
<path d="M0 0 C6.6 0 13.2 0 20 0 C20 0.66 20 1.32 20 2 C20.66 2 21.32 2 22 2 C22.99 4.97 23.98 7.94 25 11 C25.66 11 26.32 11 27 11 C27 11.99 27 12.98 27 14 C27.66 14 28.32 14 29 14 C29 14.66 29 15.32 29 16 C29.66 16 30.32 16 31 16 C32.485 20.455 32.485 20.455 34 25 C34.66 25 35.32 25 36 25 C36 26.32 36 27.64 36 29 C36.66 29 37.32 29 38 29 C38.495 31.475 38.495 31.475 39 34 C39.99 34 40.98 34 42 34 C42 34.66 42 35.32 42 36 C42.66 36 43.32 36 44 36 C44.33 27.09 44.66 18.18 45 9 C42.69 9 40.38 9 38 9 C38 6.03 38 3.06 38 0 C46.91 0 55.82 0 65 0 C65 2.97 65 5.94 65 9 C62.69 9 60.38 9 58 9 C58 26.82 58 44.64 58 63 C53.71 63 49.42 63 45 63 C45 62.34 45 61.68 45 61 C44.34 61 43.68 61 43 61 C42.01 58.03 41.02 55.06 40 52 C39.34 52 38.68 52 38 52 C38 50.68 38 49.36 38 48 C37.34 48 36.68 48 36 48 C36 47.01 36 46.02 36 45 C35.34 45 34.68 45 34 45 C31.56839395 41.63316085 31 40.26649636 31 36 C30.34 36 29.68 36 29 36 C29 35.34 29 34.68 29 34 C28.34 34 27.68 34 27 34 C27 33.01 27 32.02 27 31 C26.34 31 25.68 31 25 31 C22 25.25 22 25.25 22 23 C21.34 23 20.68 23 20 23 C20 33.23 20 43.46 20 54 C23.465 54.495 23.465 54.495 27 55 C27 57.64 27 60.28 27 63 C18.09 63 9.18 63 0 63 C0 60.69 0 58.38 0 56 C2.64738916 54.5393715 3.89448334 54 7 54 C7 39.15 7 24.3 7 9 C4.69 9 2.38 9 0 9 C0 6.03 0 3.06 0 0 Z " fill="#920808" transform="translate(16,372)"/>
<path d="M0 0 C4.92544608 -0.12485531 9.84994434 -0.21492075 14.77661133 -0.2746582 C16.44767327 -0.29959462 18.11862852 -0.33355708 19.78930664 -0.37719727 C39.62691961 -0.88189559 39.62691961 -0.88189559 47 5 C47.7746582 7.1706543 47.7746582 7.1706543 48 9 C48.66 9 49.32 9 50 9 C50 10.32 50 11.64 50 13 C50.66 13 51.32 13 52 13 C52 16.96 52 20.92 52 25 C51.34 25 50.68 25 50 25 C50 25.66 50 26.32 50 27 C49.34 27 48.68 27 48 27 C47.505 28.485 47.505 28.485 47 30 C46.34 30 45.68 30 45 30 C45 30.66 45 31.32 45 32 C44.34 32 43.68 32 43 32 C43 32.66 43 33.32 43 34 C43.99 34 44.98 34 46 34 C46 34.66 46 35.32 46 36 C46.66 36 47.32 36 48 36 C48 36.66 48 37.32 48 38 C48.66 38 49.32 38 50 38 C50 38.99 50 39.98 50 41 C50.66 41 51.32 41 52 41 C52 45.29 52 49.58 52 54 C52.66 54 53.32 54 54 54 C54 54.66 54 55.32 54 56 C54.99 56 55.98 56 57 56 C57 58.31 57 60.62 57 63 C53.04 63 49.08 63 45 63 C45 62.34 45 61.68 45 61 C44.34 61 43.68 61 43 61 C43 60.34 43 59.68 43 59 C42.34 59 41.68 59 41 59 C40.89042969 58.04738281 40.78085937 57.09476562 40.66796875 56.11328125 C40.50941406 54.85902344 40.35085938 53.60476563 40.1875 52.3125 C40.03667969 51.07113281 39.88585937 49.82976562 39.73046875 48.55078125 C39.00734176 45.03568801 38.11435728 42.87062613 36 40 C31.45398272 37.72699136 24.91320403 38.31265844 20 38 C20 43.28 20 48.56 20 54 C23.465 54.495 23.465 54.495 27 55 C27 57.64 27 60.28 27 63 C18.42 63 9.84 63 1 63 C1 60.36 1 57.72 1 55 C3.97 54.505 3.97 54.505 7 54 C7 39.15 7 24.3 7 9 C4.69 9 2.38 9 0 9 C0 6.03 0 3.06 0 0 Z " fill="#930C0C" transform="translate(268,372)"/>
<path d="M0 0 C5.94 0 11.88 0 18 0 C18 18.81 18 37.62 18 57 C20.31 57.33 22.62 57.66 25 58 C25 60.64 25 63.28 25 66 C19.06 66 13.12 66 7 66 C6.505 65.01 6.505 65.01 6 64 C4.68 64 3.36 64 2 64 C2 64.66 2 65.32 2 66 C-3.28305817 67.69057861 -8.67099269 67.29188056 -14 66 C-14 65.34 -14 64.68 -14 64 C-14.66 64 -15.32 64 -16 64 C-16 63.34 -16 62.68 -16 62 C-16.66 62 -17.32 62 -18 62 C-24.00277362 54.2821482 -23.87666534 46.29630539 -23 37 C-22.25354645 33.22532011 -21.28984967 29.62386337 -20 26 C-19.34 26 -18.68 26 -18 26 C-18 25.34 -18 24.68 -18 24 C-16.68 23.67 -15.36 23.34 -14 23 C-14 22.34 -14 21.68 -14 21 C-13.01 21 -12.02 21 -11 21 C-11 20.34 -11 19.68 -11 19 C-6.71 19 -2.42 19 2 19 C2 19.66 2 20.32 2 21 C2.66 21 3.32 21 4 21 C4.99 21.99 5.98 22.98 7 24 C6.67 18.72 6.34 13.44 6 8 C4.02 7.34 2.04 6.68 0 6 C0 4.02 0 2.04 0 0 Z " fill="#920808" transform="translate(158,369)"/>
<path d="M0 0 C16.5 0 33 0 50 0 C50 5.94 50 11.88 50 18 C47.03 18 44.06 18 41 18 C40.505 14.535 40.505 14.535 40 11 C33.4 11 26.8 11 20 11 C20 15.62 20 20.24 20 25 C26.93 25 33.86 25 41 25 C41 28.63 41 32.26 41 36 C33.74 36 26.48 36 19 36 C19 41.94 19 47.88 19 54 C26.26 54 33.52 54 41 54 C41 51.69 41 49.38 41 47 C43.97 47 46.94 47 50 47 C50 52.28 50 57.56 50 63 C33.5 63 17 63 0 63 C0 60.69 0 58.38 0 56 C2.31 55.34 4.62 54.68 7 54 C7 39.15 7 24.3 7 9 C4.69 9 2.38 9 0 9 C0 6.03 0 3.06 0 0 Z " fill="#910606" transform="translate(329,372)"/>
<path d="M0 0 C0.66032227 -0.00175232 1.32064453 -0.00350464 2.00097656 -0.00531006 C4.18817761 -0.00971872 6.3752981 -0.00679406 8.5625 -0.00341797 C10.07942724 -0.00409129 11.59635438 -0.00506156 13.11328125 -0.00631714 C16.29428127 -0.00779277 19.47525324 -0.00564386 22.65625 -0.00097656 C26.73871087 0.00472065 30.821106 0.00144093 34.90356445 -0.00454903 C38.03646339 -0.00815825 41.16934669 -0.00701438 44.30224609 -0.00442123 C45.80778003 -0.00375297 47.31331537 -0.0045769 48.81884766 -0.00690079 C50.92093686 -0.00943322 53.02291881 -0.00557836 55.125 0 C56.32253906 0.00079559 57.52007812 0.00159119 58.75390625 0.00241089 C61.5625 0.12939453 61.5625 0.12939453 63.5625 1.12939453 C63.5625 8.38939453 63.5625 15.64939453 63.5625 23.12939453 C62.9025 23.12939453 62.2425 23.12939453 61.5625 23.12939453 C61.5625 23.78939453 61.5625 24.44939453 61.5625 25.12939453 C39.1225 25.12939453 16.6825 25.12939453 -6.4375 25.12939453 C-6.4375 24.46939453 -6.4375 23.80939453 -6.4375 23.12939453 C-7.0975 23.12939453 -7.7575 23.12939453 -8.4375 23.12939453 C-8.4375 15.86939453 -8.4375 8.60939453 -8.4375 1.12939453 C-5.59112782 -0.29379156 -3.18219012 0.00211411 0 0 Z " fill="#900303" transform="translate(360.4375,294.87060546875)"/>
<path d="M0 0 C22.44 0 44.88 0 68 0 C68 0.66 68 1.32 68 2 C68.66 2 69.32 2 70 2 C70 8.93 70 15.86 70 23 C69.34 23 68.68 23 68 23 C68 23.66 68 24.32 68 25 C59.16844684 25.02314123 50.33690406 25.0409242 41.50532722 25.05181217 C37.40474504 25.05703709 33.30418355 25.06412768 29.20361328 25.07543945 C25.24845043 25.08628218 21.29330752 25.09227979 17.33813095 25.09487724 C15.82701173 25.09672898 14.31589363 25.10034482 12.80478287 25.10573006 C10.69291042 25.11295886 8.58112105 25.11399016 6.46923828 25.11352539 C4.66388107 25.11685631 4.66388107 25.11685631 2.822052 25.12025452 C0 25 0 25 -2 24 C-2 16.74 -2 9.48 -2 2 C-1.34 2 -0.68 2 0 2 C0 1.34 0 0.68 0 0 Z " fill="#900303" transform="translate(293,219)"/>
<path d="M0 0 C2.80859375 -0.3742218 2.80859375 -0.3742218 6.4375 -0.37231445 C7.09782227 -0.37596512 7.75814453 -0.37961578 8.43847656 -0.38337708 C10.62591092 -0.39149748 12.81260791 -0.37786108 15 -0.36328125 C16.51692708 -0.36276282 18.03385484 -0.36327986 19.55078125 -0.36479187 C22.73187269 -0.36470208 25.91271105 -0.35425924 29.09375 -0.33618164 C33.17629625 -0.31349405 37.25847252 -0.31294957 41.34106445 -0.31969929 C44.47399193 -0.32303692 47.60683467 -0.3164131 50.73974609 -0.30657005 C52.24527544 -0.3027142 53.75081421 -0.30157143 55.25634766 -0.3031559 C57.3585819 -0.30352577 59.46033749 -0.29092906 61.5625 -0.2746582 C63.35880859 -0.26774712 63.35880859 -0.26774712 65.19140625 -0.26069641 C68 0 68 0 70 2 C70.22705078 4.15478516 70.22705078 4.15478516 70.1953125 6.7890625 C70.18886719 7.73007812 70.18242187 8.67109375 70.17578125 9.640625 C70.15064453 11.11789062 70.15064453 11.11789062 70.125 12.625 C70.11597656 13.61757813 70.10695313 14.61015625 70.09765625 15.6328125 C70.07404116 18.08878134 70.04110799 20.54427168 70 23 C69.34 23 68.68 23 68 23 C68 23.66 68 24.32 68 25 C45.56 25 23.12 25 0 25 C0 24.34 0 23.68 0 23 C-0.66 23 -1.32 23 -2 23 C-2.0580476 19.72924117 -2.09361165 16.45861476 -2.125 13.1875 C-2.14175781 12.25873047 -2.15851563 11.32996094 -2.17578125 10.37304688 C-2.18222656 9.48037109 -2.18867188 8.58769531 -2.1953125 7.66796875 C-2.20578613 6.84578857 -2.21625977 6.0236084 -2.22705078 5.17651367 C-2 3 -2 3 0 0 Z " fill="#900303" transform="translate(149,259)"/>
<path d="M0 0 C5.28 0 10.56 0 16 0 C16 0.66 16 1.32 16 2 C17.32 2 18.64 2 20 2 C20 2.66 20 3.32 20 4 C20.99 4 21.98 4 23 4 C23 4.66 23 5.32 23 6 C23.66 6 24.32 6 25 6 C25 6.99 25 7.98 25 9 C25.66 9 26.32 9 27 9 C30.60324126 17.8579681 31.14861391 26.64313297 29 36 C28.34 36 27.68 36 27 36 C27 37.32 27 38.64 27 40 C25.02 40.495 25.02 40.495 23 41 C23 41.66 23 42.32 23 43 C22.34 43 21.68 43 21 43 C21 43.66 21 44.32 21 45 C20.01 45 19.02 45 18 45 C18 45.66 18 46.32 18 47 C11.4 47 4.8 47 -2 47 C-2 46.34 -2 45.68 -2 45 C-3.32 45 -4.64 45 -6 45 C-6.33 43.68 -6.66 42.36 -7 41 C-7.66 41 -8.32 41 -9 41 C-9 40.01 -9 39.02 -9 38 C-9.66 38 -10.32 38 -11 38 C-11 37.34 -11 36.68 -11 36 C-11.66 36 -12.32 36 -13 36 C-13 28.41 -13 20.82 -13 13 C-12.34 13 -11.68 13 -11 13 C-11 11.68 -11 10.36 -11 9 C-10.34 9 -9.68 9 -9 9 C-9 8.34 -9 7.68 -9 7 C-8.34 7 -7.68 7 -7 7 C-6.67 6.01 -6.34 5.02 -6 4 C-5.34 4 -4.68 4 -4 4 C-4 3.34 -4 2.68 -4 2 C-2.68 2 -1.36 2 0 2 C0 1.34 0 0.68 0 0 Z " fill="#920A0A" transform="translate(99,388)"/>
<path d="M0 0 C5.61 0 11.22 0 17 0 C17 0.66 17 1.32 17 2 C17.99 2 18.98 2 20 2 C20 2.66 20 3.32 20 4 C21.32 4 22.64 4 24 4 C24.99 6.97 25.98 9.94 27 13 C27.66 13 28.32 13 29 13 C29 17.62 29 22.24 29 27 C19.76 27 10.52 27 1 27 C1.33 29.31 1.66 31.62 2 34 C2.66 34 3.32 34 4 34 C4 34.66 4 35.32 4 36 C4.66 36 5.32 36 6 36 C6 36.66 6 37.32 6 38 C10.62 38 15.24 38 20 38 C20 37.34 20 36.68 20 36 C21.98 36 23.96 36 26 36 C27.125 42.75 27.125 42.75 26 45 C24.68 45 23.36 45 22 45 C22 45.66 22 46.32 22 47 C20.35 47 18.7 47 17 47 C17 47.66 17 48.32 17 49 C12.71 49 8.42 49 4 49 C4 48.34 4 47.68 4 47 C2.35 47 0.7 47 -1 47 C-1 46.34 -1 45.68 -1 45 C-1.66 45 -2.32 45 -3 45 C-3 44.34 -3 43.68 -3 43 C-3.66 43 -4.32 43 -5 43 C-5 42.34 -5 41.68 -5 41 C-5.66 41 -6.32 41 -7 41 C-9.5393228 37.58168085 -10.3636198 35.24223102 -10 31 C-10.66 31 -11.32 31 -12 31 C-12.55353075 15.07061503 -12.55353075 15.07061503 -9 9 C-8.34 9 -7.68 9 -7 9 C-7 8.01 -7 7.02 -7 6 C-6.34 6 -5.68 6 -5 6 C-5 5.34 -5 4.68 -5 4 C-4.34 4 -3.68 4 -3 4 C-3 3.34 -3 2.68 -3 2 C-2.01 2 -1.02 2 0 2 C0 1.34 0 0.68 0 0 Z " fill="#920909" transform="translate(199,388)"/>
<path d="M0 0 C14 0 14 0 16 1 C16 1.66 16 2.32 16 3 C16.66 3 17.32 3 18 3 C18 3.66 18 4.32 18 5 C18.66 5 19.32 5 20 5 C20 5.66 20 6.32 20 7 C20.66 7 21.32 7 22 7 C22 15.91 22 24.82 22 34 C21.34 34 20.68 34 20 34 C20 34.66 20 35.32 20 36 C19.34 36 18.68 36 18 36 C18 36.99 18 37.98 18 39 C17.34 39 16.68 39 16 39 C16 39.66 16 40.32 16 41 C15.01 41 14.02 41 13 41 C13 41.66 13 42.32 13 43 C8.71 43 4.42 43 0 43 C0 28.81 0 14.62 0 0 Z " fill="#DAD5D5" transform="translate(406,383)"/>
<path d="M0 0 C2.31 0 4.62 0 7 0 C7 0.66 7 1.32 7 2 C7.66 2 8.32 2 9 2 C9 2.66 9 3.32 9 4 C9.66 4 10.32 4 11 4 C11 4.99 11 5.98 11 7 C11.66 7 12.32 7 13 7 C13 11.95 13 16.9 13 22 C12.34 22 11.68 22 11 22 C11 23.65 11 25.3 11 27 C10.34 27 9.68 27 9 27 C9 27.66 9 28.32 9 29 C5.37 29 1.74 29 -2 29 C-2 28.34 -2 27.68 -2 27 C-2.66 27 -3.32 27 -4 27 C-5.82189994 23.35620011 -5.22760405 19.07417515 -5.25 15.0625 C-5.270625 14.14275391 -5.29125 13.22300781 -5.3125 12.27539062 C-5.31765625 11.39173828 -5.3228125 10.50808594 -5.328125 9.59765625 C-5.3374707 8.78820557 -5.34681641 7.97875488 -5.35644531 7.14477539 C-4.91594369 4.49422282 -4.12041309 3.60257027 -2 2 C-1.34 2 -0.68 2 0 2 C0 1.34 0 0.68 0 0 Z " fill="#D7CECE" transform="translate(104,397)"/>
<path d="M0 0 C2.31 0 4.62 0 7 0 C7 0.66 7 1.32 7 2 C7.66 2 8.32 2 9 2 C10.83069903 5.12929178 11.23931181 7.37643146 11.1953125 10.984375 C11.18886719 11.91894531 11.18242187 12.85351562 11.17578125 13.81640625 C11.15902344 14.78449219 11.14226562 15.75257813 11.125 16.75 C11.11597656 17.73355469 11.10695312 18.71710938 11.09765625 19.73046875 C11.07412785 22.15389407 11.04125368 24.57682222 11 27 C10.34 27 9.68 27 9 27 C9 27.66 9 28.32 9 29 C5.37 29 1.74 29 -2 29 C-2 28.34 -2 27.68 -2 27 C-2.66 27 -3.32 27 -4 27 C-4 25.68 -4 24.36 -4 23 C-4.66 23 -5.32 23 -6 23 C-6 17.72 -6 12.44 -6 7 C-5.34 7 -4.68 7 -4 7 C-4 6.01 -4 5.02 -4 4 C-3.34 4 -2.68 4 -2 4 C-2 3.34 -2 2.68 -2 2 C-1.34 2 -0.68 2 0 2 C0 1.34 0 0.68 0 0 Z " fill="#D8D1D1" transform="translate(153,397)"/>
<path d="M0 0 C12.73140172 -0.7752545 12.73140172 -0.7752545 17.375 2.0625 C19.36821155 5.66561318 19.45971969 7.9391427 19 12 C18.67 12.66 18.34 13.32 18 14 C17.34 14 16.68 14 16 14 C16 14.66 16 15.32 16 16 C12.71871122 16.98204842 9.73024479 17.13412615 6.3125 17.125 C5.33925781 17.12757813 4.36601562 17.13015625 3.36328125 17.1328125 C1 17 1 17 0 16 C-0.07319621 13.30345146 -0.09242537 10.63308542 -0.0625 7.9375 C-0.05798828 7.17888672 -0.05347656 6.42027344 -0.04882812 5.63867188 C-0.0370068 3.75908129 -0.01907078 1.87953101 0 0 Z " fill="#D8D1D1" transform="translate(288,383)"/>
<path d="M0 0 C7.92 0 15.84 0 24 0 C24 2.97 24 5.94 24 9 C16.08 9 8.16 9 0 9 C0 6.03 0 3.06 0 0 Z " fill="#920808" transform="translate(237,404)"/>
<path d="M0 0 C7.26 0 14.52 0 22 0 C22 19.14 22 38.28 22 58 C21.34 58 20.68 58 20 58 C20 39.19 20 20.38 20 1 C14.06 1 8.12 1 2 1 C2 2.98 2 4.96 2 7 C2.969375 7.144375 3.93875 7.28875 4.9375 7.4375 C8 8 8 8 9 9 C9.07319621 11.69654854 9.09242537 14.36691458 9.0625 17.0625 C9.05798828 17.82111328 9.05347656 18.57972656 9.04882812 19.36132812 C9.0370068 21.24091871 9.01907078 23.12046899 9 25 C8.01 24.67 7.02 24.34 6 24 C6.33 19.38 6.66 14.76 7 10 C5.35 10 3.7 10 2 10 C2 9.34 2 8.68 2 8 C1.34 8 0.68 8 0 8 C0 5.36 0 2.72 0 0 Z " fill="#B66F6F" transform="translate(156,368)"/>
<path d="M0 0 C24.42 0 48.84 0 74 0 C74 0.66 74 1.32 74 2 C73.17029694 2.01030746 72.34059387 2.02061493 71.48574829 2.03123474 C63.63037929 2.12959728 55.77507849 2.23216325 47.9198246 2.33933926 C43.88228476 2.39428162 39.84473742 2.44765238 35.80712891 2.49731445 C31.90374475 2.54538536 28.00043847 2.59773739 24.0971489 2.65294075 C22.61499368 2.67317266 21.13281729 2.69191466 19.65062332 2.70907402 C11.7246544 2.8018405 3.87248172 2.99735245 -4 4 C-4 3.34 -4 2.68 -4 2 C-2.68 2 -1.36 2 0 2 C0 1.34 0 0.68 0 0 Z " fill="#C08B8B" transform="translate(291,208)"/>
<path d="M0 0 C2.31 0 4.62 0 7 0 C7 0.66 7 1.32 7 2 C7.66 2 8.32 2 9 2 C9 2.66 9 3.32 9 4 C9.66 4 10.32 4 11 4 C11 6.31 11 8.62 11 11 C6.05 11 1.1 11 -4 11 C-4 8.69 -4 6.38 -4 4 C-3.34 4 -2.68 4 -2 4 C-2 3.34 -2 2.68 -2 2 C-1.34 2 -0.68 2 0 2 C0 1.34 0 0.68 0 0 Z " fill="#D0B9B9" transform="translate(205,397)"/>
<path d="M0 0 C16.5 0 33 0 50 0 C50 0.66 50 1.32 50 2 C34.16 2 18.32 2 2 2 C2 4.31 2 6.62 2 9 C1.34 9 0.68 9 0 9 C0 6.03 0 3.06 0 0 Z " fill="#A84545" transform="translate(329,372)"/>
<path d="M0 0 C4.29 0 8.58 0 13 0 C13 0.66 13 1.32 13 2 C9.37 2 5.74 2 2 2 C2 16.19 2 30.38 2 45 C1.34 45 0.68 45 0 45 C0 30.15 0 15.3 0 0 Z " fill="#AF5A5A" transform="translate(404,381)"/>
<path d="M0 0 C6.93 0 13.86 0 21 0 C21 3.63 21 7.26 21 11 C14.07 11 7.14 11 0 11 C0 10.34 0 9.68 0 9 C6.27 9 12.54 9 19 9 C19 6.69 19 4.38 19 2 C12.73 2 6.46 2 0 2 C0 1.34 0 0.68 0 0 Z " fill="#A53E3E" transform="translate(349,397)"/>
<path d="M0 0 C5.09031755 -0.04936158 10.18049643 -0.08570105 15.27099609 -0.10986328 C17.00344265 -0.11993376 18.73587216 -0.13359089 20.46826172 -0.15087891 C22.95544639 -0.17508162 25.44240675 -0.18647239 27.9296875 -0.1953125 C28.70682098 -0.20563507 29.48395447 -0.21595764 30.28463745 -0.22659302 C32.19125493 -0.22699271 34.09731036 -0.1223214 36 0 C36.66 0.66 37.32 1.32 38 2 C26.12 2 14.24 2 2 2 C2 4.31 2 6.62 2 9 C1.34 9 0.68 9 0 9 C0 6.03 0 3.06 0 0 Z " fill="#AC5353" transform="translate(268,372)"/>
<path d="M0 0 C6.875 0.875 6.875 0.875 8 2 C10.11681317 2.0942174 12.23680758 2.11742761 14.35571289 2.11352539 C15.01910172 2.11367142 15.68249054 2.11381744 16.36598206 2.1139679 C18.56823956 2.11326881 20.77041345 2.10547665 22.97265625 2.09765625 C24.49580336 2.09579206 26.01895107 2.09436816 27.542099 2.09336853 C31.55837651 2.08954346 35.57461808 2.07971328 39.59088135 2.06866455 C43.68623366 2.05845019 47.78159176 2.05387086 51.87695312 2.04882812 C59.91798528 2.038091 67.95898817 2.02101472 76 2 C76 2.66 76 3.32 76 4 C52.24 4 28.48 4 4 4 C4 3.34 4 2.68 4 2 C2.68 2 1.36 2 0 2 C0 1.34 0 0.68 0 0 Z " fill="#C08C8C" transform="translate(348,327)"/>
<path d="M0 0 C0.66 0 1.32 0 2 0 C2 11.22 2 22.44 2 34 C0.68 33.67 -0.64 33.34 -2 33 C-2 31.68 -2 30.36 -2 29 C-2.66 29 -3.32 29 -4 29 C-4.33 27.68 -4.66 26.36 -5 25 C-4.34 25 -3.68 25 -3 25 C-3 25.66 -3 26.32 -3 27 C-2.34 27 -1.68 27 -1 27 C-0.67 18.09 -0.34 9.18 0 0 Z " fill="#AB5151" transform="translate(61,381)"/>
<path d="M0 0 C8.91 0 17.82 0 27 0 C27 2.97 27 5.94 27 9 C26.34 9 25.68 9 25 9 C25.33 6.69 25.66 4.38 26 2 C18.08 2 10.16 2 2 2 C2 4.31 2 6.62 2 9 C1.34 9 0.68 9 0 9 C0 6.03 0 3.06 0 0 Z " fill="#AA4E4E" transform="translate(54,372)"/>
<path d="M0 0 C0.66 0 1.32 0 2 0 C3.0803261 3.44831362 3.03754941 6.48221344 2.87890625 10.078125 C2.83056641 11.23828125 2.78222656 12.3984375 2.73242188 13.59375 C2.67634766 14.8003125 2.62027344 16.006875 2.5625 17.25 C2.51029297 18.47203125 2.45808594 19.6940625 2.40429688 20.953125 C2.27470786 23.96901481 2.13974424 26.98456646 2 30 C2.66 30.33 3.32 30.66 4 31 C2.68 31 1.36 31 0 31 C0 20.77 0 10.54 0 0 Z " fill="#D7CDCD" transform="translate(36,395)"/>
<path d="M0 0 C9.24 0 18.48 0 28 0 C28 0.66 28 1.32 28 2 C19.42 2 10.84 2 2 2 C2.33 3.65 2.66 5.3 3 7 C2.34 7 1.68 7 1 7 C0.67 4.69 0.34 2.38 0 0 Z " fill="#BF8888" transform="translate(200,415)"/>
<path d="M0 0 C0.66 0 1.32 0 2 0 C2 2.31 2 4.62 2 7 C2.969375 7.144375 3.93875 7.28875 4.9375 7.4375 C8 8 8 8 9 9 C9.07319621 11.69654854 9.09242537 14.36691458 9.0625 17.0625 C9.05798828 17.82111328 9.05347656 18.57972656 9.04882812 19.36132812 C9.0370068 21.24091871 9.01907078 23.12046899 9 25 C8.01 24.67 7.02 24.34 6 24 C6.33 19.38 6.66 14.76 7 10 C5.35 10 3.7 10 2 10 C2 9.34 2 8.68 2 8 C1.34 8 0.68 8 0 8 C0 5.36 0 2.72 0 0 Z " fill="#C08D8D" transform="translate(156,368)"/>
<path d="M0 0 C6.6 0 13.2 0 20 0 C20 0.66 20 1.32 20 2 C14.06 2 8.12 2 2 2 C2 4.31 2 6.62 2 9 C1.34 9 0.68 9 0 9 C0 6.03 0 3.06 0 0 Z " fill="#AB4F4F" transform="translate(16,372)"/>
<path d="M0 0 C0.66 0.33 1.32 0.66 2 1 C1.835 1.61875 1.67 2.2375 1.5 2.875 C0.42198263 9.61260854 0.83546777 16.30393969 2 23 C1.34 23 0.68 23 0 23 C0 21.68 0 20.36 0 19 C-0.66 19 -1.32 19 -2 19 C-2 13.72 -2 8.44 -2 3 C-1.34 3 -0.68 3 0 3 C0 2.01 0 1.02 0 0 Z " fill="#C08C8C" transform="translate(149,401)"/>
<path d="M0 0 C9.01720132 0.85878108 18.00653358 1.92537466 27 3 C27 3.33 27 3.66 27 4 C20.73 4 14.46 4 8 4 C8 3.34 8 2.68 8 2 C5.36 2 2.72 2 0 2 C0 1.34 0 0.68 0 0 Z " fill="#B77171" transform="translate(314,309)"/>
<path d="M0 0 C5.94 0.66 11.88 1.32 18 2 C18 2.66 18 3.32 18 4 C13.71 4 9.42 4 5 4 C5 3.34 5 2.68 5 2 C3.35 2 1.7 2 0 2 C0 1.34 0 0.68 0 0 Z " fill="#B36767" transform="translate(198,433)"/>
<path d="M0 0 C2.10494301 0.08708038 4.20902142 0.19525693 6.3125 0.3125 C8.07013672 0.39951172 8.07013672 0.39951172 9.86328125 0.48828125 C13.0983686 1.01604768 14.08684881 1.42380724 16 4 C13.69 4 11.38 4 9 4 C9 3.34 9 2.68 9 2 C7.329375 2.061875 7.329375 2.061875 5.625 2.125 C2 2 2 2 0 0 Z " fill="#C19090" transform="translate(243,273)"/>
<path d="M0 0 C0.66 0 1.32 0 2 0 C1.71872579 1.48117801 1.42466268 2.95993249 1.125 4.4375 C0.96257812 5.26121094 0.80015625 6.08492187 0.6328125 6.93359375 C0.31957031 7.95646484 0.31957031 7.95646484 0 9 C-0.99 9.495 -0.99 9.495 -2 10 C-2 7.69 -2 5.38 -2 3 C-1.34 3 -0.68 3 0 3 C0 2.01 0 1.02 0 0 Z " fill="#C69C9C" transform="translate(282,216)"/>
</svg>
