<?xml version="1.0" encoding="UTF-8"?>
<svg version="1.1" xmlns="http://www.w3.org/2000/svg" width="512" height="512">
<path d="M0 0 C6.72569458 5.53508198 11.03427668 11.86654067 12.49609375 20.515625 C12.91028349 26.51341104 12.28821528 32.48747182 11.69921875 38.45703125 C12.63378906 38.2146875 13.56835938 37.97234375 14.53125 37.72265625 C56.22865438 27.02245747 56.22865438 27.02245747 69.69921875 34.45703125 C75.74822812 38.41215276 80.43602108 44.49385671 82.23777199 51.57303715 C83.91889614 60.11437893 84.18998058 68.61425936 84.42724609 77.28491211 C84.47881041 78.96861819 84.53076207 80.65231244 84.58306694 82.33599567 C84.75000913 87.86422163 84.89485379 93.39291639 85.03515625 98.921875 C85.05959903 99.87459321 85.08404181 100.82731142 85.10922527 101.80889988 C85.50421781 117.33614613 85.81454908 132.86446284 86.07421875 148.39453125 C86.09223636 149.46049672 86.11025396 150.52646218 86.12881756 151.62472963 C87.1583697 213.55501817 86.28624491 271.56750575 69.85215759 331.69369507 C66.29385828 344.72532819 63.44573572 357.80751747 60.90625 371.07421875 C60.62927402 372.51587245 60.62927402 372.51587245 60.34670258 373.98665047 C59.44467713 378.69056146 58.55070967 383.39594865 57.66229248 388.10244751 C56.22204057 395.72521064 54.75025222 403.34134741 53.23105431 410.94878006 C52.80065558 413.12117265 52.3839236 415.29588848 51.96772766 417.47103882 C51.71146103 418.75427032 51.4551944 420.03750183 51.19116211 421.35961914 C50.97390976 422.47252823 50.75665741 423.58543732 50.53282166 424.73207092 C49.62975459 427.68410228 49.23971215 428.74837272 46.69921875 430.45703125 C44.24468352 431.29970479 41.88266046 431.99362487 39.37329102 432.61987305 C38.62145664 432.8163273 37.86962227 433.01278156 37.09500504 433.21518898 C34.57098749 433.87207031 32.04341152 434.5140383 29.515625 435.15625 C27.70725367 435.62384225 25.89912829 436.09238659 24.0912323 436.56181335 C20.19536297 437.57130375 16.29789481 438.57427668 12.39904785 439.57220459 C6.23319274 441.15039716 0.07090437 442.7421941 -6.09082031 444.33642578 C-12.52200852 445.99962537 -18.95348221 447.66168707 -25.38626099 449.31872559 C-40.79863368 453.28896487 -56.20283264 457.28968077 -71.6015625 461.3125 C-73.1886266 461.72706609 -73.1886266 461.72706609 -74.80775261 462.15000725 C-80.02421153 463.5127442 -85.24055087 464.8759381 -90.45681763 466.2394104 C-99.29196476 468.54867346 -108.12782692 470.855194 -116.96408653 473.1601963 C-119.54864449 473.83452782 -122.13306869 474.50937007 -124.71748352 475.18424988 C-126.28072398 475.59209922 -127.84397125 475.99992244 -129.40722656 476.40771484 C-130.09439979 476.58729075 -130.78157301 476.76686666 -131.48956966 476.95188427 C-133.42584931 477.4566436 -135.36330498 477.95688471 -137.30078125 478.45703125 C-138.27768323 478.75148793 -138.27768323 478.75148793 -139.2743206 479.05189323 C-144.33133578 480.50715979 -148.46651526 480.48912394 -153.65478516 479.79052734 C-154.87120917 479.64458917 -154.87120917 479.64458917 -156.11220741 479.49570274 C-158.84371488 479.16385417 -161.57199482 478.81051161 -164.30078125 478.45703125 C-166.30168737 478.20883763 -168.30272998 477.96174241 -170.30389404 477.71563721 C-177.08464397 476.87484884 -183.86088377 476.00050644 -190.63671875 475.12109375 C-191.86078053 474.96243206 -193.0848423 474.80377037 -194.34599686 474.64030075 C-200.80641683 473.80226703 -207.26639783 472.96093256 -213.72607422 472.1171875 C-219.6980495 471.33735731 -225.67132524 470.56807336 -231.64522207 469.80311739 C-237.45092212 469.05898254 -243.2549395 468.3023192 -249.05846024 467.54139328 C-251.50337063 467.22264654 -253.94877871 466.90769143 -256.39469528 466.5967598 C-289.22951944 462.41429228 -289.22951944 462.41429228 -300.30078125 453.45703125 C-300.914375 452.97878906 -301.52796875 452.50054687 -302.16015625 452.0078125 C-311.42519128 443.87016005 -314.85810436 432.26572987 -316.30078125 420.45703125 C-316.55936941 415.98035501 -316.57151707 411.5189345 -316.55474854 407.03567505 C-316.55786852 405.73673022 -316.5609885 404.43778539 -316.56420302 403.0994786 C-316.57248444 399.52788301 -316.56845634 395.9563955 -316.56223059 392.38479972 C-316.55767951 388.51966893 -316.56470301 384.6545559 -316.57019043 380.78942871 C-316.57905838 373.23043385 -316.57717389 365.67147883 -316.57136515 358.11248244 C-316.56683774 351.96490681 -316.56624042 345.8173423 -316.56841278 339.66976547 C-316.56871925 338.7928686 -316.56902571 337.91597172 -316.56934147 337.01250222 C-316.56998096 335.23075486 -316.57062938 333.44900751 -316.57128665 331.66726016 C-316.57698251 314.98028817 -316.57044409 298.29333821 -316.55968592 281.60636984 C-316.55075422 267.31032277 -316.55230075 253.0143082 -316.56152344 238.71826172 C-316.57224464 222.09173768 -316.57642997 205.46523291 -316.57029891 188.8387059 C-316.56966186 187.06311345 -316.56903311 185.28752101 -316.56841278 183.51192856 C-316.56810423 182.63845132 -316.56779568 181.76497407 -316.56747778 180.86502782 C-316.56575615 174.73093794 -316.5686545 168.59686035 -316.57337189 162.46277237 C-316.57900144 154.97846554 -316.57742098 147.49420063 -316.5668104 140.00989856 C-316.56158101 136.19650556 -316.55944986 132.38318225 -316.5661087 128.56978989 C-316.57323819 124.42391842 -316.56468277 120.27822045 -316.55474854 116.13235474 C-316.55920998 114.9439984 -316.56367142 113.75564205 -316.56826806 112.53127491 C-316.48117666 93.69202557 -312.86833739 77.1955314 -299.30078125 63.45703125 C-288.33751656 53.78557268 -275.77272503 50.06861457 -261.75390625 47.04296875 C-260.27670141 46.71739871 -258.79966623 46.39105815 -257.32278442 46.06402588 C-253.2599224 45.16660274 -249.19481149 44.27976922 -245.12926483 43.39459991 C-240.73795045 42.43651126 -236.34882771 41.46848263 -231.95947266 40.50146484 C-224.11954105 38.77545721 -216.27833638 37.05532862 -208.43652344 35.33789062 C-195.44285775 32.49138365 -182.45334211 29.62616646 -169.46430969 26.75860214 C-152.97449533 23.11823546 -136.4843067 19.47955987 -119.99316406 15.84521484 C-118.79973389 15.58220266 -117.60630371 15.31919048 -116.37670898 15.04820824 C-110.44936211 13.74236444 -104.52162131 12.43834756 -98.59313965 11.13766479 C-96.24926424 10.62336728 -93.90539217 10.10905454 -91.56152344 9.59472656 C-89.82465775 9.21366225 -89.82465775 9.21366225 -88.05270386 8.82489967 C-81.24748789 7.32998794 -74.44505746 5.82314353 -67.64517581 4.30414689 C-61.91029421 3.02315393 -56.17353231 1.75075202 -50.43620682 0.48075485 C-48.02303192 -0.05531195 -45.61059332 -0.59470566 -43.19895554 -1.13764572 C-39.86577915 -1.88770537 -36.53019573 -2.62601366 -33.19384766 -3.36181641 C-32.21956944 -3.58418095 -31.24529121 -3.80654549 -30.24148941 -4.03564835 C-19.28288326 -6.424331 -9.65091328 -6.47217444 0 0 Z " fill="#C02223" transform="translate(371.30078125,18.54296875)"/>
<path d="M0 0 C1 1 1 1 1.12145996 3.36160278 C1.11940552 4.41032562 1.11735107 5.45904846 1.11523438 6.53955078 C1.11463013 7.72563934 1.11402588 8.91172791 1.11340332 10.13375854 C1.10691772 11.43282135 1.10043213 12.73188416 1.09375 14.0703125 C1.08996464 15.42668616 1.08634594 16.78306029 1.08288574 18.13943481 C1.03203926 33.05327089 0.77277702 47.96379999 0.5 62.875 C0.45128662 65.62889695 0.4033702 68.38280758 0.35546875 71.13671875 C0.23971252 77.75786322 0.12108174 84.37895088 0 91 C-1.60545544 91.05752695 -3.21150422 91.09866162 -4.81762695 91.1328125 C-5.71189896 91.15746582 -6.60617096 91.18211914 -7.52754211 91.20751953 C-10 91 -10 91 -12.91796875 88.875 C-13.66691406 87.92625 -14.41585937 86.9775 -15.1875 86 C-16.42693359 84.48986328 -16.42693359 84.48986328 -17.69140625 82.94921875 C-18.45324219 81.97597656 -19.21507812 81.00273437 -20 80 C-21.19803731 78.5953197 -22.40516786 77.19829569 -23.625 75.8125 C-24.17929687 75.17957031 -24.73359375 74.54664063 -25.3046875 73.89453125 C-35.02669301 63.03007809 -46.93258163 52.2991445 -62.09960938 50.79125977 C-74.29950765 50.24842269 -84.21245572 50.3048968 -93.94921875 58.67578125 C-98.86224972 63.85052332 -101.07987088 69.8101971 -101.5 76.875 C-101.26800929 83.43125928 -98.69499572 88.88370222 -94.42578125 93.8203125 C-86.72969622 100.96027018 -76.74904961 102.93898908 -66.8125 105.1875 C-39.04851868 111.81974354 -9.36509318 123.62969503 6.27075195 149.03393555 C17.00993026 167.3688111 18.77644721 189.76907473 14.0390625 210.3125 C7.80648048 232.43113693 -3.33072637 250.46212531 -23 263 C-26.58661517 264.91318109 -30.2209112 266.50965512 -34 268 C-34.62777344 268.28359375 -35.25554687 268.5671875 -35.90234375 268.859375 C-59.42618597 278.94837516 -86.25145761 274.14911559 -110 268 C-111.08442383 267.7220459 -112.16884766 267.4440918 -113.28613281 267.15771484 C-127.52520463 263.43777368 -142.62442928 259.25038048 -155 251 C-155.32788693 248.51682349 -155.46508995 246.27046955 -155.4765625 243.78125 C-155.49945595 242.69314278 -155.49945595 242.69314278 -155.52281189 241.58305359 C-155.57003627 239.22207066 -155.59739951 236.86128628 -155.625 234.5 C-155.66907569 232.07431413 -155.71828436 229.64876849 -155.76789856 227.22319031 C-155.80014143 225.63379633 -155.83074008 224.04436811 -155.85966492 222.45491028 C-155.96181384 217.02123025 -156.18638313 211.60958001 -156.5625 206.1875 C-157.19910748 196.13109128 -157.09218534 186.07231195 -157 176 C-153.74609375 175.6328125 -153.74609375 175.6328125 -150 176 C-147.84765625 178.4921875 -147.84765625 178.4921875 -146.0625 181.875 C-145.38937302 183.07977598 -144.71089986 184.2815792 -144.02734375 185.48046875 C-143.52243408 186.37838135 -143.52243408 186.37838135 -143.00732422 187.29443359 C-136.08613091 199.01315789 -125.36806266 208.7544216 -114 216 C-113.20980469 216.52335938 -112.41960937 217.04671875 -111.60546875 217.5859375 C-99.61745555 225.21643379 -86.96194208 229.61813943 -72.71875 227.69140625 C-63.64407871 225.65680733 -57.30223996 221.64476396 -52 214 C-48.29770892 207.58006973 -47.68581657 199.93256847 -49.5859375 192.80078125 C-54.05199445 182.37315287 -64.46234822 176.98437361 -74.47314453 172.94921875 C-80.85857427 170.55051819 -87.37570787 168.5173868 -93.86108398 166.40869141 C-118.51648457 158.31555316 -141.45911611 146.89618001 -154 123 C-155.99763554 118.7450363 -157.59388395 114.48302881 -159 110 C-159.31839844 109.04480469 -159.63679687 108.08960938 -159.96484375 107.10546875 C-166.31279032 84.78526952 -161.68031565 59.66248879 -151.25 39.4375 C-143.51073784 25.80923629 -133.8552094 15.74868418 -121 7 C-120.195625 6.45085937 -119.39125 5.90171875 -118.5625 5.3359375 C-111.80886647 1.00383704 -104.61730494 -1.57117713 -97 -4 C-96.24920166 -4.24806396 -95.49840332 -4.49612793 -94.72485352 -4.75170898 C-65.49356508 -14.06609543 -27.77419186 -13.71825586 0 0 Z " fill="#D0DADE" transform="translate(293,124)"/>
<path d="M0 0 C11.5312568 12.05540484 11.06645159 26.43646781 11.28759766 42.17871094 C11.31990626 44.01132888 11.35290457 45.84393478 11.38653564 47.67652893 C11.49257418 53.65396261 11.57897965 59.63161234 11.6640625 65.609375 C11.69449036 67.67428981 11.72501225 69.73920324 11.75562668 71.8041153 C11.8817331 80.38967235 12.00314173 88.97527055 12.111063 97.56107712 C12.26542321 109.84048466 12.44762327 122.11873934 12.66917002 134.39712501 C12.82310561 143.04931548 12.94612055 151.70160968 13.04598272 160.35459161 C13.10632695 165.51679767 13.18004335 170.67799299 13.28657913 175.83946991 C13.38593629 180.68881948 13.44694947 185.53715427 13.47864532 190.38740349 C13.49687316 192.16493741 13.52888583 193.94239245 13.57580948 195.71940041 C13.91764081 209.10665475 13.91764081 209.10665475 11.15832806 213.28552341 C9.12259345 215.07178951 7.04866083 216.44999628 4.75 217.875 C3.57733327 218.94440614 2.43496756 220.04808934 1.32704163 221.18443298 C0.77056946 221.74097565 0.21409729 222.29751831 -0.35923767 222.8709259 C-0.93670242 223.45355698 -1.51416718 224.03618805 -2.10913086 224.63647461 C-2.74267487 225.27147888 -3.37621887 225.90648315 -4.02896118 226.56072998 C-5.38810435 227.92364566 -6.74609247 229.28771402 -8.10301018 230.65284538 C-10.24803505 232.8107341 -12.39625653 234.96539511 -14.54530334 237.11927795 C-19.0955317 241.68086998 -23.6417853 246.24641061 -28.1875 250.8125 C-33.48079587 256.12938206 -38.77570035 261.44464148 -44.07480049 266.75573921 C-46.19578509 268.88322665 -48.31374943 271.01369041 -50.43162537 273.14427185 C-51.71981407 274.43608967 -53.00814146 275.72776921 -54.29663086 277.01928711 C-55.18408241 277.91448814 -55.18408241 277.91448814 -56.08946228 278.82777405 C-57.45746341 280.19595485 -58.85092913 281.53860691 -60.25 282.875 C-60.58 282.875 -60.91 282.875 -61.25 282.875 C-61.25 190.145 -61.25 97.415 -61.25 1.875 C-14.86702128 -9.72074468 -14.86702128 -9.72074468 0 0 Z " fill="#882425" transform="translate(444.25,55.125)"/>
<path d="M0 0 C0.94660039 3.04387584 0.99631608 5.14260514 0.37252808 8.25761414 C0.20760518 9.10301884 0.04268229 9.94842354 -0.12723827 10.81944656 C-0.41061031 12.20179049 -0.41061031 12.20179049 -0.69970703 13.61206055 C-0.99039424 15.08204309 -0.99039424 15.08204309 -1.28695393 16.58172226 C-1.93574403 19.85173878 -2.59679572 23.1191537 -3.2578125 26.38671875 C-3.7182091 28.69492276 -4.17783484 31.00328065 -4.63673401 33.31178284 C-5.86821797 39.49544243 -7.11025872 45.67693583 -8.35476303 51.85798645 C-9.63326616 58.21453027 -10.90382406 64.57266142 -12.17504883 70.93066406 C-13.69276526 78.51889088 -15.2115197 86.10690391 -16.73487854 93.69400024 C-19.45003915 107.220396 -22.14147092 120.75084944 -24.77996063 134.29241371 C-25.67415742 138.87757074 -26.57410068 143.46160378 -27.47383881 148.04567623 C-28.1456892 151.47180008 -28.81352432 154.8986096 -29.47247314 158.32723999 C-30.18360811 162.01713829 -30.90837895 165.70409103 -31.63671875 169.390625 C-31.93528526 170.97152672 -31.93528526 170.97152672 -32.23988342 172.58436584 C-32.52465797 174.00488503 -32.52465797 174.00488503 -32.81518555 175.45410156 C-32.97311081 176.26735901 -33.13103607 177.08061646 -33.29374695 177.91851807 C-34.16382252 180.48282072 -34.78917491 181.41441554 -37 183 C-39.45453532 183.84267358 -41.81655792 184.53659465 -44.32592773 185.1628418 C-45.07776211 185.35929322 -45.82959648 185.55574465 -46.60421371 185.75814915 C-49.12823341 186.41502405 -51.65581072 187.05699143 -54.18359375 187.69921875 C-55.9919659 188.16685371 -57.80009126 188.6354439 -59.60798645 189.10491943 C-64.52278095 190.37853658 -69.44073029 191.63955558 -74.35932922 192.89838791 C-79.50475888 194.21745727 -84.64732385 195.54759161 -89.79003906 196.87719727 C-96.22129016 198.53937533 -102.65276777 200.20064573 -109.08547974 201.85716248 C-123.4214758 205.54993981 -137.74726658 209.28006994 -152.06555367 213.04091454 C-155.27279227 213.88327388 -158.48022702 214.72488208 -161.68772888 215.5662384 C-174.0055306 218.79716296 -174.0055306 218.79716296 -186.32125854 222.03598022 C-191.10077327 223.29448446 -195.8815565 224.54805442 -200.66330528 225.7980423 C-202.41503384 226.25690886 -204.16629218 226.71757495 -205.91703224 227.18019867 C-208.31229211 227.812934 -210.70913143 228.43930838 -213.10644531 229.06420898 C-214.13720515 229.33896576 -214.13720515 229.33896576 -215.18878841 229.61927319 C-219.79105593 230.80931173 -224.2854229 231.49042965 -229 232 C-214.68812307 215.08463957 -198.76618855 199.641703 -183.08390808 184.01544571 C-179.86465816 180.80631722 -176.64876877 177.59382488 -173.43261719 174.3815918 C-165.29141136 166.25138664 -157.14592529 158.12547614 -149 150 C-140.17299189 141.19509611 -131.34677657 132.38940507 -122.52542019 123.57883835 C-118.71362725 119.77199776 -114.89941823 115.96760035 -111.08327389 112.16512203 C-108.70937021 109.79871364 -106.33757262 107.43020278 -103.96632195 105.06113625 C-102.87360149 103.97027596 -101.78002295 102.88027438 -100.68548775 101.79123497 C-95.50976258 96.64066853 -90.43806511 91.45923407 -85.68504143 85.91186523 C-82.45200653 82.24363078 -78.95875363 78.82884597 -75.49438477 75.38085938 C-74.67406265 74.56039124 -73.85374054 73.7399231 -73.00856018 72.89459229 C-70.32187481 70.20859836 -67.63167486 67.52615456 -64.94140625 64.84375 C-63.06789101 62.97210168 -61.19457426 61.10025679 -59.32151794 59.22814941 C-54.91092979 54.82065523 -50.4978014 50.41571386 -46.08372873 46.01170969 C-41.05385667 40.99305921 -36.0268625 35.97153021 -31.00009453 30.94977093 C-20.66990347 20.63000039 -10.33614681 10.31380529 0 0 Z " fill="#CBD2D7" transform="translate(455,266)"/>
</svg>
