<?xml version="1.0" encoding="UTF-8"?>
<!DOCTYPE svg PUBLIC "-//W3C//DTD SVG 1.1//EN" "http://www.w3.org/Graphics/SVG/1.1/DTD/svg11.dtd">
<svg xmlns="http://www.w3.org/2000/svg" version="1.1" width="460px" height="460px" style="shape-rendering:geometricPrecision; text-rendering:geometricPrecision; image-rendering:optimizeQuality; fill-rule:evenodd; clip-rule:evenodd" xmlns:xlink="http://www.w3.org/1999/xlink">
<g><path style="opacity:1" fill="#1c1816" d="M -0.5,-0.5 C 152.833,-0.5 306.167,-0.5 459.5,-0.5C 459.5,152.833 459.5,306.167 459.5,459.5C 306.167,459.5 152.833,459.5 -0.5,459.5C -0.5,306.167 -0.5,152.833 -0.5,-0.5 Z"/></g>
<g><path style="opacity:1" fill="#696464" d="M 136.5,112.5 C 154.251,111.78 165.751,119.78 171,136.5C 172.15,154.675 163.983,166.175 146.5,171C 128.823,171.648 117.656,163.481 113,146.5C 112.274,141.761 112.607,137.095 114,132.5C 116.254,128.993 118.254,125.327 120,121.5C 125.206,117.755 130.706,114.755 136.5,112.5 Z"/></g>
<g><path style="opacity:1" fill="#696464" d="M 223.5,112.5 C 248.214,112.044 259.714,124.044 258,148.5C 250.826,167.649 237.326,174.482 217.5,169C 198.883,157.058 195.383,141.558 207,122.5C 212.014,118.248 217.514,114.915 223.5,112.5 Z"/></g>
<g><path style="opacity:1" fill="#696464" d="M 310.5,112.5 C 314.514,112.334 318.514,112.501 322.5,113C 327.923,114.546 332.923,116.88 337.5,120C 351.254,138.508 348.921,154.508 330.5,168C 315.409,174.856 302.909,171.689 293,158.5C 284.612,144.387 286.112,131.387 297.5,119.5C 302.086,117.378 306.419,115.044 310.5,112.5 Z"/></g>
<g><path style="opacity:1" fill="#fcfaf7" d="M 133.5,200.5 C 152.192,198.416 164.692,206.083 171,223.5C 172.277,240.864 164.777,252.364 148.5,258C 137.309,260.47 127.809,257.637 120,249.5C 109.321,234.638 110.155,220.471 122.5,207C 126.23,204.807 129.897,202.64 133.5,200.5 Z"/></g>
<g><path style="opacity:1" fill="#fcfaf7" d="M 221.5,200.5 C 228.721,199.886 235.721,200.719 242.5,203C 257.918,212.251 262.418,225.418 256,242.5C 253.793,245.078 251.96,247.911 250.5,251C 246.147,253.367 241.813,255.7 237.5,258C 230.285,259.113 223.285,258.446 216.5,256C 213.922,253.793 211.089,251.96 208,250.5C 205.633,246.147 203.3,241.813 201,237.5C 199.887,230.285 200.554,223.285 203,216.5C 205.207,213.922 207.04,211.089 208.5,208C 212.928,205.459 217.262,202.959 221.5,200.5 Z"/></g>
<g><path style="opacity:1" fill="#fcfaf7" d="M 308.5,200.5 C 327.355,198.246 339.855,205.912 346,223.5C 346.52,249.008 334.02,260.508 308.5,258C 290.505,249.98 284.338,236.48 290,217.5C 292.377,213.912 294.877,210.412 297.5,207C 301.56,205.311 305.227,203.144 308.5,200.5 Z"/></g>
<g><path style="opacity:1" fill="#696464" d="M 136.5,287.5 C 153.648,286.816 165.148,294.483 171,310.5C 172.579,329.202 164.413,341.035 146.5,346C 141.761,346.726 137.095,346.393 132.5,345C 128.993,342.746 125.327,340.746 121.5,339C 107.538,320.466 109.871,304.466 128.5,291C 131.158,289.522 133.825,288.355 136.5,287.5 Z"/></g>
<g><path style="opacity:1" fill="#fcfaf7" d="M 223.5,287.5 C 239.994,286.526 251.494,293.526 258,308.5C 260.946,324.434 255.446,336.268 241.5,344C 225.689,349.396 213.189,345.23 204,331.5C 196.141,310.258 202.641,295.592 223.5,287.5 Z"/></g>
<g><path style="opacity:1" fill="#696464" d="M 310.5,287.5 C 328.068,286.523 339.902,294.19 346,310.5C 346.667,314.5 346.667,318.5 346,322.5C 344.454,327.923 342.12,332.923 339,337.5C 320.466,351.462 304.466,349.129 291,330.5C 284.144,315.409 287.311,302.909 300.5,293C 303.767,290.87 307.1,289.037 310.5,287.5 Z"/></g>
</svg>
