<?xml version="1.0" encoding="UTF-8"?>
<!DOCTYPE svg PUBLIC "-//W3C//DTD SVG 1.1//EN" "http://www.w3.org/Graphics/SVG/1.1/DTD/svg11.dtd">
<svg xmlns="http://www.w3.org/2000/svg" version="1.1" width="512px" height="512px" style="shape-rendering:geometricPrecision; text-rendering:geometricPrecision; image-rendering:optimizeQuality; fill-rule:evenodd; clip-rule:evenodd" xmlns:xlink="http://www.w3.org/1999/xlink">
<g><path style="opacity:1" fill="#196aff" d="M 228.5,-0.5 C 246.5,-0.5 264.5,-0.5 282.5,-0.5C 378.808,12.6545 447.974,62.9878 490,150.5C 500.771,175.626 507.937,201.626 511.5,228.5C 511.5,246.5 511.5,264.5 511.5,282.5C 496.552,384.054 441.886,455.054 347.5,495.5C 344.909,478.714 341.743,462.047 338,445.5C 335.005,424.555 332.505,403.555 330.5,382.5C 329.733,372.185 329.399,361.852 329.5,351.5C 329.714,341.972 331.214,332.638 334,323.5C 340.559,308.612 347.559,293.945 355,279.5C 361.194,259.621 363.194,239.288 361,218.5C 360.615,206.302 359.782,194.135 358.5,182C 361.174,168.204 359.508,155.038 353.5,142.5C 358.965,130.606 363.131,118.272 366,105.5C 369.812,80.7623 364.812,58.0956 351,37.5C 346.041,31.5349 340.208,26.7016 333.5,23C 327.585,21.8941 324.085,24.3941 323,30.5C 322.542,57.9948 320.375,85.3281 316.5,112.5C 303.177,108.335 289.51,106.002 275.5,105.5C 269.175,104.834 262.675,104.5 256,104.5C 246.943,104.284 238.11,104.951 229.5,106.5C 223.447,107.18 217.447,108.18 211.5,109.5C 211.143,83.9208 212.143,58.4208 214.5,33C 215.287,28.4017 213.62,25.235 209.5,23.5C 204.592,22.031 199.926,22.6977 195.5,25.5C 180.698,32.1385 170.531,43.1385 165,58.5C 163.176,64.4609 161.676,70.4609 160.5,76.5C 159.028,80.9192 158.362,85.5859 158.5,90.5C 157.286,105.448 157.452,120.448 159,135.5C 160.06,139.526 161.227,143.526 162.5,147.5C 157.984,158.579 157.317,169.912 160.5,181.5C 156.619,204.685 155.119,228.018 156,251.5C 157.615,264.292 160.948,276.625 166,288.5C 170.333,297.833 174.667,307.167 179,316.5C 184.266,334.12 185.933,352.12 184,370.5C 183.551,381.886 182.551,393.22 181,404.5C 180.667,417.167 180.333,429.833 180,442.5C 177.774,461.082 175.274,479.582 172.5,498C 173.056,498.383 173.389,498.883 173.5,499.5C 102.306,473.14 50.8055,425.473 19,356.5C 9.03037,332.615 2.53037,307.948 -0.5,282.5C -0.5,264.167 -0.5,245.833 -0.5,227.5C 13.0433,134.143 61.7099,65.9759 145.5,23C 172.097,10.9379 199.764,3.10452 228.5,-0.5 Z"/></g>
<g><path style="opacity:0.998" fill="#fefefe" d="M 329.5,351.5 C 328.834,355.486 328.501,359.653 328.5,364C 328.326,370.406 328.993,376.573 330.5,382.5C 332.505,403.555 335.005,424.555 338,445.5C 341.743,462.047 344.909,478.714 347.5,495.5C 341.795,497.255 335.962,499.588 330,502.5C 329.667,502.167 329.333,501.833 329,501.5C 322.834,503.965 316.834,505.965 311,507.5C 309.221,506.521 307.555,506.854 306,508.5C 304.013,507.771 302.013,508.104 300,509.5C 299.228,509.355 298.561,509.022 298,508.5C 292.743,509.546 287.577,510.546 282.5,511.5C 264.5,511.5 246.5,511.5 228.5,511.5C 219.427,510.08 210.26,508.413 201,506.5C 200.228,506.645 199.561,506.978 199,507.5C 197.144,505.333 194.977,504.666 192.5,505.5C 185.982,502.974 179.648,500.974 173.5,499.5C 173.389,498.883 173.056,498.383 172.5,498C 175.274,479.582 177.774,461.082 180,442.5C 180.333,429.833 180.667,417.167 181,404.5C 182.551,393.22 183.551,381.886 184,370.5C 185.933,352.12 184.266,334.12 179,316.5C 174.667,307.167 170.333,297.833 166,288.5C 160.948,276.625 157.615,264.292 156,251.5C 155.119,228.018 156.619,204.685 160.5,181.5C 157.317,169.912 157.984,158.579 162.5,147.5C 161.227,143.526 160.06,139.526 159,135.5C 157.452,120.448 157.286,105.448 158.5,90.5C 159.972,86.0808 160.638,81.4141 160.5,76.5C 161.676,70.4609 163.176,64.4609 165,58.5C 170.531,43.1385 180.698,32.1385 195.5,25.5C 200.062,24.2043 204.729,23.5376 209.5,23.5C 213.62,25.235 215.287,28.4017 214.5,33C 212.143,58.4208 211.143,83.9208 211.5,109.5C 217.447,108.18 223.447,107.18 229.5,106.5C 244.816,105.641 260.149,105.308 275.5,105.5C 289.51,106.002 303.177,108.335 316.5,112.5C 320.375,85.3281 322.542,57.9948 323,30.5C 324.085,24.3941 327.585,21.8941 333.5,23C 340.208,26.7016 346.041,31.5349 351,37.5C 364.812,58.0956 369.812,80.7623 366,105.5C 363.131,118.272 358.965,130.606 353.5,142.5C 359.508,155.038 361.174,168.204 358.5,182C 359.782,194.135 360.615,206.302 361,218.5C 363.194,239.288 361.194,259.621 355,279.5C 347.559,293.945 340.559,308.612 334,323.5C 331.214,332.638 329.714,341.972 329.5,351.5 Z"/></g>
<g><path style="opacity:1" fill="#bdd1ff" d="M 209.5,23.5 C 204.729,23.5376 200.062,24.2043 195.5,25.5C 199.926,22.6977 204.592,22.031 209.5,23.5 Z"/></g>
<g><path style="opacity:1" fill="#f1d7d5" d="M 339.5,54.5 C 341.783,54.6079 343.783,55.4412 345.5,57C 353.007,64.6624 357.007,73.8291 357.5,84.5C 356.053,100.517 352.886,116.184 348,131.5C 346.861,135.112 345.194,138.446 343,141.5C 333.832,130.461 330.499,117.794 333,103.5C 334.472,96.0922 336.139,88.7589 338,81.5C 338.625,72.5031 339.125,63.5031 339.5,54.5 Z"/></g>
<g><path style="opacity:1" fill="#f1d8d5" d="M 191.5,56.5 C 194.649,57.1603 196.149,59.1603 196,62.5C 196.611,79.5064 196.945,96.5064 197,113.5C 192.924,123.315 188.591,132.982 184,142.5C 182.281,144.557 180.281,146.224 178,147.5C 177.228,147.355 176.561,147.022 176,146.5C 173.009,129.282 172.009,111.948 173,94.5C 175.186,79.7965 181.353,67.1299 191.5,56.5 Z"/></g>
<g><path style="opacity:1" fill="#b5ccff" d="M 160.5,76.5 C 160.638,81.4141 159.972,86.0808 158.5,90.5C 158.362,85.5859 159.028,80.9192 160.5,76.5 Z"/></g>
<g><path style="opacity:1" fill="#b6cdff" d="M 275.5,105.5 C 260.149,105.308 244.816,105.641 229.5,106.5C 238.11,104.951 246.943,104.284 256,104.5C 262.675,104.5 269.175,104.834 275.5,105.5 Z"/></g>
<g><path style="opacity:1" fill="#faeee1" d="M 213.5,160.5 C 215.595,160.76 216.928,161.926 217.5,164C 215.542,166.149 215.209,168.482 216.5,171C 222.596,171.974 228.43,171.141 234,168.5C 235.261,168.759 236.261,169.426 237,170.5C 236.239,174.359 235.072,178.193 233.5,182C 235.397,188.455 239.73,191.122 246.5,190C 247.647,187.822 249.313,186.322 251.5,185.5C 255.256,187.71 259.256,189.377 263.5,190.5C 265.883,189.724 267.883,188.391 269.5,186.5C 270.442,186.608 271.275,186.941 272,187.5C 273.536,193.135 271.369,196.135 265.5,196.5C 261.188,196.089 257.188,194.756 253.5,192.5C 244.27,197.429 236.103,196.096 229,188.5C 228.827,184.459 228.327,180.459 227.5,176.5C 221.375,178.201 215.541,177.535 210,174.5C 208.608,169.093 209.774,164.426 213.5,160.5 Z"/></g>
<g><path style="opacity:1" fill="#35404c" d="M 211.5,210.5 C 215.401,209.857 218.734,210.857 221.5,213.5C 225.178,217.858 227.512,222.858 228.5,228.5C 228.167,229.5 227.833,230.5 227.5,231.5C 224.785,228.943 222.618,225.943 221,222.5C 219.587,220.586 217.753,219.253 215.5,218.5C 210.939,222.64 206.605,226.973 202.5,231.5C 202.419,223.314 205.419,216.314 211.5,210.5 Z"/></g>
<g><path style="opacity:1" fill="#35414c" d="M 303.5,210.5 C 308.543,209.431 312.377,211.097 315,215.5C 316.667,218.833 318.333,222.167 320,225.5C 320.808,227.579 320.641,229.579 319.5,231.5C 316.453,229.082 314.12,226.082 312.5,222.5C 310.796,220.959 308.963,219.625 307,218.5C 302.868,222.303 299.034,226.469 295.5,231C 294.552,231.483 293.552,231.649 292.5,231.5C 293.844,223.141 297.51,216.141 303.5,210.5 Z"/></g>
<g><path style="opacity:1" fill="#f0e5d2" d="M 299.5,309.5 C 289.595,313.203 279.262,315.203 268.5,315.5C 267.415,306.819 267.415,298.153 268.5,289.5C 272.808,283.359 277.308,277.359 282,271.5C 282.432,270.4 281.932,269.733 280.5,269.5C 274.753,270.625 269.586,272.958 265,276.5C 259.666,272.715 253.833,271.715 247.5,273.5C 253.419,277.482 258.086,282.648 261.5,289C 260.542,297.792 260.208,306.625 260.5,315.5C 251.757,315.506 243.09,315.006 234.5,314C 242.886,321.463 252.719,324.963 264,324.5C 275.877,324.991 286.71,321.991 296.5,315.5C 290.194,334.833 276.861,342.666 256.5,339C 245.967,336.804 238.801,330.638 235,320.5C 230.532,311.089 226.865,301.422 224,291.5C 220.448,267.763 229.615,251.263 251.5,242C 271.614,236.402 288.114,241.569 301,257.5C 308.711,275.16 308.211,292.493 299.5,309.5 Z"/></g>
<g><path style="opacity:1" fill="#504f4e" d="M 299.5,309.5 C 299.025,311.784 298.025,313.784 296.5,315.5C 286.71,321.991 275.877,324.991 264,324.5C 252.719,324.963 242.886,321.463 234.5,314C 243.09,315.006 251.757,315.506 260.5,315.5C 260.208,306.625 260.542,297.792 261.5,289C 258.086,282.648 253.419,277.482 247.5,273.5C 253.833,271.715 259.666,272.715 265,276.5C 269.586,272.958 274.753,270.625 280.5,269.5C 281.932,269.733 282.432,270.4 282,271.5C 277.308,277.359 272.808,283.359 268.5,289.5C 267.415,298.153 267.415,306.819 268.5,315.5C 279.262,315.203 289.595,313.203 299.5,309.5 Z"/></g>
<g><path style="opacity:1" fill="#faeee1" d="M 311.5,348.5 C 315.792,348.809 317.459,351.142 316.5,355.5C 316.537,364.297 312.204,368.464 303.5,368C 301.844,369.829 299.844,371.163 297.5,372C 292.442,373.01 287.609,372.51 283,370.5C 282.28,368.888 282.446,367.388 283.5,366C 287.47,366.326 291.47,366.326 295.5,366C 297.708,364.164 299.042,361.831 299.5,359C 302.707,358.585 305.707,358.918 308.5,360C 308.941,355.935 309.941,352.102 311.5,348.5 Z"/></g>
<g><path style="opacity:1" fill="#c8daff" d="M 329.5,351.5 C 329.399,361.852 329.733,372.185 330.5,382.5C 328.993,376.573 328.326,370.406 328.5,364C 328.501,359.653 328.834,355.486 329.5,351.5 Z"/></g>
<g><path style="opacity:1" fill="#faefe2" d="M 203.5,379.5 C 205.5,379.5 207.5,379.5 209.5,379.5C 208.45,389.622 212.95,395.622 223,397.5C 225.562,396.612 227.896,395.279 230,393.5C 230.873,393.735 231.707,394.069 232.5,394.5C 234.562,398.969 236.062,403.636 237,408.5C 242.848,416.233 249.014,416.399 255.5,409C 262.878,409.154 263.545,411.821 257.5,417C 247.899,423.816 239.399,422.65 232,413.5C 229.743,410.562 228.576,407.229 228.5,403.5C 216.257,404.626 207.424,399.626 202,388.5C 201.207,385.259 201.707,382.259 203.5,379.5 Z"/></g>
<g><path style="opacity:1" fill="#faefe2" d="M 322.5,481.5 C 326.509,481.014 328.342,482.68 328,486.5C 324.57,490.917 320.07,492.584 314.5,491.5C 313.363,496.106 310.363,498.94 305.5,500C 301.299,500.922 297.299,500.422 293.5,498.5C 292.386,497.277 292.219,495.944 293,494.5C 297.08,493.7 301.247,493.2 305.5,493C 307.023,490.566 308.023,487.899 308.5,485C 312.157,485.108 315.823,485.108 319.5,485C 320.71,483.961 321.71,482.794 322.5,481.5 Z"/></g>
</svg>
