<?xml version="1.0" encoding="UTF-8"?>
<svg version="1.1" xmlns="http://www.w3.org/2000/svg" width="512" height="512">
<path d="M0 0 C0.77400146 0.00563965 1.54800293 0.0112793 2.34545898 0.01708984 C49.42230347 0.94349243 96.88474225 17.21793412 133.3125 47.3125 C134.32957031 48.1271875 135.34664062 48.941875 136.39453125 49.78125 C150.64071492 61.34426623 163.52885561 74.46545338 174.3125 89.3125 C175.42431641 90.80716797 175.42431641 90.80716797 176.55859375 92.33203125 C210.48636919 139.44386204 224.03194434 198.91622317 214.85595703 256.16064453 C207.98859845 297.10751744 190.81323288 334.224715 163.3125 365.3125 C162.22388672 366.58480469 162.22388672 366.58480469 161.11328125 367.8828125 C150.46662747 380.12351241 136.96755718 393.98497141 122.3125 401.3125 C123.53767334 401.32708252 124.76284668 401.34166504 126.02514648 401.35668945 C130.60453339 401.41500298 135.18344548 401.49223219 139.76245117 401.57495117 C141.73795826 401.6080458 143.71355639 401.63612504 145.68920898 401.65893555 C148.54189572 401.69276756 151.39375965 401.7450957 154.24609375 401.80078125 C155.11834091 401.80717117 155.99058807 401.8135611 156.88926697 401.82014465 C163.46164004 401.97498382 170.18777888 402.82178027 175.46875 407.03125 C176.13390625 407.91296875 176.13390625 407.91296875 176.8125 408.8125 C177.2765625 409.4003125 177.740625 409.988125 178.21875 410.59375 C181.52848106 415.79475594 180.93247683 422.41227108 180.3125 428.3125 C178.68795878 432.67382021 176.44116007 435.45912287 172.75 438.25 C169.13478224 439.82586415 165.98620819 440.43665682 162.05096436 440.45967102 C161.20719742 440.46682632 160.36343048 440.47398163 159.49409485 440.48135376 C158.57661972 440.48404266 157.65914459 440.48673157 156.71386719 440.48950195 C155.7410228 440.49607315 154.76817841 440.50264435 153.76585388 440.50941467 C150.54702678 440.52912175 147.32824627 440.54080436 144.109375 440.55078125 C143.0087397 440.55485678 141.9081044 440.5589323 140.77411652 440.56313133 C134.94885954 440.58398072 129.12362605 440.59828753 123.29833984 440.60766602 C117.28825839 440.61872982 111.27854723 440.65313301 105.26859665 440.69283772 C100.64110637 440.71900698 96.01370431 440.72735814 91.38614655 440.73094749 C89.17102812 440.73581237 86.95591361 440.74742347 84.74086761 440.76598549 C81.63651831 440.79038352 78.53312716 440.78941042 75.42871094 440.7824707 C74.06464363 440.80168579 74.06464363 440.80168579 72.67301941 440.82128906 C65.52884128 440.7632713 60.1177035 439.04388235 54.9375 434 C51.20848075 427.83277585 51.01781289 421.77147245 51.0378418 414.75634766 C51.03273087 413.82368576 51.02761993 412.89102386 51.02235413 411.93009949 C51.00851063 408.86218764 51.00941103 405.79450178 51.01171875 402.7265625 C51.00782883 400.58336301 51.00349355 398.44016429 50.99873352 396.29696655 C50.99128248 391.80993142 50.99155443 387.32297499 50.99682617 382.8359375 C51.00261798 377.10072805 50.98569115 371.36584184 50.9624815 365.63068581 C50.9477121 361.20559828 50.94687685 356.78058801 50.94999123 352.35548019 C50.94947959 350.24168635 50.94427152 348.12788801 50.93417931 346.01411819 C50.92177067 343.05168217 50.9286333 340.08986831 50.94018555 337.12744141 C50.93254181 336.26377457 50.92489807 335.40010773 50.91702271 334.51026917 C50.96941867 328.39671656 51.56138126 321.57167233 55.65821362 316.71827126 C61.04447867 311.98716589 65.84345972 310.89026941 72.81640625 311.06640625 C77.96726494 311.57423739 81.71979496 313.34674548 85.125 317.1875 C88.26567978 321.67418539 89.5515087 325.18459574 89.63134766 330.65356445 C89.65121735 331.6942659 89.67108704 332.73496735 89.69155884 333.8072052 C89.70311005 334.9188353 89.71466125 336.03046539 89.7265625 337.17578125 C89.74592865 338.32290085 89.7652948 339.47002045 89.7852478 340.65190125 C89.84494467 344.3095256 89.89139002 347.96718159 89.9375 351.625 C89.97568883 354.10743547 90.01474108 356.58985782 90.0546875 359.07226562 C90.15063819 365.15222712 90.23571478 371.23226789 90.3125 377.3125 C92.69344566 375.74390587 95.07194863 374.17180396 97.44921875 372.59765625 C98.11594604 372.15893188 98.78267334 371.72020752 99.46960449 371.26818848 C109.15501649 364.84385796 117.80018594 357.2073405 126.3125 349.3125 C127.20001953 348.50619141 127.20001953 348.50619141 128.10546875 347.68359375 C152.74652447 324.33019415 168.20757974 291.02129474 175.3125 258.3125 C175.47621094 257.58434082 175.63992188 256.85618164 175.80859375 256.10595703 C181.11641496 231.44761822 179.98678735 203.76275708 174.3125 179.3125 C174.13058105 178.50619141 173.94866211 177.69988281 173.76123047 176.86914062 C163.29681295 131.7945272 133.79350665 92.4127016 95.3125 67.3125 C90.10337131 64.08362551 84.74603475 61.14415555 79.3125 58.3125 C78.40661133 57.83901123 78.40661133 57.83901123 77.48242188 57.35595703 C53.90668756 45.23813311 28.07175923 39.445504 1.68554688 38.8828125 C-5.23970068 38.62651961 -10.94336303 37.50780958 -16.5 33.0625 C-20.35168229 28.22038512 -22.26047399 23.6314407 -21.96875 17.359375 C-21.25751889 12.18319304 -19.80265434 7.9443109 -15.8125 4.4375 C-10.54928804 0.85851587 -6.30926979 -0.04965136 0 0 Z " fill="#69AFE6" transform="translate(258.6875,35.6875)"/>
<path d="M0 0 C1.26565041 -0.01073296 1.26565041 -0.01073296 2.55686951 -0.02168274 C3.47434464 -0.02437164 4.39181976 -0.02706055 5.33709717 -0.02983093 C6.79636375 -0.03968773 6.79636375 -0.03968773 8.28511047 -0.04974365 C11.50393758 -0.06945072 14.72271808 -0.08113334 17.94158936 -0.09111023 C19.04222466 -0.09518576 20.14285995 -0.09926128 21.27684784 -0.10346031 C27.10210481 -0.1243097 32.92733831 -0.13861651 38.75262451 -0.147995 C44.76270596 -0.1590588 50.77241713 -0.19346199 56.78236771 -0.23316669 C61.40985798 -0.25933596 66.03726004 -0.26768712 70.66481781 -0.27127647 C72.87993623 -0.27614135 75.09505075 -0.28775245 77.31009674 -0.30631447 C80.41444605 -0.3307125 83.51783719 -0.3297394 86.62225342 -0.32279968 C87.53163162 -0.33560974 88.44100983 -0.3484198 89.37794495 -0.36161804 C96.52212307 -0.30360028 101.93326086 1.41578867 107.11346436 6.45967102 C110.84248361 12.62689517 111.03315147 18.68819858 111.01312256 25.70332336 C111.01823349 26.63598526 111.02334442 27.56864716 111.02861023 28.52957153 C111.04245373 31.59748338 111.04155333 34.66516924 111.03924561 37.73310852 C111.04313553 39.87630801 111.04747081 42.01950673 111.05223083 44.16270447 C111.05968187 48.6497396 111.05940993 53.13669603 111.05413818 57.62373352 C111.04834638 63.35894297 111.06527321 69.09382918 111.08848286 74.82898521 C111.10325225 79.25407274 111.1040875 83.67908301 111.10097313 88.10419083 C111.10148477 90.21798467 111.10669283 92.33178301 111.11678505 94.44555283 C111.12919368 97.40798885 111.12233106 100.36980271 111.11077881 103.33222961 C111.11842255 104.19589645 111.12606628 105.05956329 111.13394165 105.94940186 C111.08154568 112.06295447 110.4895831 118.88799869 106.39275074 123.74139977 C101.00424117 128.47447664 96.20849893 129.56297051 89.23455811 129.39717102 C84.20025188 128.89295256 80.77973229 127.00332466 76.92596436 123.83467102 C71.91035752 117.67263976 72.40357882 110.77044819 72.32440186 103.18623352 C72.30503571 102.04052887 72.28566956 100.89482422 72.26571655 99.71440125 C72.2060965 96.06706611 72.15960518 92.41969912 72.11346436 88.77217102 C72.07526846 86.29429293 72.03621579 83.81642788 71.99627686 81.33857727 C71.90040933 75.2748913 71.8153105 69.21112628 71.73846436 63.14717102 C69.35380394 64.7199518 66.97135096 66.29591515 64.59002686 67.87373352 C63.92172852 68.31402893 63.25343018 68.75432434 62.56488037 69.20796204 C56.62363477 73.15062349 51.10794022 77.45175204 45.73846436 82.14717102 C45.23105713 82.587547 44.7236499 83.02792297 44.2008667 83.48164368 C9.71918757 113.60465416 -11.69830608 156.61792906 -16.26153564 202.14717102 C-17.20357599 222.053458 -16.78164583 241.67021309 -12.26153564 261.14717102 C-12.0796167 261.95347961 -11.89769775 262.75978821 -11.71026611 263.5905304 C-1.2765747 308.53279368 28.21850746 348.24653271 66.73846436 373.14717102 C95.37762073 390.7165592 127.00011974 401.01783748 160.68695068 401.63032532 C167.49427461 401.84230386 173.0946782 403.0321421 178.55096436 407.39717102 C182.40264665 412.23928591 184.31143834 416.82823032 184.01971436 423.10029602 C183.30848325 428.27647798 181.85361869 432.51536012 177.86346436 436.02217102 C172.6002524 439.60115515 168.36023414 440.50932238 162.05096436 440.45967102 C161.27696289 440.45403137 160.50296143 440.44839172 159.70550537 440.44258118 C125.85560136 439.77646519 92.49447715 431.2838208 62.73846436 415.14717102 C62.09248291 414.80605286 61.44650146 414.46493469 60.78094482 414.11347961 C32.19555904 399.00818223 6.81214004 377.27549388 -12.26153564 351.14717102 C-12.89059814 350.30154602 -13.51966064 349.45592102 -14.16778564 348.58467102 C-48.30650675 301.41116549 -61.95299282 241.65751032 -52.80499268 184.25312805 C-48.73884159 161.01432567 -41.51030836 138.88992924 -30.26153564 118.14717102 C-29.92041748 117.50118958 -29.57929932 116.85520813 -29.22784424 116.18965149 C-13.52527239 86.47397873 9.10605399 60.98795265 36.43963623 41.4992218 C37.06027954 41.05651947 37.68092285 40.61381714 38.32037354 40.15769958 C38.78834351 39.82422516 39.25631348 39.49075073 39.73846436 39.14717102 C38.51329102 39.1325885 37.28811768 39.11800598 36.02581787 39.10298157 C31.44643096 39.04466804 26.86751887 38.96743883 22.28851318 38.88471985 C20.3130061 38.85162522 18.33740797 38.82354598 16.36175537 38.80073547 C13.50906864 38.76690346 10.6572047 38.71457532 7.80487061 38.65888977 C6.93262344 38.65249985 6.06037628 38.64610992 5.16169739 38.63952637 C-1.41067568 38.4846872 -8.13681453 37.63789075 -13.41778564 33.42842102 C-13.86122314 32.84060852 -14.30466064 32.25279602 -14.76153564 31.64717102 C-15.22559814 31.05935852 -15.68966064 30.47154602 -16.16778564 29.86592102 C-19.4775167 24.66491508 -18.88151247 18.04739994 -18.26153564 12.14717102 C-16.63699442 7.78585081 -14.39019571 5.00054815 -10.69903564 2.20967102 C-7.08381788 0.63380687 -3.93524384 0.0230142 0 0 Z " fill="#69AFE6" transform="translate(91.26153564453125,35.85282897949219)"/>
<path d="M0 0 C5.13279389 2.79607449 9.080611 6.866833 10.9375 12.4375 C11.08069551 14.03743443 11.15789526 15.64394312 11.1875 17.25 C11.22617187 18.49716797 11.22617187 18.49716797 11.265625 19.76953125 C10.50918822 25.92008265 6.78345204 30.0294953 2.529953 34.23272705 C1.98442711 34.78363848 1.43890121 35.33454992 0.87684423 35.90215564 C-0.94459048 37.73784545 -2.77650783 39.56268943 -4.60864258 41.38769531 C-5.92014563 42.7049031 -7.23101748 44.02273961 -8.54130554 45.34115601 C-12.09629515 48.91407822 -15.66077429 52.47738779 -19.2275908 56.03849888 C-22.20517013 59.01298725 -25.17814696 61.99205446 -28.15115947 64.97110629 C-35.16401274 71.99800284 -42.18463643 79.01706812 -49.21020508 86.03125 C-56.45818888 93.26774598 -63.69328921 100.51694042 -70.92212182 107.77256322 C-77.13069009 114.00327757 -83.34697686 120.22621528 -89.56956404 126.44292903 C-93.28531394 130.15530639 -96.9980991 133.87052981 -100.70356178 137.5931778 C-104.18712647 141.09219247 -107.68023647 144.58138722 -111.18094063 148.0632515 C-112.46389878 149.34251878 -113.74345771 150.62520556 -115.0193367 151.91153336 C-116.76179729 153.66717028 -118.51613199 155.41001945 -120.27400208 157.15020752 C-120.77586574 157.66167619 -121.2777294 158.17314486 -121.79480106 158.70011258 C-125.99108843 162.81003788 -129.71680696 164.22425518 -135.5 164.75 C-149.00619345 163.56524619 -158.53918432 150.13863668 -167.6171875 141.12109375 C-168.14361973 140.59873705 -168.67005196 140.07638035 -169.21243668 139.53819466 C-171.98859585 136.7826743 -174.761627 134.02404923 -177.53222656 131.26293945 C-180.37483576 128.43146573 -183.2289576 125.61188904 -186.08567619 122.79466152 C-188.30236329 120.60419035 -190.51005014 118.40481118 -192.71545792 116.20298958 C-193.76377532 115.1595098 -194.81543834 114.11937896 -195.87063217 113.08285332 C-208.0412605 101.11462666 -208.0412605 101.11462666 -209.55859375 92.6796875 C-209.41023377 86.68594439 -208.82746746 82.34211228 -204.515625 77.8125 C-200.4044707 74.02878277 -196.67802489 71.48318353 -190.8984375 71.41015625 C-180.82349998 72.06721739 -175.27781967 78.9461572 -168.5078125 85.796875 C-167.60626434 86.70125305 -166.70471619 87.6056311 -165.77584839 88.53741455 C-163.39507905 90.92745 -161.01873912 93.32171897 -158.64447021 95.71820068 C-156.21457429 98.16865875 -153.77891395 100.61337275 -151.34375 103.05859375 C-146.57803337 107.84631611 -141.8180782 112.63970828 -137.0625 117.4375 C-133.43748365 115.90669593 -131.13658382 113.75138808 -128.37663269 110.97195435 C-127.92079609 110.51570989 -127.46495948 110.05946544 -126.99530965 109.5893954 C-125.47148882 108.06184889 -123.95494083 106.527282 -122.43823242 104.99267578 C-121.34601879 103.89498569 -120.25334038 102.79775788 -119.16023254 101.70095825 C-116.80786241 99.33887897 -114.45858772 96.97377812 -112.11159325 94.60635757 C-108.39771425 90.86064946 -104.67567307 87.1231249 -100.95222473 83.38693237 C-91.70329474 74.10392228 -82.46364997 64.81168487 -73.22894287 55.51452637 C-66.05500228 48.292094 -58.87788054 41.07289582 -51.6901291 33.86420429 C-47.99092576 30.15349828 -44.29876946 26.43596416 -40.61178815 22.71311593 C-38.31198324 20.3940661 -36.00589489 18.08134376 -33.69804192 15.77030563 C-32.63241252 14.70067026 -31.56935865 13.62846157 -30.50915146 12.55345154 C-12.56464005 -5.63242485 -12.56464005 -5.63242485 0 0 Z " fill="#1D4776" transform="translate(355.0625,174.5625)"/>
</svg>
