<?xml version="1.0" encoding="UTF-8"?>
<svg version="1.1" xmlns="http://www.w3.org/2000/svg" width="512" height="512">
<path d="M0 0 C1.06863281 -0.03996094 2.13726562 -0.07992187 3.23828125 -0.12109375 C12.57183973 1.39045649 19.22929562 9.43601033 25.71809387 15.75068665 C26.8189357 16.81221798 27.92031015 17.87319719 29.02216738 18.93367451 C32.03713685 21.83943361 35.04291818 24.75453613 38.04683793 27.67171156 C39.97145747 29.53925142 41.89868674 31.40405639 43.82682991 33.26795769 C69.21056655 57.80601522 94.40952346 82.53368078 119.55650806 107.31406879 C122.75866409 110.46870021 125.96128228 113.62286158 129.16430664 116.77661133 C129.96016624 117.56026497 130.75602583 118.34391862 131.57600238 119.15131935 C144.34874273 131.72253391 157.21621708 144.19201887 170.12491874 156.62341402 C183.46262982 169.4721197 196.69232307 182.42528456 209.83357543 195.4748742 C217.18079421 202.765339 224.56443771 210.00599689 232.07441139 217.1290226 C271.7848216 254.85537943 294.51472388 288.65530166 308.15828329 342.09987026 C311.05699473 353.45372773 314.5816459 364.44251847 318.65680665 375.42853183 C322.38490782 385.65535562 322.38490782 385.65535562 321.6875 391.4375 C320.6875 392.4375 320.6875 392.4375 317.56451416 392.63153076 C313.52449169 392.42934201 310.47474426 391.6384798 306.65527344 390.33300781 C305.98870728 390.10844406 305.32214111 389.88388031 304.63537598 389.6525116 C302.43564469 388.9086093 300.24140134 388.14973073 298.046875 387.390625 C296.48194017 386.8579496 294.91668643 386.32621032 293.35113525 385.79534912 C289.21195023 384.3889475 285.07725021 382.9697878 280.94335938 381.5479126 C276.87371128 380.15055705 272.7999745 378.76524243 268.7265625 377.37890625 C264.06852877 375.79208335 259.41094966 374.20396532 254.75579834 372.60870361 C254.07834863 372.3776451 253.40089892 372.14658659 252.70292044 371.9085263 C251.18394747 371.38477087 249.66803108 370.85201989 248.15613079 370.30818522 C243.49235351 368.65271013 238.82936302 367.18307907 234.04267474 365.92049824 C209.86343662 359.47482996 194.88040983 348.98691699 177.67348719 331.13697362 C174.40913762 327.7775066 171.07653382 324.48675837 167.7527771 321.18624878 C161.29260627 314.75098687 154.89422973 308.25762872 148.51538038 301.74186094 C141.07145227 294.14373625 133.56261924 286.61109346 126.05019128 279.08079068 C112.65435722 265.6494413 99.31149865 252.16673712 86.00097656 238.65087891 C73.09910182 225.55016167 60.16875053 212.47856084 47.20214844 199.44189453 C46.40057717 198.63597684 45.59900591 197.83005914 44.7731446 196.99971969 C41.55056935 193.75985473 38.32785555 190.52012767 35.10494322 187.28059802 C20.4707516 172.57002038 5.85700123 157.83913485 -8.75 143.1015625 C-9.49047844 142.35452484 -10.23095689 141.60748717 -10.99387407 140.83781201 C-20.23234109 131.51662224 -29.46062077 122.18553092 -38.67225266 112.83781815 C-41.23818121 110.2344187 -43.80743957 107.63437976 -46.37981033 105.03734589 C-49.33845764 102.04998928 -52.28999851 99.05579629 -55.2359165 96.05588762 C-56.30302438 94.97153004 -57.3726109 93.889605 -58.44489539 92.81036611 C-59.90130386 91.34364983 -61.34826502 89.86820263 -62.79319763 88.39019203 C-63.59935737 87.57270379 -64.4055171 86.75521554 -65.23610592 85.91295493 C-69.21623905 81.16788257 -70.73149043 77.09616074 -70.6875 70.9375 C-70.69523437 69.8546875 -70.70296875 68.771875 -70.7109375 67.65625 C-69.91309133 61.21090445 -66.39458298 57.07747945 -61.91064453 52.64746094 C-61.37203796 52.10359741 -60.8334314 51.55973389 -60.27850342 50.99938965 C-58.50820957 49.21596525 -56.72725552 47.44365424 -54.9453125 45.671875 C-53.70560571 44.43014578 -52.46634442 43.18797164 -51.22750854 41.94537354 C-48.63487346 39.34832475 -46.03691321 36.75675646 -43.43505859 34.16894531 C-40.10370244 30.8546981 -36.78602002 27.52714022 -33.47220039 24.19536972 C-30.9176954 21.63001651 -28.35607862 19.07186096 -25.79226303 16.51581573 C-24.56607832 15.29162922 -23.34210981 14.06521865 -22.12042618 12.83654022 C-20.41182775 11.12030852 -18.69388098 9.41401107 -16.97314453 7.70996094 C-16.47219269 7.2029364 -15.97124084 6.69591187 -15.45510864 6.17352295 C-10.64573718 1.45003312 -6.65439951 0.13547879 0 0 Z " fill="#F9C65F" transform="translate(130.3125,59.5625)"/>
<path d="M0 0 C1.06863281 -0.03996094 2.13726562 -0.07992187 3.23828125 -0.12109375 C12.57183973 1.39045649 19.22929562 9.43601033 25.71809387 15.75068665 C26.8189357 16.81221798 27.92031015 17.87319719 29.02216738 18.93367451 C32.03713685 21.83943361 35.04291818 24.75453613 38.04683793 27.67171156 C39.97145747 29.53925142 41.89868674 31.40405639 43.82682991 33.26795769 C69.21056655 57.80601522 94.40952346 82.53368078 119.55650806 107.31406879 C122.75866409 110.46870021 125.96128228 113.62286158 129.16430664 116.77661133 C129.96016624 117.56026497 130.75602583 118.34391862 131.57600238 119.15131935 C144.34874273 131.72253391 157.21621708 144.19201887 170.12491874 156.62341402 C183.46262982 169.4721197 196.69232307 182.42528456 209.83357543 195.4748742 C217.18079421 202.765339 224.56443771 210.00599689 232.07441139 217.1290226 C271.7848216 254.85537943 294.51472388 288.65530166 308.15828329 342.09987026 C311.05699473 353.45372773 314.5816459 364.44251847 318.65680665 375.42853183 C322.38490782 385.65535562 322.38490782 385.65535562 321.6875 391.4375 C320.6875 392.4375 320.6875 392.4375 317.56451416 392.63153076 C313.52449169 392.42934201 310.47474426 391.6384798 306.65527344 390.33300781 C305.98870728 390.10844406 305.32214111 389.88388031 304.63537598 389.6525116 C302.43564469 388.9086093 300.24140134 388.14973073 298.046875 387.390625 C296.48194017 386.8579496 294.91668643 386.32621032 293.35113525 385.79534912 C289.21195023 384.3889475 285.07725021 382.9697878 280.94335938 381.5479126 C276.87371128 380.15055705 272.7999745 378.76524243 268.7265625 377.37890625 C264.06852877 375.79208335 259.41094966 374.20396532 254.75579834 372.60870361 C254.07834863 372.3776451 253.40089892 372.14658659 252.70292044 371.9085263 C251.18394747 371.38477087 249.66803108 370.85201989 248.15613079 370.30818522 C243.49235351 368.65271013 238.82936302 367.18307907 234.04267474 365.92049824 C209.86343662 359.47482996 194.88040983 348.98691699 177.67348719 331.13697362 C174.40913762 327.7775066 171.07653382 324.48675837 167.7527771 321.18624878 C161.29260627 314.75098687 154.89422973 308.25762872 148.51538038 301.74186094 C141.07145227 294.14373625 133.56261924 286.61109346 126.05019128 279.08079068 C112.65435722 265.6494413 99.31149865 252.16673712 86.00097656 238.65087891 C73.09910182 225.55016167 60.16875053 212.47856084 47.20214844 199.44189453 C46.40057717 198.63597684 45.59900591 197.83005914 44.7731446 196.99971969 C41.55056935 193.75985473 38.32785555 190.52012767 35.10494322 187.28059802 C20.4707516 172.57002038 5.85700123 157.83913485 -8.75 143.1015625 C-9.49047844 142.35452484 -10.23095689 141.60748717 -10.99387407 140.83781201 C-20.23234109 131.51662224 -29.46062077 122.18553092 -38.67225266 112.83781815 C-41.23818121 110.2344187 -43.80743957 107.63437976 -46.37981033 105.03734589 C-49.33845764 102.04998928 -52.28999851 99.05579629 -55.2359165 96.05588762 C-56.30302438 94.97153004 -57.3726109 93.889605 -58.44489539 92.81036611 C-59.90130386 91.34364983 -61.34826502 89.86820263 -62.79319763 88.39019203 C-63.59935737 87.57270379 -64.4055171 86.75521554 -65.23610592 85.91295493 C-69.21623905 81.16788257 -70.73149043 77.09616074 -70.6875 70.9375 C-70.69523437 69.8546875 -70.70296875 68.771875 -70.7109375 67.65625 C-69.91309133 61.21090445 -66.39458298 57.07747945 -61.91064453 52.64746094 C-61.37203796 52.10359741 -60.8334314 51.55973389 -60.27850342 50.99938965 C-58.50820957 49.21596525 -56.72725552 47.44365424 -54.9453125 45.671875 C-53.70560571 44.43014578 -52.46634442 43.18797164 -51.22750854 41.94537354 C-48.63487346 39.34832475 -46.03691321 36.75675646 -43.43505859 34.16894531 C-40.10370244 30.8546981 -36.78602002 27.52714022 -33.47220039 24.19536972 C-30.9176954 21.63001651 -28.35607862 19.07186096 -25.79226303 16.51581573 C-24.56607832 15.29162922 -23.34210981 14.06521865 -22.12042618 12.83654022 C-20.41182775 11.12030852 -18.69388098 9.41401107 -16.97314453 7.70996094 C-16.47219269 7.2029364 -15.97124084 6.69591187 -15.45510864 6.17352295 C-10.64573718 1.45003312 -6.65439951 0.13547879 0 0 Z M75.31117249 87.68940735 C74.68826828 88.31590683 74.06536407 88.94240631 73.42358398 89.58789062 C72.76994873 90.24137985 72.11631348 90.89486908 71.44287109 91.56816101 C69.270735 93.74099692 67.10216794 95.91735962 64.93359375 98.09375 C63.43308388 99.5961238 61.9323539 101.0982778 60.43141174 102.60021973 C56.47212672 106.56333188 52.51585319 110.52943734 48.56018066 114.49615479 C44.52694664 118.53959876 40.49089758 122.58023062 36.45507812 126.62109375 C28.52978043 134.5571322 20.6076585 142.49633287 12.6875 150.4375 C17.07758611 155.68936165 21.6976941 160.58772818 26.54623413 165.41648865 C27.31906852 166.19017747 28.09190292 166.96386628 28.88815653 167.76100022 C31.46522535 170.33970948 34.04583967 172.91484034 36.62646484 175.48999023 C38.4797579 177.34300108 40.33283052 179.19623243 42.18569946 181.04966736 C46.16840486 185.03289569 50.15292896 189.01429711 54.13871384 192.99444389 C59.90140212 198.74898589 65.66130886 204.50630549 71.42055257 210.26429463 C80.76587932 219.60743578 90.11343446 228.94834416 99.46240234 238.2878418 C108.54105164 247.35730426 117.61864423 256.42782224 126.69482422 265.49975586 C127.25480305 266.05947196 127.81478187 266.61918807 128.39172976 267.19586527 C131.20112857 270.00395899 134.01050669 272.81207341 136.81987453 275.62019813 C160.105876 298.89584229 183.39549861 322.16785995 206.6875 345.4375 C207.78943198 344.50201084 208.89005803 343.56498328 209.99015141 342.62733269 C210.60320607 342.10569538 211.21626074 341.58405807 211.84789282 341.04661357 C214.71567274 338.53815218 217.39756814 335.8586572 220.08178711 333.15673828 C220.6777771 332.56089432 221.27376709 331.96505035 221.88781738 331.35115051 C223.83254295 329.40573528 225.7737148 327.45681586 227.71484375 325.5078125 C229.07225488 324.14853383 230.42988879 322.7894776 231.78773499 321.43063354 C235.34252433 317.87204553 238.89429893 314.31046355 242.44543457 310.74822998 C246.07702638 307.1063668 249.71148832 303.46737037 253.34570312 299.828125 C260.46243271 292.70070489 267.57597777 285.57011559 274.6875 278.4375 C270.29829394 273.18757122 265.68029692 268.28816283 260.835495 263.45851135 C260.06336617 262.68482253 259.29123734 261.91113372 258.49571067 261.11399978 C255.92097597 258.53529252 253.34270104 255.96015519 250.7644043 253.38500977 C248.91274133 251.53199116 247.06129103 249.67876002 245.21003723 247.82533264 C240.71277388 243.32363422 236.21282548 238.82462921 231.71189227 234.32660032 C228.05602916 230.67299846 224.40114676 227.01841824 220.74695778 223.36314201 C219.9659584 222.58191279 219.9659584 222.58191279 219.16918126 221.78490115 C218.11143796 220.72683813 217.05369691 219.66877286 215.99595807 218.61070537 C206.09131568 208.70321527 196.18361689 198.7987862 186.27486185 188.89540952 C177.76605438 180.39107735 169.25988323 171.88411567 160.75561523 163.37524414 C150.87760464 153.49188889 140.99798293 143.61014881 131.11576205 133.73100322 C130.06349374 132.67905346 129.01122751 131.6271016 127.95896339 130.57514763 C127.4412213 130.05755981 126.92347921 129.539972 126.39004796 129.0066997 C122.73466519 125.35218182 119.08044707 121.69650184 115.42667198 118.04037666 C110.51824477 113.12886167 105.60719039 108.21998701 100.69431877 103.31291771 C98.88618234 101.5061099 97.07890811 99.69843881 95.27253342 97.88986969 C92.81884399 95.43347304 90.36213638 92.98013689 87.90458679 90.52760315 C87.18009407 89.80087971 86.45560135 89.07415627 85.70915431 88.3254109 C85.05598508 87.67484943 84.40281586 87.02428795 83.72985363 86.35401249 C83.16238641 85.78670762 82.59491919 85.21940275 82.01025599 84.63490683 C79.03901186 81.94522859 77.60222633 85.4039265 75.31117249 87.68940735 Z " fill="#3A4B6F" transform="translate(130.3125,59.5625)"/>
<path d="M0 0 C4.41377453 1.85986079 7.45337121 4.08433199 10.81201172 7.47143555 C11.71249237 8.37214279 12.61297302 9.27285004 13.54074097 10.20085144 C14.50388661 11.179313 15.46686496 12.15793926 16.4296875 13.13671875 C17.42936448 14.14199764 18.42971083 15.14661128 19.43069458 16.15058899 C22.05126532 18.78256166 24.66269729 21.42342047 27.27227783 24.06628418 C29.94164362 26.76645151 32.61962411 29.45804534 35.296875 32.15039062 C40.53968039 37.42527798 45.77285325 42.7095904 51 48 C49.34395113 52.29505763 46.10451694 55.16153042 42.89794922 58.32910156 C42.27342865 58.95391418 41.64890808 59.57872681 41.00546265 60.22247314 C38.9432435 62.28330069 36.8740341 64.33695653 34.8046875 66.390625 C33.37221453 67.81936725 31.94018293 69.24855215 30.50857544 70.67816162 C26.74168516 74.43742017 22.96882707 78.19063357 19.19470215 81.94262695 C15.34363269 85.77322817 11.49822729 89.60950595 7.65234375 93.4453125 C0.10710066 100.96911378 -7.44445811 108.48654202 -15 116 C-18.49741457 114.49971277 -20.77222695 112.48627169 -23.46142578 109.81323242 C-24.33558136 108.94860886 -25.20973694 108.08398529 -26.11038208 107.19316101 C-27.05568858 106.24759308 -28.00065726 105.30168732 -28.9453125 104.35546875 C-29.92107606 103.38359446 -30.89706214 102.41194354 -31.8732605 101.44050598 C-33.91583679 99.40538196 -35.95450652 97.36643796 -37.99072266 95.32495117 C-40.5960368 92.71384202 -43.21253945 90.11427641 -45.83232307 87.51769543 C-47.85018588 85.51458855 -49.86105345 83.50457158 -51.8699913 81.49251747 C-52.83167868 80.53134231 -53.7957219 79.57251812 -54.76218033 78.61614037 C-56.11441984 77.27628357 -57.4561227 75.92581818 -58.79736328 74.57495117 C-59.56251251 73.81043137 -60.32766174 73.04591156 -61.11599731 72.25822449 C-63.89856019 68.92295767 -64.84178607 65.93170425 -65.5625 61.6875 C-64.16036714 52.49574015 -53.08595458 44.93898093 -46.66796875 38.53515625 C-45.5840268 37.45053933 -44.50023322 36.36577412 -43.4165802 35.28086853 C-41.1615814 33.02440563 -38.9048093 30.76973599 -36.64672852 28.51635742 C-33.75034593 25.62571268 -30.8585318 22.73054545 -27.96799755 19.83405399 C-25.7385217 17.60097263 -23.50667972 15.37026838 -21.27410316 13.1402874 C-20.20602307 12.07287448 -19.13868557 11.00471796 -18.0721035 9.93580818 C-16.58847546 8.44964937 -15.10169552 6.96671846 -13.61401367 5.48461914 C-12.76908859 4.64048965 -11.92416351 3.79636017 -11.05363464 2.926651 C-7.44855184 -0.45551652 -4.88160456 -0.3254403 0 0 Z " fill="#F46D75" transform="translate(133,68)"/>
<path d="M0 0 C0.99 0.33 1.98 0.66 3 1 C4.07647289 3.32693848 4.94961762 5.53964646 5.76953125 7.95703125 C6.13651375 9.00608894 6.13651375 9.00608894 6.51091003 10.07633972 C7.02520229 11.55803175 7.5333706 13.04186134 8.03588867 14.52758789 C8.80820903 16.7998753 9.60868978 19.06081562 10.41210938 21.32226562 C10.90799165 22.76242232 11.40218877 24.20316058 11.89453125 25.64453125 C12.13605423 26.32070999 12.37757721 26.99688873 12.62641907 27.69355774 C14.20064334 32.45392796 14.20064334 32.45392796 13.27815247 34.96458435 C11.82750627 37.27469057 10.22059162 39.01927984 8.28466797 40.94238281 C7.52403046 41.70286926 6.76339294 42.46335571 5.97970581 43.24688721 C4.74838425 44.46272491 4.74838425 44.46272491 3.4921875 45.703125 C2.65156769 46.54091492 1.81094788 47.37870483 0.94485474 48.24188232 C-1.74044001 50.91598431 -4.43260655 53.58304724 -7.125 56.25 C-8.94707155 58.06204062 -10.76869177 59.87453518 -12.58984375 61.6875 C-17.05467252 66.13028036 -21.52516283 70.56730165 -26 75 C-31.81868136 73.44289038 -37.61394823 71.88148706 -43.32421875 69.95703125 C-44.37158203 69.60576172 -45.41894531 69.25449219 -46.49804688 68.89257812 C-47.55056641 68.53615234 -48.60308594 68.17972656 -49.6875 67.8125 C-51.33008789 67.26045898 -51.33008789 67.26045898 -53.00585938 66.69726562 C-55.67152163 65.80095124 -58.3361985 64.90182617 -61 64 C-61 60.24382476 -59.68051698 59.32775865 -57.12886047 56.75559998 C-56.55846542 56.19599075 -55.98807037 55.63638153 -55.40039062 55.05981445 C-54.80542282 54.46440857 -54.21045502 53.86900269 -53.59745789 53.2555542 C-51.62408125 51.28427185 -49.64028181 49.32383441 -47.65625 47.36328125 C-46.28796312 46.00058803 -44.92033598 44.63723207 -43.55334473 43.27323914 C-39.94971205 39.68107328 -36.33716167 36.09800615 -32.72271729 32.51672363 C-29.03760953 28.86227704 -25.36095587 25.19934716 -21.68359375 21.53710938 C-14.46400513 14.34971733 -7.23497268 7.17190359 0 0 Z " fill="#EAD3A6" transform="translate(407,346)"/>
<path d="M0 0 C1.12120157 0.9550972 2.24156401 1.91117951 3.36157227 2.86767578 C3.98556412 3.3999881 4.60955597 3.93230042 5.25245667 4.48074341 C7.23224136 6.20190298 9.10154154 8.001573 10.9375 9.875 C11.52402344 10.47054687 12.11054688 11.06609375 12.71484375 11.6796875 C13.35099609 12.33324219 13.35099609 12.33324219 14 13 C12.34395113 17.29505763 9.10451694 20.16153042 5.89794922 23.32910156 C4.96116837 24.2663205 4.96116837 24.2663205 4.00546265 25.22247314 C1.9432435 27.28330069 -0.1259659 29.33695653 -2.1953125 31.390625 C-3.62778547 32.81936725 -5.05981707 34.24855215 -6.49142456 35.67816162 C-10.25831484 39.43742017 -14.03117293 43.19063357 -17.80529785 46.94262695 C-21.65636731 50.77322817 -25.50177271 54.60950595 -29.34765625 58.4453125 C-36.89289934 65.96911378 -44.44445811 73.48654202 -52 81 C-56.00374431 79.16307611 -58.71957934 76.50882084 -61.75 73.375 C-62.25660156 72.859375 -62.76320313 72.34375 -63.28515625 71.8125 C-64.52803902 70.54616661 -65.76465276 69.2736856 -67 68 C-63.09516632 63.32700305 -59.03853642 58.89671582 -54.71923828 54.60571289 C-54.12339432 54.0097229 -53.52755035 53.41373291 -52.91365051 52.79968262 C-50.96823528 50.85495705 -49.01931586 48.9137852 -47.0703125 46.97265625 C-45.71103383 45.61524512 -44.3519776 44.25761121 -42.99313354 42.89976501 C-39.43454553 39.34497567 -35.87296355 35.79320107 -32.31072998 32.24206543 C-28.6688668 28.61047362 -25.02987037 24.97601168 -21.390625 21.34179688 C-14.26320489 14.22506729 -7.13261559 7.11152223 0 0 Z " fill="#E5E4E3" transform="translate(190,123)"/>
<path d="M0 0 C2.70880729 1.35440364 2.7320449 2.54321779 3.69580078 5.38037109 C4.17607224 6.7771962 4.17607224 6.7771962 4.66604614 8.20223999 C5.00570404 9.21573517 5.34536194 10.22923035 5.6953125 11.2734375 C6.04761932 12.30812164 6.39992615 13.34280579 6.76290894 14.40884399 C7.50776388 16.60176288 8.24896229 18.79592658 8.98681641 20.99121094 C10.11883526 24.35667239 11.26354138 27.71761216 12.41015625 31.078125 C13.13096798 33.20547192 13.85104464 35.33306809 14.5703125 37.4609375 C14.91401886 38.47038422 15.25772522 39.47983093 15.61184692 40.51986694 C15.92572357 41.457388 16.23960022 42.39490906 16.56298828 43.36083984 C16.84119415 44.18611176 17.11940002 45.01138367 17.40603638 45.86166382 C18 48 18 48 18 51 C11.52435799 49.67239367 5.3913899 47.91323178 -0.84765625 45.7421875 C-1.74495956 45.43427277 -2.64226288 45.12635803 -3.5667572 44.80911255 C-6.40026089 43.8356224 -9.23139267 42.85543458 -12.0625 41.875 C-13.99659124 41.20918921 -15.93083469 40.54382037 -17.86523438 39.87890625 C-22.57859703 38.25770565 -27.28984626 36.63049891 -32 35 C-32 32 -32 32 -30.78515625 30.4243927 C-30.21667969 29.86257797 -29.64820313 29.30076324 -29.0625 28.72192383 C-28.42183594 28.08148636 -27.78117187 27.44104889 -27.12109375 26.78120422 C-26.42113281 26.09672714 -25.72117187 25.41225006 -25 24.70703125 C-24.28972656 24.00100266 -23.57945312 23.29497406 -22.84765625 22.56755066 C-20.57203004 20.30874981 -18.28620635 18.06058693 -16 15.8125 C-14.45765158 14.28519336 -12.91597594 12.757207 -11.375 11.22851562 C-7.59111171 7.47774779 -3.79879338 3.73566783 0 0 Z " fill="#9B9C9D" transform="translate(423,390)"/>
</svg>
