<?xml version="1.0" encoding="UTF-8"?>
<svg xmlns="http://www.w3.org/2000/svg" viewBox="0 0 212 212" preserveAspectRatio="xMidYMid meet">
<path d="M0 0 C1.0875206 -0.0049649 2.1750412 -0.00992981 3.29551697 -0.01504517 C6.87076466 -0.02957318 10.44596795 -0.03645378 14.02124023 -0.04199219 C15.25072828 -0.04481956 16.48021633 -0.04764694 17.74696159 -0.05056 C23.58715599 -0.06397975 29.42733452 -0.07388509 35.26754338 -0.07776189 C41.29464292 -0.0817872 47.32158608 -0.09402552 53.34863281 -0.12011719 C59.84944604 -0.14781562 66.35012546 -0.16051965 72.85099602 -0.16243744 C75.31347712 -0.16544219 77.77595782 -0.17339599 80.23840523 -0.18662262 C120.57319439 -0.38778148 120.57319439 -0.38778148 135.76733398 13.16113281 C141.52784444 20.24277214 146.89966266 28.07601978 148.76733398 37.16113281 C148.43733398 38.15113281 148.10733398 39.14113281 147.76733398 40.16113281 C148.42733398 40.49113281 149.08733398 40.82113281 149.76733398 41.16113281 C150.5820881 56.18510127 150.91744048 71.15960733 150.90014648 86.20410156 C150.90082249 88.31781526 150.90179497 90.43152888 150.90304565 92.54524231 C150.90450256 96.92071288 150.90242963 101.29616274 150.89770508 105.67163086 C150.8919412 111.28245994 150.89534087 116.89324187 150.90127754 122.50406933 C150.90488071 126.84394186 150.90374686 131.18380306 150.90114975 135.52367592 C150.90048326 137.59497394 150.90129919 139.66627299 150.9036293 141.73756981 C150.906159 144.61080062 150.90231379 147.48395281 150.89672852 150.35717773 C150.89875275 151.20949982 150.90077698 152.0618219 150.90286255 152.93997192 C150.89083499 156.26733281 150.82696176 158.98224949 149.76733398 162.16113281 C149.77293671 163.86996502 149.81937317 165.57884971 149.89233398 167.28613281 C149.94782393 177.85696687 145.22148208 187.86430805 138.45483398 195.91113281 C137.56795898 196.65363281 136.68108398 197.39613281 135.76733398 198.16113281 C135.13182617 198.72445312 134.49631836 199.28777344 133.84155273 199.86816406 C128.27134998 204.56771345 122.73539101 207.12009564 115.76733398 209.16113281 C115.16898585 209.33822155 114.57063772 209.51531029 113.95415783 209.69776535 C111.35423588 210.24866443 108.95638325 210.29338262 106.29768372 210.30157471 C104.63032166 210.31013992 104.63032166 210.31013992 102.92927551 210.31887817 C101.7141478 210.31999603 100.49902008 210.32111389 99.24707031 210.32226562 C97.96371796 210.32723053 96.6803656 210.33219543 95.35812378 210.33731079 C91.83927404 210.35041329 88.32044336 210.35687587 84.80157304 210.36132145 C82.60040104 210.36425643 80.3992342 210.3683621 78.1980648 210.37282562 C71.30334492 210.38649662 64.40863689 210.39616449 57.51390439 210.40002751 C49.56977833 210.40450354 41.62582472 210.42203184 33.68175107 210.45102811 C27.53210788 210.47269087 21.38251305 210.48273428 15.23283213 210.48406863 C11.56438763 210.48511363 7.89610533 210.49095578 4.22770119 210.50888824 C0.12988565 210.52853015 -3.96757215 210.52406172 -8.06542969 210.51757812 C-9.27043625 210.52679291 -10.47544281 210.53600769 -11.71696472 210.54550171 C-20.80071599 210.50056081 -27.76038051 208.66077455 -35.79516602 204.47363281 C-36.64208008 204.03664062 -37.48899414 203.59964844 -38.36157227 203.14941406 C-38.9790332 202.82328125 -39.59649414 202.49714844 -40.23266602 202.16113281 C-40.23266602 201.50113281 -40.23266602 200.84113281 -40.23266602 200.16113281 C-40.81016602 199.92523438 -41.38766602 199.68933594 -41.98266602 199.44628906 C-49.08021768 195.39230556 -53.6697989 186.68952387 -56.23266602 179.16113281 C-58.2227798 171.71468401 -58.52947176 164.47853018 -58.52319336 156.80517578 C-58.5332692 155.01274193 -58.5332692 155.01274193 -58.54354858 153.18409729 C-58.55919547 149.93367847 -58.56589807 146.68341377 -58.56718016 143.43296194 C-58.56861087 141.39283906 -58.57289777 139.35274224 -58.57817459 137.31262589 C-58.59663151 130.16836115 -58.60485106 123.02417059 -58.60327148 115.87988281 C-58.60207271 109.26449412 -58.62313404 102.64943305 -58.65475881 96.03412712 C-58.68108713 90.31905772 -58.69163185 84.60409419 -58.69036067 78.88896477 C-58.68985567 75.49140938 -58.69527745 72.09414536 -58.71671677 68.69665146 C-58.82447839 48.0197978 -58.81838186 29.45193146 -44.10766602 13.41113281 C-31.75579115 1.62260359 -16.21574902 0.01797432 0 0 Z " fill="#3253C0" transform="translate(60.232666015625,1.8388671875)"/>
<path d="M0 0 C8.09754069 0.13060549 12.96413425 2.62797736 19 8 C21.22520036 10.53929425 23.18286644 13.15611211 25 16 C25.37511719 15.46890625 25.75023438 14.9378125 26.13671875 14.390625 C29.95128041 9.12518472 33.75574232 4.41713201 40 2 C41.32 2 42.64 2 44 2 C45.32229189 4.64458379 45.09677194 6.67761301 45.0625 9.625 C45.05347656 10.62789062 45.04445312 11.63078125 45.03515625 12.6640625 C45.02355469 13.43492188 45.01195312 14.20578125 45 15 C42.04335481 16.4783226 39.25770263 16.06032783 36 16 C36.0928125 16.78503906 36.185625 17.57007812 36.28125 18.37890625 C36.86384087 26.85768411 36.86384087 26.85768411 34.21875 30.35546875 C32.21680032 32.06488001 30.22223379 33.59126251 28 35 C32.98963443 37.63783222 38.05682003 37.42387969 43.5625 37.4375 C44.62428467 37.44064209 45.68606934 37.44378418 46.7800293 37.44702148 C62.95652148 37.21950562 80.49936012 35.43449114 96.20825195 31.43823242 C108.48739703 28.43495331 126.28971626 30.51391209 137 37 C142.47432602 43.87473501 142.51117741 52.60852736 142.625 61 C142.64804199 62.01545898 142.67108398 63.03091797 142.69482422 64.07714844 C142.61878448 71.3021308 142.61878448 71.3021308 139.73828125 74.55078125 C138.38283203 75.26814453 138.38283203 75.26814453 137 76 C136.25878906 76.40605469 135.51757812 76.81210938 134.75390625 77.23046875 C130.49283513 79.09136434 126.67992946 80.62560564 122 81 C121.23429687 81.06316406 120.46859375 81.12632812 119.6796875 81.19140625 C109.4895481 81.6518936 99.96214524 78.73190422 91 74 C91 74.99 91 75.98 91 77 C108.0769796 82.97694286 122.50133831 85.69509966 139.34765625 77.8046875 C139.89292969 77.53914063 140.43820313 77.27359375 141 77 C139.97190536 88.82308841 134.47861202 97.99998814 125.83203125 106.0078125 C110.68296878 118.39518747 93.00547237 120.59975141 74 119 C65.31444828 117.70880463 57.00065853 114.53911483 49 111 C49 110.34 49 109.68 49 109 C48.42894531 108.89816406 47.85789063 108.79632813 47.26953125 108.69140625 C38.9526221 106.1576835 31.68412111 97.45248325 27.33984375 90.24609375 C19.20314162 74.91230865 17.70842913 58.28689249 21.85546875 41.48046875 C22.05212338 38.10545005 20.99951702 36.67769018 19 34 C17.23069642 32.16286044 17.23069642 32.16286044 15.25 30.5625 C14.54875 29.96566406 13.8475 29.36882812 13.125 28.75390625 C11.78124556 27.64481481 10.42813015 26.54688538 9.0625 25.46484375 C5.08353429 22.24908483 1.43466202 19.06913915 0 14 C-0.31386863 9.31255208 -0.23415833 4.68967098 0 0 Z " fill="#72AAFD" transform="translate(35,51)"/>
<path d="M0 0 C0.0809313 2.60478883 0.14045434 5.20706653 0.1875 7.8125 C0.21263672 8.55048828 0.23777344 9.28847656 0.26367188 10.04882812 C0.29296875 12.20703125 0.29296875 12.20703125 0 16 C-0.99 16.99 -1.98 17.98 -3 19 C-3 13.72 -3 8.44 -3 3 C-7.08297067 2.20642558 -11.16635607 1.41509633 -15.25 0.625 C-16.38953125 0.40328125 -17.5290625 0.1815625 -18.703125 -0.046875 C-26.1183328 -1.47935832 -33.54392705 -2.79812048 -41 -4 C-40.83701416 -3.41573242 -40.67402832 -2.83146484 -40.50610352 -2.22949219 C-39.75509972 1.07883712 -39.89605939 4.37737159 -39.9375 7.75 C-39.94201172 8.44738281 -39.94652344 9.14476563 -39.95117188 9.86328125 C-39.9628998 11.57555803 -39.98083347 13.28779033 -40 15 C-37.69 15.33 -35.38 15.66 -33 16 C-33 16.33 -33 16.66 -33 17 C-35.31 17 -37.62 17 -40 17 C-40 20.63 -40 24.26 -40 28 C-40.66 28 -41.32 28 -42 28 C-42.33 24.7 -42.66 21.4 -43 18 C-49.93 18.99 -56.86 19.98 -64 21 C-64 25.62 -64 30.24 -64 35 C-64.66 34.67 -65.32 34.34 -66 34 C-66.60809019 29.68026501 -66.74611248 25.35840246 -67 21 C-72.61 21.99 -78.22 22.98 -84 24 C-83.505 31.92 -83.505 31.92 -83 40 C-78.38 40 -73.76 40 -69 40 C-69.66 40.99 -70.32 41.98 -71 43 C-72.87597656 43.37231445 -72.87597656 43.37231445 -75.140625 43.36328125 C-76.37619141 43.36231445 -76.37619141 43.36231445 -77.63671875 43.36132812 C-78.49910156 43.34521484 -79.36148438 43.32910156 -80.25 43.3125 C-81.52037109 43.31733398 -81.52037109 43.31733398 -82.81640625 43.32226562 C-87.59682183 43.2813756 -91.51289556 42.84029937 -96 41 C-92.40270473 36.24643125 -92.40270473 36.24643125 -89.90625 34.71875 C-87.71846693 33.0860586 -87.71846693 33.0860586 -87.390625 30.08203125 C-87.34421875 29.00308594 -87.2978125 27.92414063 -87.25 26.8125 C-87.16492188 25.18248047 -87.16492188 25.18248047 -87.078125 23.51953125 C-87.03945312 22.27236328 -87.03945312 22.27236328 -87 21 C-84.03 20.67 -81.06 20.34 -78 20 C-78.33 15.71 -78.66 11.42 -79 7 C-86.17292399 9.42328513 -90.86764591 11.52694185 -95 18 C-96.37050596 20.74547874 -96.37050596 20.74547874 -97 23 C-97.556875 22.29875 -98.11375 21.5975 -98.6875 20.875 C-99.450625 19.92625 -100.21375 18.9775 -101 18 C-101.7425 17.01 -102.485 16.02 -103.25 15 C-108.53881249 8.74372181 -115.06855884 6.23010777 -123 5 C-122.97385156 14.19117799 -122.5546159 21.19132922 -116 28 C-113.26842131 30.43157871 -110.48494827 32.72795994 -107.5859375 34.95703125 C-101.36814226 39.86927734 -101.36814226 39.86927734 -100.125 43.6875 C-100 47 -100 47 -100.9375 50.75 C-104.43615053 65.08240287 -102.47471134 81.5442285 -95.25 94.375 C-89.99121128 102.33603784 -83.34867553 110.88377482 -74 114 C-74 114.66 -74 115.32 -74 116 C-71.71751589 116.70891271 -69.43135319 117.39753791 -67.13671875 118.06640625 C-65.00226383 118.70169233 -62.87967441 119.37795748 -60.76953125 120.08984375 C-44.08290381 125.29399726 -24.75421726 125.14219181 -8.75 117.75 C3.29803973 111.16061905 11.47375169 102.09669277 16.40625 89.19140625 C17.17434377 86.73493694 17.17434377 86.73493694 17 83 C16.27554688 83.34933594 15.55109375 83.69867188 14.8046875 84.05859375 C4.96529196 88.68966925 4.96529196 88.68966925 0 89 C-0.73992187 89.061875 -1.47984375 89.12375 -2.2421875 89.1875 C-8.21622436 89.4711338 -13.60736929 88.60798505 -19.375 87.1875 C-20.05288574 87.0222583 -20.73077148 86.8570166 -21.42919922 86.68676758 C-25.35392525 85.65279252 -28.76114826 84.48228598 -32 82 C-32 81.01 -32 80.02 -32 79 C-31.47792969 79.18175781 -30.95585938 79.36351563 -30.41796875 79.55078125 C-27.95302135 80.39257589 -25.47921398 81.20118214 -23 82 C-22.12214844 82.28617187 -21.24429688 82.57234375 -20.33984375 82.8671875 C-8.94648496 86.30978512 2.29919212 86.1955434 12.9375 80.5625 C15.98123487 78.85006363 16.99620766 78.00568851 19 75 C19.45772063 72.26127045 19.45772063 72.26127045 19.625 69.3125 C19.69976562 68.31863281 19.77453125 67.32476562 19.8515625 66.30078125 C19.90054688 65.54152344 19.94953125 64.78226562 20 64 C20.99 64.33 21.98 64.66 23 65 C24.07403478 80.75251009 19.76240433 97.15644927 9.5625 109.4375 C6.82979182 112.3572147 3.93442129 114.66048025 0.6015625 116.85546875 C-1.2366024 118.08206733 -1.2366024 118.08206733 -3.25 120.5 C-15.09403996 131.26730905 -33.57810894 132.53612958 -48.828125 131.8203125 C-63.55155846 130.28531625 -78.21273821 125.10181606 -90 116 C-90 115.34 -90 114.68 -90 114 C-90.59039062 113.73960937 -91.18078125 113.47921875 -91.7890625 113.2109375 C-100.35356376 108.52013292 -104.95593277 97.9015482 -108.00390625 89.1015625 C-111.19657913 78.08915458 -111.86119315 67.59204814 -109.453125 56.39453125 C-108.68395613 52.32987161 -108.46681615 48.64398354 -109.75 44.6875 C-111.31185611 42.57899425 -112.61072458 42.09777519 -115 41 C-116.26609651 40.19133191 -117.51516929 39.35565037 -118.75 38.5 C-119.36359375 38.0771875 -119.9771875 37.654375 -120.609375 37.21875 C-121.06828125 36.8165625 -121.5271875 36.414375 -122 36 C-122 35.34 -122 34.68 -122 34 C-122.66 34 -123.32 34 -124 34 C-129.62079867 27.11452162 -131.56209578 20.85300851 -131 12 C-130.02845271 8.03907644 -129.07328918 5.67242538 -126 3 C-125.67 2.34 -125.34 1.68 -125 1 C-117.84937514 1.40475235 -112.37295696 3.82523652 -106 7 C-106 7.66 -106 8.32 -106 9 C-105.4225 9.2475 -104.845 9.495 -104.25 9.75 C-101.6997003 11.16683317 -99.98214299 12.87627537 -98 15 C-97.5875 14.54109375 -97.175 14.0821875 -96.75 13.609375 C-91.7584785 8.3058834 -86.96949949 4.28353568 -79.5 3.75 C-78.675 3.8325 -77.85 3.915 -77 4 C-74.97441119 7.34939881 -74.78261013 9.86962551 -74.875 13.75 C-74.89304688 14.73484375 -74.91109375 15.7196875 -74.9296875 16.734375 C-74.95289063 17.48203125 -74.97609375 18.2296875 -75 19 C-74.01 19 -73.02 19 -72 19 C-72 13.06 -72 7.12 -72 1 C-71.01 0.67 -70.02 0.34 -69 0 C-68.26676204 -2.01508358 -68.26676204 -2.01508358 -68 -4 C-44.79749297 -9.53207922 -22.84229946 -5.49442368 0 0 Z " fill="#050D31" transform="translate(158,46)"/>
<path d="M0 0 C8.72734187 0.58314813 17.11294936 1.79580197 25.6875 3.5 C26.86505859 3.72558594 28.04261719 3.95117188 29.25585938 4.18359375 C37.86455155 5.86455155 37.86455155 5.86455155 39 7 C39.07313567 9.53049402 39.09247527 12.03304837 39.0625 14.5625 C39.05798828 15.27341797 39.05347656 15.98433594 39.04882812 16.71679688 C39.03700864 18.47790013 39.01907263 20.23896036 39 22 C39.66 21.34 40.32 20.68 41 20 C40.67 26.27 40.34 32.54 40 39 C42.97 39.33 45.94 39.66 49 40 C55.2536846 42.2071828 58.10810024 44.46325974 61.03515625 50.42578125 C63.29299403 56.44972901 64.12679894 62.59088998 64 69 C63.34 69 62.68 69 62 69 C61.67 72.3 61.34 75.6 61 79 C60.67 79 60.34 79 60 79 C59.99589111 78.42668945 59.99178223 77.85337891 59.98754883 77.26269531 C60.22110385 60.80557214 60.22110385 60.80557214 54 46 C51.44816178 44.05574231 49.13065538 43.5244794 46 43 C44.86498047 42.70416016 44.86498047 42.70416016 43.70703125 42.40234375 C27.39944323 38.58459834 10.94534258 41.55900755 -5.21923828 44.51269531 C-9.1747863 45.20587124 -13.14006522 45.75728263 -17.125 46.25 C-18.32382813 46.39953125 -19.52265625 46.5490625 -20.7578125 46.703125 C-23.86054432 46.98723056 -26.88644003 47.05678225 -30 47 C-29.67 46.34 -29.34 45.68 -29 45 C-33.29 44.67 -37.58 44.34 -42 44 C-43.14077657 40.57767028 -43.09815117 37.91326783 -43.0625 34.3125 C-43.05347656 33.13300781 -43.04445313 31.95351562 -43.03515625 30.73828125 C-43.02355469 29.83464844 -43.01195313 28.93101563 -43 28 C-37.30778017 26.44757641 -31.8756368 25.55084095 -26 25 C-25.34 29.29 -24.68 33.58 -24 38 C-23.67 33.71 -23.34 29.42 -23 25 C-20.81462633 24.49078672 -18.62657569 23.99305563 -16.4375 23.5 C-15.21933594 23.2215625 -14.00117187 22.943125 -12.74609375 22.65625 C-9.07777293 22.01362446 -5.71497397 21.88525177 -2 22 C-1.505 26.95 -1.505 26.95 -1 32 C-0.34 32 0.32 32 1 32 C1 28.37 1 24.74 1 21 C2.32 20.67 3.64 20.34 5 20 C3.68 19.67 2.36 19.34 1 19 C0.67 12.73 0.34 6.46 0 0 Z " fill="#0F2264" transform="translate(117,42)"/>
<path d="M0 0 C1.85625 0.6496875 1.85625 0.6496875 3.75 1.3125 C20.52656227 6.83456595 33.91144685 7.83508735 50 0 C48.97172397 11.82517439 43.47641309 21.08871894 34.76171875 29.04296875 C27.50786141 34.91871848 20.65259122 38.48705876 11.3125 39.3125 C10.53229492 39.38952148 9.75208984 39.46654297 8.94824219 39.54589844 C-0.02877016 40.32986877 -8.46585253 40.08037276 -17 37 C-16.29875 36.443125 -15.5975 35.88625 -14.875 35.3125 C-13.92625 34.549375 -12.9775 33.78625 -12 33 C-10.96875 32.195625 -9.9375 31.39125 -8.875 30.5625 C-1.13023173 23.65955437 -0.82675477 14.69797382 -0.25341797 4.92822266 C-0.16399458 3.28574383 -0.0812894 1.64290148 0 0 Z " fill="#CCDFFB" transform="translate(126,128)"/>
<path d="M0 0 C0.0809313 2.60478883 0.14045434 5.20706653 0.1875 7.8125 C0.21263672 8.55048828 0.23777344 9.28847656 0.26367188 10.04882812 C0.29296875 12.20703125 0.29296875 12.20703125 0 16 C-0.99 16.99 -1.98 17.98 -3 19 C-3 13.72 -3 8.44 -3 3 C-7.08297067 2.20642558 -11.16635607 1.41509633 -15.25 0.625 C-16.38953125 0.40328125 -17.5290625 0.1815625 -18.703125 -0.046875 C-26.1183328 -1.47935832 -33.54392705 -2.79812048 -41 -4 C-40.75552124 -3.12359863 -40.75552124 -3.12359863 -40.50610352 -2.22949219 C-39.75509972 1.07883712 -39.89605939 4.37737159 -39.9375 7.75 C-39.94201172 8.44738281 -39.94652344 9.14476563 -39.95117188 9.86328125 C-39.9628998 11.57555803 -39.98083347 13.28779033 -40 15 C-37.69 15.33 -35.38 15.66 -33 16 C-33 16.33 -33 16.66 -33 17 C-35.31 17 -37.62 17 -40 17 C-40 20.63 -40 24.26 -40 28 C-40.66 28 -41.32 28 -42 28 C-42.33 24.7 -42.66 21.4 -43 18 C-49.93 18.99 -56.86 19.98 -64 21 C-64 25.62 -64 30.24 -64 35 C-64.66 34.67 -65.32 34.34 -66 34 C-66.60809019 29.68026501 -66.74611248 25.35840246 -67 21 C-72.61 21.99 -78.22 22.98 -84 24 C-83.67 29.28 -83.34 34.56 -83 40 C-78.38 40 -73.76 40 -69 40 C-69.66 40.99 -70.32 41.98 -71 43 C-72.87597656 43.37231445 -72.87597656 43.37231445 -75.140625 43.36328125 C-75.96433594 43.36263672 -76.78804687 43.36199219 -77.63671875 43.36132812 C-78.49910156 43.34521484 -79.36148438 43.32910156 -80.25 43.3125 C-81.52037109 43.31733398 -81.52037109 43.31733398 -82.81640625 43.32226562 C-87.59682183 43.2813756 -91.51289556 42.84029937 -96 41 C-92.40270473 36.24643125 -92.40270473 36.24643125 -89.90625 34.71875 C-87.71846693 33.0860586 -87.71846693 33.0860586 -87.390625 30.08203125 C-87.34421875 29.00308594 -87.2978125 27.92414063 -87.25 26.8125 C-87.1675 24.894375 -87.085 22.97625 -87 21 C-80.07 20.01 -80.07 20.01 -73 19 C-71.7937748 15.38132441 -71.89183082 12.07493749 -71.9375 8.3125 C-71.94201172 7.61060547 -71.94652344 6.90871094 -71.95117188 6.18554688 C-71.96293073 4.45699462 -71.98086546 2.72848635 -72 1 C-71.01 0.67 -70.02 0.34 -69 0 C-68.26676204 -2.01508358 -68.26676204 -2.01508358 -68 -4 C-44.79749297 -9.53207922 -22.84229946 -5.49442368 0 0 Z " fill="#0A1C5D" transform="translate(158,46)"/>
<path d="M0 0 C1.11256539 3.33769617 0.80685967 3.77256134 0 7 C-0.42661903 14.67914252 1.11673152 19.14007782 6 25 C6 25.66 6 26.32 6 27 C6.55429687 27.24878906 7.10859375 27.49757813 7.6796875 27.75390625 C10.41991242 29.22550852 12.69844052 30.99263069 15.125 32.9375 C15.99382813 33.62714844 16.86265625 34.31679687 17.7578125 35.02734375 C20.61163143 37.53810779 21.92333731 39.09921334 22.25 42.9375 C22.16625851 46.2592456 21.59825686 49.42272684 21 52.6875 C18.30631449 68.42018494 20.85271414 83.65596384 30 97 C42.47356941 113.25634094 59.76616276 120.55161799 79.57421875 123.5390625 C92.8291704 124.83886392 104.79879877 122.94512188 117.109375 118.12109375 C119.41616786 117.22643219 121.58883495 116.52085847 124 116 C115.09443378 125.73206888 100.15804018 128.29152296 87.54052734 128.9230957 C69.21962102 129.49524495 50.6315596 124.29810863 36 113 C36 112.34 36 111.68 36 111 C35.40960938 110.73960937 34.81921875 110.47921875 34.2109375 110.2109375 C25.64643624 105.52013292 21.04406723 94.9015482 17.99609375 86.1015625 C14.80342087 75.08915458 14.13880685 64.59204814 16.546875 53.39453125 C17.31604387 49.32987161 17.53318385 45.64398354 16.25 41.6875 C14.68814389 39.57899425 13.38927542 39.09777519 11 38 C9.73390349 37.19133191 8.48483071 36.35565037 7.25 35.5 C6.63640625 35.0771875 6.0228125 34.654375 5.390625 34.21875 C4.93171875 33.8165625 4.4728125 33.414375 4 33 C4 32.34 4 31.68 4 31 C3.34 31 2.68 31 2 31 C-3.62079867 24.11452162 -5.56209578 17.85300851 -5 9 C-4.04560617 5.10900977 -3.13220429 2.5627126 0 0 Z " fill="#192C66" transform="translate(32,49)"/>
<path d="M0 0 C8.75903797 0.57905494 17.15069339 1.82610155 25.75 3.5625 C26.9359375 3.79646484 28.121875 4.03042969 29.34375 4.27148438 C32.23037916 4.84182643 35.1156884 5.41807186 38 6 C38.01360396 7.58070495 38.02324479 9.16144428 38.03125 10.7421875 C38.03705078 11.62245605 38.04285156 12.50272461 38.04882812 13.40966797 C37.98699612 16.68985582 37.5615681 19.7709834 37 23 C28.71512587 22.37649725 20.48936698 21.50048006 12.25 20.4375 C11.15945312 20.29892578 10.06890625 20.16035156 8.9453125 20.01757812 C6.29658236 19.68067824 3.64824754 19.34067262 1 19 C0.67 12.73 0.34 6.46 0 0 Z " fill="#4DC9FD" transform="translate(117,42)"/>
<path d="M0 0 C3.43927579 1.2419607 6.25207819 2.55740284 9 5 C9 5.66 9 6.32 9 7 C9.66 7 10.32 7 11 7 C14.81897224 13.30960631 14.89867351 19.40290966 15.1015625 26.60546875 C15.7510144 43.91848916 19.8793069 58.63246073 32.2421875 71.296875 C40.56615956 78.52780023 51.49272858 83.76950351 62 87 C61 89 61 89 57.96484375 90.3046875 C53.28704739 91.52643753 49.86408121 89.97471927 45.5625 88.125 C44.83095703 87.82980469 44.09941406 87.53460938 43.34570312 87.23046875 C41.55625464 86.50533276 39.77698447 85.75516507 38 85 C38 84.34 38 83.68 38 83 C37.42894531 82.89816406 36.85789063 82.79632813 36.26953125 82.69140625 C27.9526221 80.1576835 20.68412111 71.45248325 16.33984375 64.24609375 C8.20314162 48.91230865 6.70842913 32.28689249 10.85546875 15.48046875 C11.05287487 12.09255284 10.01851966 10.68410912 8 8 C5.99138704 5.99475838 5.99138704 5.99475838 3.8125 4.25 C2.5267892 3.18436582 1.25138725 2.10573886 0 1 C0 0.67 0 0.34 0 0 Z " fill="#588BDD" transform="translate(46,77)"/>
<path d="M0 0 C8.08779939 -0.24370017 15.65287901 0.68464447 23.625 2 C25.41744141 2.28617187 25.41744141 2.28617187 27.24609375 2.578125 C30.16517571 3.04517811 33.08275245 3.52162266 36 4 C36 7.96 36 11.92 36 16 C34.82566406 15.98839844 33.65132812 15.97679688 32.44140625 15.96484375 C21.57406278 15.89217527 10.84329936 16.25857782 0 17 C0 11.39 0 5.78 0 0 Z " fill="#4BC8FD" transform="translate(118,64)"/>
<path d="M0 0 C-0.33 0.99 -0.66 1.98 -1 3 C-1.66 3 -2.32 3 -3 3 C-4.61988731 11.09943655 -4.66353221 17.5739212 -1 25 C-0.03465478 26.35863401 0.95277149 27.70343137 2 29 C2 29.66 2 30.32 2 31 C2.66 31 3.32 31 4 31 C4 31.66 4 32.32 4 33 C4.515625 33.226875 5.03125 33.45375 5.5625 33.6875 C10.17866151 36.17312543 15.59640257 39.19280514 18 44 C18.46815987 48.49433472 17.77833539 52.49706859 17 56.9375 C14.30143401 72.6629565 17.74649079 88.77953951 26.9375 101.875 C29.05847112 104.76761667 30.94174784 106.95356353 33.75390625 109.1953125 C34.49511719 109.79085937 35.23632812 110.38640625 36 111 C36 111.66 36 112.32 36 113 C36.72316406 113.27199219 37.44632813 113.54398437 38.19140625 113.82421875 C40.93267168 114.97181387 43.37355616 116.31522001 45.9375 117.8125 C63.73876185 127.52012146 84.47414052 130.98583253 104.21313477 125.39086914 C113.5261818 122.54789339 121.30737878 119.23526618 128 112 C129.02916937 111.11033441 130.07130367 110.23547573 131.125 109.375 C133.21421265 107.64912868 135.14228039 105.96092626 137 104 C135.74801402 110.41642816 131.86284284 113.13247587 127 117 C126.21625 117.70125 125.4325 118.4025 124.625 119.125 C110.23076215 129.40659847 92.28648757 131.92108918 75 131 C74.01 130.67 73.02 130.34 72 130 C70.824375 130.0309375 70.824375 130.0309375 69.625 130.0625 C66.60397762 129.9905709 64.78407442 129.16403112 62 128 C61.02804688 127.64421875 60.05609375 127.2884375 59.0546875 126.921875 C51.64942836 124.19266402 44.81641948 120.97510635 38 117 C38 116.34 38 115.68 38 115 C37.319375 114.835 36.63875 114.67 35.9375 114.5 C31.54235872 112.25567254 29.01703339 108.84044549 26 105 C25.38511719 104.22011719 24.77023438 103.44023437 24.13671875 102.63671875 C14.05050583 89.09484401 11.70725191 72.5966042 13 56 C13.63343049 53.98922645 14.29603452 51.98717816 15 50 C15.07522969 47.66787973 15.09325876 45.3314689 15 43 C14.34 43 13.68 43 13 43 C11.33333333 41.33333333 9.66666667 39.66666667 8 38 C6.329375 36.948125 6.329375 36.948125 4.625 35.875 C-0.63906157 32.26172967 -4.60167992 26.02716184 -6.68359375 20.03125 C-7.09992368 17.35851465 -7.17044555 14.76733613 -7.1875 12.0625 C-7.20167969 11.04285156 -7.21585938 10.02320313 -7.23046875 8.97265625 C-6.99017621 5.87328978 -6.47220163 3.73408874 -5 1 C-2 0 -2 0 0 0 Z " fill="#2B48A5" transform="translate(32,49)"/>
<path d="M0 0 C2.54416079 1.34628508 4.66535823 2.75871056 6.5 4.9921875 C7.81510318 10.25260021 7.77659237 13.86500937 5.3125 18.6171875 C1.88962823 22.6105379 0.40113337 23.13594676 -4.875 23.5546875 C-8.65531322 23.44226183 -10.9634734 22.70638097 -13.9375 20.2421875 C-17.46909711 15.97991513 -17.35911717 12.55456378 -16.9375 7.2421875 C-15.9375 4.7421875 -15.9375 4.7421875 -14.9375 3.2421875 C-14.2775 3.2421875 -13.6175 3.2421875 -12.9375 3.2421875 C-12.9375 2.5821875 -12.9375 1.9221875 -12.9375 1.2421875 C-8.85902419 -1.36803702 -4.54843052 -1.77902323 0 0 Z " fill="#E1E7F1" transform="translate(116.9375,103.7578125)"/>
<path d="M0 0 C7.15062486 0.40475235 12.62704304 2.82523652 19 6 C19 6.66 19 7.32 19 8 C19.5775 8.2475 20.155 8.495 20.75 8.75 C23.3002997 10.16683317 25.01785701 11.87627537 27 14 C27.4125 13.54109375 27.825 13.0821875 28.25 12.609375 C33.2415215 7.3058834 38.03050051 3.28353568 45.5 2.75 C46.325 2.8325 47.15 2.915 48 3 C50.02558881 6.34939881 50.21738987 8.86962551 50.125 12.75 C50.10695312 13.73484375 50.08890625 14.7196875 50.0703125 15.734375 C50.04710937 16.48203125 50.02390625 17.2296875 50 18 C50.66 18.33 51.32 18.66 52 19 C50.35 19 48.7 19 47 19 C46.67 14.71 46.34 10.42 46 6 C38.82707601 8.42328513 34.13235409 10.52694185 30 17 C28.62949404 19.74547874 28.62949404 19.74547874 28 22 C27.443125 21.29875 26.88625 20.5975 26.3125 19.875 C25.549375 18.92625 24.78625 17.9775 24 17 C23.2575 16.01 22.515 15.02 21.75 14 C16.46118751 7.74372181 9.93144116 5.23010777 2 4 C2.02614844 13.19117799 2.4453841 20.19132922 9 27 C11.73157869 29.43157871 14.51505173 31.72795994 17.4140625 33.95703125 C23.63185774 38.86927734 23.63185774 38.86927734 24.875 42.6875 C25.00811476 46.21504105 24.40769687 48.88640355 23.546875 52.27734375 C22.44269605 57.77457753 22.30212853 63.41062218 22 69 C21.67 69 21.34 69 21 69 C20.67 66.03 20.34 63.06 20 60 C19.34 60 18.68 60 18 60 C18.2165625 58.93072266 18.2165625 58.93072266 18.4375 57.83984375 C20.40180433 48.38555067 20.40180433 48.38555067 19 39 C17.69320179 38.28271298 16.35343692 37.62484457 15 37 C7.93809701 32.14057171 1.06804263 26.44371821 -1.640625 18.00390625 C-2.7707039 11.70248804 -2.04478857 6.00656643 0 0 Z " fill="#0B1D60" transform="translate(33,47)"/>
<path d="M0 0 C0 6.27 0 12.54 0 19 C-6.93 19.99 -13.86 20.98 -21 22 C-22.04682656 17.81269376 -22.11155353 14.02143069 -22.0625 9.75 C-22.05798828 9.00492188 -22.05347656 8.25984375 -22.04882812 7.4921875 C-22.03709246 5.6614236 -22.0191585 3.83070127 -22 2 C-19.83447085 1.65935496 -17.66750203 1.32785745 -15.5 1 C-14.2934375 0.814375 -13.086875 0.62875 -11.84375 0.4375 C-8 0 -8 0 0 0 Z " fill="#0174B0" transform="translate(115,42)"/>
<path d="M0 0 C0 6.27 0 12.54 0 19 C-6.89465623 20.13726288 -12.98714528 21 -20 21 C-20.33 15.06 -20.66 9.12 -21 3 C-13.62818849 1.31501451 -7.58962694 0 0 0 Z " fill="#0086C3" transform="translate(115,64)"/>
<path d="M0 0 C0.33 0.99 0.66 1.98 1 3 C0.67 3.66 0.34 4.32 0 5 C-0.66 5 -1.32 5 -2 5 C-2.84903922 16.7524226 -2.84903922 16.7524226 2 27 C7.4891962 32.66683673 7.4891962 32.66683673 14 37 C14 37.66 14 38.32 14 39 C14.61875 39.2475 15.2375 39.495 15.875 39.75 C18.43991787 41.25877522 18.93982343 42.25428926 20 45 C20.01171875 47.1484375 20.01171875 47.1484375 19.6875 49.375 C19.58824219 50.10460937 19.48898438 50.83421875 19.38671875 51.5859375 C19.10476456 53.34601517 18.79796155 55.10216495 18.4765625 56.85546875 C15.92743164 73.67555351 19.95943619 87.81566713 29 102 C29.68697641 103.32298361 30.36252492 104.65246605 31 106 C31.66 106 32.32 106 33 106 C33 106.66 33 107.32 33 108 C33.66 108 34.32 108 35 108 C35 108.66 35 109.32 35 110 C35.5259375 110.25007813 36.051875 110.50015625 36.59375 110.7578125 C39.03124408 112.01612925 41.36771234 113.40629611 43.71875 114.81787109 C62.21580505 125.79542707 82.63612865 128.48475972 103.62109375 123.921875 C107.1118134 122.96949369 110.02344023 121.77402101 113.1484375 119.984375 C116.57027076 118.16517251 120.30435894 117.12922366 124 116 C115.09443378 125.73206888 100.15804018 128.29152296 87.54052734 128.9230957 C69.21962102 129.49524495 50.6315596 124.29810863 36 113 C36 112.34 36 111.68 36 111 C35.40960938 110.73960937 34.81921875 110.47921875 34.2109375 110.2109375 C25.64643624 105.52013292 21.04406723 94.9015482 17.99609375 86.1015625 C14.80342087 75.08915458 14.13880685 64.59204814 16.546875 53.39453125 C17.31604387 49.32987161 17.53318385 45.64398354 16.25 41.6875 C14.68814389 39.57899425 13.38927542 39.09777519 11 38 C9.73390349 37.19133191 8.48483071 36.35565037 7.25 35.5 C6.63640625 35.0771875 6.0228125 34.654375 5.390625 34.21875 C4.93171875 33.8165625 4.4728125 33.414375 4 33 C4 32.34 4 31.68 4 31 C3.34 31 2.68 31 2 31 C-3.62079867 24.11452162 -5.56209578 17.85300851 -5 9 C-4.04560617 5.10900977 -3.13220429 2.5627126 0 0 Z " fill="#213983" transform="translate(32,49)"/>
<path d="M0 0 C1.52445829 6.27788731 1.06004213 12.57549184 1 19 C-4.61 19 -10.22 19 -16 19 C-17.14077657 15.57767028 -17.09815117 12.91326783 -17.0625 9.3125 C-17.05347656 8.13300781 -17.04445313 6.95351562 -17.03515625 5.73828125 C-17.02355469 4.83464844 -17.01195313 3.93101563 -17 3 C-5.4 0 -5.4 0 0 0 Z " fill="#0089C7" transform="translate(91,67)"/>
<path d="M0 0 C0.0809313 2.60478883 0.14045434 5.20706653 0.1875 7.8125 C0.21263672 8.55048828 0.23777344 9.28847656 0.26367188 10.04882812 C0.29296875 12.20703125 0.29296875 12.20703125 0 16 C-0.99 16.99 -1.98 17.98 -3 19 C-3 13.72 -3 8.44 -3 3 C-7.08297067 2.20642558 -11.16635607 1.41509633 -15.25 0.625 C-16.95929688 0.29242188 -16.95929688 0.29242188 -18.703125 -0.046875 C-26.11922633 -1.47953094 -33.54465173 -2.78765613 -41 -4 C-41 2.27 -41 8.54 -41 15 C-41.33 15 -41.66 15 -42 15 C-43.15316726 8.65758005 -43.09507063 2.43311296 -43 -4 C-44.00160156 -3.855625 -45.00320312 -3.71125 -46.03515625 -3.5625 C-47.37756922 -3.37474993 -48.72001915 -3.18726406 -50.0625 -3 C-50.71927734 -2.90460937 -51.37605469 -2.80921875 -52.05273438 -2.7109375 C-56.48280063 -2.09989388 -60.46477932 -2 -65 -2 C-65 2.95 -65 7.9 -65 13 C-65.66 13 -66.32 13 -67 13 C-68.18681726 9.43954823 -68.09689832 6.56191663 -68.0625 2.8125 C-68.05347656 1.54019531 -68.04445313 0.26789062 -68.03515625 -1.04296875 C-68.02355469 -2.01878906 -68.01195313 -2.99460937 -68 -4 C-44.79749297 -9.53207922 -22.84229946 -5.49442368 0 0 Z " fill="#060F34" transform="translate(158,46)"/>
<path d="M0 0 C0.99 0.33 1.98 0.66 3 1 C3.23576736 8.62314474 2.83717315 15.58569409 1 23 C0.01 22.67 -0.98 22.34 -2 22 C-2.495 20.515 -2.495 20.515 -3 19 C-3.72445312 19.34933594 -4.44890625 19.69867188 -5.1953125 20.05859375 C-15.03470804 24.68966925 -15.03470804 24.68966925 -20 25 C-20.73992187 25.061875 -21.47984375 25.12375 -22.2421875 25.1875 C-28.21622436 25.4711338 -33.60736929 24.60798505 -39.375 23.1875 C-40.39182861 22.93963745 -40.39182861 22.93963745 -41.42919922 22.68676758 C-45.35392525 21.65279252 -48.76114826 20.48228598 -52 18 C-52 17.01 -52 16.02 -52 15 C-51.47792969 15.18175781 -50.95585938 15.36351563 -50.41796875 15.55078125 C-47.95302135 16.39257589 -45.47921398 17.20118214 -43 18 C-41.68322266 18.42925781 -41.68322266 18.42925781 -40.33984375 18.8671875 C-28.94648496 22.30978512 -17.70080788 22.1955434 -7.0625 16.5625 C-4.01876513 14.85006363 -3.00379234 14.00568851 -1 11 C-0.54227937 8.26127045 -0.54227937 8.26127045 -0.375 5.3125 C-0.30023438 4.31863281 -0.22546875 3.32476562 -0.1484375 2.30078125 C-0.09945312 1.54152344 -0.05046875 0.78226562 0 0 Z " fill="#081237" transform="translate(178,110)"/>
<path d="M0 0 C1.49609375 2.33984375 1.49609375 2.33984375 2.4375 4.9375 C2.76621094 5.79214844 3.09492188 6.64679688 3.43359375 7.52734375 C4.03087372 10.13477978 3.88419162 11.509238 3 14 C2.81566406 13.32453125 2.63132812 12.6490625 2.44140625 11.953125 C0.74595005 6.69597486 0.74595005 6.69597486 -2.70703125 2.515625 C-21.67623212 -6.91457046 -47.41838572 -1.52584671 -67.1159668 1.6328125 C-69.78415161 1.97251875 -72.31452821 2.06921478 -75 2 C-74.67 1.34 -74.34 0.68 -74 0 C-71.90039062 -0.55810547 -71.90039062 -0.55810547 -69.15625 -0.9921875 C-67.65771484 -1.2392041 -67.65771484 -1.2392041 -66.12890625 -1.49121094 C-65.09636719 -1.65911133 -64.06382813 -1.82701172 -63 -2 C-61.11378637 -2.35253307 -59.2283496 -2.70925048 -57.34375 -3.0703125 C-39.26820372 -6.39146807 -16.68329564 -10.27389392 0 0 Z " fill="#99BEEC" transform="translate(172,88)"/>
<path d="M0 0 C0.66 0.33 1.32 0.66 2 1 C2.4921875 3.4140625 2.4921875 3.4140625 2.875 6.625 C4.43311767 17.54380918 6.50838959 27.78464071 12.73046875 37.046875 C14 39 14 39 15 42 C14.34 42.99 13.68 43.98 13 45 C3.26227943 32.31570693 -2.36245512 18.1910364 -1 2 C-0.67 1.34 -0.34 0.68 0 0 Z " fill="#091544" transform="translate(52,106)"/>
<path d="M0 0 C0.33 0 0.66 0 1 0 C1 6.27 1 12.54 1 19 C-1.97 19.33 -4.94 19.66 -8 20 C-8 14.06 -8 8.12 -8 2 C-4.535 1.505 -4.535 1.505 -1 1 C-0.67 0.67 -0.34 0.34 0 0 Z " fill="#0172AE" transform="translate(114,42)"/>
<path d="M0 0 C0.33 0 0.66 0 1 0 C1 4.95 1 9.9 1 15 C1.66 14.34 2.32 13.68 3 13 C3.25 15.75 3.25 15.75 3 19 C1 21.375 1 21.375 -1 23 C-1 21.68 -1 20.36 -1 19 C-1.71833008 18.94593994 -2.43666016 18.89187988 -3.17675781 18.83618164 C-10.73229901 18.24068602 -18.23408916 17.40714529 -25.75 16.4375 C-26.84054688 16.29892578 -27.93109375 16.16035156 -29.0546875 16.01757812 C-31.7034265 15.68067711 -34.35184543 15.34145904 -37 15 C-33.61737518 12.05549198 -33.61737518 12.05549198 -30.90039062 11.8112793 C-29.78954102 11.94143433 -29.78954102 11.94143433 -28.65625 12.07421875 C-27.82706055 12.16396973 -26.99787109 12.2537207 -26.14355469 12.34619141 C-25.27118164 12.45882324 -24.39880859 12.57145508 -23.5 12.6875 C-22.16437012 12.840979 -22.16437012 12.840979 -20.80175781 12.99755859 C-14.15953179 13.78416969 -7.57836836 14.7881953 -1 16 C-0.67 10.72 -0.34 5.44 0 0 Z " fill="#193B73" transform="translate(155,49)"/>
<path d="M0 0 C2.54416079 1.34628508 4.66535823 2.75871056 6.5 4.9921875 C7.81510318 10.25260021 7.77659237 13.86500937 5.3125 18.6171875 C1.88962823 22.6105379 0.40113337 23.13594676 -4.875 23.5546875 C-8.65531322 23.44226183 -10.9634734 22.70638097 -13.9375 20.2421875 C-17.46909711 15.97991513 -17.35911717 12.55456378 -16.9375 7.2421875 C-15.9375 4.7421875 -15.9375 4.7421875 -14.9375 3.2421875 C-14.2775 3.2421875 -13.6175 3.2421875 -12.9375 3.2421875 C-12.9375 2.5821875 -12.9375 1.9221875 -12.9375 1.2421875 C-8.85902419 -1.36803702 -4.54843052 -1.77902323 0 0 Z M-13.9375 5.2421875 C-15.53836627 8.44392004 -15.43667089 11.76795809 -14.9375 15.2421875 C-13.14386089 18.0522221 -11.91869065 19.75159218 -8.9375 21.2421875 C-3.94058353 21.61931327 -0.94682275 21.33509362 3.0625 18.2421875 C5.51915197 14.55720954 5.76336491 11.52246964 5.0625 7.2421875 C3.26886089 4.4321529 2.04369065 2.73278282 -0.9375 1.2421875 C-6.80369119 0.76135216 -9.64264791 0.81718837 -13.9375 5.2421875 Z " fill="#0E1B49" transform="translate(116.9375,103.7578125)"/>
<path d="M0 0 C1.14339844 0.01804687 2.28679687 0.03609375 3.46484375 0.0546875 C4.75068359 0.08949219 4.75068359 0.08949219 6.0625 0.125 C6.0625 0.455 6.0625 0.785 6.0625 1.125 C3.4225 1.125 0.7825 1.125 -1.9375 1.125 C-1.76347656 1.67671875 -1.58945313 2.2284375 -1.41015625 2.796875 C-0.86344708 5.48975653 -1.05247719 7.65147404 -1.375 10.375 C-1.47683594 11.26703125 -1.57867187 12.1590625 -1.68359375 13.078125 C-1.76738281 13.75359375 -1.85117188 14.4290625 -1.9375 15.125 C-2.5975 14.795 -3.2575 14.465 -3.9375 14.125 C-4.3515625 11.83984375 -4.3515625 11.83984375 -4.5625 9.0625 C-4.63726562 8.14339844 -4.71203125 7.22429687 -4.7890625 6.27734375 C-4.83804688 5.56707031 -4.88703125 4.85679688 -4.9375 4.125 C-6.5875 3.795 -8.2375 3.465 -9.9375 3.125 C-9.82408363 5.43809705 -9.69646193 7.75050185 -9.5625 10.0625 C-9.49289063 11.35027344 -9.42328125 12.63804688 -9.3515625 13.96484375 C-9.21492188 15.00769531 -9.07828125 16.05054687 -8.9375 17.125 C-8.2775 17.455 -7.6175 17.785 -6.9375 18.125 C-7.5975 18.785 -8.2575 19.445 -8.9375 20.125 C-10.2575 20.125 -11.5775 20.125 -12.9375 20.125 C-13.2675 14.185 -13.5975 8.245 -13.9375 2.125 C-8.45603536 0.55886725 -5.41355528 -0.1116197 0 0 Z " fill="#008AC8" transform="translate(107.9375,64.875)"/>
<path d="M0 0 C10.64979251 1.41101352 20.81768011 1.21750543 31.4765625 0.328125 C23.84407922 4.39508422 15.84594061 4.6478463 7.3515625 4.578125 C6.40152344 4.58585938 5.45148438 4.59359375 4.47265625 4.6015625 C-0.91853289 4.58660775 -5.42727449 4.10684118 -10.5234375 2.328125 C-7.09658011 -1.09873239 -4.54371118 -0.62785827 0 0 Z " fill="#94ACD0" transform="translate(112.5234375,165.671875)"/>
<path d="M0 0 C-0.33 0.66 -0.66 1.32 -1 2 C-3.31 2 -5.62 2 -8 2 C-8 7.94 -8 13.88 -8 20 C-9.98 20 -11.96 20 -14 20 C-13.01 19.67 -12.02 19.34 -11 19 C-11.33 13.72 -11.66 8.44 -12 3 C-16.455 3.495 -16.455 3.495 -21 4 C-21 3.34 -21 2.68 -21 2 C-18.81347261 1.66034526 -16.62571975 1.32857523 -14.4375 1 C-13.21933594 0.814375 -12.00117187 0.62875 -10.74609375 0.4375 C-7.12372152 0.01444923 -3.64287954 -0.07501425 0 0 Z " fill="#0189C8" transform="translate(114,42)"/>
<path d="M0 0 C5.75 0.75 5.75 0.75 8 3 C8.33015665 6.10347254 8.50531294 8.15781176 6.875 10.875 C4.08893958 12.54663625 2.18011138 12.46376624 -1 12 C-2.875 10 -2.875 10 -4 8 C-3.67 7.34 -3.34 6.68 -3 6 C-1.68 6 -0.36 6 1 6 C0.67 4.02 0.34 2.04 0 0 Z " fill="#03060D" transform="translate(110,109)"/>
<path d="M0 0 C8.05910937 -0.33166955 15.68493899 0.68993419 23.625 2 C25.41744141 2.28617187 25.41744141 2.28617187 27.24609375 2.578125 C30.16517571 3.04517811 33.08275245 3.52162266 36 4 C36 7.96 36 11.92 36 16 C35.01 16 34.02 16 33 16 C33 12.7 33 9.4 33 6 C32.0713916 5.88930176 31.1427832 5.77860352 30.18603516 5.66455078 C26.7448631 5.2501959 23.30481445 4.82817008 19.86523438 4.40087891 C18.37570319 4.2174471 16.88578987 4.03709131 15.39550781 3.85986328 C13.25478182 3.60474347 11.11566895 3.33863214 8.9765625 3.0703125 C7.04417725 2.83465576 7.04417725 2.83465576 5.07275391 2.59423828 C2 2 2 2 0 0 Z " fill="#98CAF1" transform="translate(118,64)"/>
<path d="M0 0 C0.33 0.99 0.66 1.98 1 3 C-3.62 3.33 -8.24 3.66 -13 4 C-13 8.95 -13 13.9 -13 19 C-13.66 19 -14.32 19 -15 19 C-16.18681726 15.43954823 -16.09689832 12.56191663 -16.0625 8.8125 C-16.05347656 7.54019531 -16.04445313 6.26789062 -16.03515625 4.95703125 C-16.02355469 3.98121094 -16.01195313 3.00539062 -16 2 C-10.54538831 0.61470179 -5.63281599 -0.2396943 0 0 Z " fill="#07113F" transform="translate(106,40)"/>
<path d="M0 0 C0.52207031 0.18175781 1.04414062 0.36351563 1.58203125 0.55078125 C9.90112243 3.39180188 18.23770475 6.02641164 27 7 C27 7.33 27 7.66 27 8 C29.475 8.495 29.475 8.495 32 9 C32 9.33 32 9.66 32 10 C25.25082638 10.51476748 19.15347431 9.81211113 12.625 8.1875 C11.94759766 8.02217773 11.27019531 7.85685547 10.57226562 7.68652344 C6.64678456 6.65360449 3.23916702 5.48252762 0 3 C0 2.01 0 1.02 0 0 Z " fill="#101B46" transform="translate(126,125)"/>
<path d="M0 0 C2.5 0.125 2.5 0.125 3.5 1.125 C3.57258946 3.31139453 3.58373783 5.50000389 3.5625 7.6875 C3.55347656 8.88503906 3.54445313 10.08257812 3.53515625 11.31640625 C3.52355469 12.24324219 3.51195313 13.17007813 3.5 14.125 C1.52 14.125 -0.46 14.125 -2.5 14.125 C-2.69393875 11.97973901 -2.87998676 9.83376323 -3.0625 7.6875 C-3.21912109 5.89505859 -3.21912109 5.89505859 -3.37890625 4.06640625 C-3.41886719 3.09574219 -3.45882812 2.12507813 -3.5 1.125 C-2.5 0.125 -2.5 0.125 0 0 Z " fill="#025891" transform="translate(109.5,66.875)"/>
<path d="M0 0 C6.99365488 0.56382224 13.76100843 1.62360399 20.625 3.0625 C21.53378906 3.24876953 22.44257813 3.43503906 23.37890625 3.62695312 C25.5869003 4.08017296 27.79385124 4.53789693 30 5 C30.01360396 6.58070495 30.02324479 8.16144428 30.03125 9.7421875 C30.03705078 10.62245605 30.04285156 11.50272461 30.04882812 12.40966797 C29.98699612 15.68985582 29.5615681 18.7709834 29 22 C28.34 22 27.68 22 27 22 C27 17.05 27 12.1 27 7 C25.38609375 6.74605469 23.7721875 6.49210937 22.109375 6.23046875 C19.98948588 5.88340726 17.86969942 5.53571824 15.75 5.1875 C14.68652344 5.02185547 13.62304688 4.85621094 12.52734375 4.68554688 C11.50253906 4.51474609 10.47773438 4.34394531 9.421875 4.16796875 C8.47924805 4.01610107 7.53662109 3.8642334 6.56542969 3.70776367 C3.79238996 2.9427235 2.16645889 1.86110409 0 0 Z " fill="#95C7ED" transform="translate(125,43)"/>
<path d="M0 0 C1.66611905 -0.042721 3.33382885 -0.04063832 5 0 C6 1 6 1 6.09765625 3.72265625 C6.08605469 4.82480469 6.07445313 5.92695312 6.0625 7.0625 C6.05347656 8.16722656 6.04445313 9.27195312 6.03515625 10.41015625 C6.02355469 11.26480469 6.01195313 12.11945313 6 13 C4.35 13.33 2.7 13.66 1 14 C-0.20568053 9.32798795 -0.09382426 4.78503708 0 0 Z " fill="#025891" transform="translate(98,68)"/>
<path d="M0 0 C0.33 0 0.66 0 1 0 C1.33 6.6 1.66 13.2 2 20 C0.35 20.33 -1.3 20.66 -3 21 C-3 15.06 -3 9.12 -3 3 C-2.01 2.67 -1.02 2.34 0 2 C0 1.34 0 0.68 0 0 Z " fill="#1A2D67" transform="translate(89,44)"/>
<path d="M0 0 C0.33 0 0.66 0 1 0 C1 1.65 1 3.3 1 5 C1.66 5 2.32 5 3 5 C3 7.31 3 9.62 3 12 C4.65 12 6.3 12 8 12 C8 12.33 8 12.66 8 13 C10.97 13.495 10.97 13.495 14 14 C14 14.33 14 14.66 14 15 C11.95928485 15.33910994 9.91737379 15.67102704 7.875 16 C6.73804687 16.185625 5.60109375 16.37125 4.4296875 16.5625 C1.23862398 16.96956049 -1.78817791 17.07809902 -5 17 C-4.01 15.515 -4.01 15.515 -3 14 C-2.01 14 -1.02 14 0 14 C0 9.38 0 4.76 0 0 Z " fill="#183070" transform="translate(115,69)"/>
<path d="M0 0 C0 0.99 0 1.98 0 3 C-9.01134307 3.6331684 -17.95971078 4.1723784 -27 4 C-26.67 3.34 -26.34 2.68 -26 2 C-17.5348061 -0.40168373 -8.71652895 -0.23209692 0 0 Z " fill="#092569" transform="translate(149,79)"/>
<path d="M0 0 C-0.33 0.66 -0.66 1.32 -1 2 C-3.60449219 2.59423828 -3.60449219 2.59423828 -7.046875 3.0703125 C-8.284375 3.24433594 -9.521875 3.41835937 -10.796875 3.59765625 C-12.10140625 3.77167969 -13.4059375 3.94570312 -14.75 4.125 C-16.0390625 4.30675781 -17.328125 4.48851563 -18.65625 4.67578125 C-29.10804488 6.117782 -29.10804488 6.117782 -34 6 C-33.67 5.34 -33.34 4.68 -33 4 C-31.19921875 3.47265625 -31.19921875 3.47265625 -28.6875 3.0625 C-27.71296875 2.90265625 -26.7384375 2.7428125 -25.734375 2.578125 C-24.50203125 2.38734375 -23.2696875 2.1965625 -22 2 C-20.29685662 1.72407174 -18.5937331 1.44802092 -16.890625 1.171875 C-15.07308851 0.88432835 -13.25537843 0.5978769 -11.4375 0.3125 C-10.09788208 0.09702515 -10.09788208 0.09702515 -8.73120117 -0.12280273 C-7.89049072 -0.25114502 -7.04978027 -0.3794873 -6.18359375 -0.51171875 C-5.42618896 -0.62990967 -4.66878418 -0.74810059 -3.88842773 -0.86987305 C-2 -1 -2 -1 0 0 Z " fill="#A5CAF7" transform="translate(131,84)"/>
<path d="M0 0 C1.32 0 2.64 0 4 0 C4.33 4.29 4.66 8.58 5 13 C3.35 13.33 1.7 13.66 0 14 C-0.85380428 11.03878992 -1.13517764 8.3912356 -1.125 5.3125 C-1.12757812 4.52488281 -1.13015625 3.73726563 -1.1328125 2.92578125 C-1 1 -1 1 0 0 Z " fill="#025891" transform="translate(85,70)"/>
<path d="M0 0 C2.10827055 3.16240582 2.33817465 4.50657469 2.625 8.1875 C2.69976562 9.08855469 2.77453125 9.98960938 2.8515625 10.91796875 C2.90054688 11.60503906 2.94953125 12.29210937 3 13 C1.35 13.33 -0.3 13.66 -2 14 C-3.32229189 11.35541621 -3.09677194 9.32238699 -3.0625 6.375 C-3.05347656 5.37210937 -3.04445313 4.36921875 -3.03515625 3.3359375 C-3.02355469 2.56507812 -3.01195313 1.79421875 -3 1 C-2.01 0.67 -1.02 0.34 0 0 Z " fill="#025891" transform="translate(80,71)"/>
<path d="M0 0 C0.33 0 0.66 0 1 0 C1 4.95 1 9.9 1 15 C3.31 15.33 5.62 15.66 8 16 C8 16.33 8 16.66 8 17 C5.69 17 3.38 17 1 17 C1 20.63 1 24.26 1 28 C0.34 28 -0.32 28 -1 28 C-1.07347656 26.93458984 -1.07347656 26.93458984 -1.1484375 25.84765625 C-1.26058594 24.46900391 -1.26058594 24.46900391 -1.375 23.0625 C-1.44460937 22.14597656 -1.51421875 21.22945312 -1.5859375 20.28515625 C-1.79089844 19.15400391 -1.79089844 19.15400391 -2 18 C-2.66 17.67 -3.32 17.34 -4 17 C-3.01 16.34 -2.02 15.68 -1 15 C-0.61588725 12.390379 -0.39706803 9.9941926 -0.3125 7.375 C-0.27833984 6.66859375 -0.24417969 5.9621875 -0.20898438 5.234375 C-0.12648692 3.49014312 -0.06156665 1.74509605 0 0 Z " fill="#0F235D" transform="translate(117,46)"/>
<path d="M0 0 C0.99 0.33 1.98 0.66 3 1 C3 1.66 3 2.32 3 3 C2.01 3.495 2.01 3.495 1 4 C1.01160156 5.13179687 1.02320312 6.26359375 1.03515625 7.4296875 C1.04453454 8.91145669 1.0536347 10.39322765 1.0625 11.875 C1.07087891 12.62136719 1.07925781 13.36773437 1.08789062 14.13671875 C1.11328125 19.7734375 1.11328125 19.7734375 0 22 C-0.99 22 -1.98 22 -3 22 C-3.08152344 19.45767658 -3.14073716 16.91800798 -3.1875 14.375 C-3.21263672 13.66214844 -3.23777344 12.94929688 -3.26367188 12.21484375 C-3.33024446 7.37723584 -2.55559453 4.25261662 0 0 Z " fill="#2A47A3" transform="translate(86,43)"/>
<path d="M0 0 C0.66 0.33 1.32 0.66 2 1 C2.47618812 3.87182587 2.84167597 6.67120147 3.125 9.5625 C3.21136719 10.36880859 3.29773437 11.17511719 3.38671875 12.00585938 C3.59943628 14.00304064 3.80077855 16.00142737 4 18 C2.68 18.33 1.36 18.66 0 19 C-2.4516129 4.90322581 -2.4516129 4.90322581 0 0 Z " fill="#091751" transform="translate(52,106)"/>
<path d="M0 0 C0.33 0 0.66 0 1 0 C1 4.95 1 9.9 1 15 C1.66 14.34 2.32 13.68 3 13 C3.25 15.75 3.25 15.75 3 19 C1 21.375 1 21.375 -1 23 C-1 21.68 -1 20.36 -1 19 C-2.65 19 -4.3 19 -6 19 C-5.01 17.515 -5.01 17.515 -4 16 C-3.01 16 -2.02 16 -1 16 C-0.67 10.72 -0.34 5.44 0 0 Z " fill="#25386D" transform="translate(155,49)"/>
<path d="M0 0 C0.33 0.66 0.66 1.32 1 2 C-0.23126223 5.35673725 -2.1094709 7.2259411 -4.8125 9.5 C-5.52019531 10.09941406 -6.22789062 10.69882813 -6.95703125 11.31640625 C-9.2858889 13.23559869 -11.62185925 15.14207754 -14 17 C-14.66 16.67 -15.32 16.34 -16 16 C-12.48926688 11.35677232 -8.68630185 8.04796858 -3.98828125 4.61328125 C-1.77007556 2.97644317 -1.77007556 2.97644317 0 0 Z " fill="#28439B" transform="translate(168,153)"/>
<path d="M0 0 C1.32 0 2.64 0 4 0 C4.33 4.29 4.66 8.58 5 13 C3.68 13 2.36 13 1 13 C0.67 8.71 0.34 4.42 0 0 Z " fill="#008BC9" transform="translate(97,47)"/>
<path d="M0 0 C1.79244141 0.01740234 1.79244141 0.01740234 3.62109375 0.03515625 C5.41740234 0.04869141 5.41740234 0.04869141 7.25 0.0625 C8.17683594 0.07410156 9.10367188 0.08570312 10.05859375 0.09765625 C10.05859375 0.42765625 10.05859375 0.75765625 10.05859375 1.09765625 C7.41859375 1.09765625 4.77859375 1.09765625 2.05859375 1.09765625 C2.31962891 1.92523438 2.31962891 1.92523438 2.5859375 2.76953125 C3.13264667 5.46241278 2.94361656 7.62413029 2.62109375 10.34765625 C2.51925781 11.2396875 2.41742188 12.13171875 2.3125 13.05078125 C2.22871094 13.72625 2.14492187 14.40171875 2.05859375 15.09765625 C1.39859375 14.76765625 0.73859375 14.43765625 0.05859375 14.09765625 C0.05859375 10.13765625 0.05859375 6.17765625 0.05859375 2.09765625 C-1.26140625 1.76765625 -2.58140625 1.43765625 -3.94140625 1.09765625 C-2.94140625 0.09765625 -2.94140625 0.09765625 0 0 Z " fill="#0092D2" transform="translate(103.94140625,64.90234375)"/>
<path d="M0 0 C1.98 0 3.96 0 6 0 C6.0809313 2.60478883 6.14045434 5.20706653 6.1875 7.8125 C6.22520508 8.91948242 6.22520508 8.91948242 6.26367188 10.04882812 C6.33834499 15.54974762 6.33834499 15.54974762 4.48828125 18.01171875 C3.75158203 18.50091797 3.75158203 18.50091797 3 19 C3.03480469 17.87980469 3.06960937 16.75960937 3.10546875 15.60546875 C3.13360839 14.13282749 3.16090837 12.66017002 3.1875 11.1875 C3.21263672 10.44951172 3.23777344 9.71152344 3.26367188 8.95117188 C3.38068437 4.67982462 3.38068437 4.67982462 1.48828125 0.98828125 C0.99714844 0.66214844 0.50601563 0.33601563 0 0 Z " fill="#040C33" transform="translate(152,46)"/>
<path d="M0 0 C6.80959748 1.00882926 12.03855935 4.79935927 16.5625 9.875 C17.036875 10.57625 17.51125 11.2775 18 12 C17.67 12.66 17.34 13.32 17 14 C16.7525 13.38125 16.505 12.7625 16.25 12.125 C14.7422997 9.5619095 13.64762954 9.25013747 11 8 C8.94787294 6.73563765 6.92616511 5.43016822 4.90234375 4.12109375 C2.89506996 2.84878807 2.89506996 2.84878807 0 2 C0 1.34 0 0.68 0 0 Z " fill="#98BBE7" transform="translate(40,52)"/>
<path d="M0 0 C0.99 0 1.98 0 3 0 C3.33 3.96 3.66 7.92 4 12 C2.68 12 1.36 12 0 12 C0 8.04 0 4.08 0 0 Z " fill="#0087C5" transform="translate(108,68)"/>
<path d="M0 0 C0.99 0 1.98 0 3 0 C3 4.29 3 8.58 3 13 C2.01 13 1.02 13 0 13 C0 8.71 0 4.42 0 0 Z " fill="#008AC8" transform="translate(107,46)"/>
<path d="M0 0 C2.0622048 -0.054348 4.12482816 -0.09294961 6.1875 -0.125 C7.33605469 -0.14820313 8.48460937 -0.17140625 9.66796875 -0.1953125 C12.91740372 -0.00484152 15.08660521 0.60639873 18 2 C18 2.33 18 2.66 18 3 C5.33029613 3.3690205 5.33029613 3.3690205 0 1 C0 0.67 0 0.34 0 0 Z " fill="#11275B" transform="translate(136,64)"/>
<path d="M0 0 C1 3 1 3 0.0703125 5.29296875 C-1.19011049 8.48082689 -1.20002557 10.89883662 -1.125 14.3125 C-1.10695313 15.38113281 -1.08890625 16.44976562 -1.0703125 17.55078125 C-1.04710938 18.35902344 -1.02390625 19.16726562 -1 20 C-1.66 20.33 -2.32 20.66 -3 21 C-3 15.06 -3 9.12 -3 3 C-2.01 2.67 -1.02 2.34 0 2 C0 1.34 0 0.68 0 0 Z " fill="#223A84" transform="translate(89,44)"/>
<path d="M0 0 C0.99 0 1.98 0 3 0 C3.98248524 4.0527516 4.08159574 7.83861737 4 12 C3.01 12 2.02 12 1 12 C0.67 8.04 0.34 4.08 0 0 Z " fill="#0186C3" transform="translate(99,69)"/>
<path d="M0 0 C0.33 0 0.66 0 1 0 C1.29296875 6.0546875 1.29296875 6.0546875 1 8 C-2.03525486 10.02350324 -3.19426202 10.32124018 -6.6875 10.625 C-7.49574219 10.69976562 -8.30398437 10.77453125 -9.13671875 10.8515625 C-10.05904297 10.92503906 -10.05904297 10.92503906 -11 11 C-11 10.34 -11 9.68 -11 9 C-7.12315913 7.80712589 -4.08378077 7 0 7 C0 4.69 0 2.38 0 0 Z " fill="#09174C" transform="translate(115,54)"/>
<path d="M0 0 C0.33 0 0.66 0 1 0 C1 3.3 1 6.6 1 10 C0.01 10.495 0.01 10.495 -1 11 C-0.01 11.66 0.98 12.32 2 13 C-2.455 13.495 -2.455 13.495 -7 14 C-5.35830472 11.97945196 -3.69088222 9.97956942 -2 8 C-1.67 8 -1.34 8 -1 8 C-0.67 5.36 -0.34 2.72 0 0 Z " fill="#0178B5" transform="translate(106,71)"/>
<path d="M0 0 C0.33 0.99 0.66 1.98 1 3 C-3.455 3.495 -3.455 3.495 -8 4 C-8 3.34 -8 2.68 -8 2 C-9.98 2 -11.96 2 -14 2 C-14 1.67 -14 1.34 -14 1 C-9.27685687 0.22887459 -4.78478822 -0.09764874 0 0 Z " fill="#0A1746" transform="translate(106,40)"/>
<path d="M0 0 C1.2065625 0.0309375 1.2065625 0.0309375 2.4375 0.0625 C1.4475 0.3925 0.4575 0.7225 -0.5625 1.0625 C-0.5625 3.0425 -0.5625 5.0225 -0.5625 7.0625 C-1.2225 7.0625 -1.8825 7.0625 -2.5625 7.0625 C-2.5625 8.7125 -2.5625 10.3625 -2.5625 12.0625 C-2.8925 12.0625 -3.2225 12.0625 -3.5625 12.0625 C-3.58937279 10.25007948 -3.60883715 8.43754767 -3.625 6.625 C-3.63660156 5.61566406 -3.64820312 4.60632813 -3.66015625 3.56640625 C-3.52706167 0.15386128 -3.42090834 0.08343679 0 0 Z " fill="#017DB9" transform="translate(77.5625,70.9375)"/>
<path d="M0 0 C0.66 0 1.32 0 2 0 C2 3.96 2 7.92 2 12 C1.34 12 0.68 12 0 12 C-0.19401633 10.18818595 -0.38004375 8.37551468 -0.5625 6.5625 C-0.66691406 5.55316406 -0.77132812 4.54382813 -0.87890625 3.50390625 C-0.91886719 2.67761719 -0.95882812 1.85132812 -1 1 C-0.67 0.67 -0.34 0.34 0 0 Z " fill="#0185C2" transform="translate(86,71)"/>
<path d="M0 0 C0.66 0 1.32 0 2 0 C3.20272819 2.40545638 3.10071472 3.94996953 3.0625 6.625 C3.05347656 7.44226563 3.04445313 8.25953125 3.03515625 9.1015625 C3.02355469 9.72804688 3.01195313 10.35453125 3 11 C2.34 11 1.68 11 1 11 C-0.17571451 7.32589215 -0.07366746 3.83070817 0 0 Z " fill="#0186C3" transform="translate(78,73)"/>
<path d="M0 0 C2.97 0.99 5.94 1.98 9 3 C8.01 4.485 8.01 4.485 7 6 C2.25 4.125 2.25 4.125 0 3 C0 2.01 0 1.02 0 0 Z " fill="#162453" transform="translate(126,125)"/>
<path d="M0 0 C0.99 0.33 1.98 0.66 3 1 C3 4.96 3 8.92 3 13 C2.67 13 2.34 13 2 13 C0.54815522 8.46298506 -0.23509196 4.81938524 0 0 Z " fill="#0A1749" transform="translate(178,110)"/>
<path d="M0 0 C0.66 0.66 1.32 1.32 2 2 C-1.465 4.97 -1.465 4.97 -5 8 C-5.33 7.01 -5.66 6.02 -6 5 C-5.34 5 -4.68 5 -4 5 C-4 4.34 -4 3.68 -4 3 C-2.68 2.67 -1.36 2.34 0 2 C0 1.34 0 0.68 0 0 Z " fill="#274399" transform="translate(64,54)"/>
<path d="M0 0 C2.1519437 3.22791555 2.20086443 4.28400809 2 8 C1.01 8 0.02 8 -1 8 C-0.67 5.36 -0.34 2.72 0 0 Z " fill="#060F3B" transform="translate(54,121)"/>
<path d="M0 0 C1.65 0.33 3.3 0.66 5 1 C4.01 1.33 3.02 1.66 2 2 C0.78130071 4.50447516 0.78130071 4.50447516 0 7 C-0.33 7 -0.66 7 -1 7 C-0.67 4.69 -0.34 2.38 0 0 Z " fill="#0F2761" transform="translate(92,65)"/>
<path d="M0 0 C1.98 0 3.96 0 6 0 C6 0.66 6 1.32 6 2 C5.21625 2.12375 4.4325 2.2475 3.625 2.375 C0.85942178 2.79117993 0.85942178 2.79117993 -1 5 C-0.67 3.35 -0.34 1.7 0 0 Z " fill="#010726" transform="translate(92,42)"/>
<path d="" fill="#3456C1" transform="translate(0,0)"/>
<path d="" fill="#3456C1" transform="translate(0,0)"/>
<path d="" fill="#3456C1" transform="translate(0,0)"/>
<path d="" fill="#3456C1" transform="translate(0,0)"/>
<path d="" fill="#3456C1" transform="translate(0,0)"/>
<path d="" fill="#3456C1" transform="translate(0,0)"/>
</svg>
