<?xml version="1.0" encoding="UTF-8"?>
<svg version="1.1" xmlns="http://www.w3.org/2000/svg" width="260" height="260">
<path d="M0 0 C4.32671832 4.04731769 7.7019899 8.48874593 11.125 13.3125 C11.97215576 14.49585937 11.97215576 14.49585937 12.83642578 15.703125 C17.48479936 22.2189276 22.03668979 28.79942579 26.54296875 35.4140625 C29.24912262 39.38224612 32.03948935 43.28875578 34.85546875 47.1796875 C36 49 36 49 36 51 C21.30117509 51.02333956 6.60235262 51.04098439 -8.09648705 51.05181217 C-14.92110182 51.05697288 -21.7457051 51.06401129 -28.5703125 51.07543945 C-35.15143433 51.08645465 -41.73254731 51.09227777 -48.31367874 51.09487724 C-50.82958795 51.0967307 -53.34549647 51.10034981 -55.8614006 51.10573006 C-59.37424913 51.11294622 -62.88704765 51.11399069 -66.39990234 51.11352539 C-67.44934525 51.11712067 -68.49878815 51.12071594 -69.58003235 51.12442017 C-70.53358109 51.1230455 -71.48712982 51.12167084 -72.46957397 51.12025452 C-73.71675988 51.12163721 -73.71675988 51.12163721 -74.98914146 51.12304783 C-77 51 -77 51 -79 50 C-79 49.34 -79 48.68 -79 48 C-78.34 48 -77.68 48 -77 48 C-77 47.34 -77 46.68 -77 46 C-75.34997172 44.64613064 -73.6825613 43.31321858 -72 42 C-71.67 41.34 -71.34 40.68 -71 40 C-70.34 40 -69.68 40 -69 40 C-69 39.34 -69 38.68 -69 38 C-67.34997172 36.64613064 -65.6825613 35.31321858 -64 34 C-63.67 33.34 -63.34 32.68 -63 32 C-62.34 32 -61.68 32 -61 32 C-61 31.34 -61 30.68 -61 30 C-59.34997172 28.64613064 -57.6825613 27.31321858 -56 26 C-55.67 25.34 -55.34 24.68 -55 24 C-54.34 24 -53.68 24 -53 24 C-53 23.34 -53 22.68 -53 22 C-51.34997172 20.64613064 -49.6825613 19.31321858 -48 18 C-47.67 17.34 -47.34 16.68 -47 16 C-46.34 16 -45.68 16 -45 16 C-45 15.34 -45 14.68 -45 14 C-43.34997172 12.64613064 -41.6825613 11.31321858 -40 10 C-39.67 9.34 -39.34 8.68 -39 8 C-38.34 8 -37.68 8 -37 8 C-36.67 7.34 -36.34 6.68 -36 6 C-29.07 17.88 -29.07 17.88 -22 30 C-18.15811388 26.5797509 -18.15811388 26.5797509 -17 24 C-16.34 24 -15.68 24 -15 24 C-14.77183594 23.319375 -14.54367188 22.63875 -14.30859375 21.9375 C-12.66428172 18.24638763 -10.45863716 15.2363411 -8.0625 12 C-5.19082098 8.08749409 -2.41992156 4.21689302 0 0 Z " fill="#CCCCCC" transform="translate(172,110)"/>
<path d="M0 0 C0.66 0 1.32 0 2 0 C2.76964108 1.3436871 3.53914049 2.68745534 4.30859375 4.03125 C5.05266479 5.330625 5.05266479 5.330625 5.81176758 6.65625 C6.90087985 8.56133781 7.98793821 10.46760119 9.07299805 12.375 C11.62733768 16.86442257 14.19256807 21.34355914 16.8359375 25.78125 C17.25689697 26.49861328 17.67785645 27.21597656 18.11157227 27.95507812 C18.89479733 29.2887421 19.68909737 30.61598183 20.49584961 31.93554688 C22.18281444 34.83707953 23.04174762 36.54501146 22.73046875 39.9375 C22.48941406 40.618125 22.24835938 41.29875 22 42 C21.34 42 20.68 42 20 42 C20 42.66 20 43.32 20 44 C19.34 44 18.68 44 18 44 C18 44.66 18 45.32 18 46 C17.34 46 16.68 46 16 46 C15.67 46.99 15.34 47.98 15 49 C10.68181818 53.77272727 10.68181818 53.77272727 7 55 C7 55.66 7 56.32 7 57 C2.69767442 61.76744186 2.69767442 61.76744186 -1 63 C-1 63.66 -1 64.32 -1 65 C-2.65002828 66.35386936 -4.3174387 67.68678142 -6 69 C-6.33 69.66 -6.66 70.32 -7 71 C-7.66 71 -8.32 71 -9 71 C-9.495 72.485 -9.495 72.485 -10 74 C-12.4375 76.6875 -12.4375 76.6875 -15 79 C-15.66 79 -16.32 79 -17 79 C-17 79.66 -17 80.32 -17 81 C-18.3203125 82.26171875 -18.3203125 82.26171875 -20.125 83.6875 C-23.38945518 86.35961453 -25.92701053 89.20691056 -28.4453125 92.58203125 C-32.34137126 96.13547178 -38.35196607 95.12012908 -43.3125 95.0625 C-44.05306641 95.05798828 -44.79363281 95.05347656 -45.55664062 95.04882812 C-47.37112899 95.03712175 -49.18557534 95.01918898 -51 95 C-52 92 -52 92 -51.19897461 90.08984375 C-50.77108643 89.37957031 -50.34319824 88.66929687 -49.90234375 87.9375 C-49.42990234 87.13957031 -48.95746094 86.34164062 -48.47070312 85.51953125 C-47.96474609 84.68808594 -47.45878906 83.85664063 -46.9375 83 C-45.96592342 81.37591102 -44.9958834 79.7509019 -44.02734375 78.125 C-43.52944336 77.29121826 -43.03154297 76.45743652 -42.51855469 75.59838867 C-40.4338317 72.03123324 -38.4720716 68.40216885 -36.50708008 64.76806641 C-34.023728 60.20687317 -31.4435167 55.7010955 -28.875 51.1875 C-24.44056375 43.37538768 -20.08848732 35.52485874 -15.8125 27.625 C-12.07731714 20.74657206 -8.29725401 13.89882118 -4.375 7.125 C-3.96096924 6.39877441 -3.54693848 5.67254883 -3.12036133 4.92431641 C-2.13805826 3.24763738 -1.07692388 1.61753109 0 0 Z " fill="#CBCBCB" transform="translate(106,66)"/>
<path d="M0 0 C7.26 0 14.52 0 22 0 C22 39.27 22 78.54 22 119 C19.37929744 120.31035128 17.45632569 120.12291863 14.52047729 120.12025452 C13.35657471 120.12162918 12.19267212 120.12300385 10.99349976 120.12442017 C9.06868271 120.11902725 9.06868271 120.11902725 7.10498047 120.11352539 C5.74509686 120.11324343 4.38521311 120.11340143 3.02532959 120.1139679 C-0.6727944 120.11425552 -4.37088615 120.10836435 -8.06900263 120.10139394 C-11.9314066 120.09515468 -15.79381125 120.09455615 -19.65621948 120.09336853 C-26.97309887 120.09025691 -34.28996337 120.08204579 -41.6068362 120.07201904 C-49.9356217 120.06085267 -58.2644079 120.05534613 -66.59319901 120.05032361 C-83.72880797 120.03986304 -100.86440241 120.02226686 -118 120 C-116.60763089 116.63510797 -115.17394868 114.82520673 -112 113 C-109.50878525 112.64647388 -109.50878525 112.64647388 -106.65960693 112.67720032 C-105.57709656 112.68149048 -104.49458618 112.68578064 -103.37927246 112.69020081 C-102.19675903 112.71033737 -101.01424561 112.73047394 -99.79589844 112.7512207 C-97.92233673 112.76519394 -97.92233673 112.76519394 -96.01092529 112.77944946 C-92.58948044 112.80792914 -89.1686954 112.84985295 -85.74750042 112.89774728 C-82.17081858 112.94464284 -78.59399514 112.97436424 -75.01715088 113.00590515 C-68.24558498 113.06822839 -61.47428818 113.14600307 -54.70295167 113.22932547 C-45.55167528 113.34104069 -36.40017189 113.42889586 -27.24865341 113.51808453 C-12.83217205 113.65921371 1.58374708 113.83222813 16 114 C16 78.36 16 42.72 16 6 C9.73 6 3.46 6 -3 6 C-3 5.01 -3 4.02 -3 3 C-2.01 2.01 -1.02 1.02 0 0 Z " fill="#CDCDCD" transform="translate(199,53)"/>
<path d="M0 0 C46.53 0 93.06 0 141 0 C137 5 137 5 134.47755051 5.63085651 C133.52257298 5.63362189 132.56759544 5.63638727 131.5836792 5.63923645 C130.48434052 5.65452393 129.38500183 5.6698114 128.25234985 5.68556213 C127.05113495 5.67693649 125.84992004 5.66831085 124.61230469 5.65942383 C123.34375641 5.66990753 122.07520813 5.68039124 120.76821899 5.69119263 C117.29318098 5.71934917 113.81875998 5.71686595 110.34364223 5.70889878 C106.7107119 5.70577478 103.07797846 5.73080485 99.44512939 5.75285339 C92.5674465 5.79031524 85.68996133 5.80244263 78.81218648 5.8054778 C69.51715124 5.81104305 60.22230948 5.85572363 50.92738342 5.89821911 C36.28487426 5.9641315 21.64279145 5.97776495 7 6 C6.67 41.64 6.34 77.28 6 114 C12.6 114 19.2 114 26 114 C24 118 24 118 22.109375 118.828125 C14.42062824 120.20293402 8.16530968 120 0 120 C0 80.4 0 40.8 0 0 Z " fill="#CBCBCB" transform="translate(41,53)"/>
<path d="M0 0 C1.98 0.99 1.98 0.99 4 2 C4 5 4 5 1.76953125 7.5234375 C0.79134265 8.48166307 -0.19470881 9.43191209 -1.1875 10.375 C-1.67025391 10.84421875 -2.15300781 11.3134375 -2.65039062 11.796875 C-3.61903502 12.73821532 -4.58998145 13.67719273 -5.56323242 14.61376953 C-9.91538074 18.7892438 -9.91538074 18.7892438 -13.8125 23.375 C-16.28373432 26.34048119 -19.03306854 28.66030072 -21.96875 31.15234375 C-24.51738007 33.47061687 -26.64641373 36.01150348 -28.7734375 38.71484375 C-29.17820313 39.13894531 -29.58296875 39.56304687 -30 40 C-30.66 40 -31.32 40 -32 40 C-32 40.66 -32 41.32 -32 42 C-33.50390625 43.48046875 -33.50390625 43.48046875 -35.5625 45.1875 C-39.58697608 48.60759363 -43.30571255 52.23099663 -47 56 C-48.66517123 57.66816076 -50.33218033 59.33448713 -52 61 C-53.34383576 62.34366424 -54.68757743 63.68742257 -56.03125 65.03125 C-59.01041667 68.01041667 -61.98958333 70.98958333 -64.96875 73.96875 C-65.66726074 74.66798584 -66.36577148 75.36722168 -67.08544922 76.08764648 C-68.23512175 77.23599957 -69.3870598 78.38210064 -70.54345703 79.52368164 C-72.78521322 81.739079 -74.89066236 83.98936747 -76.875 86.4375 C-79.45493898 89.50159206 -82.26458803 91.99179363 -85.34765625 94.53515625 C-87.25141992 96.14903343 -87.25141992 96.14903343 -89.5 99 C-91.92081175 101.9049741 -94.41781302 104.10439698 -97.3125 106.5 C-99.24555317 108.14332242 -99.24555317 108.14332242 -101.5 111 C-103.91968777 113.90362532 -106.41281781 116.15690789 -109.30078125 118.5625 C-113.36650786 122.00201125 -116.69801712 125.84589251 -120 130 C-122.125 132.3125 -122.125 132.3125 -124 134 C-124.66 134 -125.32 134 -126 134 C-126 134.66 -126 135.32 -126 136 C-126.66 136 -127.32 136 -128 136 C-128 136.66 -128 137.32 -128 138 C-129.22265625 139.19921875 -129.22265625 139.19921875 -131.0625 140.6875 C-137.52597942 146.16639922 -143.3729362 152.29438949 -149.328125 158.31201172 C-151.54410558 160.54934959 -153.77145302 162.77518593 -156 165 C-156.77601563 165.77601563 -157.55203125 166.55203125 -158.3515625 167.3515625 C-163.17578125 172.17578125 -163.17578125 172.17578125 -168 177 C-169.32 176.34 -170.64 175.68 -172 175 C-172 172 -172 172 -170.89713097 170.52453548 C-170.37463579 170.00317946 -169.85214062 169.48182345 -169.31381226 168.94466877 C-168.4150962 168.03699299 -168.4150962 168.03699299 -167.49822426 167.11098033 C-166.82898115 166.45047575 -166.15973804 165.78997117 -165.47021484 165.10945129 C-164.41665833 164.05204987 -164.41665833 164.05204987 -163.34181786 162.97328681 C-160.97194254 160.59844588 -158.59145785 158.2345282 -156.2109375 155.87036133 C-154.51573372 154.17600322 -152.82118917 152.48098531 -151.1272583 150.78535461 C-147.47138485 147.12879665 -143.81093353 143.47688836 -140.14630127 139.8291111 C-134.84783259 134.55499625 -129.55764138 129.27264277 -124.2694509 123.98822471 C-115.69004646 115.41539043 -107.10396022 106.84928068 -98.51367188 98.28735352 C-90.16771598 89.96892357 -81.82490849 81.64735682 -73.48632812 73.3215332 C-72.97256489 72.80855813 -72.45880165 72.29558307 -71.92946982 71.7670633 C-69.35215804 69.19366655 -66.77490816 66.62020781 -64.19768906 64.04671824 C-42.80804911 42.68819182 -21.40745496 21.34067143 0 0 Z " fill="#CDCDCD" transform="translate(215,24)"/>
<path d="M0 0 C5.11762818 2.65358498 8.17705942 5.53117826 10 11 C10.52050475 17.89668795 8.99440736 21.64762208 4.5625 26.875 C0.71627801 29.84401346 -3.45784784 29.69570586 -8.15234375 29.48046875 C-12.624774 28.72586118 -14.09624187 27.49940083 -17 24 C-20.22613337 18.48435262 -20.36312307 15.0366879 -19 9 C-17.32556802 4.90694406 -14.97455034 2.77500494 -11.02734375 0.73046875 C-7.32095481 -0.60497389 -3.85969044 -0.70304015 0 0 Z " fill="#CBCBCB" transform="translate(82,65)"/>
<path d="M0 0 C2.1640625 0.0234375 2.1640625 0.0234375 4.625 0.375 C5.85089844 0.54128906 5.85089844 0.54128906 7.1015625 0.7109375 C7.72804687 0.80632812 8.35453125 0.90171875 9 1 C8.3125 3.875 8.3125 3.875 7 7 C4.4375 8.3125 4.4375 8.3125 2 9 C1.67 9.33 1.34 9.66 1 10 C3.31 10.33 5.62 10.66 8 11 C8.33 12.65 8.66 14.3 9 16 C5.3558226 18.4294516 3.28758728 18.16179575 -1 18 C-3.58427805 14.19959111 -2.76673882 11.37041129 -2 7 C-2.020625 6.071875 -2.04125 5.14375 -2.0625 4.1875 C-2 2 -2 2 0 0 Z M1 2 C0.67 2.99 0.34 3.98 0 5 C1.98 5.99 1.98 5.99 4 7 C4.33 5.35 4.66 3.7 5 2 C3.68 2 2.36 2 1 2 Z M0 13 C0 13.99 0 14.98 0 16 C1.98 16 3.96 16 6 16 C6 15.01 6 14.02 6 13 C4.02 13 2.04 13 0 13 Z " fill="#D5D5D5" transform="translate(162,218)"/>
<path d="M0 0 C4.12638505 2.06319252 5.50114255 3.55148531 8.25 7.125 C8.95640625 8.03507813 9.6628125 8.94515625 10.390625 9.8828125 C11.18726562 10.93082031 11.18726562 10.93082031 12 12 C12.33 8.04 12.66 4.08 13 0 C13.66 0 14.32 0 15 0 C15 5.94 15 11.88 15 18 C10.67382245 15.83691123 9.46119756 14.26104984 6.75 10.375 C6.04359375 9.37210938 5.3371875 8.36921875 4.609375 7.3359375 C4.07828125 6.56507813 3.5471875 5.79421875 3 5 C2.67 9.29 2.34 13.58 2 18 C1.34 18 0.68 18 0 18 C0 12.06 0 6.12 0 0 Z " fill="#D0D0D0" transform="translate(77,213)"/>
<path d="M0 0 C7.75 -0.125 7.75 -0.125 10 1 C10.99 0.814375 11.98 0.62875 13 0.4375 C14.485 0.2209375 14.485 0.2209375 16 0 C18 2 18 2 18.1953125 4.8203125 C18.17210937 5.91085938 18.14890625 7.00140625 18.125 8.125 C18.10695312 9.22070312 18.08890625 10.31640625 18.0703125 11.4453125 C18.04710937 12.28835937 18.02390625 13.13140625 18 14 C17.34 13.67 16.68 13.34 16 13 C15.5859375 10.71484375 15.5859375 10.71484375 15.375 7.9375 C15.30023438 7.01839844 15.22546875 6.09929687 15.1484375 5.15234375 C15.09945312 4.44207031 15.05046875 3.73179687 15 3 C13.68 3 12.36 3 11 3 C10.67 6.63 10.34 10.26 10 14 C9.34 13.67 8.68 13.34 8 13 C7.5859375 10.71484375 7.5859375 10.71484375 7.375 7.9375 C7.30023438 7.01839844 7.22546875 6.09929687 7.1484375 5.15234375 C7.09945312 4.44207031 7.05046875 3.73179687 7 3 C5.68 3 4.36 3 3 3 C2.67 6.63 2.34 10.26 2 14 C1.34 13.67 0.68 13.34 0 13 C0 8.71 0 4.42 0 0 Z " fill="#CFCFCF" transform="translate(125,218)"/>
<path d="M0 0 C1.97610386 2.04424538 3 3.1176825 3 6 C-0.47325181 7.1577506 -3.36067448 7.06866652 -7 7 C-6.67 8.32 -6.34 9.64 -6 11 C-3.36 11 -0.72 11 2 11 C2 11.66 2 12.32 2 13 C-0.9431585 13.66889966 -3.32684055 14.12735449 -6.3125 13.5625 C-8.73674217 11.31783132 -8.91768603 9.20292105 -9.1640625 5.9765625 C-9 4 -9 4 -7.375 1.5 C-4.56182405 -0.27674271 -3.26032267 -0.66878414 0 0 Z M-5 2 C-5 2.99 -5 3.98 -5 5 C-3.35 5 -1.7 5 0 5 C-0.33 4.01 -0.66 3.02 -1 2 C-2.32 2 -3.64 2 -5 2 Z " fill="#D6D6D6" transform="translate(182,218)"/>
<path d="M0 0 C0 3.96 0 7.92 0 12 C-6.0546875 12.9765625 -6.0546875 12.9765625 -8 13 C-8.66 12.34 -9.32 11.68 -10 11 C-9.8125 9 -9.8125 9 -9 7 C-6 5 -6 5 -2 5 C-2.33 4.01 -2.66 3.02 -3 2 C-4.98 2 -6.96 2 -9 2 C-9 1.34 -9 0.68 -9 0 C-5.93109813 -1.53445094 -3.29905734 -0.54984289 0 0 Z M-6 7 C-6.33 8.32 -6.66 9.64 -7 11 C-5.01508358 10.73323796 -5.01508358 10.73323796 -3 10 C-2.67 9.01 -2.34 8.02 -2 7 C-3.32 7 -4.64 7 -6 7 Z " fill="#D2D2D2" transform="translate(156,219)"/>
<path d="M0 0 C1.67578125 1.23046875 1.67578125 1.23046875 3 3 C3.29296875 5.26171875 3.29296875 5.26171875 3.1875 7.6875 C3.16042969 8.49574219 3.13335937 9.30398437 3.10546875 10.13671875 C3.07066406 10.75160156 3.03585938 11.36648437 3 12 C-3.36085627 14.20183486 -3.36085627 14.20183486 -6.375 13.25 C-8 12 -8 12 -9 10 C-9.4524237 3.77917415 -9.4524237 3.77917415 -7.875 1.0625 C-5.11019567 -0.50422245 -3.11811483 -0.38976435 0 0 Z M-6 2 C-7.49106457 4.98212913 -7.11941467 7.71609658 -7 11 C-5.87465895 12.35618499 -5.87465895 12.35618499 -2.9375 12.0625 C-1.968125 12.041875 -0.99875 12.02125 0 12 C1.39935013 9.20129973 1.25265405 7.09501208 1 4 C-0.31318262 2.10041919 -0.31318262 2.10041919 -2 1 C-3.36893239 0.94729537 -3.36893239 0.94729537 -6 2 Z " fill="#D1D1D1" transform="translate(105,218)"/>
<path d="M0 0 C0.66 0 1.32 0 2 0 C2 4.29 2 8.58 2 13 C1.01 13.495 1.01 13.495 0 14 C0 9.38 0 4.76 0 0 Z " fill="#D0D0D0" transform="translate(119,218)"/>
<path d="M0 0 C0.33 0 0.66 0 1 0 C1 5.61 1 11.22 1 17 C0.01 16.67 -0.98 16.34 -2 16 C-2 15.01 -2 14.02 -2 13 C-1.34 13 -0.68 13 0 13 C0 8.71 0 4.42 0 0 Z " fill="#CCCCCC" transform="translate(91,214)"/>
<path d="M0 0 C2.5625 0.375 2.5625 0.375 4.375 2.25 C5.5625 4.375 5.5625 4.375 5.5625 6.375 C4.9025 6.375 4.2425 6.375 3.5625 6.375 C3.5625 5.385 3.5625 4.395 3.5625 3.375 C0.9225 3.045 -1.7175 2.715 -4.4375 2.375 C-2.4375 0.375 -2.4375 0.375 0 0 Z " fill="#D1D1D1" transform="translate(179.4375,217.625)"/>
<path d="M0 0 C0.33 0.99 0.66 1.98 1 3 C2.65 2.34 4.3 1.68 6 1 C6 1.66 6 2.32 6 3 C6.66 3.33 7.32 3.66 8 4 C5.36 4.33 2.72 4.66 0 5 C-0.33 4.34 -0.66 3.68 -1 3 C-0.67 2.01 -0.34 1.02 0 0 Z " fill="#DCDCDC" transform="translate(148,227)"/>
<path d="M0 0 C0.99 0 1.98 0 3 0 C2.8125 1.875 2.8125 1.875 2 4 C-0.5625 5.25 -0.5625 5.25 -3 6 C-3 5.34 -3 4.68 -3 4 C-2.34 3.67 -1.68 3.34 -1 3 C-0.67 2.01 -0.34 1.02 0 0 Z " fill="#D9D9D9" transform="translate(167,221)"/>
<path d="M0 0 C4.95 0.99 4.95 0.99 10 2 C10 2.66 10 3.32 10 4 C7.03 3.67 4.06 3.34 1 3 C0.67 2.01 0.34 1.02 0 0 Z " fill="#CECECE" transform="translate(160,227)"/>
<path d="M0 0 C0.66 0.33 1.32 0.66 2 1 C2 1.66 2 2.32 2 3 C1.01 2.67 0.02 2.34 -1 2 C-0.67 1.34 -0.34 0.68 0 0 Z " fill="#D2D2D2" transform="translate(119,212)"/>
</svg>
