<?xml version="1.0" encoding="UTF-8"?>
<svg version="1.1" xmlns="http://www.w3.org/2000/svg" width="512" height="512">
<path d="M0 0 C0.81261103 -0.00698001 1.62522205 -0.01396002 2.46245766 -0.02115154 C12.1656126 0.07707591 20.31106485 3.53753861 27.29931641 10.30786133 C38.97908906 23.63377643 39.13155504 42.94356346 41.43603516 59.77661133 C41.74793816 62.03715209 42.05993116 64.29768043 42.37200928 66.55819702 C43.02131234 71.27272381 43.6660232 75.98785384 44.30810547 80.70336914 C45.12838882 86.72112346 45.96556535 92.73639748 46.80685806 98.7512455 C47.45565023 103.41026674 48.09269135 108.070841 48.72655487 112.73191452 C49.03011434 114.9498745 49.33788293 117.16726294 49.65009308 119.38402176 C53.88644763 149.54845842 53.88644763 149.54845842 47.04541016 161.30004883 C40.51858224 169.92253136 32.97121361 177.30516898 22.04541016 179.30004883 C8.92486981 180.41149956 -1.34910621 178.4970116 -11.69677734 169.84301758 C-22.129252 160.28364702 -23.66875779 147.61952825 -25.95458984 134.30004883 C-33.21891992 143.56126517 -40.41589179 152.86586629 -47.45458984 162.30004883 C-52.28290445 168.77116651 -57.16857828 175.18981169 -62.14208984 181.55004883 C-66.92704798 187.66977243 -71.63834968 193.83631915 -76.28442383 200.06201172 C-82.41378446 208.26963222 -88.63966541 216.40355264 -94.85498047 224.54614258 C-96.99042277 227.3470483 -99.12152792 230.15120479 -101.25146484 232.95629883 C-101.95561523 233.88289307 -102.65976562 234.8094873 -103.38525391 235.76416016 C-104.71627974 237.51588186 -106.04643002 239.26826937 -107.37548828 241.02148438 C-109.22592245 243.4549753 -111.08647233 245.88010847 -112.95458984 248.30004883 C-113.64504395 249.19554443 -114.33549805 250.09104004 -115.046875 251.01367188 C-115.74087402 251.89966064 -116.43487305 252.78564941 -117.14990234 253.69848633 C-117.77396973 254.49818848 -118.39803711 255.29789063 -119.04101562 256.12182617 C-125.32898579 263.2794263 -133.73144923 266.66519443 -143.05615234 267.61645508 C-154.62077147 268.04426318 -163.98797728 265.11947081 -172.76318359 257.49926758 C-180.55161135 249.68307359 -183.98667068 240.88444441 -184.39208984 229.92504883 C-183.82529418 214.2010401 -175.277512 204.21803545 -165.95458984 192.30004883 C-164.71564777 190.70029997 -163.47735476 189.10004822 -162.23974609 187.49926758 C-159.8728974 184.44464125 -157.49707688 181.39729968 -155.11474609 178.35473633 C-151.84006201 174.16553563 -148.64637656 169.91980877 -145.47021484 165.65551758 C-142.12507675 161.1771229 -138.72200654 156.74265232 -135.32958984 152.30004883 C-129.95874063 145.26511682 -124.62572245 138.20387485 -119.32958984 131.11254883 C-113.96434799 123.93050178 -108.49999236 116.83455398 -102.97314453 109.77636719 C-97.47470666 102.73258055 -92.18832295 95.54182647 -86.95458984 88.30004883 C-87.57390381 88.34081543 -88.19321777 88.38158203 -88.83129883 88.42358398 C-91.68423731 88.60387034 -94.53797181 88.76456168 -97.39208984 88.92504883 C-98.36597656 88.98950195 -99.33986328 89.05395508 -100.34326172 89.12036133 C-112.19324237 89.754474 -121.46237407 87.24461004 -130.64208984 79.61254883 C-134.88895595 75.68785877 -137.60514377 71.55563704 -139.95458984 66.30004883 C-140.31037109 65.51114258 -140.66615234 64.72223633 -141.03271484 63.90942383 C-144.22204472 54.88199859 -143.35260696 45.11018048 -139.95458984 36.30004883 C-135.34918146 27.38141809 -128.49869867 19.763742 -118.95458984 16.30004883 C-107.40336994 13.28842904 -95.53031367 11.81200593 -83.72802734 10.16333008 C-81.68843907 9.87620412 -79.64885791 9.58902762 -77.60928345 9.30180359 C-73.35203324 8.70383763 -69.09417512 8.11042195 -64.8359375 7.51953125 C-59.43542724 6.76920133 -54.03753659 6.00153759 -48.64008141 5.22958088 C-44.43205145 4.63083133 -40.22234008 4.04461401 -36.01210403 3.46159935 C-34.02399423 3.18424783 -32.03649061 2.90250763 -30.04969406 2.61590004 C-20.02594284 1.17454514 -10.1378488 0.05633348 0 0 Z " fill="#FFD421" transform="translate(438.95458984375,-0.300048828125)"/>
<path d="M0 0 C1.55466948 -0.00913666 1.55466948 -0.00913666 3.14074641 -0.01845789 C6.60068282 -0.03505731 10.06024998 -0.0303164 13.5202179 -0.0255127 C16.00586834 -0.03285453 18.49151538 -0.04144109 20.97715759 -0.05117798 C27.01904762 -0.07108002 33.0607934 -0.07677575 39.10270341 -0.07499009 C44.0128555 -0.07368072 48.9229777 -0.07749551 53.83312416 -0.08491516 C55.24923112 -0.0870144 56.66533808 -0.089112 58.08144504 -0.09120798 C59.1387636 -0.09277327 59.1387636 -0.09277327 60.21744213 -0.09437019 C73.53297432 -0.11325127 86.84845135 -0.11222814 100.16399137 -0.10540086 C112.34636038 -0.09981976 124.52851947 -0.12067862 136.71083941 -0.15376133 C149.22602227 -0.18748396 161.7411045 -0.20266894 174.25633365 -0.1980443 C181.28031829 -0.19579908 188.30410862 -0.20105107 195.32805443 -0.22593689 C201.92814509 -0.24912278 208.52787045 -0.24638505 215.12799454 -0.22600937 C217.5528033 -0.22258737 219.97764122 -0.2277392 222.40241051 -0.24199295 C225.70694226 -0.26008155 229.00996824 -0.24751255 232.31445312 -0.22705078 C233.27884188 -0.23956863 234.24323063 -0.25208648 235.23684329 -0.26498365 C239.84442521 -0.20361302 241.81238397 -0.11976035 245.53876972 2.80825043 C248.60986096 6.92775572 249.17368232 10.31393015 248.4667511 15.39440918 C245.4667511 20.89440918 245.4667511 20.89440918 242.4667511 22.39440918 C241.11753636 22.48992497 239.76374792 22.52461188 238.41115952 22.52748775 C237.5574457 22.5317288 236.70373188 22.53596985 235.82414794 22.54033941 C234.88078401 22.53995328 233.93742008 22.53956715 232.96546936 22.53916931 C231.96752358 22.54269616 230.96957779 22.546223 229.94139123 22.54985672 C226.57581649 22.56058625 223.21027 22.56423207 219.84468079 22.56799316 C217.44035725 22.57429519 215.03603489 22.5810606 212.63171387 22.58825684 C207.44303978 22.60295151 202.25436736 22.61474713 197.06568146 22.62420464 C189.55711786 22.63806876 182.04858801 22.65925568 174.54004863 22.68263317 C162.35009675 22.72057051 150.16013875 22.7555297 137.97016907 22.78723145 C137.24017331 22.78913194 136.51017756 22.79103243 135.75806072 22.79299051 C125.40312892 22.81981056 115.04819239 22.8436866 104.69325081 22.86637551 C103.96446782 22.86797281 103.23568483 22.86957012 102.4848175 22.87121582 C101.39297343 22.87360602 101.39297343 22.87360602 100.2790719 22.8760445 C88.14036158 22.90281616 76.00168712 22.93721835 63.86301541 22.97786957 C56.37439555 23.00264119 48.88581425 23.02096978 41.3971599 23.03102518 C35.65712541 23.03929293 29.91715955 23.0577916 24.17716408 23.08008575 C21.82213234 23.08756808 19.46708697 23.09164272 17.11204338 23.09208107 C13.89991221 23.09316183 10.6880523 23.10639416 7.47596741 23.12266541 C6.54152636 23.12004855 5.60708532 23.1174317 4.64432788 23.11473554 C-0.07263764 23.15211993 -4.21511165 23.26418541 -8.5332489 25.39440918 C-10.63920274 28.58391313 -10.78443248 31.22692238 -10.78772449 34.99513149 C-10.79355669 36.14256594 -10.79938888 37.29000039 -10.80539781 38.47220558 C-10.80161848 39.73337466 -10.79783916 40.99454373 -10.79394531 42.29393005 C-10.79696523 43.64675548 -10.80085391 44.9995792 -10.80553788 46.35239989 C-10.81584722 50.07345496 -10.81362863 53.794414 -10.80935729 57.51547706 C-10.80689538 61.5271388 -10.81589753 65.53877709 -10.82339478 69.5504303 C-10.83615862 77.41096439 -10.83793338 85.27146435 -10.83559451 93.13200705 C-10.83381312 99.51964984 -10.83555715 105.90728224 -10.83981895 112.29492378 C-10.84041414 113.20325669 -10.84100933 114.11158961 -10.84162256 115.04744776 C-10.84283428 116.89258897 -10.84404841 118.73773018 -10.84526493 120.58287138 C-10.85614691 137.89521651 -10.85397483 155.20754218 -10.84788009 172.51988841 C-10.84271001 188.36573716 -10.85396761 204.21152446 -10.87297831 220.05736106 C-10.89233925 236.31952612 -10.9006158 252.58166208 -10.89685506 268.84383875 C-10.8949404 277.97716548 -10.89745626 287.1104399 -10.9115696 296.24375725 C-10.92346215 304.01874817 -10.92491222 311.79365456 -10.91277943 319.5686466 C-10.90687582 323.53684594 -10.905832 327.5048905 -10.91778183 331.47307968 C-10.92859038 335.10442777 -10.92559774 338.73549093 -10.91152015 342.36682541 C-10.90759696 344.30551235 -10.91846125 346.24421172 -10.92981702 348.18286937 C-10.92261048 349.33291157 -10.91540393 350.48295377 -10.90797901 351.66784573 C-10.90803403 352.66016498 -10.90808904 353.65248423 -10.90814573 354.67487377 C-10.45748291 357.94402251 -9.52762297 359.77569083 -7.5332489 362.39440918 C-4.41918827 364.58929756 -1.71502512 364.64558801 2.03344536 364.64888477 C3.17329632 364.65471697 4.31314728 364.66054916 5.48753917 364.66655809 C6.74024423 364.66277876 7.99294929 364.65899944 9.28361511 364.65510559 C10.62747826 364.65812554 11.97133969 364.66201423 13.31519806 364.66669816 C17.01151957 364.67700723 20.70774441 364.67478896 24.40407395 364.67051756 C28.38916977 364.66805559 32.37424199 364.67705794 36.35932922 364.68455505 C44.16806143 364.69731905 51.97675927 364.69909361 59.78550015 364.69675479 C66.13165839 364.69497329 72.47780618 364.69671767 78.82396317 364.70097923 C79.72645663 364.70157442 80.6289501 364.70216961 81.55879185 364.70278284 C83.39209333 364.70399456 85.22539481 364.7052087 87.05869628 364.70642521 C104.26043258 364.71730741 121.46214928 364.71513511 138.66388668 364.70904037 C154.40559562 364.7038712 170.14724267 364.71512542 185.88893937 364.73413859 C202.04601814 364.75350409 218.20306762 364.76177521 234.36015809 364.75801533 C243.43371308 364.75610125 252.50721541 364.7586109 261.58076096 364.77272987 C269.30558447 364.78462829 277.03032291 364.78606593 284.75514756 364.77393971 C288.69714269 364.76804002 292.63898208 364.76698151 296.58096695 364.77894211 C300.189546 364.78976393 303.79783859 364.78674201 307.40640403 364.77268042 C309.33043377 364.76876427 311.25447606 364.77961083 313.17847621 364.7909773 C321.31596251 364.8042936 321.31596251 364.8042936 328.4667511 361.39440918 C329.71226993 358.90337153 329.5938849 357.23950866 329.59703636 354.45142078 C329.60247288 352.87394478 329.60247288 352.87394478 329.60801923 351.26460057 C329.60695098 350.10013471 329.60588273 348.93566885 329.6047821 347.73591614 C329.60760338 346.50591344 329.61042466 345.27591073 329.61333144 344.00863522 C329.62024671 340.58337833 329.62270492 337.15816884 329.62338257 333.73290837 C329.62521877 330.04292572 329.63282372 326.35295488 329.63986206 322.66297913 C329.65140024 316.26456664 329.65963808 309.86615681 329.66598129 303.4677372 C329.67629687 293.35475039 329.69685816 283.24179656 329.71910095 273.12882996 C329.72658115 269.67040359 329.73399483 266.21197708 329.74138832 262.75355053 C329.74416417 261.45699144 329.74416417 261.45699144 329.7469961 260.13423923 C329.76793363 250.28940651 329.78675637 240.44457015 329.80464172 230.59973145 C329.80627991 229.69953296 329.80791809 228.79933448 329.80960591 227.87185725 C329.83588322 213.28823506 329.85453012 198.70461034 329.87123363 184.12097452 C329.88865343 169.15383335 329.91749866 154.18674189 329.95612299 139.21964043 C329.97952659 129.98517467 329.99351789 120.75078998 329.99545063 111.51629432 C329.99755979 105.18636245 330.01048724 98.85651117 330.03192995 92.52661548 C330.04395953 88.87413171 330.05111001 85.22180795 330.04521751 81.56930542 C330.03894239 77.60870229 330.0557427 73.64838721 330.07475281 69.68782043 C330.06922311 68.53450818 330.06369342 67.38119592 330.05799615 66.19293481 C330.10808953 60.15958177 330.47433051 55.68937542 333.4667511 50.39440918 C336.9185634 47.33708972 340.07843012 46.92027133 344.5370636 47.10534668 C347.42436991 47.53785815 349.22747619 48.55030043 351.4667511 50.39440918 C353.44616063 53.54724061 353.71844167 55.99526001 353.72402 59.68443489 C353.7304689 60.76260133 353.73691779 61.84076777 353.7435621 62.95160592 C353.7389163 64.72735161 353.7389163 64.72735161 353.73417664 66.53897095 C353.73870775 67.79715067 353.74323886 69.05533039 353.74790728 70.35163677 C353.76015669 73.84640586 353.75987453 77.34107935 353.75751853 80.83586502 C353.75711084 84.60427073 353.76814515 88.3726456 353.77763367 92.14103699 C353.79425665 99.52598658 353.79974385 106.91090424 353.80085842 114.29587097 C353.80180854 120.30017629 353.80591704 126.30447106 353.81225967 132.30877304 C353.82987775 149.33378544 353.83909798 166.35877262 353.83759873 183.3837942 C353.83751881 184.30188699 353.8374389 185.21997978 353.83735657 186.16589355 C353.83727481 187.08510841 353.83719304 188.00432326 353.83710881 188.95139311 C353.83629635 203.84007037 353.85542222 218.72864635 353.8836333 233.61729433 C353.9123746 248.90654425 353.92617282 264.19574481 353.92444575 279.48502243 C353.92378214 288.06800159 353.92926108 296.65087468 353.95080185 305.2338295 C353.96903033 312.54390464 353.97334755 319.85382563 353.959783 327.16391368 C353.95326093 330.89177878 353.95310813 334.61934831 353.9704895 338.34718513 C353.98916494 342.39432799 353.9766455 346.44078907 353.96122742 350.48794556 C353.97151454 351.65839169 353.98180167 352.82883782 353.99240053 354.03475201 C353.90903987 363.94832145 351.58165032 372.28504596 344.61390668 379.58580935 C335.97531532 386.86229876 327.10281551 388.26862415 316.13858032 388.14285278 C314.72806881 388.14834581 313.31756553 388.15646007 311.90708226 388.16694009 C308.06330581 388.18795963 304.22047003 388.17195918 300.37673557 388.1494391 C296.21923202 388.13166004 292.06184533 388.14866911 287.90434265 388.16116333 C279.77339813 388.18008707 271.64280996 388.16698677 263.511892 388.14263745 C254.03686099 388.115325 244.56191378 388.11867942 235.08685341 388.12290411 C218.17947746 388.12927598 201.27227035 388.10599209 184.36494446 388.06677246 C167.96905885 388.02874937 151.573371 388.01460305 135.17744446 388.02575684 C117.30684538 388.03787791 99.43633312 388.03750963 81.56574124 388.01478517 C79.65964361 388.01237067 77.75354598 388.0099587 75.84744835 388.00754929 C74.90969301 388.00634221 73.97193767 388.00513513 73.0057655 388.00389148 C66.40494971 387.99614072 59.8041663 387.9969174 53.20334816 388.00072098 C45.15889367 388.00496916 37.11461213 387.99448406 29.07020632 387.96549387 C24.96776636 387.95102752 20.86557802 387.94283321 16.76311684 387.95198059 C13.0047167 387.96015691 9.24683523 387.94973751 5.48851361 387.92472844 C3.49154541 387.91613579 1.49452239 387.92702786 -0.50243014 387.93870699 C-11.02481412 387.83628579 -18.13904927 385.39774713 -25.8144989 378.16394043 C-34.71267712 369.00286149 -34.97972892 356.66268933 -34.9074707 344.52853394 C-34.91021757 343.16824173 -34.914275 341.80795166 -34.91951436 340.44766676 C-34.93001809 336.74288233 -34.92202684 333.03834209 -34.91076386 329.33356857 C-34.90187086 325.32536064 -34.91037995 321.31718293 -34.91662598 317.30897522 C-34.92608593 309.47056185 -34.91953904 301.63224091 -34.90736303 293.79383443 C-34.89370303 284.65790507 -34.89538438 275.52199741 -34.89749637 266.38606043 C-34.90068207 250.0821838 -34.88904193 233.77835095 -34.86943054 217.4744873 C-34.85042194 201.6675076 -34.84334516 185.86057918 -34.84892273 170.05358887 C-34.854985 152.8220819 -34.85479572 135.59059745 -34.8434369 118.35909235 C-34.84222966 116.52066143 -34.84102367 114.68223051 -34.83981895 112.84379959 C-34.83921542 111.93935429 -34.83861188 111.03490898 -34.83799005 110.10305624 C-34.83411652 103.74016331 -34.83450231 97.37727877 -34.8364048 91.01438522 C-34.83853019 83.25803876 -34.83327646 75.50173713 -34.81879125 67.74540327 C-34.81156431 63.79074077 -34.8074557 59.83614344 -34.81203461 55.88147545 C-34.81612902 52.2570178 -34.81089474 48.63269435 -34.79840853 45.00825699 C-34.79412204 43.08558532 -34.79955106 41.16289943 -34.80539781 39.24023187 C-34.74279567 26.80450939 -33.34715512 17.64474328 -24.6426239 8.38269043 C-17.18817264 1.38313679 -9.92585355 -0.05522021 0 0 Z " fill="#42A4F4" transform="translate(55.53324890136719,124.6055908203125)"/>
</svg>
